<?xml version="1.0" standalone="no"?>
<!DOCTYPE svg PUBLIC "-//W3C//DTD SVG 1.1//EN" "http://www.w3.org/Graphics/SVG/1.1/DTD/svg11.dtd" >
<svg xmlns="http://www.w3.org/2000/svg" xmlns:xlink="http://www.w3.org/1999/xlink" version="1.1">
<metadata>
Created by FontForge 20170731 at Sun Aug 21 13:27:22 2005
 By Aleksey,,,
Copyright (c) Frantisek Storm,www.stormtype.com, 2005. All rights reserved.
</metadata>
<defs>
<font id="LidoSTF-Bold" horiz-adv-x="722" >
  <font-face 
    font-family="Lido STF"
    font-weight="700"
    font-stretch="normal"
    units-per-em="1000"
    panose-1="2 0 8 3 8 0 0 2 0 3"
    ascent="800"
    descent="-200"
    x-height="471"
    cap-height="678"
    bbox="-151 -308 1595 935"
    underline-thickness="50"
    underline-position="-200"
    unicode-range="U+0020-FB02"
  />
<missing-glyph horiz-adv-x="500" 
 />
    <glyph glyph-name="fi" unicode="fi" horiz-adv-x="587" 
d="M214 409q-1 -47 -1.5 -85.5t-1 -73t-0.5 -67.5v-69q0 -26 1.5 -42.5t6.5 -26.5t14.5 -13.5t24.5 -3.5v-28h-210v28q15 0 23.5 17t8.5 69v295h-58v28q58 6 58 48q0 45 20.5 83.5t55.5 66.5t81.5 44t98.5 16q85 0 131 -23.5t46 -73.5q0 -36 -22.5 -53.5t-48.5 -17.5
q-25 0 -45 14.5t-20 41.5q0 14 2 21t2 18q0 13 -11 24t-45 11q-23 0 -44 -7t-37 -25t-25 -49.5t-9 -80.5v-49q82 0 155 11t142 29q-2 -99 -2.5 -190t-0.5 -182q0 -32 2 -49t6 -25.5t10.5 -10t14.5 -1.5v-28h-196v28q14 0 23 17t9 69v295h-159z" />
    <glyph glyph-name="fl" unicode="fl" horiz-adv-x="587" 
d="M373 557q0 56 -14.5 78t-60.5 22q-41 0 -64.5 -27.5t-23.5 -98.5v-85q49 0 87.5 3t75.5 8v100zM438 635q25 22 40.5 39.5t20.5 17.5t9 -2t4 -5q0 -6 -1.5 -39.5t-3 -102t-2.5 -174t-1 -255.5q0 -52 8.5 -69t23.5 -17v-28h-195v28q15 0 23.5 17t8.5 69v295h-159
q-1 -47 -1.5 -85.5t-1 -73t-0.5 -67.5v-69q0 -26 1.5 -42.5t6.5 -26.5t14.5 -13.5t24.5 -3.5v-28h-210v28q15 0 23.5 17t8.5 69v295h-58v28q58 6 58 48q0 45 17 83.5t46 66t69 43.5t87 16q54 0 87.5 -16.5t51.5 -42.5z" />
    <glyph glyph-name=".notdef" horiz-adv-x="500" 
 />
    <glyph glyph-name=".null" horiz-adv-x="0" 
 />
    <glyph glyph-name="nonmarkingreturn" horiz-adv-x="188" 
 />
    <glyph glyph-name="space" unicode=" " horiz-adv-x="188" 
 />
    <glyph glyph-name="space" unicode="&#xa0;" horiz-adv-x="188" 
 />
    <glyph glyph-name="exclam" unicode="!" horiz-adv-x="345" 
d="M157 197q-9 99 -21 163t-22.5 107.5t-18 73.5t-7.5 62q0 48 23 68t62 20q38 0 61 -20t23 -68q0 -32 -7.5 -62t-18 -73.5t-22.5 -107.5t-21 -163h-31zM96 65q0 32 22.5 55.5t56.5 23.5q32 0 55 -23.5t23 -55.5q0 -34 -23 -56t-55 -22q-34 0 -56.5 22.5t-22.5 55.5z" />
    <glyph glyph-name="quotedbl" unicode="&#x22;" horiz-adv-x="427" 
d="M96 391q-6 33 -13.5 70t-15 70t-12.5 57.5t-5 33.5q0 32 18 52t48 20t48.5 -20t18.5 -52q0 -9 -5 -33.5t-12.5 -57.5t-15 -70t-13.5 -70h-41zM290 391q-6 33 -13.5 70t-15 70t-12.5 57.5t-5 33.5q0 32 18 52t48 20t48.5 -20t18.5 -52q0 -9 -5 -33.5t-12.5 -57.5t-15 -70
t-13.5 -70h-41z" />
    <glyph glyph-name="numbersign" unicode="#" horiz-adv-x="532" 
d="M482 198h-97l-27 -198h-78l27 198h-113l-27 -198h-78l27 198h-96l1 73h106l18 134h-96l1 73h105l28 200h77l-27 -200h113l28 200h77l-27 -200h88l-1 -73h-97l-18 -134h87zM223 405l-18 -134h113l18 134h-113z" />
    <glyph glyph-name="dollar" unicode="$" horiz-adv-x="571" 
d="M249 14q-46 0 -84 10.5t-65.5 29t-43 45t-15.5 59.5q0 34 19 50.5t42 16.5q20 0 36.5 -14t16.5 -42q0 -108 94 -111v212q-32 14 -65 30.5t-60 40t-44 57t-17 82.5q0 39 14.5 72t39.5 58t59 40.5t73 19.5v74h50v-74q91 -1 138.5 -35.5t47.5 -91.5q0 -34 -19 -51t-42 -17
q-20 0 -36.5 14t-16.5 43q0 19 -2.5 36t-10 29.5t-21.5 20t-38 8.5v-205q34 -17 70.5 -35t66.5 -42.5t49.5 -58t19.5 -81.5q0 -39 -15.5 -71.5t-43 -57t-65.5 -40t-82 -19.5v-79h-50v77v0zM299 59q37 5 56.5 26t19.5 64q0 35 -21.5 60t-54.5 40v-190v0zM249 626
q-32 -7 -50.5 -29.5t-18.5 -58.5q0 -30 18.5 -54t50.5 -40v182z" />
    <glyph glyph-name="percent" unicode="%" horiz-adv-x="810" 
d="M736 678l-570 -678h-93l570 678h93zM206 319q-32 0 -61.5 12t-51.5 34t-35 53.5t-13 70.5q0 36 12 72t35 64.5t56 46.5t75 18q38 0 69 -15t53 -40t34 -57t12 -66t-11 -68.5t-33.5 -62t-57.5 -45t-83 -17.5zM225 354q24 0 39 26t15 88q0 37 -4 71t-12.5 59.5t-21 41
t-29.5 15.5q-24 0 -39 -34t-15 -85q0 -38 4 -71t12.5 -58t21 -39t29.5 -14zM580 -10q-32 0 -61.5 12t-51.5 34t-35 53.5t-13 70.5q0 36 12 72t35 64.5t56 46.5t75 18q38 0 69 -15t53 -40t34 -57t12 -66t-11 -68.5t-33.5 -62t-57.5 -45t-83 -17.5zM600 25q23 0 38 26t15 88
q0 37 -4 71t-12 59.5t-20.5 41t-30.5 15.5q-24 0 -38.5 -34t-14.5 -85q0 -38 4 -71t12 -58t21 -39t30 -14z" />
    <glyph glyph-name="ampersand" unicode="&#x26;" horiz-adv-x="788" 
d="M449 75q-46 -45 -105.5 -68t-122.5 -23q-45 0 -78 16t-55.5 41t-33.5 55t-11 57q0 40 10.5 72.5t33 60.5t57.5 52t85 47q-20 38 -32 78.5t-12 76.5q0 70 50 112t151 42q41 0 71 -11t50 -28.5t29.5 -39.5t9.5 -45q0 -40 -38 -82.5t-127 -76.5q29 -50 67 -102t80 -103
q32 44 51 86t19 72q0 21 -10.5 39t-35.5 18v28h204v-28q-14 -2 -24.5 -5.5t-21.5 -15t-25.5 -33.5t-36.5 -60q-17 -30 -42.5 -65t-53.5 -65q38 -40 73.5 -66t64.5 -26q25 0 39.5 11t19.5 29l25 -9q-14 -65 -56.5 -95.5t-103.5 -30.5q-40 0 -82 20.5t-83 64.5zM427 97
q-53 54 -101.5 121.5t-81.5 134.5q-34 -18 -48.5 -45.5t-14.5 -58.5q0 -35 13 -69t35 -60.5t51 -42.5t62 -16q20 0 42 9t43 27zM363 441q44 19 62 49t18 62q0 21 -6 40t-16.5 33.5t-25 23t-32.5 8.5q-28 0 -44 -15t-16 -45q0 -60 60 -156z" />
    <glyph glyph-name="quotesingle" unicode="'" horiz-adv-x="233" 
d="M96 391q-6 33 -13.5 70t-15 70t-12.5 57.5t-5 33.5q0 32 18 52t48 20t48.5 -20t18.5 -52q0 -9 -5 -33.5t-12.5 -57.5t-15 -70t-13.5 -70h-41z" />
    <glyph glyph-name="parenleft" unicode="(" horiz-adv-x="399" 
d="M407 -219q-68 30 -126.5 69.5t-101.5 94.5t-67 129t-24 172q0 99 25.5 174.5t69 132t101.5 95t123 63.5l12 -27q-89 -42 -134 -145t-45 -280q0 -102 12.5 -177t35.5 -129t56.5 -89t74.5 -56z" />
    <glyph glyph-name="parenright" unicode=")" horiz-adv-x="399" 
d="M-8 711q68 -30 126.5 -69.5t101 -94.5t67 -129t24.5 -172q0 -99 -25.5 -174.5t-69 -132t-101.5 -95t-123 -63.5l-12 27q89 42 134 145t45 280q0 102 -12.5 177t-36 129t-56.5 89t-74 56z" />
    <glyph glyph-name="asterisk" unicode="*" horiz-adv-x="520" 
d="M234 469q-16 3 -36.5 3.5t-43.5 -3.5q-25 -2 -39.5 -2.5t-30.5 4.5q-26 8 -31.5 30t0.5 42q7 20 24.5 34.5t41.5 6.5q23 -8 60 -41q17 -16 34 -27t31 -17q-2 16 -8 36t-16 40q-11 23 -15.5 37t-4.5 31q0 26 19 38.5t40 12.5t40 -12t19 -38q0 -14 -4.5 -30t-15.5 -40
q-10 -20 -15 -40.5t-6 -34.5q14 7 31 18.5t33 27.5q19 17 30 26t28 14q26 8 43 -6t24 -34t1 -42t-30 -30q-13 -4 -30 -4.5t-43 2.5q-22 3 -42.5 2t-34.5 -5q11 -11 27 -23.5t36 -23.5q22 -13 33.5 -21t22.5 -22q16 -22 7.5 -42.5t-25.5 -33.5t-39.5 -14t-37.5 19
q-8 11 -14 27t-11 42q-4 22 -11 41t-15 32q-8 -14 -15 -33t-10 -42q-5 -25 -9.5 -38.5t-14.5 -27.5q-16 -22 -38.5 -20.5t-39.5 13.5t-25 33.5t7 41.5q8 11 21 21t36 23q20 11 36.5 24.5t25.5 24.5z" />
    <glyph glyph-name="plus" unicode="+" horiz-adv-x="584" 
d="M248 603h88v-219h218v-88h-218v-219h-88v219h-218v88h218v219z" />
    <glyph glyph-name="comma" unicode="," horiz-adv-x="274" 
d="M45 -159q63 31 87 65.5t24 70.5q0 21 -10 27.5t-25 6.5q-30 0 -50 19t-20 51q0 14 5 28t15 25.5t25 19t36 7.5q25 0 43.5 -11t30.5 -29t17.5 -41t5.5 -47q0 -74 -38.5 -131.5t-128.5 -96.5z" />
    <glyph glyph-name="hyphen" unicode="-" horiz-adv-x="308" 
d="M278 198h-248v116h248v-116z" />
    <glyph glyph-name="period" unicode="." horiz-adv-x="259" 
d="M45 71q0 34 24 59.5t60 25.5q18 0 33.5 -7t27 -18.5t18 -27t6.5 -32.5q0 -36 -25 -60t-60 -24q-36 0 -60 24.5t-24 59.5z" />
    <glyph glyph-name="slash" unicode="/" horiz-adv-x="401" 
d="M89 0h-93l312 678h93z" />
    <glyph glyph-name="zero" unicode="0" horiz-adv-x="526" 
d="M263 691q47 0 88 -27.5t72 -75t48.5 -111.5t17.5 -137t-17.5 -137t-48.5 -112t-72 -75.5t-88 -27.5t-88 27.5t-72 75.5t-48.5 112t-17.5 137t17.5 137t48.5 111.5t72 75t88 27.5zM263 651q-22 0 -36 -15t-22 -51t-11 -96.5t-3 -151.5q0 -86 3 -145.5t11 -96.5t22 -54
t36 -17t36 17t22 54t11 96.5t3 145.5q0 91 -3 151.5t-11 96.5t-22 51t-36 15z" />
    <glyph glyph-name="one" unicode="1" horiz-adv-x="526" 
d="M87 0v28h53q24 0 38.5 3t22.5 11.5t10.5 24.5t2.5 42v405q0 41 -12.5 48t-45.5 -7l-85 -34l-10 30q11 4 34.5 14t53 23.5t62 28.5t61 28.5t49 25t27.5 18.5q2 2 8 2q5 0 9 -2t4 -5q0 -12 -3.5 -151t-3.5 -424q0 -26 2.5 -42t10 -24.5t21.5 -11.5t36 -3h44v-28h-389z" />
    <glyph glyph-name="two" unicode="2" horiz-adv-x="526" 
d="M24 24q78 69 135 124.5t95 103t56.5 90t18.5 85.5q0 29 -10.5 53.5t-28 42.5t-41 28t-50.5 10q-58 0 -93.5 -30t-42.5 -93l-23 3q0 59 18.5 105.5t49.5 79t72 49.5t86 17q39 0 74.5 -13.5t62 -38t42 -59.5t15.5 -77q0 -63 -27.5 -117.5t-69 -102t-90 -88t-91.5 -74.5h109
q55 0 87.5 4.5t50.5 13t26 21t13 28.5l27 -3l-37 -186h-428q-7 0 -9 9.5t3 14.5z" />
    <glyph glyph-name="three" unicode="3" horiz-adv-x="526" 
d="M70 532q-1 -2 -5 -2q-5 0 -10 4t-5 9q10 32 29 59t45.5 47t60 31.5t71.5 11.5q46 0 80.5 -12.5t57 -33.5t33.5 -48.5t11 -58.5q0 -48 -30 -92.5t-104 -73.5q39 -2 71.5 -14.5t55.5 -34.5t36 -51t13 -62q0 -48 -19 -89.5t-55.5 -72t-90.5 -48t-123 -17.5q-44 0 -74 9.5
t-48.5 24t-26.5 32t-8 32.5q0 34 21.5 55t63.5 21q0 -20 6 -40.5t19 -37t34.5 -27t52.5 -10.5q30 0 51 11t35 28.5t20.5 40t6.5 46.5q0 27 -10 54t-33 48.5t-60 34.5t-91 13v23q40 3 68.5 16t47.5 32.5t28 43.5t9 47q0 22 -7.5 42.5t-22.5 36.5t-36.5 25t-49.5 9
q-46 0 -72 -18t-46 -44z" />
    <glyph glyph-name="four" unicode="4" horiz-adv-x="526" 
d="M286 251v262q-22 -28 -44.5 -61t-44.5 -68t-41 -69t-34 -64h164zM500 251v-92h-77v-159h-137v159h-246q-8 0 -13 8t2 22q33 64 70.5 129.5t78 129t82.5 123t85 112.5q3 2 12 3t20.5 1t24.5 -1t23 -3q0 -10 -0.5 -27.5t-0.5 -56t-0.5 -104t-0.5 -171.5v-73h77z" />
    <glyph glyph-name="five" unicode="5" horiz-adv-x="526" 
d="M158 455q80 -2 138 -22.5t95.5 -53.5t55.5 -76.5t18 -92.5q0 -45 -17.5 -86t-50.5 -72t-80.5 -49.5t-108.5 -18.5q-44 0 -74.5 9t-49.5 24t-28 34t-9 38q0 42 24 65.5t64 25.5q0 -65 33 -101t81 -36q60 0 89 29t29 77q0 33 -14 64.5t-47 56.5t-88.5 40t-139.5 15l82 353
h301l-27 -137h-257l-19 -86v0z" />
    <glyph glyph-name="six" unicode="6" horiz-adv-x="526" 
d="M181 238q0 -40 6 -78.5t17 -69t28 -49t39 -18.5q32 0 54.5 37t22.5 119q0 38 -4 76t-14 68t-25.5 48.5t-38.5 18.5q-34 0 -59.5 -40t-25.5 -112zM186 367q23 44 57.5 60.5t69.5 16.5q36 0 68.5 -14t57 -41.5t39 -68t14.5 -92.5q0 -47 -15.5 -90t-45.5 -76.5t-72.5 -53.5
t-96.5 -20q-49 0 -90.5 19.5t-71.5 55.5t-47 87.5t-17 115.5q0 99 34.5 178t92 134t132 84.5t154.5 29.5v-23q-43 -5 -88 -29.5t-83 -64.5t-64.5 -93t-32.5 -113l5 -2v0z" />
    <glyph glyph-name="seven" unicode="7" horiz-adv-x="526" 
d="M495 659q-37 -64 -73.5 -139.5t-67 -157.5t-52 -167t-29.5 -167q-1 -9 -9.5 -16.5t-20.5 -12t-27 -7t-30 -2.5q-14 0 -27.5 2.5t-25 8.5t-18 15.5t-4.5 24.5q5 46 30 102t61 120t79.5 134t86.5 144h-185q-29 0 -48 -4t-33 -13.5t-23.5 -25t-18.5 -37.5l-25 6l48 211h406
q8 0 8 -12q0 -3 -2 -7z" />
    <glyph glyph-name="eight" unicode="8" horiz-adv-x="526" 
d="M181 571q0 -27 9 -47t26 -37t40.5 -33t52.5 -35q17 23 30 48t13 70q0 31 -7.5 53t-20 36t-28.5 20t-32 6q-32 0 -57.5 -20.5t-25.5 -60.5zM277 692q46 0 82 -13t61.5 -34t39 -48t13.5 -55q0 -43 -33 -81.5t-105 -56.5q80 -45 117 -102t37 -114q0 -40 -17.5 -76
t-50.5 -63.5t-81.5 -44t-109.5 -16.5q-42 0 -77.5 14.5t-61 38t-39.5 54t-14 63.5q0 49 36 94.5t117 71.5q-73 38 -107 89.5t-34 103.5q0 34 15 66t44 56t71 38.5t97 14.5zM162 157q0 -34 8.5 -59.5t22.5 -42.5t31.5 -25.5t35.5 -8.5q33 0 59.5 28.5t26.5 86.5q0 31 -11 55
t-30 44t-43 37t-49 34q-11 -17 -20.5 -32t-16.5 -32t-10.5 -37.5t-3.5 -47.5z" />
    <glyph glyph-name="nine" unicode="9" horiz-adv-x="526" 
d="M58 -12q-4 0 -6.5 7t-2.5 12q0 10 9 10q58 -2 111 29.5t93 84t63.5 121t23.5 141.5q0 127 -26 194.5t-72 67.5q-38 0 -57 -40t-19 -112q0 -34 4 -72.5t14.5 -71t27.5 -54t43 -21.5q16 0 23.5 2t17.5 7l9 -21q-20 -17 -44 -26t-56 -9q-44 0 -77.5 18.5t-56 49.5t-34.5 70
t-12 81q0 43 13.5 85.5t41 76t70 54t99.5 20.5q58 0 101.5 -21.5t72.5 -58t43 -84.5t14 -101q0 -75 -27.5 -153t-81.5 -141.5t-135 -104t-187 -40.5z" />
    <glyph glyph-name="colon" unicode=":" horiz-adv-x="269" 
d="M50 391q0 34 24 59.5t60 25.5q18 0 33.5 -7t27 -18.5t18 -27t6.5 -32.5q0 -36 -25 -60t-60 -24q-36 0 -60 24.5t-24 59.5zM50 71q0 34 24 59.5t60 25.5q18 0 33.5 -7t27 -18.5t18 -27t6.5 -32.5q0 -36 -25 -60t-60 -24q-36 0 -60 24.5t-24 59.5z" />
    <glyph glyph-name="semicolon" unicode=";" horiz-adv-x="284" 
d="M50 391q0 34 24 59.5t60 25.5q18 0 33.5 -7t27 -18.5t18 -27t6.5 -32.5q0 -36 -25 -60t-60 -24q-36 0 -60 24.5t-24 59.5zM50 -159q63 31 87 65.5t24 70.5q0 21 -10 27.5t-25 6.5q-30 0 -50 19t-20 51q0 14 5 28t15 25.5t25 19t36 7.5q25 0 43.5 -11t30.5 -29t17.5 -41
t5.5 -47q0 -74 -38.5 -131.5t-128.5 -96.5z" />
    <glyph glyph-name="less" unicode="&#x3c;" horiz-adv-x="595" 
d="M565 81l-535 223v76l535 223v-92l-405 -169l405 -169v-92z" />
    <glyph glyph-name="equal" unicode="=" horiz-adv-x="589" 
d="M559 398h-529v88h529v-88zM559 194h-529v88h529v-88z" />
    <glyph glyph-name="greater" unicode="&#x3e;" horiz-adv-x="595" 
d="M30 603l535 -223v-76l-535 -223v92l405 169l-405 169v92z" />
    <glyph glyph-name="question" unicode="?" horiz-adv-x="515" 
d="M229 197q-1 16 -1.5 27.5t-0.5 20.5q0 35 12.5 62.5t27.5 58.5t27.5 70t12.5 98q0 63 -21 91.5t-66 28.5q-29 0 -45 -13t-16 -34q0 -15 4.5 -23t10.5 -16.5t10.5 -19.5t4.5 -32q0 -32 -23 -49.5t-51 -17.5q-14 0 -28 5t-24.5 15.5t-17 26t-6.5 37.5q0 72 54.5 116.5
t160.5 44.5q104 0 158.5 -45t54.5 -121q0 -41 -15 -71t-38 -55t-49.5 -46.5t-49.5 -44.5t-38 -50.5t-15 -63.5h-33zM171 65q0 32 22.5 55.5t56.5 23.5q32 0 55 -23.5t23 -55.5q0 -34 -23 -56t-55 -22q-34 0 -56.5 22.5t-22.5 55.5z" />
    <glyph glyph-name="at" unicode="@" horiz-adv-x="958" 
d="M614 3q-50 0 -69 20t-19 48q0 21 5 44t11 42l-7 2q-38 -83 -87.5 -121.5t-106.5 -38.5q-42 0 -70 28t-28 89q0 42 14 87t39 87.5t60 80.5t76.5 66.5t88.5 45t96 16.5q42 0 63.5 -5t32.5 -5q13 0 13 -13q-6 -15 -14.5 -43t-18 -62.5t-19.5 -72.5t-19 -73t-16.5 -64
t-11.5 -45q-5 -17 -6 -25t-1 -13q0 -14 7 -20t18 -6q25 0 58.5 17t63.5 56t50.5 102.5t20.5 156.5q0 61 -20.5 106.5t-55 76t-80 45.5t-96.5 15q-101 0 -182.5 -41.5t-139 -108.5t-88.5 -152.5t-31 -173.5q0 -63 20 -118t59.5 -96t97.5 -64.5t135 -23.5q60 0 120 13t115 43
l13 -30q-72 -36 -145 -54.5t-143 -18.5q-75 0 -143.5 22t-120 67t-82 113.5t-30.5 161.5q0 84 23 155.5t62.5 128.5t93 100.5t114 73t125 44t126.5 14.5q78 0 141.5 -19.5t107.5 -58t68 -95t24 -129.5q0 -97 -30 -168t-76.5 -117.5t-101.5 -69t-104 -22.5zM595 460
q-44 0 -83.5 -28.5t-69.5 -72.5t-47.5 -97.5t-17.5 -104.5q0 -35 11 -48.5t28 -13.5q13 0 30.5 8.5t35.5 30.5t36 59.5t33 94.5l44 172v0z" />
    <glyph glyph-name="A" unicode="A" horiz-adv-x="670" 
d="M374 238l-51 125q-16 38 -25 68t-13 49h-6q-5 -20 -16.5 -51.5t-23.5 -62.5l-49 -128h184zM172 191l-19 -51q-14 -35 -14 -61q0 -29 18 -40t47 -11v-28h-214v28q14 0 28.5 9.5t33.5 38.5t44 83.5t59 144.5l144 379h57l203 -469q29 -67 46 -104.5t29 -55.5t22 -22t24 -4
v-28h-313v28q41 0 58 8t17 25q0 12 -5 23l-44 107h-221z" />
    <glyph glyph-name="B" unicode="B" horiz-adv-x="682" 
d="M256 120q0 -41 22.5 -60.5t73.5 -19.5q66 0 100 33t34 101q0 29 -8.5 57t-29.5 50.5t-55.5 36t-86.5 13.5h-49q-1 -53 -1 -105.5v-105.5zM334 373q33 0 55 11t35 29t18 41.5t5 49.5t-6.5 50t-21.5 42t-39 29t-60 11q-21 0 -33 -1.5t-26 -3.5q-3 -129 -3 -258h76zM55 28
h10q23 0 32 17t9 69v450q0 52 -9 69t-32 17h-10v28h293q68 0 116.5 -14t79.5 -37.5t45.5 -54.5t14.5 -65q0 -59 -44.5 -100t-131.5 -46v-8q60 -4 101.5 -20t68 -40.5t38.5 -55.5t12 -65q0 -37 -14 -68.5t-45.5 -54.5t-83.5 -36t-128 -13h-322v28z" />
    <glyph glyph-name="C" unicode="C" horiz-adv-x="621" 
d="M582 440q0 -3 -4.5 -5t-9.5 -2t-9.5 2t-4.5 5q0 41 -12.5 76.5t-34 62t-50 41.5t-61.5 15q-48 0 -84 -23.5t-60 -64.5t-36 -97t-12 -121q0 -64 11.5 -115t36 -86t63 -54t92.5 -19q27 0 52.5 8.5t47 24.5t37 39.5t22.5 54.5l23 -7q-7 -34 -22 -68t-41.5 -61.5t-66.5 -44.5
t-96 -17q-86 0 -148 28t-102.5 73.5t-59.5 105t-19 122.5q0 78 28 147t78 121t118 82.5t149 30.5q33 0 61.5 -3.5t51 -8t38.5 -8.5t24 -4v-230z" />
    <glyph glyph-name="D" unicode="D" 
d="M261 634q-2 -131 -3.5 -259.5t-1.5 -259.5q0 -41 14.5 -58t62.5 -17q40 0 74.5 14.5t59.5 47.5t39 86.5t14 130.5q0 152 -58 233.5t-164 81.5h-37v0zM55 28h10q23 0 32 17t9 69v450q0 52 -9 69t-32 17h-10v28h230q104 0 179.5 -26t124 -72.5t72 -110.5t23.5 -141
q0 -64 -16.5 -123t-57 -104.5t-108.5 -73t-172 -27.5h-275v28z" />
    <glyph glyph-name="E" unicode="E" horiz-adv-x="649" 
d="M575 678l5 -196h-28q-5 69 -54 111t-146 42h-90q-2 -78 -2.5 -144t-1.5 -126h51q50 0 79.5 36t29.5 103h28v-320h-28q0 27 -4 52t-16 44.5t-33.5 31t-55.5 11.5h-52q-1 -56 -1 -105.5v-94.5q0 -47 25 -65t89 -18q54 0 94.5 13t68 35.5t43.5 52.5t21 64h28l-10 -205h-560
v28h10q23 0 32 17t9 69v450q0 52 -9 69t-32 17h-10v28h520z" />
    <glyph glyph-name="F" unicode="F" horiz-adv-x="599" 
d="M598 678l5 -196h-28q-5 69 -54 110.5t-146 42.5h-113q-2 -78 -2.5 -144t-1.5 -126h61q50 0 79.5 36t29.5 103h28v-320h-28q0 27 -4 52t-16 44.5t-33.5 31t-55.5 11.5h-62q-1 -56 -1 -107v-102q0 -52 9 -69t32 -17h10v-28h-252v28h10q23 0 32 17t9 69v450q0 52 -9 69
t-32 17h-10v28h543z" />
    <glyph glyph-name="G" unicode="G" horiz-adv-x="716" 
d="M614 449q0 -3 -4.5 -5t-9.5 -2t-9 2t-5 5q-8 91 -53 142t-110 51q-104 0 -161.5 -81t-57.5 -228q0 -68 14 -124.5t40 -97t63 -63t83 -22.5q37 0 52.5 18t15.5 41v159q0 17 -5 27.5t-18 16t-35.5 7.5t-56.5 2v28h344v-28q-38 0 -53.5 -13.5t-15.5 -60.5v-172
q-38 -19 -73 -32t-69.5 -20.5t-69.5 -11t-72 -3.5q-75 0 -133 25.5t-98.5 70t-61.5 104.5t-21 129q0 94 34 165t89 119t125 72.5t141 24.5q35 0 66.5 -4t56 -8.5t42.5 -8t26 -3.5v-221z" />
    <glyph glyph-name="H" unicode="H" horiz-adv-x="772" 
d="M257 321q-1 -51 -1 -102.5v-104.5q0 -52 9 -69t32 -17h10v-28h-252v28h10q23 0 32 17t9 69v450q0 52 -9 69t-32 17h-10v28h257v-28h-10q-23 0 -31.5 -17t-9.5 -69q-3 -93 -3 -189h253v189q0 52 -9 69t-32 17h-10v28h257v-28h-10q-23 0 -31.5 -17t-9.5 -69
q-2 -113 -3.5 -225t-1.5 -225q0 -52 9 -69t32 -17h10v-28h-252v28h10q23 0 32 17t9 69v207h-254z" />
    <glyph glyph-name="I" unicode="I" horiz-adv-x="367" 
d="M261 564q-2 -113 -3.5 -225t-1.5 -225q0 -52 9 -69t32 -17h10v-28h-252v28h10q23 0 32 17t9 69v450q0 52 -9 69t-32 17h-10v28h257v-28h-10q-23 0 -31.5 -17t-9.5 -69z" />
    <glyph glyph-name="J" unicode="J" horiz-adv-x="462" 
d="M367 188q0 -104 -60 -154.5t-169 -50.5q-36 0 -61 7t-40.5 19.5t-22.5 28.5t-7 34q0 33 17.5 51t49.5 18q18 0 29.5 -6.5t19 -16.5t10.5 -23t3 -25q0 -14 9 -23.5t26 -9.5q20 0 33 18.5t13 58.5v450q0 52 -9 69t-32 17h-10v28h257v-28h-10q-23 0 -31.5 -17t-9.5 -69
q-2 -102 -3.5 -199t-1.5 -177z" />
    <glyph glyph-name="K" unicode="K" horiz-adv-x="696" 
d="M484 0q-31 39 -59.5 79t-55 79.5t-52.5 77.5t-53 71l179 233q28 37 28 66q0 20 -14 32t-40 12v28h266v-28q-33 -2 -74 -25t-76 -63l-148 -169q39 -45 71 -87.5t65 -87.5q42 -57 71 -93.5t48.5 -57.5t31.5 -29.5t21 -9.5v-28h-209v0zM261 564q-2 -113 -3.5 -225t-1.5 -225
q0 -52 9 -69t32 -17h10v-28h-252v28h10q23 0 32 17t9 69v450q0 52 -9 69t-32 17h-10v28h257v-28h-10q-23 0 -31.5 -17t-9.5 -69z" />
    <glyph glyph-name="L" unicode="L" horiz-adv-x="596" 
d="M55 0v28h10q23 0 32 17t9 69v450q0 52 -9 69t-32 17h-10v28h257v-28h-10q-23 0 -31.5 -17t-9.5 -69q-2 -113 -3.5 -221t-1.5 -198q0 -55 24.5 -76.5t72.5 -21.5q85 0 137 49.5t75 145.5h28l-17 -242h-521z" />
    <glyph glyph-name="M" unicode="M" horiz-adv-x="898" 
d="M460 242q4 20 15 53.5t23 65.5l118 317h227v-28h-10q-23 0 -31.5 -17t-9.5 -69q-2 -113 -3.5 -225t-1.5 -225q0 -52 9 -69t32 -17h10v-28h-258v28h16q23 0 32 17t9 69v372q0 50 1 74t1 29h-4q-2 -14 -13.5 -48t-25.5 -72l-165 -464q-1 -3 -8 -4.5t-11 -1.5
q-5 0 -11.5 1.5t-8.5 4.5l-184 464q-14 39 -25.5 72.5t-13.5 47.5h-4q0 -5 1 -29t1 -74v-323q0 -41 5.5 -67t16 -41t26 -21t35.5 -6h17v-28h-212v28h11q13 0 22.5 4.5t14.5 18t7.5 38.5t2.5 66v409q0 52 -9 69t-32 17h-17v28h242l119 -314q14 -38 24 -69.5t15 -52.5h5z" />
    <glyph glyph-name="N" unicode="N" horiz-adv-x="741" 
d="M575 264q0 9 -1 34t-1 75v158q0 34 -7 57t-19.5 36.5t-30 19.5t-39.5 6h-12v28h231v-28h-10q-11 0 -22 -4t-19 -15.5t-13 -32.5t-5 -55v-543q0 -5 -10 -6.5t-19 -1.5q-4 0 -8 0.5t-6 2.5l-327 440q-21 29 -38 55t-25 43l-4 -1q0 -8 1 -32.5t1 -74.5v-266q0 -41 6.5 -66.5
t19.5 -39.5t32 -19.5t45 -5.5h12v-28h-242v28h10q9 0 19.5 4t19 17.5t14.5 39t6 67.5v413q0 21 -7.5 36.5t-18 25t-22.5 14.5t-21 5h-10v28h216l237 -315q7 -9 16 -22.5t18 -28t16.5 -27.5t12.5 -22l4 1v0z" />
    <glyph glyph-name="O" unicode="O" horiz-adv-x="748" 
d="M372 641q-39 0 -69.5 -22t-51 -61t-31.5 -93.5t-11 -120.5q0 -72 11.5 -130.5t33.5 -100t53.5 -63.5t70.5 -22q33 0 62.5 17t51.5 54t34.5 94.5t12.5 137.5q0 71 -11 128.5t-32.5 98t-52.5 62t-71 21.5zM395 694q67 0 125.5 -25.5t101.5 -70.5t67.5 -107.5t24.5 -136.5
q0 -92 -29 -161t-77.5 -115.5t-113 -70t-135.5 -23.5q-67 0 -126 21.5t-103.5 64.5t-70 108t-25.5 153q0 72 24 137.5t70.5 115.5t113.5 80t153 30z" />
    <glyph glyph-name="P" unicode="P" horiz-adv-x="640" 
d="M257 292q-1 -48 -1 -93v-85q0 -52 9 -69t32 -17h19v-28h-261v28h10q23 0 32 17t9 69v450q0 52 -9 69t-32 17h-10v28h334q57 0 101 -15.5t74 -42.5t45.5 -64.5t15.5 -82.5q0 -51 -23 -88t-59.5 -61t-81.5 -35.5t-89 -11.5q-66 0 -115 15zM257 320q11 -2 23 -3t29 -1
q28 0 55.5 8.5t49.5 28t35.5 51t13.5 77.5q0 32 -9 60.5t-27.5 50t-46 34t-64.5 12.5q-12 0 -26.5 -1.5t-28.5 -5.5q-2 -67 -2.5 -148t-1.5 -163z" />
    <glyph glyph-name="Q" unicode="Q" horiz-adv-x="748" 
d="M291 -10q-55 9 -102 35t-81.5 68t-54 101.5t-19.5 136.5q0 72 24 137.5t70.5 115.5t113.5 80t153 30q67 0 125.5 -25.5t101.5 -70.5t67.5 -107.5t24.5 -136.5t-19 -133.5t-53 -104.5t-80 -74.5t-100 -44.5q49 -90 103 -129t110 -39v-28q-144 0 -241.5 49t-142.5 140z
M372 641q-39 0 -69.5 -22t-51 -61t-31.5 -93.5t-11 -120.5q0 -72 11.5 -130.5t33.5 -100t53.5 -63.5t70.5 -22q33 0 62.5 17t51.5 54t34.5 94.5t12.5 137.5q0 71 -11 128.5t-32.5 98t-52.5 62t-71 21.5z" />
    <glyph glyph-name="R" unicode="R" horiz-adv-x="705" 
d="M257 302q-1 -51 -1 -100.5v-87.5q0 -52 9 -69t32 -17h10v-28h-252v28h10q23 0 32 17t9 69v450q0 52 -9 69t-32 17h-10v28h338q58 0 101 -14.5t72 -39.5t43.5 -59.5t14.5 -74.5q0 -29 -11.5 -55.5t-32.5 -48t-50 -38t-63 -26.5q60 -100 104.5 -158.5t73.5 -88.5t45 -38.5
t19 -8.5v-28h-207q-21 28 -45.5 65.5t-48.5 77t-47 79.5t-41 75q-14 0 -31 1.5t-32 3.5zM257 342q15 -2 30.5 -3.5t30.5 -1.5q29 0 55 6.5t45 23.5t30 45.5t11 73.5q0 32 -8 60t-25 48.5t-43.5 32t-63.5 11.5q-28 0 -56 -5q-1 -15 -1.5 -43t-1 -66.5t-1.5 -84.5t-2 -97z" />
    <glyph glyph-name="S" unicode="S" horiz-adv-x="587" 
d="M70 223h28q4 -45 23.5 -80.5t47 -60t60 -37.5t64.5 -13q58 0 85.5 24.5t27.5 68.5q0 25 -8.5 44.5t-26.5 36.5t-46.5 32.5t-67.5 32.5q-53 24 -89 47.5t-57.5 50t-30.5 57t-9 67.5q0 34 15.5 69.5t46 65t77 48t109.5 18.5q28 0 58 -4t56 -9t45 -9t26 -4v-211
q0 -2 -4.5 -3.5t-9.5 -1.5t-9.5 1.5t-4.5 3.5q-4 45 -19 80.5t-37.5 60t-51 37.5t-59.5 13q-48 0 -77 -24t-29 -66q0 -19 5.5 -35t21 -32.5t43.5 -33.5t72 -38q51 -24 89 -48t63 -51t37.5 -59t12.5 -71q0 -44 -19.5 -81t-54 -65t-82.5 -43.5t-104 -15.5q-42 0 -76 4.5
t-61 9.5t-47 9.5t-33 4.5v210z" />
    <glyph glyph-name="T" unicode="T" horiz-adv-x="614" 
d="M231 630q-59 -3 -97 -18.5t-60 -38t-30.5 -49t-9.5 -51.5h-28l3 205h596l3 -205h-28q-1 25 -8.5 51.5t-28 49t-58 38t-97.5 18.5q-2 -57 -3.5 -123.5t-2 -135t-1 -135t-0.5 -122.5q0 -52 9 -69t32 -17h10v-28h-252v28h10q23 0 32 17t9 69v516v0z" />
    <glyph glyph-name="U" unicode="U" 
d="M569 522q0 39 -5 64t-13.5 39t-19.5 19.5t-23 5.5h-24v28h204v-28h-10q-9 0 -18 -5.5t-16 -20.5t-11 -42t-4 -69v-274q0 -64 -23.5 -111.5t-61.5 -79.5t-86 -48t-98 -16t-97.5 16t-85 48t-60 79.5t-22.5 111.5v325q0 52 -9 69t-32 17h-10v28h257v-28h-10q-23 0 -31.5 -17
t-9.5 -69q-2 -87 -3 -169.5t-1 -170.5q0 -41 15 -71t39 -50t53.5 -30t58.5 -10q30 0 58.5 10.5t50 31.5t35 53t13.5 76v288v0z" />
    <glyph glyph-name="V" unicode="V" horiz-adv-x="670" 
d="M391 198q5 20 16.5 51.5t23.5 62.5l86 226q14 35 14 61q0 29 -18 40t-47 11v28h214v-28q-14 0 -28.5 -9.5t-33.5 -38.5t-44 -83.5t-59 -144.5l-144 -379h-57l-203 469q-29 67 -46.5 104.5t-29.5 55.5t-21.5 22t-23.5 4v28h313v-28q-41 0 -58 -8t-17 -25q0 -12 5 -23
l114 -279q16 -38 25 -68t13 -49h6v0z" />
    <glyph glyph-name="W" unicode="W" horiz-adv-x="1056" 
d="M361 -5h-57l-197 469q-28 67 -44.5 104.5t-28 55.5t-21 22t-23.5 4v28h313v-28q-41 0 -58 -8t-17 -25q0 -8 5 -23l106 -274q15 -38 24 -68t13 -49h6q5 20 16 51.5t22 62.5l133 361h51l145 -358q14 -35 21.5 -64t13.5 -53h6q5 20 15.5 51.5t21.5 62.5l79 221q14 39 14 61
q0 29 -18 40t-47 11v28h211v-28q-14 0 -27.5 -9.5t-30.5 -38.5t-40.5 -83.5t-57.5 -144.5l-144 -379h-57l-184 439z" />
    <glyph glyph-name="X" unicode="X" horiz-adv-x="704" 
d="M204 121q-15 -19 -21 -30.5t-6 -26.5q0 -18 16 -27t45 -9v-28h-226v28q13 1 26 5.5t28.5 16t35.5 32t48 55.5l134 165l-174 276q-13 21 -22.5 35t-19.5 22.5t-21.5 11.5t-28.5 3v28h344v-28q-66 0 -66 -43q0 -20 16 -45l79 -127l96 119q27 34 27 59q0 7 -2.5 13.5
t-9.5 11.5t-21 8.5t-36 3.5v28h238v-28q-14 0 -27.5 -4t-29.5 -14.5t-35.5 -31t-46.5 -53.5l-125 -157l176 -282q13 -21 24 -36t21.5 -24.5t22.5 -14t28 -5.5v-28h-336v28q34 0 48.5 9.5t14.5 26.5q0 13 -5.5 27.5t-19.5 37.5l-81 128z" />
    <glyph glyph-name="Y" unicode="Y" horiz-adv-x="658" 
d="M86 578q-26 43 -48.5 57.5t-47.5 14.5v28h333v-28q-60 0 -60 -39q0 -21 15 -49l109 -192l112 179q17 27 17 50q0 25 -20 38t-54 13v28h234v-28q-7 0 -17.5 -3t-25.5 -14t-34 -32t-43 -58l-147 -225q-1 -27 -1 -48.5v-47.5v-108q0 -52 9 -69t32 -17h10v-28h-252v28h10
q23 0 32 17t9 69v170z" />
    <glyph glyph-name="Z" unicode="Z" horiz-adv-x="654" 
d="M612 678q7 0 7 -17l-386 -614h121q58 0 102 15.5t75 40.5t48 57t20 65l28 -3l-15 -222h-576q-8 0 -8 19l388 613h-105q-50 0 -90 -16t-68.5 -43t-45 -63t-17.5 -75q0 -2 -4.5 -3.5t-9.5 -1.5t-9.5 1.5t-4.5 4.5l13 242h537z" />
    <glyph glyph-name="bracketleft" unicode="[" horiz-adv-x="361" 
d="M361 -203h-258v897h258v-45h-142v-808h142v-44z" />
    <glyph glyph-name="backslash" unicode="\" horiz-adv-x="401" 
d="M90 678l312 -678h-93l-312 678h93z" />
    <glyph glyph-name="bracketright" unicode="]" horiz-adv-x="361" 
d="M142 -159v808h-142v45h258v-897h-258v44h142z" />
    <glyph glyph-name="asciicircum" unicode="^" horiz-adv-x="524" 
d="M8 311l178 365h80l178 -365h-89l-129 272l-129 -272h-89z" />
    <glyph glyph-name="underscore" unicode="_" horiz-adv-x="500" 
d="M0 -145v73h500v-73h-500z" />
    <glyph glyph-name="grave" unicode="`" horiz-adv-x="355" 
d="M89 653q-9 7 -9 14q0 11 15 11h104l76 -150l-25 -7l-161 132v0z" />
    <glyph glyph-name="a" unicode="a" horiz-adv-x="499" 
d="M304 149q2 26 2 57v57q-62 -14 -97 -44.5t-35 -94.5q0 -42 15.5 -57t39.5 -15q27 0 49.5 22.5t25.5 74.5zM325 89q-23 -56 -66 -77.5t-101 -21.5t-90 29.5t-32 80.5q0 26 12 52t42.5 50.5t82.5 47.5t133 44v67q0 48 -14.5 68t-52.5 20q-29 0 -46 -13t-17 -33
q0 -15 4.5 -27.5t4.5 -27.5q0 -28 -19.5 -42.5t-43.5 -14.5q-25 0 -45.5 15.5t-20.5 47.5q0 23 12.5 46.5t37.5 42.5t63 31t90 12q50 0 84 -10t55 -28.5t30 -44t9 -56.5q0 -47 -2 -97t-2 -119q0 -51 11.5 -77t22.5 -26v-28h-120q-6 20 -9.5 40.5t-5.5 48.5h-7z" />
    <glyph glyph-name="b" unicode="b" horiz-adv-x="542" 
d="M204 340q-1 -37 -1 -99v-131q0 -45 17 -66t49 -21q22 0 40.5 9.5t32 33t21 63t7.5 99.5q0 48 -7.5 81.5t-20.5 54.5t-30.5 30.5t-37.5 9.5q-25 0 -47 -16t-23 -48zM211 685q0 -5 -0.5 -23.5t-1.5 -52.5t-2.5 -85.5t-2.5 -123.5q22 33 57.5 59.5t89.5 26.5q31 0 60 -13
t51.5 -40t36 -68t13.5 -96q0 -66 -21 -118t-55 -89t-77 -56.5t-86 -19.5q-26 0 -54.5 4.5t-56 12.5t-51.5 18t-39 22v562q0 38 -28 38h-16v28q13 1 35.5 3t46 4.5t45.5 5.5t35 6q3 1 5 1.5t4 0.5q5 0 8.5 -2t3.5 -5z" />
    <glyph glyph-name="c" unicode="c" horiz-adv-x="451" 
d="M426 119q-6 -20 -18.5 -43t-33.5 -43t-52.5 -33.5t-76.5 -13.5q-55 0 -95 18t-66 48.5t-38.5 71t-12.5 86.5q0 53 16 103t48 88.5t79.5 61.5t109.5 23q42 0 70.5 -11t46.5 -28t25.5 -37t7.5 -39q0 -35 -21 -52t-45 -17q-23 0 -42 14.5t-19 41.5q0 41 -9.5 60t-37.5 19
q-22 0 -38.5 -13t-28 -35.5t-17 -52.5t-5.5 -63q0 -42 6.5 -80t20.5 -67.5t37.5 -46.5t58.5 -17q74 0 107 69z" />
    <glyph glyph-name="d" unicode="d" horiz-adv-x="548" 
d="M345 404q-26 32 -67 32q-23 0 -41 -14.5t-30.5 -39.5t-19.5 -60t-7 -75q0 -92 25.5 -136t63.5 -44q33 0 54.5 29.5t21.5 107.5v200zM484 685q0 -13 -4 -132.5t-4 -357.5q0 -56 2 -89.5t6.5 -50.5t10 -22t13.5 -5v-28h-120q-6 20 -11 44t-6 65h-7q-14 -59 -55 -91
t-101 -32q-35 0 -66.5 13.5t-55 40.5t-37.5 69t-14 99t16.5 108t45 88.5t67.5 59.5t84 22q61 0 97 -36v155q0 38 -28 38h-23v28q16 1 39.5 3t47.5 4.5t46 5.5t35 6q2 1 4 1.5t5 0.5q5 0 9 -2t4 -5z" />
    <glyph glyph-name="e" unicode="e" horiz-adv-x="460" 
d="M173 266q0 -57 11.5 -96t30.5 -64t43 -36t48 -11q64 0 99 52l22 -14q-6 -15 -18.5 -34t-32 -36t-48.5 -29t-68 -12q-55 0 -97.5 19t-71 51.5t-43.5 75.5t-15 90q0 52 16.5 100t47.5 84.5t75.5 58t100.5 21.5q45 0 78 -16.5t54 -43t31 -58.5t10 -63q0 -24 -9 -31.5
t-44 -7.5h-220v0zM321 302q0 66 -11.5 103.5t-53.5 37.5q-23 0 -38 -11t-24.5 -29.5t-13.5 -44.5t-5 -56h146v0z" />
    <glyph glyph-name="f" unicode="f" horiz-adv-x="314" 
d="M211 114q0 -26 1.5 -42.5t6.5 -26.5t14.5 -13.5t24.5 -3.5v-28h-210v28q15 0 23.5 17t8.5 69v295h-58v28q58 6 58 48q0 38 10 75t30.5 66t52 47t75.5 18q57 0 85.5 -20.5t28.5 -67.5q0 -30 -18.5 -45t-39.5 -15q-19 0 -33.5 11t-14.5 34q0 14 2 21t2 18q0 10 -4 16.5
t-17 6.5q-14 0 -23.5 -8.5t-15.5 -22t-8.5 -30.5t-2.5 -35q0 -32 7.5 -57.5t21.5 -25.5h79v-62h-83q-1 -47 -1.5 -85.5t-1 -73t-0.5 -67.5v-69z" />
    <glyph glyph-name="g" unicode="g" horiz-adv-x="510" 
d="M157 -9q-14 0 -22 -11t-8 -29q0 -12 6.5 -25t23.5 -23.5t47 -17t77 -6.5q59 0 90 18t31 46q0 26 -23 33t-79 7q-55 0 -89 2.5t-54 5.5zM243 447q-27 0 -46 -25t-19 -88q0 -76 19 -107t45 -31q28 0 46.5 27.5t18.5 86.5q0 62 -13.5 99.5t-50.5 37.5zM148 177
q-103 41 -103 139q0 35 13.5 66t39 54t62 36.5t81.5 13.5q30 0 72 -7.5t85 -7.5h86q8 0 10 -9t2 -24q0 -13 -3 -23.5t-9 -10.5q-11 0 -26.5 1t-31.5 2.5t-30.5 3.5t-22.5 4l-2 -6q29 -12 46 -43t17 -70q0 -24 -10.5 -49t-34 -44.5t-60 -32t-88.5 -12.5q-12 0 -24 0.5
t-25 0.5q-21 0 -35.5 -5t-14.5 -23q0 -16 13 -24t48 -10q37 -3 114 -3q43 0 74 -4.5t50.5 -16.5t29 -32t9.5 -50q0 -45 -23.5 -80t-62.5 -58.5t-89 -36t-103 -12.5q-49 0 -83 9.5t-55.5 25t-31 35t-9.5 39.5q0 35 28 58.5t77 31.5q-45 9 -64 30.5t-19 49.5q0 16 8 31.5
t22 28t33 21.5t40 13z" />
    <glyph glyph-name="h" unicode="h" horiz-adv-x="560" 
d="M203 308q-1 -39 -1 -90.5v-104.5q0 -30 1.5 -47t5 -25.5t10.5 -10.5t18 -2v-28h-198v28q15 0 23.5 17t8.5 69v491q0 38 -28 38h-16v28q13 1 35.5 3t46 4.5t45 5.5t34.5 6q3 1 5 1.5t4 0.5q5 0 9 -2t4 -5q0 -4 -0.5 -21t-1.5 -51.5t-2.5 -87.5t-2.5 -129q30 39 75 64.5
t102 25.5q24 0 45.5 -7.5t37.5 -24t25.5 -42t9.5 -60.5v-238q0 -52 9 -69t23 -17v-28h-205v28q11 0 18.5 2t12 10.5t6.5 25.5t2 47v211q0 47 -15.5 67.5t-46.5 20.5q-15 0 -32.5 -7t-32 -20.5t-24.5 -32.5t-10 -44z" />
    <glyph glyph-name="i" unicode="i" horiz-adv-x="276" 
d="M212 486q-2 -99 -2.5 -190t-0.5 -182q0 -32 2 -49t6 -25.5t10.5 -10t14.5 -1.5v-28h-196v28q14 0 23 17t9 69v275q0 23 -11 30.5t-33 7.5v29l178 30v0zM147 675q29 0 49.5 -20.5t20.5 -49.5t-20.5 -49.5t-49.5 -20.5t-49.5 20.5t-20.5 49.5t20.5 49.5t49.5 20.5z" />
    <glyph glyph-name="j" unicode="j" horiz-adv-x="266" 
d="M209 0q0 -92 -36 -141t-99 -49q-28 0 -59.5 8.5t-64.5 28.5l7 27q10 -4 20 -7t27 -3q16 0 29.5 6t23.5 21.5t15.5 41.5t5.5 67v394q0 20 -11.5 26.5t-32.5 6.5v29l178 30q-3 -243 -3 -486zM154 676q30 0 49 -20.5t19 -49.5t-19 -49.5t-49 -20.5t-51 20.5t-21 49.5
t21 49.5t51 20.5z" />
    <glyph glyph-name="k" unicode="k" horiz-adv-x="533" 
d="M361 0q-20 26 -40.5 61t-40 69t-37 63t-30.5 44l120 124q13 14 17.5 26.5t4.5 22.5q0 18 -12.5 25.5t-35.5 7.5v28h215v-28q-35 0 -87 -48l-110 -103q11 -12 31.5 -44.5t47.5 -72.5q14 -21 30 -46.5t32 -48t30.5 -37.5t25.5 -15v-28h-161v0zM42 0v28q15 0 23.5 17t8.5 69
v491q0 38 -28 38h-16v28q13 1 35.5 3t46 4.5t45 5.5t34.5 6q3 1 5 1.5t4 0.5q5 0 9 -2t4 -5q0 -6 -1.5 -39.5t-3 -102t-2.5 -174t-1 -255.5q0 -52 8.5 -69t23.5 -17v-28h-195z" />
    <glyph glyph-name="l" unicode="l" horiz-adv-x="272" 
d="M42 0v28q15 0 23.5 17t8.5 69v491q0 38 -28 38h-16v28q13 1 35.5 3t46 4.5t45 5.5t34.5 6q3 1 5 1.5t4 0.5q5 0 9 -2t4 -5q0 -6 -1.5 -39.5t-3 -102t-2.5 -174t-1 -255.5q0 -52 8.5 -69t23.5 -17v-28h-195z" />
    <glyph glyph-name="m" unicode="m" horiz-adv-x="839" 
d="M495 114q0 -28 2 -45t6.5 -26t11 -12t15.5 -3v-28h-205v28q11 0 18.5 2t12 10.5t6.5 25.5t2 47v211q0 47 -14.5 67.5t-44.5 20.5q-15 0 -32 -7t-30.5 -20.5t-23 -32.5t-9.5 -44q-1 -47 -1 -94.5v-100.5q0 -30 1.5 -47t5 -25.5t10.5 -10.5t18 -2v-28h-198v28q15 0 23.5 17
t8.5 69v275q0 23 -11.5 30.5t-32.5 7.5v29l162 30q3 -23 4 -50t1 -50q34 48 79 74t102 26q42 0 70 -22.5t36 -73.5q28 45 74.5 70.5t102.5 25.5q48 0 80 -31.5t32 -102.5v-238q0 -52 8.5 -69t23.5 -17v-28h-202v28q11 0 18.5 2t12 10.5t6.5 25.5t2 47v211q0 47 -14.5 67.5
t-44.5 20.5q-15 0 -31 -6.5t-29.5 -19.5t-22.5 -31.5t-9 -42.5v-198z" />
    <glyph glyph-name="n" unicode="n" horiz-adv-x="564" 
d="M196 486q3 -23 4 -50t1 -50q34 48 81.5 74t104.5 26q48 0 81.5 -32t33.5 -102v-238q0 -52 9 -69t23 -17v-28h-202v28q11 0 18.5 2t12 10.5t6.5 25.5t2 47v211q0 47 -15.5 67.5t-46.5 20.5q-15 0 -32.5 -7t-32 -20.5t-24.5 -32.5t-10 -44q-1 -39 -1 -90.5v-104.5
q0 -30 1.5 -47t5 -25.5t10.5 -10.5t18 -2v-28h-198v28q15 0 23.5 17t8.5 69v275q0 23 -11.5 30.5t-32.5 7.5v29l162 30v0z" />
    <glyph glyph-name="o" unicode="o" horiz-adv-x="514" 
d="M270 486q51 0 91 -17t67.5 -47.5t41.5 -74t14 -97.5q0 -56 -17.5 -104.5t-50 -83.5t-78 -55t-100.5 -20q-45 0 -83 15.5t-66 45t-43.5 73.5t-15.5 101q0 54 17 102t48.5 84t75.5 57t99 21zM250 440q-38 0 -57.5 -37t-19.5 -118q0 -79 7.5 -128.5t20.5 -77.5t31 -38
t39 -10q38 0 54.5 33.5t16.5 102.5q0 78 -6 130t-17.5 84t-28.5 45.5t-40 13.5z" />
    <glyph glyph-name="p" unicode="p" horiz-adv-x="545" 
d="M205 90q0 -26 18 -40.5t48 -14.5q22 0 40.5 9.5t32 32t21.5 60t8 93.5q0 77 -20.5 122t-60.5 45q-39 0 -63 -35.5t-24 -98.5v-173zM205 -100q0 -20 1.5 -32.5t6.5 -19t15.5 -8.5t28.5 -2v-28h-216v28q10 0 16 6t10 31.5t5.5 78.5t1.5 148v287q0 23 -11.5 30.5t-32.5 7.5
v29l160 30q3 -23 4 -57.5t1 -67.5q9 23 22.5 45.5t32 40t43 28.5t54.5 11q34 0 65 -14t53.5 -41.5t36 -70t13.5 -99.5q0 -61 -17.5 -111.5t-47 -87t-68 -56.5t-81.5 -20q-32 0 -57 9t-39 24v-119v0z" />
    <glyph glyph-name="q" unicode="q" horiz-adv-x="541" 
d="M346 141q0 14 0.5 37.5t0.5 52.5v62.5v68.5q0 45 -16 65t-44 20q-45 0 -74.5 -49t-29.5 -157q0 -48 7 -81.5t19.5 -54.5t28.5 -30.5t34 -9.5q29 0 51 18t23 58zM346 69q-22 -38 -60.5 -60.5t-93.5 -22.5q-31 0 -59.5 12.5t-50 38.5t-34.5 65.5t-13 93.5q0 67 22.5 121
t59 91.5t82 57.5t91.5 20q65 0 113.5 -17t74.5 -40v-520q0 -23 1.5 -37t5 -21.5t10 -10t16.5 -2.5v-28h-219v28q18 0 28.5 4t16.5 20.5t7.5 50.5t1.5 95v61v0z" />
    <glyph glyph-name="r" unicode="r" horiz-adv-x="411" 
d="M201 377q22 51 59.5 80t75.5 29t59.5 -20.5t21.5 -58.5q0 -23 -6.5 -40t-16.5 -28t-22.5 -16.5t-24.5 -5.5q-18 0 -30.5 10.5t-12.5 31.5q0 37 -31 37q-25 0 -42 -26.5t-20 -81.5q-2 -40 -3 -79.5t-1 -95.5q0 -30 1.5 -47t7 -25.5t15 -10.5t25.5 -2v-28h-210v28
q15 0 23.5 17t8.5 69v275q0 23 -11.5 30.5t-32.5 7.5v29l161 30q3 -23 4.5 -54.5t1.5 -54.5z" />
    <glyph glyph-name="s" unicode="s" horiz-adv-x="411" 
d="M43 157h27q2 -33 13.5 -57t29.5 -40.5t40 -24.5t46 -8q34 0 52.5 15t18.5 41q0 24 -16.5 40t-41.5 30t-53.5 28t-53.5 34.5t-41.5 49.5t-16.5 73q0 30 12.5 57t35.5 47t56 32t75 12q16 0 33.5 -2.5l35 -5t34.5 -5t31 -2.5v-145q0 -3 -4 -4.5t-9.5 -1.5t-10 1.5t-4.5 4.5
q-5 50 -34 84.5t-74 34.5q-35 0 -50.5 -18t-15.5 -44q0 -23 16.5 -39t42 -30t54.5 -29t54.5 -34.5t42 -47t16.5 -67.5q0 -35 -15 -63t-41 -47t-61 -29t-75 -10q-16 0 -37.5 2t-43.5 5t-40.5 5t-27.5 2v156z" />
    <glyph glyph-name="t" unicode="t" horiz-adv-x="324" 
d="M203 122q0 -26 11.5 -37t30.5 -11q12 0 26.5 6.5t23.5 17.5l19 -14q-11 -44 -49.5 -68.5t-89.5 -24.5q-48 0 -74.5 29t-26.5 89v300h-56v28q20 2 44.5 17t48 37t44 49t31.5 54q2 5 11 5q5 0 11.5 -3.5t6.5 -8.5q-2 -14 -3 -32t-2.5 -35t-2 -30.5t-0.5 -18.5h100v-62h-101
q-2 -62 -2.5 -135.5t-0.5 -151.5z" />
    <glyph glyph-name="u" unicode="u" horiz-adv-x="562" 
d="M497 471q-2 -93 -3 -179t-1 -171q0 -30 3 -48t7.5 -28t11 -13t14.5 -3v-29h-137q-6 23 -9.5 47t-3.5 47q-34 -54 -78 -81.5t-107 -27.5q-24 0 -46 7.5t-39.5 24t-27.5 42t-10 60.5v238q0 52 -9 69t-23 17v28h166q-2 -81 -2 -162v-162q0 -47 16.5 -67.5t47.5 -20.5
q15 0 32 7t31 20.5t23.5 32.5t9.5 44q1 39 1 90.5v104.5q0 30 -1.5 47t-5 25.5t-10.5 10.5t-18 2v28h168v0z" />
    <glyph glyph-name="v" unicode="v" horiz-adv-x="444" 
d="M333 312q11 28 16.5 51t5.5 37q0 20 -15 31.5t-38 11.5v28h164v-28q-14 0 -31 -28.5t-42 -86.5q-34 -80 -67 -164t-61 -164h-63q-35 84 -72.5 172t-75.5 169q-26 56 -41.5 79t-25.5 23v28h242v-28h-14q-17 0 -28 -7t-11 -21q0 -11 3 -19.5t8 -18.5q10 -22 22 -51
t24 -60.5t22.5 -62t15.5 -55.5h4q15 47 31.5 93t26.5 71z" />
    <glyph glyph-name="w" unicode="w" horiz-adv-x="710" 
d="M595 300q11 29 18.5 54.5t7.5 45.5t-15 31.5t-38 11.5v28h164v-28q-21 0 -71 -114q-35 -80 -69 -164.5t-62 -164.5h-64q-5 15 -16.5 47t-26 70.5t-30 79t-26.5 73.5q-15 -39 -28.5 -72.5t-25.5 -65t-24 -63.5t-24 -69h-63q-35 84 -72.5 171.5t-75.5 169.5
q-26 55 -41.5 78.5t-25.5 23.5v28h242v-28h-14q-17 0 -28 -5.5t-11 -24.5q0 -7 3 -16.5t8 -19.5q12 -28 25 -58.5t24.5 -60t21 -56t14.5 -46.5h4q12 36 26.5 77t28.5 83t26.5 82t20.5 73h52q7 -28 21.5 -69t31 -85t31.5 -87t24 -74h4q3 9 10 28.5t15 41.5t15.5 42.5
t12.5 31.5z" />
    <glyph glyph-name="x" unicode="x" horiz-adv-x="504" 
d="M468 49q7 -10 13.5 -15.5t17.5 -5.5v-28h-248v28q24 0 33.5 6.5t9.5 17.5q0 18 -15 39l-57 80l-32 -36q-20 -23 -32.5 -39t-12.5 -36q0 -13 7 -22.5t27 -9.5v-28h-174v28q12 0 20.5 2.5t18.5 9.5t23 20t33 35l99 109l-140 199q-14 20 -23.5 30t-30.5 10v28h254v-28
q-24 0 -34.5 -5.5t-10.5 -16.5q0 -6 3.5 -13t8.5 -15l64 -91l25 28q26 28 37 45.5t11 37.5q0 11 -7 20.5t-30 9.5v28h173v-28q-22 -3 -39.5 -14.5t-32.5 -28.5l-115 -129z" />
    <glyph glyph-name="y" unicode="y" horiz-adv-x="447" 
d="M205 0q-35 84 -72.5 172t-75.5 169q-26 56 -41.5 79t-25.5 23v28h242v-28h-14q-17 0 -28 -7t-11 -21q0 -11 3 -19.5t8 -18.5q10 -22 22 -51t24 -60.5t22.5 -62t15.5 -55.5h4q14 46 29.5 87.5t25.5 66.5q11 28 18 56t7 42q0 20 -14.5 31.5t-38.5 11.5v28h164v-28
q-14 0 -31 -28.5t-42 -86.5q-34 -80 -65.5 -164t-59.5 -164q-23 -64 -41.5 -104t-38.5 -62t-44 -30t-56 -8q-42 0 -67.5 19t-25.5 63q0 28 15 50.5t53 22.5q17 0 28.5 -6t18 -14t9 -17t2.5 -16t-2 -14t-2 -10q0 -17 18 -17q11 0 23 12t21.5 31.5t16 45.5t6.5 54z" />
    <glyph glyph-name="z" unicode="z" horiz-adv-x="471" 
d="M424 0h-393l-2 21q60 100 123.5 205t123.5 211q-56 0 -91.5 -6.5t-57 -21.5t-33.5 -39.5t-20 -60.5q-2 -7 -15 -7q-5 0 -9 2t-4 5l7 162h381l2 -22q-66 -106 -125 -211t-119 -204q42 0 71.5 2t57.5 10q21 8 37 23t27 32.5t17.5 35.5t9.5 32h28z" />
    <glyph glyph-name="braceleft" unicode="{" horiz-adv-x="391" 
d="M349 -219q-47 5 -87 18t-69.5 35.5t-46.5 56.5t-17 82q0 19 3.5 38.5t8 39t8 38t3.5 36.5q0 19 -5.5 37t-18 32.5t-33.5 24t-51 11.5v31q60 4 84 30.5t24 69.5q0 15 -3.5 34.5t-8 40.5t-8 42.5t-3.5 40.5q0 35 13.5 67t41 57.5t68.5 42.5t97 23l2 -27q-31 -4 -51 -12.5
t-31.5 -21.5t-16 -31t-4.5 -42q0 -21 3.5 -41t8 -39.5t8.5 -38.5t4 -38q0 -29 -11.5 -58t-33 -52.5t-51.5 -40t-67 -21.5q39 -7 69.5 -23.5t51 -40t31.5 -51.5t11 -58q0 -19 -4 -38.5t-8.5 -39t-8 -39.5t-3.5 -39q0 -21 3.5 -38.5t15 -32t31.5 -24.5t53 -14z" />
    <glyph glyph-name="bar" unicode="|" horiz-adv-x="362" 
d="M242 678v-868h-122v868h122z" />
    <glyph glyph-name="braceright" unicode="}" horiz-adv-x="391" 
d="M42 709q47 -5 87 -18t69.5 -35.5t46.5 -56.5t17 -82q0 -19 -3.5 -38.5t-8 -39t-8 -38t-3.5 -36.5q0 -20 5.5 -38t18 -32t33.5 -23.5t51 -11.5v-31q-60 -4 -84 -30.5t-24 -69.5q0 -15 3.5 -34.5t8 -40.5t8 -42.5t3.5 -40.5q0 -35 -13.5 -67t-41 -57.5t-69 -42.5t-96.5 -23
l-2 27q31 4 51 12.5t31.5 21.5t16 31t4.5 42q0 21 -4 41t-8.5 39.5t-8 38.5t-3.5 38q0 29 11.5 58t33 52.5t51.5 40t67 21.5q-39 7 -69.5 23.5t-51 40t-31.5 51.5t-11 58q0 19 3.5 38.5t8 39t8.5 39.5t4 39q0 21 -3.5 38.5t-15 32t-31.5 24t-53 14.5z" />
    <glyph glyph-name="asciitilde" unicode="~" horiz-adv-x="572" 
d="M552 361q-1 -90 -37 -134.5t-94 -44.5q-42 0 -79.5 14.5t-71.5 32t-66 32t-64 14.5q-44 0 -65 -25.5t-28 -62.5h-27q1 48 12 81.5t28.5 55.5t41 32t49.5 10q45 0 81 -14.5t67.5 -32.5t61.5 -32.5t64 -14.5q26 0 44.5 7t30 19.5t17.5 28.5t8 34h27z" />
    <glyph glyph-name="Zcaron" horiz-adv-x="654" 
d="M612 678q7 0 7 -17l-386 -614h121q58 0 102 15.5t75 40.5t48 57t20 65l28 -3l-15 -222h-576q-8 0 -8 19l388 613h-105q-50 0 -90 -16t-68.5 -43t-45 -63t-17.5 -75q0 -2 -4.5 -3.5t-9.5 -1.5t-9.5 1.5t-4.5 4.5l13 242h537zM388 729q-6 -8 -17 -12.5t-24 -4.5
q-26 0 -39 16l-102 125l25 6l121 -63l114 63l23 -6z" />
    <glyph glyph-name="Zcaron" unicode="&#x17d;" horiz-adv-x="654" 
d="M612 678q7 0 7 -17l-386 -614h121q58 0 102 15.5t75 40.5t48 57t20 65l28 -3l-15 -222h-576q-8 0 -8 19l388 613h-105q-50 0 -90 -16t-68.5 -43t-45 -63t-17.5 -75q0 -2 -4.5 -3.5t-9.5 -1.5t-9.5 1.5t-4.5 4.5l13 242h537zM388 729q-6 -8 -17 -12.5t-24 -4.5
q-26 0 -39 16l-102 125l25 6l121 -63l114 63l23 -6z" />
    <glyph glyph-name="zcaron" horiz-adv-x="471" 
d="M424 0h-393l-2 21q60 100 123.5 205t123.5 211q-56 0 -91.5 -6.5t-57 -21.5t-33.5 -39.5t-20 -60.5q-2 -7 -15 -7q-5 0 -9 2t-4 5l7 162h381l2 -22q-66 -106 -125 -211t-119 -204q42 0 71.5 2t57.5 10q21 8 37 23t27 32.5t17.5 35.5t9.5 32h28zM291 540q-13 -18 -39 -18
q-25 0 -37 17l-96 136l24 7l114 -66l107 66l22 -7z" />
    <glyph glyph-name="zcaron" unicode="&#x17e;" horiz-adv-x="471" 
d="M424 0h-393l-2 21q60 100 123.5 205t123.5 211q-56 0 -91.5 -6.5t-57 -21.5t-33.5 -39.5t-20 -60.5q-2 -7 -15 -7q-5 0 -9 2t-4 5l7 162h381l2 -22q-66 -106 -125 -211t-119 -204q42 0 71.5 2t57.5 10q21 8 37 23t27 32.5t17.5 35.5t9.5 32h28zM291 540q-13 -18 -39 -18
q-25 0 -37 17l-96 136l24 7l114 -66l107 66l22 -7z" />
    <glyph glyph-name="exclamdown" unicode="&#xa1;" horiz-adv-x="345" 
d="M189 276q9 -99 21 -163t22.5 -107.5t18 -74t7.5 -61.5q0 -48 -23 -68t-62 -20q-38 0 -61 20t-23 68q0 31 7.5 61.5t18 74t22.5 107.5t21 163h31zM250 408q0 -32 -22.5 -55.5t-56.5 -23.5q-32 0 -55 23.5t-23 55.5q0 34 23 56t55 22q34 0 56.5 -22.5t22.5 -55.5z" />
    <glyph glyph-name="cent" unicode="&#xa2;" horiz-adv-x="451" 
d="M301 587q37 -2 63 -13.5t42 -28t23 -36t7 -37.5q0 -35 -21 -52t-45 -17q-23 0 -42 14.5t-19 41.5q0 41 -9.5 60t-37.5 19q-22 0 -38.5 -13t-28 -35.5t-17 -52.5t-5.5 -63q0 -42 6.5 -80t20.5 -67.5t37.5 -46.5t58.5 -17q74 0 107 69l23 -12q-6 -20 -18.5 -43t-34 -43
t-53.5 -33.5t-77 -13.5l-11 -87h-67l11 96q-37 10 -64 30.5t-44.5 49t-26 63t-8.5 72.5q0 47 12.5 91.5t37.5 81t62.5 62.5t86.5 36l13 96h67l-11 -91v0z" />
    <glyph glyph-name="sterling" unicode="&#xa3;" horiz-adv-x="640" 
d="M197 106q-32 12 -64 12q-26 0 -42.5 -10.5t-16.5 -33.5q0 -17 10.5 -25t28.5 -8q20 0 43.5 15t40.5 50zM346 648q-51 0 -72 -32t-21 -86q0 -41 12 -79.5t21 -84.5h115v-63h-109q0 -45 -9.5 -85t-32.5 -83q48 -17 91.5 -24t99.5 -7q18 0 36.5 5.5t34 17.5t26 32t12.5 49
l26 -3q-2 -117 -37 -168.5t-109 -51.5q-29 0 -57.5 13.5t-53.5 31t-46.5 35t-37.5 25.5q-25 -53 -58.5 -74t-70.5 -21q-32 0 -57 18t-25 60q0 21 9.5 37t24.5 26.5t34 16t38 5.5q17 0 28.5 -0.5t20.5 -2t16.5 -3.5t16.5 -5q4 17 4 38q0 26 -5.5 55t-23.5 63h-105v63h78
q-18 34 -34 71t-16 74q0 28 11.5 60t39 59.5t72.5 45.5t113 18q110 0 160.5 -34.5t50.5 -100.5q0 -37 -23 -56t-50 -19q-24 0 -43.5 16.5t-19.5 51.5q0 48 -18 72t-57 24z" />
    <glyph glyph-name="currency" unicode="&#xa4;" horiz-adv-x="592" 
d="M471 452q12 -17 23 -46.5t11 -64.5t-11 -65t-24 -46l80 -80l-65 -64l-82 81q-16 -8 -44.5 -17t-61.5 -9t-62 9t-47 20l-83 -82l-61 62l80 80q-14 17 -24.5 46.5t-10.5 64.5q0 34 10.5 63t21.5 45l-79 79l64 65l82 -81q17 9 46.5 17.5t62.5 8.5q32 0 61 -8t49 -18l79 80
l62 -63l-77 -77v0zM297 460q-24 0 -44 -9.5t-34 -25.5t-21.5 -38t-7.5 -46q0 -25 7.5 -47t21.5 -38.5t34 -26t44 -9.5t44 9.5t34 26t21.5 38.5t7.5 47q0 24 -7.5 46t-21.5 38t-34 25.5t-44 9.5z" />
    <glyph glyph-name="yen" unicode="&#xa5;" horiz-adv-x="658" 
d="M89 165v81h168v38l-38 68h-130v81h85l-80 145q-24 44 -45.5 58t-45.5 14v28h316v-28q-57 0 -57 -39q0 -19 14 -49l104 -192l106 179q9 14 12.5 26.5t3.5 23.5q0 25 -19 38t-51 13v28h222v-28q-6 0 -16 -3t-24.5 -14t-32.5 -32t-41 -58l-68 -110h79v-81h-129l-21 -34
q-1 -20 -1 -37v-35h151v-81h-151v-51q0 -52 8.5 -69t30.5 -17h9v-28h-239v28h10q21 0 29.5 17t8.5 69v51h-168z" />
    <glyph glyph-name="brokenbar" unicode="&#xa6;" horiz-adv-x="362" 
d="M242 133v-323h-122v323h122zM120 401v277h122v-277h-122z" />
    <glyph glyph-name="section" unicode="&#xa7;" horiz-adv-x="547" 
d="M393 68q19 -22 30.5 -47.5t11.5 -58.5q0 -35 -11 -64.5t-33.5 -52t-57.5 -35t-84 -12.5q-78 0 -121.5 26t-43.5 78q0 38 20 55.5t44 17.5q23 0 41.5 -16t18.5 -51q0 -32 16 -52t51 -20q29 0 47 19t18 51q0 25 -13.5 46.5t-35.5 40.5t-50 37t-57 38q-28 18 -54 38.5
t-46.5 44.5t-33 52.5t-12.5 63.5q0 31 9.5 55.5t25.5 44t37 33.5t44 24q-19 22 -30.5 47.5t-11.5 58.5q0 34 11 64t33.5 52.5t57.5 35t84 12.5q78 0 121.5 -26t43.5 -79q0 -37 -20 -54.5t-44 -17.5q-23 0 -41.5 16t-18.5 51q0 32 -16 52t-51 20q-29 0 -47 -19t-18 -51
q0 -25 13 -46t35 -40t49 -36.5t56 -36.5q28 -18 55 -38.5t48 -44t33.5 -52t12.5 -63.5q0 -33 -9.5 -58.5t-25.5 -45t-37 -33.5t-44 -24zM369 92q17 15 27 35t10 44q0 27 -11 49t-29.5 41t-42.5 36t-50 34q-24 17 -48.5 33.5t-46.5 35.5q-17 -15 -27 -35t-10 -44
q0 -27 11 -49t30 -41.5t43.5 -37t50.5 -34.5l48 -32t45 -35z" />
    <glyph glyph-name="dieresis" unicode="&#xa8;" horiz-adv-x="499" 
d="M147 659q26 0 44 -19t18 -46q0 -26 -18 -45t-44 -19t-44 19t-18 45q0 27 18 46t44 19zM362 659q26 0 44 -19t18 -46q0 -26 -18 -45t-44 -19t-44 19t-18 45q0 27 18 46t44 19z" />
    <glyph glyph-name="copyright" unicode="&#xa9;" horiz-adv-x="800" 
d="M564 384q0 -3 -5 -5t-11 -2q-11 0 -11 6q0 30 -8.5 58t-24 49.5t-38 34.5t-50.5 13q-63 0 -91 -50.5t-28 -146.5q0 -46 11 -81t30 -58.5t45.5 -35.5t56.5 -12q46 0 77 23t42 68l22 -11q-5 -23 -17 -47.5t-34 -44.5t-53.5 -33.5t-75.5 -13.5q-45 0 -86.5 16.5t-73 48
t-50 77t-18.5 103.5q0 52 18.5 96.5t50.5 77t76.5 50.5t95.5 18q64 0 101.5 -10t48.5 -18v-170zM400 687q72 0 136 -27.5t111.5 -74.5t75 -111t27.5 -136t-27.5 -136t-75 -111t-111.5 -74.5t-136 -27.5t-136 27.5t-111.5 74.5t-75 111t-27.5 136t27.5 136t75 111t111.5 74.5
t136 27.5zM400 640q-61 0 -114.5 -23.5t-93 -64t-62.5 -96t-23 -118.5t23 -118.5t62.5 -96t93 -64t114.5 -23.5t114.5 23.5t93 64t62.5 96t23 118.5t-23 118.5t-62.5 96t-93 64t-114.5 23.5z" />
    <glyph glyph-name="ordfeminine" unicode="&#xaa;" horiz-adv-x="424" 
d="M254 450q1 19 1 40.5v39.5q-43 -10 -67.5 -31t-24.5 -66q0 -29 10.5 -40t27.5 -11q20 0 35.5 16t17.5 52zM269 408q-16 -38 -46 -53.5t-71 -15.5t-63.5 20.5t-22.5 56.5q0 18 8.5 36t30 35.5t58 33.5t92.5 31v47q0 34 -10.5 47.5t-36.5 13.5q-20 0 -32 -9t-12 -23
q0 -11 3.5 -19t3.5 -19q0 -20 -14 -30t-31 -10t-31.5 10.5t-14.5 33.5q0 16 8.5 32.5t26.5 29.5t44.5 21.5t62.5 8.5q70 0 97.5 -27t27.5 -70q0 -32 -1.5 -67.5t-1.5 -83.5q0 -36 8 -54t16 -18v-20h-81q-5 14 -8.5 29t-5.5 33h-4z" />
    <glyph glyph-name="guillemotleft" unicode="&#xab;" horiz-adv-x="582" 
d="M309 23l-19 -19l-224 195q-20 18 -20 42t21 42l223 193l20 -18l-121 -203zM535 23l-19 -19l-224 195q-20 18 -20 42t21 42l223 193l20 -18l-121 -203z" />
    <glyph glyph-name="logicalnot" unicode="&#xac;" horiz-adv-x="614" 
d="M28 439h552v-249h-83v163h-469v86z" />
    <glyph glyph-name="registered" unicode="&#xae;" horiz-adv-x="554" 
d="M236 388q0 -21 3.5 -27.5t12.5 -6.5h4v-17h-101v17h4q9 0 13 6.5t4 27.5v170q0 21 -4 27.5t-13 6.5h-4v17h135q47 0 70 -24t23 -54q0 -26 -18 -44t-45 -26q24 -38 41.5 -59.5t28.5 -32t15.5 -13t2.5 -2.5v-17h-74q-8 12 -18 26.5t-19.5 30t-19 30.5t-16.5 27
q-5 0 -12 0.5t-13 1.5v-65zM236 474q6 -1 12 -1.5t12 -0.5q24 0 40.5 12t16.5 48q0 26 -13.5 41t-42.5 15q-5 0 -11.5 -0.5t-11.5 -1.5q0 -8 -0.5 -39.5t-1.5 -72.5zM277 657q-39 0 -73 -15t-59 -40.5t-39 -60.5t-14 -74t14 -74t39 -60.5t59 -40.5t73 -15t73 15t59 40.5
t39 60.5t14 74t-14 74t-39 60.5t-59 40.5t-73 15zM277 694q47 0 88.5 -18t72 -48.5t48.5 -72t18 -88.5t-18 -88.5t-48.5 -72.5t-72 -48.5t-88.5 -17.5t-88.5 17.5t-72.5 48.5t-48.5 72.5t-17.5 88.5t17.5 88.5t48.5 72t72.5 48.5t88.5 18z" />
    <glyph glyph-name="macron" unicode="&#xaf;" horiz-adv-x="420" 
d="M340 649v-88h-260v88h260z" />
    <glyph glyph-name="degree" unicode="&#xb0;" horiz-adv-x="437" 
d="M206 319q-32 0 -61.5 12t-51.5 34t-35 53.5t-13 70.5q0 36 12 72t35 64.5t56 46.5t75 18q38 0 69 -15t53 -40t34 -57t12 -66t-11 -68.5t-33.5 -62t-57.5 -45t-83 -17.5zM225 354q24 0 39 26t15 88q0 37 -4 71t-12.5 59.5t-21 41t-29.5 15.5q-24 0 -39 -34t-15 -85
q0 -38 4 -71t12.5 -58t21 -39t29.5 -14z" />
    <glyph glyph-name="plusminus" unicode="&#xb1;" horiz-adv-x="571" 
d="M241 678h88v-212h211v-88h-211v-212h-88v212h-211v88h211v212zM30 0v88h511v-88h-511z" />
    <glyph glyph-name="twosuperior" unicode="&#xb2;" horiz-adv-x="408" 
d="M64 357q39 33 69 59.5t50 50t30.5 44.5t10.5 43q0 29 -15 49t-41 20q-57 0 -67 -62l-21 2q0 31 10.5 54.5t27.5 39.5t38.5 23.5t44.5 7.5q45 0 73.5 -29.5t28.5 -74.5q0 -31 -14.5 -57t-36 -48t-47 -41t-46.5 -35h51q27 0 43.5 2.5t25.5 7t12.5 12t6.5 17.5l22 -2
l-19 -100h-228q-2 0 -5.5 6t-3.5 11z" />
    <glyph glyph-name="threesuperior" unicode="&#xb3;" horiz-adv-x="396" 
d="M101 605q0 -1 -2 -1q-3 0 -8.5 2.5t-5.5 4.5q11 33 37.5 54.5t71.5 21.5q47 0 72 -23.5t25 -54.5q0 -24 -17.5 -46.5t-55.5 -38.5q39 -2 65.5 -28t26.5 -62q0 -23 -11 -43.5t-30.5 -36.5t-47 -25.5t-60.5 -9.5q-45 0 -64 15.5t-19 41.5q0 17 13 30t34 14q0 -10 3 -21
t9 -20.5t16.5 -15.5t25.5 -6q30 0 45.5 16.5t15.5 40.5q0 13 -5.5 27.5t-17 26.5t-30 19.5t-45.5 7.5v17q40 5 58 25t18 43t-15 40.5t-43 17.5q-23 0 -36 -9.5t-23 -23.5z" />
    <glyph glyph-name="acute" unicode="&#xb4;" horiz-adv-x="355" 
d="M105 521l-25 7l76 150h104q15 0 15 -11q0 -7 -9 -14z" />
    <glyph glyph-name="mu" unicode="&#xb5;" horiz-adv-x="562" 
d="M136 16q8 -44 17.5 -76.5t9.5 -58.5q0 -42 -18.5 -59.5t-50.5 -17.5q-31 0 -49 17.5t-18 59.5q0 26 7 52t15 62t15 87t7 129v146q0 52 -9 69t-23 17v28h166q-2 -81 -2 -162v-162q0 -47 16.5 -67.5t47.5 -20.5q15 0 32 7t31 20.5t23.5 32.5t9.5 44q1 39 1 90.5v104.5
q0 30 -1.5 47t-5 25.5t-10.5 10.5t-18 2v28h168q-2 -93 -3 -179t-1 -171q0 -30 3 -48t7.5 -28t11 -13t14.5 -3v-29h-137q-6 23 -9.5 47t-3.5 47q-34 -54 -78 -75.5t-107 -21.5q-15 0 -29.5 6t-28.5 13z" />
    <glyph glyph-name="paragraph" unicode="&#xb6;" horiz-adv-x="500" 
d="M424 625v-815h-75v815h-54v-815h-75v491q-102 7 -159 55.5t-57 134.5q0 37 11.5 71t37 59.5t66 41t98.5 15.5h243v-53h-36z" />
    <glyph glyph-name="periodcentered" unicode="&#xb7;" horiz-adv-x="259" 
d="M45 256q0 34 24 59.5t60 25.5q18 0 33.5 -7t27 -18.5t18 -27t6.5 -32.5q0 -36 -25 -60t-60 -24q-36 0 -60 24.5t-24 59.5z" />
    <glyph glyph-name="cedilla" unicode="&#xb8;" horiz-adv-x="390" 
d="M191 0h45l-38 -47q56 0 84 -25.5t28 -57.5q0 -43 -39 -73t-118 -30q-51 0 -73 11l13 27q8 -3 18 -5t33 -2q81 0 81 56q0 17 -15.5 29.5t-47.5 12.5q-22 0 -22 10q0 4 5 11z" />
    <glyph glyph-name="onesuperior" unicode="&#xb9;" horiz-adv-x="397" 
d="M109 337v25h26q24 0 30.5 7.5t6.5 33.5v177q0 25 -12 25q-8 0 -17 -4l-49 -17l-9 29q10 3 34 12.5t49 20.5t45.5 21t25.5 15q1 1 4 1q7 0 7 -4q0 -3 -0.5 -20t-1.5 -50t-1.5 -84t-0.5 -122q0 -26 6.5 -33.5t28.5 -7.5h22v-25h-194z" />
    <glyph glyph-name="ordmasculine" unicode="&#xba;" horiz-adv-x="419" 
d="M219 689q72 0 110 -45t38 -120q0 -39 -12 -73t-34.5 -58.5t-53.5 -38.5t-70 -14q-63 0 -104 42t-41 122q0 38 11.5 72t33.5 59t53 39.5t69 14.5zM206 658q-29 0 -42 -28t-13 -94q0 -50 4.5 -82.5t12.5 -51.5t20.5 -26t29.5 -7q28 0 39.5 26.5t11.5 87.5q0 51 -4 84.5
t-12 54t-19.5 28.5t-27.5 8z" />
    <glyph glyph-name="guillemotright" unicode="&#xbb;" horiz-adv-x="582" 
d="M273 457l19 19l224 -195q20 -18 20 -42t-21 -42l-223 -193l-20 18l121 203zM47 457l19 19l224 -195q20 -18 20 -42t-21 -42l-223 -193l-20 18l121 203z" />
    <glyph glyph-name="onequarter" unicode="&#xbc;" horiz-adv-x="654" 
d="M606 678l-486 -678h-80l486 678h80zM50 337v25h26q24 0 30.5 7.5t6.5 33.5v177q0 25 -12 25q-8 0 -17 -4l-49 -17l-9 29q10 3 34 12.5t49 20.5t45.5 21t25.5 15q1 1 4 1q7 0 7 -4q0 -3 -0.5 -20t-1.5 -50t-1.5 -84t-0.5 -122q0 -26 6.5 -33.5t28.5 -7.5h22v-25h-194z
M480 130v134q-11 -14 -23 -31t-23.5 -35t-21.5 -35.5t-17 -32.5h85zM597 130v-60h-46v-70h-71v70h-143q-4 0 -8 7t0 14q16 32 38.5 68t47 72.5t49.5 71.5t47 64q3 2 17 2t25 -2q0 -13 -0.5 -26t-0.5 -34t-0.5 -54.5t-0.5 -86.5v-36h46z" />
    <glyph glyph-name="onehalf" unicode="&#xbd;" horiz-adv-x="654" 
d="M606 678l-486 -678h-80l486 678h80zM50 337v25h26q24 0 30.5 7.5t6.5 33.5v177q0 25 -12 25q-8 0 -17 -4l-49 -17l-9 29q10 3 34 12.5t49 20.5t45.5 21t25.5 15q1 1 4 1q7 0 7 -4q0 -3 -0.5 -20t-1.5 -50t-1.5 -84t-0.5 -122q0 -26 6.5 -33.5t28.5 -7.5h22v-25h-194z
M355 17q39 33 69 59.5t50 50t30.5 44.5t10.5 43q0 29 -15 49t-41 20q-57 0 -67 -62l-21 2q0 31 10.5 54.5t27.5 39.5t38.5 23.5t44.5 7.5q45 0 73.5 -29.5t28.5 -74.5q0 -31 -14.5 -57t-36 -48t-47 -41t-46.5 -35h51q27 0 43.5 2.5t25.5 7t12.5 12t6.5 17.5l22 -2l-19 -100
h-228q-2 0 -5.5 6t-3.5 11z" />
    <glyph glyph-name="threequarters" unicode="&#xbe;" horiz-adv-x="654" 
d="M615 678l-486 -678h-80l486 678h80zM480 130v134q-11 -14 -23 -31t-23.5 -35t-21.5 -35.5t-17 -32.5h85zM597 130v-60h-46v-70h-71v70h-143q-4 0 -8 7t0 14q16 32 38.5 68t47 72.5t49.5 71.5t47 64q3 2 17 2t25 -2q0 -13 -0.5 -26t-0.5 -34t-0.5 -54.5t-0.5 -86.5v-36h46
zM61 605q0 -1 -2 -1q-3 0 -8.5 2.5t-5.5 4.5q11 33 37.5 54.5t71.5 21.5q47 0 72 -23.5t25 -54.5q0 -24 -17.5 -46.5t-55.5 -38.5q39 -2 65.5 -28t26.5 -62q0 -23 -11 -43.5t-30.5 -36.5t-47 -25.5t-60.5 -9.5q-45 0 -64 15.5t-19 41.5q0 17 13 30t34 14q0 -10 3 -21
t9 -20.5t16.5 -15.5t25.5 -6q30 0 45.5 16.5t15.5 40.5q0 13 -5.5 27.5t-17 26.5t-30 19.5t-45.5 7.5v17q40 5 58 25t18 43t-15 40.5t-43 17.5q-23 0 -36 -9.5t-23 -23.5z" />
    <glyph glyph-name="questiondown" unicode="&#xbf;" horiz-adv-x="515" 
d="M277 276q1 -16 1.5 -27.5t0.5 -20.5q0 -35 -12.5 -63t-27.5 -58.5t-27.5 -70t-12.5 -97.5q0 -63 21 -91.5t66 -28.5q29 0 45 13t16 34q0 15 -4.5 23t-10.5 16.5t-10.5 19.5t-4.5 32q0 32 23 49.5t51 17.5q14 0 28 -5t24.5 -15.5t17 -26t6.5 -37.5q0 -72 -54.5 -116.5
t-160.5 -44.5q-104 0 -158.5 45t-54.5 121q0 41 15 71t38 55t49.5 46.5t49.5 44.5t38 50.5t15 63.5h33zM335 408q0 -32 -22.5 -55.5t-56.5 -23.5q-32 0 -55 23.5t-23 55.5q0 34 23 56t55 22q34 0 56.5 -22.5t22.5 -55.5z" />
    <glyph glyph-name="Agrave" unicode="&#xc0;" horiz-adv-x="670" 
d="M374 238l-51 125q-16 38 -25 68t-13 49h-6q-5 -20 -16.5 -51.5t-23.5 -62.5l-49 -128h184zM172 191l-19 -51q-14 -35 -14 -61q0 -29 18 -40t47 -11v-28h-214v28q14 0 28.5 9.5t33.5 38.5t44 83.5t59 144.5l144 379h57l203 -469q29 -67 46 -104.5t29 -55.5t22 -22t24 -4
v-28h-313v28q41 0 58 8t17 25q0 12 -5 23l-44 107h-221zM185 812q-9 6 -9 13q0 11 15 11h120l92 -128l-25 -6l-193 110v0z" />
    <glyph glyph-name="Aacute" unicode="&#xc1;" horiz-adv-x="670" 
d="M374 238l-51 125q-16 38 -25 68t-13 49h-6q-5 -20 -16.5 -51.5t-23.5 -62.5l-49 -128h184zM172 191l-19 -51q-14 -35 -14 -61q0 -29 18 -40t47 -11v-28h-214v28q14 0 28.5 9.5t33.5 38.5t44 83.5t59 144.5l144 379h57l203 -469q29 -67 46 -104.5t29 -55.5t22 -22t24 -4
v-28h-313v28q41 0 58 8t17 25q0 12 -5 23l-44 107h-221zM280 702l-25 6l92 128h120q15 0 15 -11q0 -7 -9 -13z" />
    <glyph glyph-name="Acircumflex" unicode="&#xc2;" horiz-adv-x="670" 
d="M374 238l-51 125q-16 38 -25 68t-13 49h-6q-5 -20 -16.5 -51.5t-23.5 -62.5l-49 -128h184zM172 191l-19 -51q-14 -35 -14 -61q0 -29 18 -40t47 -11v-28h-214v28q14 0 28.5 9.5t33.5 38.5t44 83.5t59 144.5l144 379h57l203 -469q29 -67 46 -104.5t29 -55.5t22 -22t24 -4
v-28h-313v28q41 0 58 8t17 25q0 12 -5 23l-44 107h-221zM289 832q14 17 41 17q26 0 39 -16l102 -125l-25 -6l-121 63l-114 -63l-23 6z" />
    <glyph glyph-name="Atilde" unicode="&#xc3;" horiz-adv-x="670" 
d="M374 238l-51 125q-16 38 -25 68t-13 49h-6q-5 -20 -16.5 -51.5t-23.5 -62.5l-49 -128h184zM172 191l-19 -51q-14 -35 -14 -61q0 -29 18 -40t47 -11v-28h-214v28q14 0 28.5 9.5t33.5 38.5t44 83.5t59 144.5l144 379h57l203 -469q29 -67 46 -104.5t29 -55.5t22 -22t24 -4
v-28h-313v28q41 0 58 8t17 25q0 12 -5 23l-44 107h-221zM178 715q0 25 7.5 48.5t20 41.5t30 28.5t38.5 10.5q27 0 47.5 -11t37 -23.5t30.5 -23.5t28 -11q25 0 37.5 19t11.5 46h26q0 -38 -9.5 -63.5t-24 -40.5t-32.5 -21t-35 -6q-25 0 -45 11t-36.5 23.5t-31 23.5t-27.5 11
q-21 0 -33.5 -15.5t-12.5 -47.5h-27z" />
    <glyph glyph-name="Adieresis" unicode="&#xc4;" horiz-adv-x="670" 
d="M374 238l-51 125q-16 38 -25 68t-13 49h-6q-5 -20 -16.5 -51.5t-23.5 -62.5l-49 -128h184zM172 191l-19 -51q-14 -35 -14 -61q0 -29 18 -40t47 -11v-28h-214v28q14 0 28.5 9.5t33.5 38.5t44 83.5t59 144.5l144 379h57l203 -469q29 -67 46 -104.5t29 -55.5t22 -22t24 -4
v-28h-313v28q41 0 58 8t17 25q0 12 -5 23l-44 107h-221zM215 837q26 0 44 -19t18 -46q0 -26 -18 -45t-44 -19t-44 19t-18 45q0 27 18 46t44 19zM445 837q26 0 44 -19t18 -46q0 -26 -18 -45t-44 -19t-44 19t-18 45q0 27 18 46t44 19z" />
    <glyph glyph-name="Aring" unicode="&#xc5;" horiz-adv-x="670" 
d="M374 238l-51 125q-16 38 -25 68t-13 49h-6q-5 -20 -16.5 -51.5t-23.5 -62.5l-49 -128h184zM559 214q29 -67 46 -104.5t29 -55.5t22 -22t24 -4v-28h-313v28q41 0 58 8t17 25q0 12 -5 23l-44 107h-221l-19 -51q-14 -35 -14 -61q0 -29 18 -40t47 -11v-28h-214v28
q14 0 28.5 9.5t33.5 38.5t44 83.5t59 144.5l143 377q-32 8 -54 32t-22 56q0 19 8.5 36t23.5 29.5t34 20t40 7.5t40 -7.5t34 -20t23.5 -29.5t8.5 -36q0 -32 -22.5 -56t-54.5 -32zM328 825q-17 0 -26.5 -16.5t-9.5 -39.5t9.5 -39t26.5 -16t26.5 16t9.5 39t-9.5 39.5
t-26.5 16.5z" />
    <glyph glyph-name="AE" unicode="&#xc6;" horiz-adv-x="1019" 
d="M476 484q-7 -11 -17 -25t-21.5 -30t-24 -32.5t-23.5 -30.5l-101 -128h187v246zM252 191l-40 -51q-24 -30 -34.5 -50.5t-10.5 -33.5q0 -16 14 -22t36 -6v-28h-227v28q14 0 32.5 9.5t49.5 38.5t78 83.5t118 144.5l208 264q0 49 -9.5 65.5t-31.5 16.5h-10v28h520l5 -196h-28
q-5 69 -54 111t-146 42h-90q-2 -78 -2.5 -144t-1.5 -126h51q50 0 79.5 36t29.5 103h28v-320h-28q0 27 -4 52t-16 44.5t-33.5 31t-55.5 11.5h-52q-1 -56 -1 -105.5v-94.5q0 -47 25 -65t89 -18q54 0 94.5 13t68 35.5t43.5 52.5t21 64h28l-10 -205h-560v28h10q23 0 32 17t9 69
v77h-224z" />
    <glyph glyph-name="Ccedilla" unicode="&#xc7;" horiz-adv-x="621" 
d="M360 -47q56 0 84 -25.5t28 -57.5q0 -43 -39 -73t-118 -30q-51 0 -73 11l13 27q8 -3 18 -5t33 -2q81 0 81 56q0 17 -15.5 29.5t-47.5 12.5q-22 0 -22 10q0 4 5 11l37 67q-81 3 -139.5 31.5t-96.5 74.5t-56 103.5t-18 119.5q0 78 28 147t78 121t118 82.5t149 30.5
q33 0 61.5 -3.5t51 -8t38.5 -8.5t24 -4v-230q0 -3 -4.5 -5t-9.5 -2t-9.5 2t-4.5 5q0 41 -12.5 76.5t-34 62t-50 41.5t-61.5 15q-48 0 -84 -23.5t-60 -64.5t-36 -97t-12 -121q0 -64 11.5 -115t36 -86t63 -54t92.5 -19q27 0 52.5 8.5t47 24.5t37 39.5t22.5 54.5l23 -7
q-7 -32 -20.5 -64.5t-37.5 -59t-59.5 -44.5t-85.5 -22z" />
    <glyph glyph-name="Egrave" unicode="&#xc8;" horiz-adv-x="649" 
d="M575 678l5 -196h-28q-5 69 -54 111t-146 42h-90q-2 -78 -2.5 -144t-1.5 -126h51q50 0 79.5 36t29.5 103h28v-320h-28q0 27 -4 52t-16 44.5t-33.5 31t-55.5 11.5h-52q-1 -56 -1 -105.5v-94.5q0 -47 25 -65t89 -18q54 0 94.5 13t68 35.5t43.5 52.5t21 64h28l-10 -205h-560
v28h10q23 0 32 17t9 69v450q0 52 -9 69t-32 17h-10v28h520zM238 812q-9 6 -9 13q0 11 15 11h120l92 -128l-25 -6l-193 110v0z" />
    <glyph glyph-name="Eacute" unicode="&#xc9;" horiz-adv-x="649" 
d="M575 678l5 -196h-28q-5 69 -54 111t-146 42h-90q-2 -78 -2.5 -144t-1.5 -126h51q50 0 79.5 36t29.5 103h28v-320h-28q0 27 -4 52t-16 44.5t-33.5 31t-55.5 11.5h-52q-1 -56 -1 -105.5v-94.5q0 -47 25 -65t89 -18q54 0 94.5 13t68 35.5t43.5 52.5t21 64h28l-10 -205h-560
v28h10q23 0 32 17t9 69v450q0 52 -9 69t-32 17h-10v28h520zM294 702l-25 6l92 128h120q15 0 15 -11q0 -7 -9 -13z" />
    <glyph glyph-name="Ecircumflex" unicode="&#xca;" horiz-adv-x="649" 
d="M575 678l5 -196h-28q-5 69 -54 111t-146 42h-90q-2 -78 -2.5 -144t-1.5 -126h51q50 0 79.5 36t29.5 103h28v-320h-28q0 27 -4 52t-16 44.5t-33.5 31t-55.5 11.5h-52q-1 -56 -1 -105.5v-94.5q0 -47 25 -65t89 -18q54 0 94.5 13t68 35.5t43.5 52.5t21 64h28l-10 -205h-560
v28h10q23 0 32 17t9 69v450q0 52 -9 69t-32 17h-10v28h520zM323 832q14 17 41 17q26 0 39 -16l102 -125l-25 -6l-121 63l-114 -63l-23 6z" />
    <glyph glyph-name="Edieresis" unicode="&#xcb;" horiz-adv-x="649" 
d="M575 678l5 -196h-28q-5 69 -54 111t-146 42h-90q-2 -78 -2.5 -144t-1.5 -126h51q50 0 79.5 36t29.5 103h28v-320h-28q0 27 -4 52t-16 44.5t-33.5 31t-55.5 11.5h-52q-1 -56 -1 -105.5v-94.5q0 -47 25 -65t89 -18q54 0 94.5 13t68 35.5t43.5 52.5t21 64h28l-10 -205h-560
v28h10q23 0 32 17t9 69v450q0 52 -9 69t-32 17h-10v28h520zM236 837q26 0 44 -19t18 -46q0 -26 -18 -45t-44 -19t-44 19t-18 45q0 27 18 46t44 19zM466 837q26 0 44 -19t18 -46q0 -26 -18 -45t-44 -19t-44 19t-18 45q0 27 18 46t44 19z" />
    <glyph glyph-name="Igrave" unicode="&#xcc;" horiz-adv-x="367" 
d="M71 812q-9 6 -9 13q0 11 15 11h120l92 -128l-25 -6l-193 110v0zM261 564q-2 -113 -3.5 -225t-1.5 -225q0 -52 9 -69t32 -17h10v-28h-252v28h10q23 0 32 17t9 69v450q0 52 -9 69t-32 17h-10v28h257v-28h-10q-23 0 -31.5 -17t-9.5 -69z" />
    <glyph glyph-name="Iacute" unicode="&#xcd;" horiz-adv-x="367" 
d="M261 564q-2 -113 -3.5 -225t-1.5 -225q0 -52 9 -69t32 -17h10v-28h-252v28h10q23 0 32 17t9 69v450q0 52 -9 69t-32 17h-10v28h257v-28h-10q-23 0 -31.5 -17t-9.5 -69zM129 702l-25 6l92 128h120q15 0 15 -11q0 -7 -9 -13z" />
    <glyph glyph-name="Icircumflex" unicode="&#xce;" horiz-adv-x="367" 
d="M146 832q14 17 41 17q26 0 39 -16l102 -125l-25 -6l-121 63l-114 -63l-23 6zM261 564q-2 -113 -3.5 -225t-1.5 -225q0 -52 9 -69t32 -17h10v-28h-252v28h10q23 0 32 17t9 69v450q0 52 -9 69t-32 17h-10v28h257v-28h-10q-23 0 -31.5 -17t-9.5 -69z" />
    <glyph glyph-name="Idieresis" unicode="&#xcf;" horiz-adv-x="367" 
d="M69 837q26 0 44 -19t18 -46q0 -26 -18 -45t-44 -19t-44 19t-18 45q0 27 18 46t44 19zM299 837q26 0 44 -19t18 -46q0 -26 -18 -45t-44 -19t-44 19t-18 45q0 27 18 46t44 19zM261 564q-2 -113 -3.5 -225t-1.5 -225q0 -52 9 -69t32 -17h10v-28h-252v28h10q23 0 32 17t9 69
v450q0 52 -9 69t-32 17h-10v28h257v-28h-10q-23 0 -31.5 -17t-9.5 -69z" />
    <glyph glyph-name="Eth" unicode="&#xd0;" 
d="M257 305q-1 -48 -1 -95v-95q0 -41 14.5 -58t62.5 -17q40 0 74.5 14.5t59.5 47.5t39 86.5t14 130.5q0 152 -58 233.5t-164 81.5h-37l-2 -120t-1 -121h123v-88h-124v0zM34 305v88h72v171q0 52 -9 69t-32 17h-10v28h230q104 0 179.5 -26t124 -72.5t72 -110.5t23.5 -141
q0 -64 -16.5 -123t-57 -104.5t-108.5 -73t-172 -27.5h-275v28h10q23 0 32 17t9 69v191h-72z" />
    <glyph glyph-name="Ntilde" unicode="&#xd1;" horiz-adv-x="741" 
d="M575 264q0 9 -1 34t-1 75v158q0 34 -7 57t-19.5 36.5t-30 19.5t-39.5 6h-12v28h231v-28h-10q-11 0 -22 -4t-19 -15.5t-13 -32.5t-5 -55v-543q0 -5 -10 -6.5t-19 -1.5q-4 0 -8 0.5t-6 2.5l-327 440q-21 29 -38 55t-25 43l-4 -1q0 -8 1 -32.5t1 -74.5v-266q0 -41 6.5 -66.5
t19.5 -39.5t32 -19.5t45 -5.5h12v-28h-242v28h10q9 0 19.5 4t19 17.5t14.5 39t6 67.5v413q0 21 -7.5 36.5t-18 25t-22.5 14.5t-21 5h-10v28h216l237 -315q7 -9 16 -22.5t18 -28t16.5 -27.5t12.5 -22l4 1v0zM238 715q0 25 7.5 48.5t20 41.5t30 28.5t38.5 10.5q27 0 47.5 -11
t37 -23.5t30.5 -23.5t28 -11q25 0 37.5 19t11.5 46h26q0 -38 -9.5 -63.5t-24 -40.5t-32.5 -21t-35 -6q-25 0 -45 11t-36.5 23.5t-31 23.5t-27.5 11q-21 0 -33.5 -15.5t-12.5 -47.5h-27z" />
    <glyph glyph-name="Ograve" unicode="&#xd2;" horiz-adv-x="748" 
d="M372 641q-39 0 -69.5 -22t-51 -61t-31.5 -93.5t-11 -120.5q0 -72 11.5 -130.5t33.5 -100t53.5 -63.5t70.5 -22q33 0 62.5 17t51.5 54t34.5 94.5t12.5 137.5q0 71 -11 128.5t-32.5 98t-52.5 62t-71 21.5zM395 694q67 0 125.5 -25.5t101.5 -70.5t67.5 -107.5t24.5 -136.5
q0 -92 -29 -161t-77.5 -115.5t-113 -70t-135.5 -23.5q-67 0 -126 21.5t-103.5 64.5t-70 108t-25.5 153q0 72 24 137.5t70.5 115.5t113.5 80t153 30zM277 812q-9 6 -9 13q0 11 15 11h120l92 -128l-25 -6l-193 110v0z" />
    <glyph glyph-name="Oacute" unicode="&#xd3;" horiz-adv-x="748" 
d="M372 641q-39 0 -69.5 -22t-51 -61t-31.5 -93.5t-11 -120.5q0 -72 11.5 -130.5t33.5 -100t53.5 -63.5t70.5 -22q33 0 62.5 17t51.5 54t34.5 94.5t12.5 137.5q0 71 -11 128.5t-32.5 98t-52.5 62t-71 21.5zM395 694q67 0 125.5 -25.5t101.5 -70.5t67.5 -107.5t24.5 -136.5
q0 -92 -29 -161t-77.5 -115.5t-113 -70t-135.5 -23.5q-67 0 -126 21.5t-103.5 64.5t-70 108t-25.5 153q0 72 24 137.5t70.5 115.5t113.5 80t153 30zM304 702l-25 6l92 128h120q15 0 15 -11q0 -7 -9 -13z" />
    <glyph glyph-name="Ocircumflex" unicode="&#xd4;" horiz-adv-x="748" 
d="M372 641q-39 0 -69.5 -22t-51 -61t-31.5 -93.5t-11 -120.5q0 -72 11.5 -130.5t33.5 -100t53.5 -63.5t70.5 -22q33 0 62.5 17t51.5 54t34.5 94.5t12.5 137.5q0 71 -11 128.5t-32.5 98t-52.5 62t-71 21.5zM395 694q67 0 125.5 -25.5t101.5 -70.5t67.5 -107.5t24.5 -136.5
q0 -92 -29 -161t-77.5 -115.5t-113 -70t-135.5 -23.5q-67 0 -126 21.5t-103.5 64.5t-70 108t-25.5 153q0 72 24 137.5t70.5 115.5t113.5 80t153 30zM343 832q14 17 41 17q26 0 39 -16l102 -125l-25 -6l-121 63l-114 -63l-23 6z" />
    <glyph glyph-name="Otilde" unicode="&#xd5;" horiz-adv-x="748" 
d="M372 641q-39 0 -69.5 -22t-51 -61t-31.5 -93.5t-11 -120.5q0 -72 11.5 -130.5t33.5 -100t53.5 -63.5t70.5 -22q33 0 62.5 17t51.5 54t34.5 94.5t12.5 137.5q0 71 -11 128.5t-32.5 98t-52.5 62t-71 21.5zM395 694q67 0 125.5 -25.5t101.5 -70.5t67.5 -107.5t24.5 -136.5
q0 -92 -29 -161t-77.5 -115.5t-113 -70t-135.5 -23.5q-67 0 -126 21.5t-103.5 64.5t-70 108t-25.5 153q0 72 24 137.5t70.5 115.5t113.5 80t153 30zM226 715q0 25 7.5 48.5t20 41.5t30 28.5t38.5 10.5q27 0 47.5 -11t37 -23.5t30.5 -23.5t28 -11q25 0 37.5 19t11.5 46h26
q0 -38 -9.5 -63.5t-24 -40.5t-32.5 -21t-35 -6q-25 0 -45 11t-36.5 23.5t-31 23.5t-27.5 11q-21 0 -33.5 -15.5t-12.5 -47.5h-27z" />
    <glyph glyph-name="Odieresis" unicode="&#xd6;" horiz-adv-x="748" 
d="M372 641q-39 0 -69.5 -22t-51 -61t-31.5 -93.5t-11 -120.5q0 -72 11.5 -130.5t33.5 -100t53.5 -63.5t70.5 -22q33 0 62.5 17t51.5 54t34.5 94.5t12.5 137.5q0 71 -11 128.5t-32.5 98t-52.5 62t-71 21.5zM395 694q67 0 125.5 -25.5t101.5 -70.5t67.5 -107.5t24.5 -136.5
q0 -92 -29 -161t-77.5 -115.5t-113 -70t-135.5 -23.5q-67 0 -126 21.5t-103.5 64.5t-70 108t-25.5 153q0 72 24 137.5t70.5 115.5t113.5 80t153 30zM265 837q26 0 44 -19t18 -46q0 -26 -18 -45t-44 -19t-44 19t-18 45q0 27 18 46t44 19zM495 837q26 0 44 -19t18 -46
q0 -26 -18 -45t-44 -19t-44 19t-18 45q0 27 18 46t44 19z" />
    <glyph glyph-name="multiply" unicode="&#xd7;" horiz-adv-x="584" 
d="M75 495l62 62l155 -155l154 154l62 -62l-154 -154l155 -155l-62 -62l-155 155l-154 -154l-62 62l154 154z" />
    <glyph glyph-name="Oslash" unicode="&#xd8;" horiz-adv-x="748" 
d="M239 147q21 -57 56 -88t83 -31q33 0 62.5 17t51.5 54t34.5 94.5t12.5 137.5q0 73 -12 132zM504 540q-22 48 -54.5 74.5t-77.5 26.5q-39 0 -69.5 -22t-51 -61t-31.5 -93.5t-11 -120.5q0 -64 9 -118zM636 582q37 -44 57.5 -101.5t20.5 -126.5q0 -92 -29 -161t-77.5 -115.5
t-113 -70t-135.5 -23.5q-59 0 -112 16.5t-96 50.5l-47 -51h-93l92 100q-32 42 -50.5 99t-18.5 132q0 72 24 137.5t70.5 115.5t113.5 80t153 30q54 0 103 -16.5t89 -47.5l44 48h93l-88 -96v0z" />
    <glyph glyph-name="Ugrave" unicode="&#xd9;" 
d="M569 522q0 39 -5 64t-13.5 39t-19.5 19.5t-23 5.5h-24v28h204v-28h-10q-9 0 -18 -5.5t-16 -20.5t-11 -42t-4 -69v-274q0 -64 -23.5 -111.5t-61.5 -79.5t-86 -48t-98 -16t-97.5 16t-85 48t-60 79.5t-22.5 111.5v325q0 52 -9 69t-32 17h-10v28h257v-28h-10q-23 0 -31.5 -17
t-9.5 -69q-2 -87 -3 -169.5t-1 -170.5q0 -41 15 -71t39 -50t53.5 -30t58.5 -10q30 0 58.5 10.5t50 31.5t35 53t13.5 76v288v0zM260 812q-9 6 -9 13q0 11 15 11h120l92 -128l-25 -6l-193 110v0z" />
    <glyph glyph-name="Uacute" unicode="&#xda;" 
d="M569 522q0 39 -5 64t-13.5 39t-19.5 19.5t-23 5.5h-24v28h204v-28h-10q-9 0 -18 -5.5t-16 -20.5t-11 -42t-4 -69v-274q0 -64 -23.5 -111.5t-61.5 -79.5t-86 -48t-98 -16t-97.5 16t-85 48t-60 79.5t-22.5 111.5v325q0 52 -9 69t-32 17h-10v28h257v-28h-10q-23 0 -31.5 -17
t-9.5 -69q-2 -87 -3 -169.5t-1 -170.5q0 -41 15 -71t39 -50t53.5 -30t58.5 -10q30 0 58.5 10.5t50 31.5t35 53t13.5 76v288v0zM361 702l-25 6l92 128h120q15 0 15 -11q0 -7 -9 -13z" />
    <glyph glyph-name="Ucircumflex" unicode="&#xdb;" 
d="M569 522q0 39 -5 64t-13.5 39t-19.5 19.5t-23 5.5h-24v28h204v-28h-10q-9 0 -18 -5.5t-16 -20.5t-11 -42t-4 -69v-274q0 -64 -23.5 -111.5t-61.5 -79.5t-86 -48t-98 -16t-97.5 16t-85 48t-60 79.5t-22.5 111.5v325q0 52 -9 69t-32 17h-10v28h257v-28h-10q-23 0 -31.5 -17
t-9.5 -69q-2 -87 -3 -169.5t-1 -170.5q0 -41 15 -71t39 -50t53.5 -30t58.5 -10q30 0 58.5 10.5t50 31.5t35 53t13.5 76v288v0zM354 832q14 17 41 17q26 0 39 -16l102 -125l-25 -6l-121 63l-114 -63l-23 6z" />
    <glyph glyph-name="Udieresis" unicode="&#xdc;" 
d="M569 522q0 39 -5 64t-13.5 39t-19.5 19.5t-23 5.5h-24v28h204v-28h-10q-9 0 -18 -5.5t-16 -20.5t-11 -42t-4 -69v-274q0 -64 -23.5 -111.5t-61.5 -79.5t-86 -48t-98 -16t-97.5 16t-85 48t-60 79.5t-22.5 111.5v325q0 52 -9 69t-32 17h-10v28h257v-28h-10q-23 0 -31.5 -17
t-9.5 -69q-2 -87 -3 -169.5t-1 -170.5q0 -41 15 -71t39 -50t53.5 -30t58.5 -10q30 0 58.5 10.5t50 31.5t35 53t13.5 76v288v0zM288 840q26 0 44 -19t18 -46q0 -26 -18 -45t-44 -19t-44 19t-18 45q0 27 18 46t44 19zM518 840q26 0 44 -19t18 -46q0 -26 -18 -45t-44 -19
t-44 19t-18 45q0 27 18 46t44 19z" />
    <glyph glyph-name="Yacute" unicode="&#xdd;" horiz-adv-x="658" 
d="M86 578q-26 43 -48.5 57.5t-47.5 14.5v28h333v-28q-60 0 -60 -39q0 -21 15 -49l109 -192l112 179q17 27 17 50q0 25 -20 38t-54 13v28h234v-28q-7 0 -17.5 -3t-25.5 -14t-34 -32t-43 -58l-147 -225q-1 -27 -1 -48.5v-47.5v-108q0 -52 9 -69t32 -17h10v-28h-252v28h10
q23 0 32 17t9 69v170zM346 702l-25 6l92 128h120q15 0 15 -11q0 -7 -9 -13z" />
    <glyph glyph-name="Thorn" unicode="&#xde;" horiz-adv-x="638" 
d="M387 562q57 0 101 -15.5t74 -42.5t45.5 -64.5t15.5 -82.5q0 -51 -23 -88t-59.5 -61t-81.5 -35.5t-89 -11.5q-66 0 -114 15v-62q0 -52 9 -69t32 -17h10v-28h-252v28h10q23 0 32 17t9 69v450q0 52 -9 69t-32 17h-10v28h257v-28h-10q-23 0 -31.5 -17t-9.5 -69zM260 515
q-2 -77 -2.5 -154t-1.5 -157q11 -2 23 -3t29 -1q28 0 55.5 8.5t49.5 28t35.5 51t13.5 77.5q0 32 -9 60.5t-27.5 50t-46 34t-64.5 12.5q-12 0 -26.5 -1.5t-28.5 -5.5z" />
    <glyph glyph-name="germandbls" unicode="&#xdf;" horiz-adv-x="599" 
d="M470 538q0 -25 -2.5 -47.5t-10.5 -50.5q-7 1 -14 1.5t-21 0.5q-33 0 -48.5 -14.5t-15.5 -35.5q0 -20 16 -36.5t39.5 -33t51.5 -34.5t51.5 -39.5t39.5 -49.5t16 -64q0 -38 -13 -66t-35.5 -46.5t-54 -27.5t-68.5 -9q-21 0 -44.5 5t-43 16.5t-32 30.5t-12.5 47q0 30 16 45.5
t35 15.5t35 -16t16 -48q0 -33 16.5 -46.5t37 -11.5t37 16.5t16.5 37.5t-15.5 42.5t-38.5 38t-49.5 37t-49.5 41.5t-38.5 51t-15.5 64q0 30 10 53.5t26.5 40t38.5 26t47 11.5q2 12 3.5 24t1.5 23q0 68 -29 95t-82 27q-25 0 -43.5 -8.5t-30.5 -22t-18 -31.5t-6 -36
q0 -21 4 -41t8.5 -38t8.5 -34.5t4 -31.5q0 -40 -0.5 -93t-1 -109t-1 -110.5t-0.5 -96.5h-163v28q15 0 23.5 17t8.5 69v371q0 38 13 75.5t39.5 67t67 47.5t96.5 18q47 0 80 -13t54 -35t30.5 -49.5t9.5 -57.5z" />
    <glyph glyph-name="agrave" unicode="&#xe0;" horiz-adv-x="499" 
d="M304 149q2 26 2 57v57q-62 -14 -97 -44.5t-35 -94.5q0 -42 15.5 -57t39.5 -15q27 0 49.5 22.5t25.5 74.5zM325 89q-23 -56 -66 -77.5t-101 -21.5t-90 29.5t-32 80.5q0 26 12 52t42.5 50.5t82.5 47.5t133 44v67q0 48 -14.5 68t-52.5 20q-29 0 -46 -13t-17 -33
q0 -15 4.5 -27.5t4.5 -27.5q0 -28 -19.5 -42.5t-43.5 -14.5q-25 0 -45.5 15.5t-20.5 47.5q0 23 12.5 46.5t37.5 42.5t63 31t90 12q50 0 84 -10t55 -28.5t30 -44t9 -56.5q0 -47 -2 -97t-2 -119q0 -51 11.5 -77t22.5 -26v-28h-120q-6 20 -9.5 40.5t-5.5 48.5h-7zM147 653
q-9 7 -9 14q0 11 15 11h104l76 -150l-25 -7l-161 132v0z" />
    <glyph glyph-name="aacute" unicode="&#xe1;" horiz-adv-x="499" 
d="M304 149q2 26 2 57v57q-62 -14 -97 -44.5t-35 -94.5q0 -42 15.5 -57t39.5 -15q27 0 49.5 22.5t25.5 74.5zM325 89q-23 -56 -66 -77.5t-101 -21.5t-90 29.5t-32 80.5q0 26 12 52t42.5 50.5t82.5 47.5t133 44v67q0 48 -14.5 68t-52.5 20q-29 0 -46 -13t-17 -33
q0 -15 4.5 -27.5t4.5 -27.5q0 -28 -19.5 -42.5t-43.5 -14.5q-25 0 -45.5 15.5t-20.5 47.5q0 23 12.5 46.5t37.5 42.5t63 31t90 12q50 0 84 -10t55 -28.5t30 -44t9 -56.5q0 -47 -2 -97t-2 -119q0 -51 11.5 -77t22.5 -26v-28h-120q-6 20 -9.5 40.5t-5.5 48.5h-7zM213 521
l-25 7l76 150h104q15 0 15 -11q0 -7 -9 -14z" />
    <glyph glyph-name="acircumflex" unicode="&#xe2;" horiz-adv-x="499" 
d="M304 149q2 26 2 57v57q-62 -14 -97 -44.5t-35 -94.5q0 -42 15.5 -57t39.5 -15q27 0 49.5 22.5t25.5 74.5zM325 89q-23 -56 -66 -77.5t-101 -21.5t-90 29.5t-32 80.5q0 26 12 52t42.5 50.5t82.5 47.5t133 44v67q0 48 -14.5 68t-52.5 20q-29 0 -46 -13t-17 -33
q0 -15 4.5 -27.5t4.5 -27.5q0 -28 -19.5 -42.5t-43.5 -14.5q-25 0 -45.5 15.5t-20.5 47.5q0 23 12.5 46.5t37.5 42.5t63 31t90 12q50 0 84 -10t55 -28.5t30 -44t9 -56.5q0 -47 -2 -97t-2 -119q0 -51 11.5 -77t22.5 -26v-28h-120q-6 20 -9.5 40.5t-5.5 48.5h-7zM218 664
q13 18 39 18q25 0 37 -17l96 -136l-24 -7l-114 66l-107 -66l-22 7z" />
    <glyph glyph-name="atilde" unicode="&#xe3;" horiz-adv-x="499" 
d="M304 149q2 26 2 57v57q-62 -14 -97 -44.5t-35 -94.5q0 -42 15.5 -57t39.5 -15q27 0 49.5 22.5t25.5 74.5zM325 89q-23 -56 -66 -77.5t-101 -21.5t-90 29.5t-32 80.5q0 26 12 52t42.5 50.5t82.5 47.5t133 44v67q0 48 -14.5 68t-52.5 20q-29 0 -46 -13t-17 -33
q0 -15 4.5 -27.5t4.5 -27.5q0 -28 -19.5 -42.5t-43.5 -14.5q-25 0 -45.5 15.5t-20.5 47.5q0 23 12.5 46.5t37.5 42.5t63 31t90 12q50 0 84 -10t55 -28.5t30 -44t9 -56.5q0 -47 -2 -97t-2 -119q0 -51 11.5 -77t22.5 -26v-28h-120q-6 20 -9.5 40.5t-5.5 48.5h-7zM103 549
q0 24 6.5 47.5t18.5 42.5t29.5 31t41.5 12q27 0 46 -11t34.5 -23.5t28.5 -23.5t27 -11q25 0 37.5 19t11.5 46h26q0 -60 -24 -97.5t-77 -37.5q-25 0 -43.5 11t-34 23.5t-29 23.5t-26.5 11q-21 0 -33.5 -15.5t-12.5 -47.5h-27z" />
    <glyph glyph-name="adieresis" unicode="&#xe4;" horiz-adv-x="499" 
d="M304 149q2 26 2 57v57q-62 -14 -97 -44.5t-35 -94.5q0 -42 15.5 -57t39.5 -15q27 0 49.5 22.5t25.5 74.5zM325 89q-23 -56 -66 -77.5t-101 -21.5t-90 29.5t-32 80.5q0 26 12 52t42.5 50.5t82.5 47.5t133 44v67q0 48 -14.5 68t-52.5 20q-29 0 -46 -13t-17 -33
q0 -15 4.5 -27.5t4.5 -27.5q0 -28 -19.5 -42.5t-43.5 -14.5q-25 0 -45.5 15.5t-20.5 47.5q0 23 12.5 46.5t37.5 42.5t63 31t90 12q50 0 84 -10t55 -28.5t30 -44t9 -56.5q0 -47 -2 -97t-2 -119q0 -51 11.5 -77t22.5 -26v-28h-120q-6 20 -9.5 40.5t-5.5 48.5h-7zM147 659
q26 0 44 -19t18 -46q0 -26 -18 -45t-44 -19t-44 19t-18 45q0 27 18 46t44 19zM362 659q26 0 44 -19t18 -46q0 -26 -18 -45t-44 -19t-44 19t-18 45q0 27 18 46t44 19z" />
    <glyph glyph-name="aring" unicode="&#xe5;" horiz-adv-x="499" 
d="M304 149q2 26 2 57v57q-62 -14 -97 -44.5t-35 -94.5q0 -42 15.5 -57t39.5 -15q27 0 49.5 22.5t25.5 74.5zM325 89q-23 -56 -66 -77.5t-101 -21.5t-90 29.5t-32 80.5q0 26 12 52t42.5 50.5t82.5 47.5t133 44v67q0 48 -14.5 68t-52.5 20q-29 0 -46 -13t-17 -33
q0 -15 4.5 -27.5t4.5 -27.5q0 -28 -19.5 -42.5t-43.5 -14.5q-25 0 -45.5 15.5t-20.5 47.5q0 23 12.5 46.5t37.5 42.5t63 31t90 12q50 0 84 -10t55 -28.5t30 -44t9 -56.5q0 -47 -2 -97t-2 -119q0 -51 11.5 -77t22.5 -26v-28h-120q-6 20 -9.5 40.5t-5.5 48.5h-7zM265 695
q21 0 40 -7.5t34 -20t23.5 -29.5t8.5 -36q0 -20 -8.5 -36.5t-23.5 -29t-34 -19.5t-40 -7t-40 7t-34 19.5t-23.5 29t-8.5 36.5q0 19 8.5 36t23.5 29.5t34 20t40 7.5zM265 658q-17 0 -26.5 -16.5t-9.5 -39.5t9.5 -39t26.5 -16t26.5 16t9.5 39t-9.5 39.5t-26.5 16.5z" />
    <glyph glyph-name="ae" unicode="&#xe6;" horiz-adv-x="717" 
d="M304 149q2 26 2 57v57q-62 -14 -97 -44.5t-35 -94.5q0 -42 15.5 -57t39.5 -15q27 0 49.5 22.5t25.5 74.5zM328 95q-13 -31 -30 -51t-38.5 -32t-47 -17t-54.5 -5q-58 0 -90 29.5t-32 80.5q0 26 12 52t42.5 50.5t82.5 47.5t133 44v67q0 48 -14.5 68t-52.5 20q-29 0 -46 -13
t-17 -33q0 -15 4.5 -27.5t4.5 -27.5q0 -28 -19.5 -42.5t-43.5 -14.5q-25 0 -45.5 15.5t-20.5 47.5q0 23 12.5 46.5t37.5 42.5t63 31t90 12t87.5 -12.5t54.5 -32.5q25 20 59.5 32.5t74.5 12.5q45 0 78 -16.5t54 -43t31 -58.5t10 -63q0 -24 -9 -31.5t-44 -7.5h-220
q0 -57 11.5 -96t30.5 -64t43 -36t48 -11q64 0 99 52l22 -14q-6 -15 -18.5 -34t-32 -36t-48.5 -29t-68 -12q-72 0 -120 29.5t-74 79.5zM583 302q0 66 -11.5 103.5t-53.5 37.5q-23 0 -38 -11t-24.5 -29.5t-13.5 -44.5t-5 -56h146v0z" />
    <glyph glyph-name="ccedilla" unicode="&#xe7;" horiz-adv-x="451" 
d="M219 -13q-48 4 -83 23t-58 49t-34 69t-11 82q0 53 16 103t48 88.5t79.5 61.5t109.5 23q42 0 70.5 -11t46.5 -28t25.5 -37t7.5 -39q0 -35 -21 -52t-45 -17q-23 0 -42 14.5t-19 41.5q0 41 -9.5 60t-37.5 19q-22 0 -38.5 -13t-28 -35.5t-17 -52.5t-5.5 -63q0 -42 6.5 -80
t20.5 -67.5t37.5 -46.5t58.5 -17q74 0 107 69l23 -12q-6 -19 -17 -41t-30.5 -41.5t-48.5 -33.5t-70 -17l-27 -33q56 0 84 -25.5t28 -57.5q0 -43 -37 -71t-116 -28q-51 0 -73 11l13 27q8 -3 18 -5t33 -2q42 0 59.5 11.5t17.5 40.5q0 17 -15.5 29.5t-47.5 12.5q-22 0 -22 10
q0 4 5 11l39 70v0z" />
    <glyph glyph-name="egrave" unicode="&#xe8;" horiz-adv-x="460" 
d="M173 266q0 -57 11.5 -96t30.5 -64t43 -36t48 -11q64 0 99 52l22 -14q-6 -15 -18.5 -34t-32 -36t-48.5 -29t-68 -12q-55 0 -97.5 19t-71 51.5t-43.5 75.5t-15 90q0 52 16.5 100t47.5 84.5t75.5 58t100.5 21.5q45 0 78 -16.5t54 -43t31 -58.5t10 -63q0 -24 -9 -31.5
t-44 -7.5h-220v0zM321 302q0 66 -11.5 103.5t-53.5 37.5q-23 0 -38 -11t-24.5 -29.5t-13.5 -44.5t-5 -56h146v0zM156 653q-9 7 -9 14q0 11 15 11h104l76 -150l-25 -7l-161 132v0z" />
    <glyph glyph-name="eacute" unicode="&#xe9;" horiz-adv-x="460" 
d="M173 266q0 -57 11.5 -96t30.5 -64t43 -36t48 -11q64 0 99 52l22 -14q-6 -15 -18.5 -34t-32 -36t-48.5 -29t-68 -12q-55 0 -97.5 19t-71 51.5t-43.5 75.5t-15 90q0 52 16.5 100t47.5 84.5t75.5 58t100.5 21.5q45 0 78 -16.5t54 -43t31 -58.5t10 -63q0 -24 -9 -31.5
t-44 -7.5h-220v0zM321 302q0 66 -11.5 103.5t-53.5 37.5q-23 0 -38 -11t-24.5 -29.5t-13.5 -44.5t-5 -56h146v0zM225 521l-25 7l76 150h104q15 0 15 -11q0 -7 -9 -14z" />
    <glyph glyph-name="ecircumflex" unicode="&#xea;" horiz-adv-x="460" 
d="M173 266q0 -57 11.5 -96t30.5 -64t43 -36t48 -11q64 0 99 52l22 -14q-6 -15 -18.5 -34t-32 -36t-48.5 -29t-68 -12q-55 0 -97.5 19t-71 51.5t-43.5 75.5t-15 90q0 52 16.5 100t47.5 84.5t75.5 58t100.5 21.5q45 0 78 -16.5t54 -43t31 -58.5t10 -63q0 -24 -9 -31.5
t-44 -7.5h-220v0zM321 302q0 66 -11.5 103.5t-53.5 37.5q-23 0 -38 -11t-24.5 -29.5t-13.5 -44.5t-5 -56h146v0zM228 664q13 18 39 18q25 0 37 -17l96 -136l-24 -7l-114 66l-107 -66l-22 7z" />
    <glyph glyph-name="edieresis" unicode="&#xeb;" horiz-adv-x="460" 
d="M173 266q0 -57 11.5 -96t30.5 -64t43 -36t48 -11q64 0 99 52l22 -14q-6 -15 -18.5 -34t-32 -36t-48.5 -29t-68 -12q-55 0 -97.5 19t-71 51.5t-43.5 75.5t-15 90q0 52 16.5 100t47.5 84.5t75.5 58t100.5 21.5q45 0 78 -16.5t54 -43t31 -58.5t10 -63q0 -24 -9 -31.5
t-44 -7.5h-220v0zM321 302q0 66 -11.5 103.5t-53.5 37.5q-23 0 -38 -11t-24.5 -29.5t-13.5 -44.5t-5 -56h146v0zM151 659q26 0 44 -19t18 -46q0 -26 -18 -45t-44 -19t-44 19t-18 45q0 27 18 46t44 19zM366 659q26 0 44 -19t18 -46q0 -26 -18 -45t-44 -19t-44 19t-18 45
q0 27 18 46t44 19z" />
    <glyph glyph-name="igrave" unicode="&#xec;" horiz-adv-x="276" 
d="M212 486q-2 -99 -2.5 -190t-0.5 -182q0 -32 2 -49t6 -25.5t10.5 -10t14.5 -1.5v-28h-196v28q14 0 23 17t9 69v275q0 23 -11 30.5t-33 7.5v29l178 30v0zM33 653q-9 7 -9 14q0 11 15 11h104l76 -150l-25 -7l-161 132v0z" />
    <glyph glyph-name="iacute" unicode="&#xed;" horiz-adv-x="276" 
d="M212 486q-2 -99 -2.5 -190t-0.5 -182q0 -32 2 -49t6 -25.5t10.5 -10t14.5 -1.5v-28h-196v28q14 0 23 17t9 69v275q0 23 -11 30.5t-33 7.5v29l178 30v0zM105 521l-25 7l76 150h104q15 0 15 -11q0 -7 -9 -14z" />
    <glyph glyph-name="icircumflex" unicode="&#xee;" horiz-adv-x="276" 
d="M212 486q-2 -99 -2.5 -190t-0.5 -182q0 -32 2 -49t6 -25.5t10.5 -10t14.5 -1.5v-28h-196v28q14 0 23 17t9 69v275q0 23 -11 30.5t-33 7.5v29l178 30v0zM104 664q13 18 39 18q25 0 37 -17l96 -136l-24 -7l-114 66l-107 -66l-22 7z" />
    <glyph glyph-name="idieresis" unicode="&#xef;" horiz-adv-x="276" 
d="M212 486q-2 -99 -2.5 -190t-0.5 -182q0 -32 2 -49t6 -25.5t10.5 -10t14.5 -1.5v-28h-196v28q14 0 23 17t9 69v275q0 23 -11 30.5t-33 7.5v29l178 30v0zM30 659q26 0 44 -19t18 -46q0 -26 -18 -45t-44 -19t-44 19t-18 45q0 27 18 46t44 19zM245 659q26 0 44 -19t18 -46
q0 -26 -18 -45t-44 -19t-44 19t-18 45q0 27 18 46t44 19z" />
    <glyph glyph-name="eth" unicode="&#xf0;" horiz-adv-x="526" 
d="M347 238q0 72 -25.5 112t-59.5 40q-23 0 -38.5 -18.5t-25.5 -48.5t-14 -68t-4 -76q0 -82 22.5 -119t54.5 -37q22 0 39 18.5t28 49t17 69t6 78.5zM362 582q59 -55 94.5 -134t35.5 -182q0 -64 -17 -115.5t-47 -87.5t-71.5 -55.5t-90.5 -19.5q-54 0 -96.5 20t-72.5 53.5
t-45.5 76.5t-15.5 90q0 52 14.5 92.5t39 68t57 41.5t68.5 14q35 0 69.5 -16.5t57.5 -60.5l5 2q-5 52 -25.5 98t-50.5 84l-139 -46l-22 56l114 38q-34 30 -71 48t-74 22v23q122 0 226 -66l110 37l23 -56l-76 -25v0z" />
    <glyph glyph-name="ntilde" unicode="&#xf1;" horiz-adv-x="564" 
d="M196 486q3 -23 4 -50t1 -50q34 48 81.5 74t104.5 26q48 0 81.5 -32t33.5 -102v-238q0 -52 9 -69t23 -17v-28h-202v28q11 0 18.5 2t12 10.5t6.5 25.5t2 47v211q0 47 -15.5 67.5t-46.5 20.5q-15 0 -32.5 -7t-32 -20.5t-24.5 -32.5t-10 -44q-1 -39 -1 -90.5v-104.5
q0 -30 1.5 -47t5 -25.5t10.5 -10.5t18 -2v-28h-198v28q15 0 23.5 17t8.5 69v275q0 23 -11.5 30.5t-32.5 7.5v29l162 30v0zM143 549q0 24 6.5 47.5t18.5 42.5t29.5 31t41.5 12q27 0 46 -11t34.5 -23.5t28.5 -23.5t27 -11q25 0 37.5 19t11.5 46h26q0 -60 -24 -97.5t-77 -37.5
q-25 0 -43.5 11t-34 23.5t-29 23.5t-26.5 11q-21 0 -33.5 -15.5t-12.5 -47.5h-27z" />
    <glyph glyph-name="ograve" unicode="&#xf2;" horiz-adv-x="514" 
d="M270 486q51 0 91 -17t67.5 -47.5t41.5 -74t14 -97.5q0 -56 -17.5 -104.5t-50 -83.5t-78 -55t-100.5 -20q-45 0 -83 15.5t-66 45t-43.5 73.5t-15.5 101q0 54 17 102t48.5 84t75.5 57t99 21zM250 440q-38 0 -57.5 -37t-19.5 -118q0 -79 7.5 -128.5t20.5 -77.5t31 -38
t39 -10q38 0 54.5 33.5t16.5 102.5q0 78 -6 130t-17.5 84t-28.5 45.5t-40 13.5zM150 653q-9 7 -9 14q0 11 15 11h104l76 -150l-25 -7l-161 132v0z" />
    <glyph glyph-name="oacute" unicode="&#xf3;" horiz-adv-x="514" 
d="M270 486q51 0 91 -17t67.5 -47.5t41.5 -74t14 -97.5q0 -56 -17.5 -104.5t-50 -83.5t-78 -55t-100.5 -20q-45 0 -83 15.5t-66 45t-43.5 73.5t-15.5 101q0 54 17 102t48.5 84t75.5 57t99 21zM250 440q-38 0 -57.5 -37t-19.5 -118q0 -79 7.5 -128.5t20.5 -77.5t31 -38
t39 -10q38 0 54.5 33.5t16.5 102.5q0 78 -6 130t-17.5 84t-28.5 45.5t-40 13.5zM209 521l-25 7l76 150h104q15 0 15 -11q0 -7 -9 -14z" />
    <glyph glyph-name="ocircumflex" unicode="&#xf4;" horiz-adv-x="514" 
d="M270 486q51 0 91 -17t67.5 -47.5t41.5 -74t14 -97.5q0 -56 -17.5 -104.5t-50 -83.5t-78 -55t-100.5 -20q-45 0 -83 15.5t-66 45t-43.5 73.5t-15.5 101q0 54 17 102t48.5 84t75.5 57t99 21zM250 440q-38 0 -57.5 -37t-19.5 -118q0 -79 7.5 -128.5t20.5 -77.5t31 -38
t39 -10q38 0 54.5 33.5t16.5 102.5q0 78 -6 130t-17.5 84t-28.5 45.5t-40 13.5zM224 664q13 18 39 18q25 0 37 -17l96 -136l-24 -7l-114 66l-107 -66l-22 7z" />
    <glyph glyph-name="otilde" unicode="&#xf5;" horiz-adv-x="514" 
d="M270 486q51 0 91 -17t67.5 -47.5t41.5 -74t14 -97.5q0 -56 -17.5 -104.5t-50 -83.5t-78 -55t-100.5 -20q-45 0 -83 15.5t-66 45t-43.5 73.5t-15.5 101q0 54 17 102t48.5 84t75.5 57t99 21zM250 440q-38 0 -57.5 -37t-19.5 -118q0 -79 7.5 -128.5t20.5 -77.5t31 -38
t39 -10q38 0 54.5 33.5t16.5 102.5q0 78 -6 130t-17.5 84t-28.5 45.5t-40 13.5zM114 549q0 24 6.5 47.5t18.5 42.5t29.5 31t41.5 12q27 0 46 -11t34.5 -23.5t28.5 -23.5t27 -11q25 0 37.5 19t11.5 46h26q0 -60 -24 -97.5t-77 -37.5q-25 0 -43.5 11t-34 23.5t-29 23.5
t-26.5 11q-21 0 -33.5 -15.5t-12.5 -47.5h-27z" />
    <glyph glyph-name="odieresis" unicode="&#xf6;" horiz-adv-x="514" 
d="M270 486q51 0 91 -17t67.5 -47.5t41.5 -74t14 -97.5q0 -56 -17.5 -104.5t-50 -83.5t-78 -55t-100.5 -20q-45 0 -83 15.5t-66 45t-43.5 73.5t-15.5 101q0 54 17 102t48.5 84t75.5 57t99 21zM250 440q-38 0 -57.5 -37t-19.5 -118q0 -79 7.5 -128.5t20.5 -77.5t31 -38
t39 -10q38 0 54.5 33.5t16.5 102.5q0 78 -6 130t-17.5 84t-28.5 45.5t-40 13.5zM151 659q26 0 44 -19t18 -46q0 -26 -18 -45t-44 -19t-44 19t-18 45q0 27 18 46t44 19zM366 659q26 0 44 -19t18 -46q0 -26 -18 -45t-44 -19t-44 19t-18 45q0 27 18 46t44 19z" />
    <glyph glyph-name="divide" unicode="&#xf7;" horiz-adv-x="571" 
d="M30 211v88h511v-88h-511zM219 88q0 29 20.5 51.5t51.5 22.5t52.5 -22t21.5 -52q0 -31 -21.5 -51.5t-52.5 -20.5t-51.5 21t-20.5 51zM219 422q0 29 20.5 51.5t51.5 22.5t52.5 -22t21.5 -52q0 -31 -21.5 -51.5t-52.5 -20.5t-51.5 21t-20.5 51z" />
    <glyph glyph-name="oslash" unicode="&#xf8;" horiz-adv-x="514" 
d="M89 0h-74l59 68q-20 29 -31 67.5t-11 86.5q0 54 16.5 102t47.5 84t75 57t99 21q81 0 134 -42l21 24h74l-57 -65q40 -62 40 -153q0 -56 -17.5 -104.5t-49 -83.5t-77 -55t-100.5 -20q-74 0 -126 40zM186 111q11 -48 31.5 -65.5t50.5 -17.5q41 0 57.5 38t16.5 126
q0 52 -3 93zM329 358q-11 48 -30 66t-47 18q-42 0 -60.5 -40.5t-18.5 -134.5q0 -46 3 -83z" />
    <glyph glyph-name="ugrave" unicode="&#xf9;" horiz-adv-x="562" 
d="M497 471q-2 -93 -3 -179t-1 -171q0 -30 3 -48t7.5 -28t11 -13t14.5 -3v-29h-137q-6 23 -9.5 47t-3.5 47q-34 -54 -78 -81.5t-107 -27.5q-24 0 -46 7.5t-39.5 24t-27.5 42t-10 60.5v238q0 52 -9 69t-23 17v28h166q-2 -81 -2 -162v-162q0 -47 16.5 -67.5t47.5 -20.5
q15 0 32 7t31 20.5t23.5 32.5t9.5 44q1 39 1 90.5v104.5q0 30 -1.5 47t-5 25.5t-10.5 10.5t-18 2v28h168v0zM178 653q-9 7 -9 14q0 11 15 11h104l76 -150l-25 -7l-161 132v0z" />
    <glyph glyph-name="uacute" unicode="&#xfa;" horiz-adv-x="562" 
d="M497 471q-2 -93 -3 -179t-1 -171q0 -30 3 -48t7.5 -28t11 -13t14.5 -3v-29h-137q-6 23 -9.5 47t-3.5 47q-34 -54 -78 -81.5t-107 -27.5q-24 0 -46 7.5t-39.5 24t-27.5 42t-10 60.5v238q0 52 -9 69t-23 17v28h166q-2 -81 -2 -162v-162q0 -47 16.5 -67.5t47.5 -20.5
q15 0 32 7t31 20.5t23.5 32.5t9.5 44q1 39 1 90.5v104.5q0 30 -1.5 47t-5 25.5t-10.5 10.5t-18 2v28h168v0zM237 521l-25 7l76 150h104q15 0 15 -11q0 -7 -9 -14z" />
    <glyph glyph-name="ucircumflex" unicode="&#xfb;" horiz-adv-x="562" 
d="M497 471q-2 -93 -3 -179t-1 -171q0 -30 3 -48t7.5 -28t11 -13t14.5 -3v-29h-137q-6 23 -9.5 47t-3.5 47q-34 -54 -78 -81.5t-107 -27.5q-24 0 -46 7.5t-39.5 24t-27.5 42t-10 60.5v238q0 52 -9 69t-23 17v28h166q-2 -81 -2 -162v-162q0 -47 16.5 -67.5t47.5 -20.5
q15 0 32 7t31 20.5t23.5 32.5t9.5 44q1 39 1 90.5v104.5q0 30 -1.5 47t-5 25.5t-10.5 10.5t-18 2v28h168v0zM247 664q13 18 39 18q25 0 37 -17l96 -136l-24 -7l-114 66l-107 -66l-22 7z" />
    <glyph glyph-name="udieresis" unicode="&#xfc;" horiz-adv-x="562" 
d="M497 471q-2 -93 -3 -179t-1 -171q0 -30 3 -48t7.5 -28t11 -13t14.5 -3v-29h-137q-6 23 -9.5 47t-3.5 47q-34 -54 -78 -81.5t-107 -27.5q-24 0 -46 7.5t-39.5 24t-27.5 42t-10 60.5v238q0 52 -9 69t-23 17v28h166q-2 -81 -2 -162v-162q0 -47 16.5 -67.5t47.5 -20.5
q15 0 32 7t31 20.5t23.5 32.5t9.5 44q1 39 1 90.5v104.5q0 30 -1.5 47t-5 25.5t-10.5 10.5t-18 2v28h168v0zM175 659q26 0 44 -19t18 -46q0 -26 -18 -45t-44 -19t-44 19t-18 45q0 27 18 46t44 19zM390 659q26 0 44 -19t18 -46q0 -26 -18 -45t-44 -19t-44 19t-18 45
q0 27 18 46t44 19z" />
    <glyph glyph-name="yacute" unicode="&#xfd;" horiz-adv-x="447" 
d="M205 0q-35 84 -72.5 172t-75.5 169q-26 56 -41.5 79t-25.5 23v28h242v-28h-14q-17 0 -28 -7t-11 -21q0 -11 3 -19.5t8 -18.5q10 -22 22 -51t24 -60.5t22.5 -62t15.5 -55.5h4q14 46 29.5 87.5t25.5 66.5q11 28 18 56t7 42q0 20 -14.5 31.5t-38.5 11.5v28h164v-28
q-14 0 -31 -28.5t-42 -86.5q-34 -80 -65.5 -164t-59.5 -164q-23 -64 -41.5 -104t-38.5 -62t-44 -30t-56 -8q-42 0 -67.5 19t-25.5 63q0 28 15 50.5t53 22.5q17 0 28.5 -6t18 -14t9 -17t2.5 -16t-2 -14t-2 -10q0 -17 18 -17q11 0 23 12t21.5 31.5t16 45.5t6.5 54zM222 521
l-25 7l76 150h104q15 0 15 -11q0 -7 -9 -14z" />
    <glyph glyph-name="thorn" unicode="&#xfe;" horiz-adv-x="545" 
d="M205 90q0 -26 18 -40.5t48 -14.5q22 0 40.5 9.5t32 32t21.5 60t8 93.5q0 77 -20.5 122t-60.5 45q-39 0 -63 -35.5t-24 -98.5v-173zM213 685q0 -8 -1.5 -32t-3.5 -56.5t-4 -69t-4 -70t-3.5 -59.5t-1.5 -37q9 23 22.5 45.5t32 40t43 28.5t54.5 11q34 0 65 -14t53.5 -41.5
t36 -70t13.5 -99.5q0 -61 -17.5 -111.5t-47 -87t-68 -56.5t-81.5 -20q-32 0 -57 9t-39 24v-119q0 -20 1.5 -32.5t6.5 -19t15.5 -8.5t28.5 -2v-28h-216v28q10 0 16 6t10 31.5t5.5 78.5t1.5 148v503q0 38 -28 38h-16v28q13 1 35.5 3t46 4.5t45 5.5t34.5 6q3 1 5 1.5t4 0.5
q5 0 9 -2t4 -5z" />
    <glyph glyph-name="ydieresis" unicode="&#xff;" horiz-adv-x="447" 
d="M205 0q-35 84 -72.5 172t-75.5 169q-26 56 -41.5 79t-25.5 23v28h242v-28h-14q-17 0 -28 -7t-11 -21q0 -11 3 -19.5t8 -18.5q10 -22 22 -51t24 -60.5t22.5 -62t15.5 -55.5h4q14 46 29.5 87.5t25.5 66.5q11 28 18 56t7 42q0 20 -14.5 31.5t-38.5 11.5v28h164v-28
q-14 0 -31 -28.5t-42 -86.5q-34 -80 -65.5 -164t-59.5 -164q-23 -64 -41.5 -104t-38.5 -62t-44 -30t-56 -8q-42 0 -67.5 19t-25.5 63q0 28 15 50.5t53 22.5q17 0 28.5 -6t18 -14t9 -17t2.5 -16t-2 -14t-2 -10q0 -17 18 -17q11 0 23 12t21.5 31.5t16 45.5t6.5 54zM147 659
q26 0 44 -19t18 -46q0 -26 -18 -45t-44 -19t-44 19t-18 45q0 27 18 46t44 19zM362 659q26 0 44 -19t18 -46q0 -26 -18 -45t-44 -19t-44 19t-18 45q0 27 18 46t44 19z" />
    <glyph glyph-name="Amacron" unicode="&#x100;" horiz-adv-x="670" 
d="M374 238l-51 125q-16 38 -25 68t-13 49h-6q-5 -20 -16.5 -51.5t-23.5 -62.5l-49 -128h184zM172 191l-19 -51q-14 -35 -14 -61q0 -29 18 -40t47 -11v-28h-214v28q14 0 28.5 9.5t33.5 38.5t44 83.5t59 144.5l144 379h57l203 -469q29 -67 46 -104.5t29 -55.5t22 -22t24 -4
v-28h-313v28q41 0 58 8t17 25q0 12 -5 23l-44 107h-221zM442 789v-74h-237v74h237z" />
    <glyph glyph-name="amacron" unicode="&#x101;" horiz-adv-x="499" 
d="M304 149q2 26 2 57v57q-62 -14 -97 -44.5t-35 -94.5q0 -42 15.5 -57t39.5 -15q27 0 49.5 22.5t25.5 74.5zM325 89q-23 -56 -66 -77.5t-101 -21.5t-90 29.5t-32 80.5q0 26 12 52t42.5 50.5t82.5 47.5t133 44v67q0 48 -14.5 68t-52.5 20q-29 0 -46 -13t-17 -33
q0 -15 4.5 -27.5t4.5 -27.5q0 -28 -19.5 -42.5t-43.5 -14.5q-25 0 -45.5 15.5t-20.5 47.5q0 23 12.5 46.5t37.5 42.5t63 31t90 12q50 0 84 -10t55 -28.5t30 -44t9 -56.5q0 -47 -2 -97t-2 -119q0 -51 11.5 -77t22.5 -26v-28h-116q-15 38 -19 89h-7zM376 649v-88h-260v88h260z
" />
    <glyph glyph-name="Abreve" unicode="&#x102;" horiz-adv-x="670" 
d="M374 238l-51 125q-16 38 -25 68t-13 49h-6q-5 -20 -16.5 -51.5t-23.5 -62.5l-49 -128h184zM172 191l-19 -51q-14 -35 -14 -61q0 -29 18 -40t47 -11v-28h-214v28q14 0 28.5 9.5t33.5 38.5t44 83.5t59 144.5l144 379h57l203 -469q29 -67 46 -104.5t29 -55.5t22 -22t24 -4
v-28h-313v28q41 0 58 8t17 25q0 12 -5 23l-44 107h-221zM445 851q-1 -36 -11.5 -64.5t-27 -48t-37.5 -29.5t-44 -10t-44.5 10t-38 29.5t-26.5 48t-11 64.5h31q2 -40 28 -54t61 -14q18 0 33.5 3t28 10.5t20 21t8.5 33.5h30v0z" />
    <glyph glyph-name="abreve" unicode="&#x103;" horiz-adv-x="499" 
d="M304 149q2 26 2 57v57q-62 -14 -97 -44.5t-35 -94.5q0 -42 15.5 -57t39.5 -15q27 0 49.5 22.5t25.5 74.5zM325 89q-23 -56 -66 -77.5t-101 -21.5t-90 29.5t-32 80.5q0 26 12 52t42.5 50.5t82.5 47.5t133 44v67q0 48 -14.5 68t-52.5 20q-29 0 -46 -13t-17 -33
q0 -15 4.5 -27.5t4.5 -27.5q0 -28 -19.5 -42.5t-43.5 -14.5q-25 0 -45.5 15.5t-20.5 47.5q0 23 12.5 46.5t37.5 42.5t63 31t90 12q50 0 84 -10t55 -28.5t30 -44t9 -56.5q0 -47 -2 -97t-2 -119q0 -51 11.5 -77t22.5 -26v-28h-120q-6 20 -9.5 40.5t-5.5 48.5h-7zM362 678
q-1 -36 -11.5 -64.5t-27 -48t-37.5 -29.5t-44 -10t-44.5 10t-38 29.5t-26.5 48t-11 64.5h31q2 -40 28 -54t61 -14q18 0 33.5 3t28 10.5t20 21t8.5 33.5h30v0z" />
    <glyph glyph-name="Aogonek" unicode="&#x104;" horiz-adv-x="670" 
d="M374 238l-51 125q-16 38 -25 68t-13 49h-6q-5 -20 -16.5 -51.5t-23.5 -62.5l-49 -128h184zM542 0q-26 -16 -38.5 -37.5t-12.5 -42.5q0 -30 22 -53t60 -23q14 0 28 3t23 8l9 -19q-27 -21 -56.5 -32t-64.5 -11q-46 0 -70 28t-24 65q0 34 21 65.5t66 48.5h-138v28q41 0 58 8
t17 25q0 12 -5 23l-44 107h-221l-19 -51q-14 -35 -14 -61q0 -29 18 -40t47 -11v-28h-214v28q14 0 28.5 9.5t33.5 38.5t44 83.5t59 144.5l144 379h57l203 -469q29 -67 46 -104.5t29 -55.5t22 -22t24 -4v-28h-138v0z" />
    <glyph glyph-name="aogonek" unicode="&#x105;" horiz-adv-x="499" 
d="M304 149q2 26 2 57v57q-62 -14 -97 -44.5t-35 -94.5q0 -42 15.5 -57t39.5 -15q27 0 49.5 22.5t25.5 74.5zM387 0q-26 -16 -38.5 -37.5t-12.5 -42.5q0 -30 22 -53t60 -23q14 0 28 3t23 8l9 -19q-27 -21 -56.5 -32t-64.5 -11q-46 0 -70 28t-24 65q0 34 21.5 66t66.5 48
q-15 38 -19 89h-7q-23 -56 -66 -77.5t-101 -21.5t-90 29.5t-32 80.5q0 26 12 52t42.5 50.5t82.5 47.5t133 44v67q0 48 -14.5 68t-52.5 20q-29 0 -46 -13t-17 -33q0 -15 4.5 -27.5t4.5 -27.5q0 -28 -19.5 -42.5t-43.5 -14.5q-25 0 -45.5 15.5t-20.5 47.5q0 23 12.5 46.5
t37.5 42.5t63 31t90 12q50 0 84 -10t55 -28.5t30 -44t9 -56.5q0 -47 -2 -97t-2 -119q0 -51 11.5 -77t22.5 -26v-28h-80v0z" />
    <glyph glyph-name="Cacute" unicode="&#x106;" horiz-adv-x="621" 
d="M582 440q0 -3 -4.5 -5t-9.5 -2t-9.5 2t-4.5 5q0 41 -12.5 76.5t-34 62t-50 41.5t-61.5 15q-48 0 -84 -23.5t-60 -64.5t-36 -97t-12 -121q0 -64 11.5 -115t36 -86t63 -54t92.5 -19q27 0 52.5 8.5t47 24.5t37 39.5t22.5 54.5l23 -7q-7 -34 -22 -68t-41.5 -61.5t-66.5 -44.5
t-96 -17q-86 0 -148 28t-102.5 73.5t-59.5 105t-19 122.5q0 78 28 147t78 121t118 82.5t149 30.5q33 0 61.5 -3.5t51 -8t38.5 -8.5t24 -4v-230zM295 702l-25 6l92 128h120q15 0 15 -11q0 -7 -9 -13z" />
    <glyph glyph-name="cacute" unicode="&#x107;" horiz-adv-x="451" 
d="M426 119q-6 -20 -18.5 -43t-33.5 -43t-52.5 -33.5t-76.5 -13.5q-55 0 -95 18t-66 48.5t-38.5 71t-12.5 86.5q0 53 16 103t48 88.5t79.5 61.5t109.5 23q42 0 70.5 -11t46.5 -28t25.5 -37t7.5 -39q0 -35 -21 -52t-45 -17q-23 0 -42 14.5t-19 41.5q0 41 -9.5 60t-37.5 19
q-22 0 -38.5 -13t-28 -35.5t-17 -52.5t-5.5 -63q0 -42 6.5 -80t20.5 -67.5t37.5 -46.5t58.5 -17q74 0 107 69zM208 521l-25 7l76 150h104q15 0 15 -11q0 -7 -9 -14z" />
    <glyph glyph-name="Ccaron" unicode="&#x10c;" horiz-adv-x="621" 
d="M582 440q0 -3 -4.5 -5t-9.5 -2t-9.5 2t-4.5 5q0 41 -12.5 76.5t-34 62t-50 41.5t-61.5 15q-48 0 -84 -23.5t-60 -64.5t-36 -97t-12 -121q0 -64 11.5 -115t36 -86t63 -54t92.5 -19q27 0 52.5 8.5t47 24.5t37 39.5t22.5 54.5l23 -7q-7 -34 -22 -68t-41.5 -61.5t-66.5 -44.5
t-96 -17q-86 0 -148 28t-102.5 73.5t-59.5 105t-19 122.5q0 78 28 147t78 121t118 82.5t149 30.5q33 0 61.5 -3.5t51 -8t38.5 -8.5t24 -4v-230zM416 729q-6 -8 -17 -12.5t-24 -4.5q-26 0 -39 16l-102 125l25 6l121 -63l114 63l23 -6z" />
    <glyph glyph-name="ccaron" unicode="&#x10d;" horiz-adv-x="451" 
d="M426 119q-6 -20 -18.5 -43t-33.5 -43t-52.5 -33.5t-76.5 -13.5q-55 0 -95 18t-66 48.5t-38.5 71t-12.5 86.5q0 53 16 103t48 88.5t79.5 61.5t109.5 23q42 0 70.5 -11t46.5 -28t25.5 -37t7.5 -39q0 -35 -21 -52t-45 -17q-23 0 -42 14.5t-19 41.5q0 41 -9.5 60t-37.5 19
q-22 0 -38.5 -13t-28 -35.5t-17 -52.5t-5.5 -63q0 -42 6.5 -80t20.5 -67.5t37.5 -46.5t58.5 -17q74 0 107 69zM295 540q-13 -18 -39 -18q-25 0 -37 17l-96 136l24 7l114 -66l107 66l22 -7z" />
    <glyph glyph-name="Dcaron" unicode="&#x10e;" 
d="M261 634q-2 -131 -3.5 -259.5t-1.5 -259.5q0 -41 14.5 -58t62.5 -17q40 0 74.5 14.5t59.5 47.5t39 86.5t14 130.5q0 152 -58 233.5t-164 81.5h-37v0zM55 28h10q23 0 32 17t9 69v450q0 52 -9 69t-32 17h-10v28h230q104 0 179.5 -26t124 -72.5t72 -110.5t23.5 -141
q0 -64 -16.5 -123t-57 -104.5t-108.5 -73t-172 -27.5h-275v28zM399 729q-6 -8 -17 -12.5t-24 -4.5q-26 0 -39 16l-102 125l25 6l121 -63l114 63l23 -6z" />
    <glyph glyph-name="dcaron" unicode="&#x10f;" horiz-adv-x="548" 
d="M345 404q-26 32 -67 32q-23 0 -41 -14.5t-30.5 -39.5t-19.5 -60t-7 -75q0 -92 25.5 -136t63.5 -44q33 0 54.5 29.5t21.5 107.5v200zM484 685q0 -13 -4 -132.5t-4 -357.5q0 -56 2 -89.5t6.5 -50.5t10 -22t13.5 -5v-28h-120q-6 20 -11 44t-6 65h-7q-14 -59 -55 -91
t-101 -32q-35 0 -66.5 13.5t-55 40.5t-37.5 69t-14 99t16.5 108t45 88.5t67.5 59.5t84 22q61 0 97 -36v155q0 38 -28 38h-23v28q16 1 39.5 3t47.5 4.5t46 5.5t35 6q2 1 4 1.5t5 0.5q5 0 9 -2t4 -5zM542 521l-25 4l13 153h84q15 0 15 -11q0 -5 -5 -14z" />
    <glyph glyph-name="Dcroat" unicode="&#x110;" 
d="M257 305q-1 -48 -1 -95v-95q0 -41 14.5 -58t62.5 -17q40 0 74.5 14.5t59.5 47.5t39 86.5t14 130.5q0 152 -58 233.5t-164 81.5h-37l-2 -120t-1 -121h123v-88h-124v0zM34 305v88h72v171q0 52 -9 69t-32 17h-10v28h230q104 0 179.5 -26t124 -72.5t72 -110.5t23.5 -141
q0 -64 -16.5 -123t-57 -104.5t-108.5 -73t-172 -27.5h-275v28h10q23 0 32 17t9 69v191h-72z" />
    <glyph glyph-name="dcroat" unicode="&#x111;" horiz-adv-x="548" 
d="M345 602v3q0 38 -28 38h-23v28q16 1 39.5 3t47.5 4.5t46 5.5t35 6q2 1 4 1.5t5 0.5q5 0 9 -2t4 -5q0 -5 -1 -25.5t-2 -57.5h36v-78h-38q-3 -119 -3 -329q0 -56 2 -89.5t6.5 -50.5t10 -22t13.5 -5v-28h-120q-6 20 -11 44t-6 65h-7q-14 -59 -55 -91t-101 -32
q-35 0 -66.5 13.5t-55 40.5t-37.5 69t-14 99t16.5 108t45 88.5t67.5 59.5t84 22q61 0 97 -36v74h-88v78h88zM345 404q-26 32 -67 32q-23 0 -41 -14.5t-30.5 -39.5t-19.5 -60t-7 -75q0 -92 25.5 -136t63.5 -44q33 0 54.5 29.5t21.5 107.5v200z" />
    <glyph glyph-name="Emacron" unicode="&#x112;" horiz-adv-x="649" 
d="M575 678l5 -196h-28q-5 69 -54 111t-146 42h-90q-2 -78 -2.5 -144t-1.5 -126h51q50 0 79.5 36t29.5 103h28v-320h-28q0 27 -4 52t-16 44.5t-33.5 31t-55.5 11.5h-52q-1 -56 -1 -105.5v-94.5q0 -47 25 -65t89 -18q54 0 94.5 13t68 35.5t43.5 52.5t21 64h28l-10 -205h-560
v28h10q23 0 32 17t9 69v450q0 52 -9 69t-32 17h-10v28h520zM473 789v-74h-237v74h237z" />
    <glyph glyph-name="emacron" unicode="&#x113;" horiz-adv-x="460" 
d="M173 266q0 -57 11.5 -96t30.5 -64t43 -36t48 -11q64 0 99 52l22 -14q-6 -15 -18.5 -34t-32 -36t-48.5 -29t-68 -12q-55 0 -97.5 19t-71 51.5t-43.5 75.5t-15 90q0 52 16.5 100t47.5 84.5t75.5 58t100.5 21.5q45 0 78 -16.5t54 -43t31 -58.5t10 -63q0 -24 -9 -31.5
t-44 -7.5h-220v0zM321 302q0 66 -11.5 103.5t-53.5 37.5q-23 0 -38 -11t-24.5 -29.5t-13.5 -44.5t-5 -56h146v0zM376 649v-88h-260v88h260z" />
    <glyph glyph-name="Edotaccent" unicode="&#x116;" horiz-adv-x="649" 
d="M575 678l5 -196h-28q-5 69 -54 111t-146 42h-90q-2 -78 -2.5 -144t-1.5 -126h51q50 0 79.5 36t29.5 103h28v-320h-28q0 27 -4 52t-16 44.5t-33.5 31t-55.5 11.5h-52q-1 -56 -1 -105.5v-94.5q0 -47 25 -65t89 -18q54 0 94.5 13t68 35.5t43.5 52.5t21 64h28l-10 -205h-560
v28h10q23 0 32 17t9 69v450q0 52 -9 69t-32 17h-10v28h520zM351 837q26 0 44 -19t18 -46q0 -26 -18 -45t-44 -19t-44 19t-18 45q0 27 18 46t44 19z" />
    <glyph glyph-name="edotaccent" unicode="&#x117;" horiz-adv-x="460" 
d="M173 266q0 -57 11.5 -96t30.5 -64t43 -36t48 -11q64 0 99 52l22 -14q-6 -15 -18.5 -34t-32 -36t-48.5 -29t-68 -12q-55 0 -97.5 19t-71 51.5t-43.5 75.5t-15 90q0 52 16.5 100t47.5 84.5t75.5 58t100.5 21.5q45 0 78 -16.5t54 -43t31 -58.5t10 -63q0 -24 -9 -31.5
t-44 -7.5h-220v0zM321 302q0 66 -11.5 103.5t-53.5 37.5q-23 0 -38 -11t-24.5 -29.5t-13.5 -44.5t-5 -56h146v0zM262 659q26 0 44 -19t18 -46q0 -26 -18 -45t-44 -19t-44 19t-18 45q0 27 18 46t44 19z" />
    <glyph glyph-name="Eogonek" unicode="&#x118;" horiz-adv-x="649" 
d="M55 0v28h10q23 0 32 17t9 69v450q0 52 -9 69t-32 17h-10v28h520l5 -196h-28q-5 69 -54 111t-146 42h-90q-2 -78 -2.5 -144t-1.5 -126h51q50 0 79.5 36t29.5 103h28v-320h-28q0 27 -4 52t-16 44.5t-33.5 31t-55.5 11.5h-52q-1 -56 -1 -105.5v-94.5q0 -47 25 -65t89 -18
q54 0 94.5 13t68 35.5t43.5 52.5t21 64h28l-10 -205h-160q-27 -16 -39.5 -37.5t-12.5 -42.5q0 -30 22 -53t60 -23q14 0 28 3t23 8l9 -19q-27 -21 -56.5 -32t-64.5 -11q-46 0 -70 28t-24 65q0 34 21.5 66t66.5 48h-363z" />
    <glyph glyph-name="eogonek" unicode="&#x119;" horiz-adv-x="460" 
d="M173 266q0 -57 11.5 -96t30.5 -64t43 -36t48 -11q64 0 99 52l22 -14q-6 -14 -17 -31t-28 -33.5t-42 -29t-58 -16.5q-17 -14 -25 -32t-8 -35q0 -30 22 -53t60 -23q14 0 28 3t23 8l9 -19q-27 -21 -56.5 -32t-64.5 -11q-46 0 -70 28t-24 65q0 29 14.5 56t45.5 45
q-50 4 -87.5 25t-63.5 52.5t-39 72t-13 85.5q0 52 16.5 100t47.5 84.5t75.5 58t100.5 21.5q45 0 78 -16.5t54 -43t31 -58.5t10 -63q0 -24 -9 -31.5t-44 -7.5h-220v0zM321 302q0 66 -11.5 103.5t-53.5 37.5q-23 0 -38 -11t-24.5 -29.5t-13.5 -44.5t-5 -56h146v0z" />
    <glyph glyph-name="Ecaron" unicode="&#x11a;" horiz-adv-x="649" 
d="M575 678l5 -196h-28q-5 69 -54 111t-146 42h-90q-2 -78 -2.5 -144t-1.5 -126h51q50 0 79.5 36t29.5 103h28v-320h-28q0 27 -4 52t-16 44.5t-33.5 31t-55.5 11.5h-52q-1 -56 -1 -105.5v-94.5q0 -47 25 -65t89 -18q54 0 94.5 13t68 35.5t43.5 52.5t21 64h28l-10 -205h-560
v28h10q23 0 32 17t9 69v450q0 52 -9 69t-32 17h-10v28h520zM398 729q-6 -8 -17 -12.5t-24 -4.5q-26 0 -39 16l-102 125l25 6l121 -63l114 63l23 -6z" />
    <glyph glyph-name="ecaron" unicode="&#x11b;" horiz-adv-x="460" 
d="M173 266q0 -57 11.5 -96t30.5 -64t43 -36t48 -11q64 0 99 52l22 -14q-6 -15 -18.5 -34t-32 -36t-48.5 -29t-68 -12q-55 0 -97.5 19t-71 51.5t-43.5 75.5t-15 90q0 52 16.5 100t47.5 84.5t75.5 58t100.5 21.5q45 0 78 -16.5t54 -43t31 -58.5t10 -63q0 -24 -9 -31.5
t-44 -7.5h-220v0zM321 302q0 66 -11.5 103.5t-53.5 37.5q-23 0 -38 -11t-24.5 -29.5t-13.5 -44.5t-5 -56h146v0zM295 540q-13 -18 -39 -18q-25 0 -37 17l-96 136l24 7l114 -66l107 66l22 -7z" />
    <glyph glyph-name="Gcommaaccent" unicode="&#x122;" horiz-adv-x="716" 
d="M614 449q0 -3 -4.5 -5t-9.5 -2t-9 2t-5 5q-8 91 -53 142t-110 51q-104 0 -161.5 -81t-57.5 -228q0 -68 14 -124.5t40 -97t63 -63t83 -22.5q37 0 52.5 18t15.5 41v159q0 17 -5 27.5t-18 16t-35.5 7.5t-56.5 2v28h344v-28q-38 0 -53.5 -13.5t-15.5 -60.5v-172
q-38 -19 -73 -32t-69.5 -20.5t-69.5 -11t-72 -3.5q-75 0 -133 25.5t-98.5 70t-61.5 104.5t-21 129q0 94 34 165t89 119t125 72.5t141 24.5q35 0 66.5 -4t56 -8.5t42.5 -8t26 -3.5v-221zM340 -264q46 23 63.5 48t17.5 51q0 16 -7.5 20.5t-18.5 4.5q-22 0 -36 14t-14 37
q0 20 14 39t44 19q19 0 32.5 -8t22 -21t12.5 -30t4 -34q0 -54 -27.5 -95.5t-93.5 -70.5z" />
    <glyph glyph-name="gcommaaccent" unicode="&#x123;" horiz-adv-x="510" 
d="M157 -9q-14 0 -22 -11t-8 -29q0 -12 6.5 -25t23.5 -23.5t47 -17t77 -6.5q59 0 90 18t31 46q0 26 -23 33t-79 7q-55 0 -89 2.5t-54 5.5zM243 447q-27 0 -46 -25t-19 -88q0 -76 19 -107t45 -31q28 0 46.5 27.5t18.5 86.5q0 62 -13.5 99.5t-50.5 37.5zM148 177
q-103 41 -103 139q0 35 13.5 66t39 54t62 36.5t81.5 13.5q30 0 72 -7.5t85 -7.5h86q8 0 10 -9t2 -24q0 -13 -3 -23.5t-9 -10.5q-11 0 -26.5 1t-31.5 2.5t-30.5 3.5t-22.5 4l-2 -6q29 -12 46 -43t17 -70q0 -24 -10.5 -49t-34 -44.5t-60 -32t-88.5 -12.5q-12 0 -24 0.5
t-25 0.5q-21 0 -35.5 -5t-14.5 -23q0 -16 13 -23.5t48 -10.5q37 -3 114 -3q43 0 74 -4.5t50.5 -16.5t29 -32t9.5 -50q0 -45 -23.5 -80t-62.5 -58.5t-89 -36t-103 -12.5q-49 0 -83 9.5t-55.5 25t-31 35t-9.5 39.5q0 35 28 58.5t77 31.5q-45 9 -64 30.5t-19 49.5q0 16 8 31.5
t22 28t33 21.5t40 13zM318 740q-46 -23 -63.5 -48t-17.5 -51q0 -16 7.5 -20.5t18.5 -4.5q22 0 36 -14t14 -37q0 -20 -14 -39t-44 -19q-19 0 -32.5 8t-22 21t-12.5 30t-4 34q0 54 27.5 95.5t93.5 70.5z" />
    <glyph glyph-name="Imacron" unicode="&#x12a;" horiz-adv-x="367" 
d="M261 564q-2 -113 -3.5 -225t-1.5 -225q0 -52 9 -69t32 -17h10v-28h-252v28h10q23 0 32 17t9 69v450q0 52 -9 69t-32 17h-10v28h257v-28h-10q-23 0 -31.5 -17t-9.5 -69zM306 789v-74h-237v74h237z" />
    <glyph glyph-name="imacron" unicode="&#x12b;" horiz-adv-x="276" 
d="M212 486q-2 -99 -2.5 -190t-0.5 -182q0 -32 2 -49t6 -25.5t10.5 -10t14.5 -1.5v-28h-196v28q14 0 23 17t9 69v275q0 23 -11 30.5t-33 7.5v29l178 30v0zM268 649v-88h-260v88h260z" />
    <glyph glyph-name="Iogonek" unicode="&#x12e;" horiz-adv-x="367" 
d="M55 0v28h10q23 0 32 17t9 69v450q0 52 -9 69t-32 17h-10v28h257v-28h-10q-23 0 -31.5 -17t-9.5 -69q-2 -113 -3.5 -225t-1.5 -225q0 -52 9 -69t32 -17h10v-28h-102q-27 -16 -39.5 -37.5t-12.5 -42.5q0 -30 22 -53t60 -23q14 0 28 3t23 8l9 -19q-27 -21 -56.5 -32
t-64.5 -11q-46 0 -70 28t-24 65q0 34 21.5 66t66.5 48h-113z" />
    <glyph glyph-name="iogonek" unicode="&#x12f;" horiz-adv-x="276" 
d="M46 0v28q14 0 23 17t9 69v275q0 23 -11 30.5t-33 7.5v29l178 30q-2 -99 -2.5 -190t-0.5 -182q0 -32 2 -49t6 -25.5t10.5 -10t14.5 -1.5v-28h-73q-27 -16 -39.5 -37.5t-12.5 -42.5q0 -30 22 -53t60 -23q14 0 28 3t23 8l9 -19q-27 -21 -56.5 -32t-64.5 -11q-46 0 -70 28
t-24 65q0 34 21.5 66t66.5 48h-86zM147 675q29 0 49.5 -20.5t20.5 -49.5t-20.5 -49.5t-49.5 -20.5t-49.5 20.5t-20.5 49.5t20.5 49.5t49.5 20.5z" />
    <glyph glyph-name="dotlessi" unicode="&#x131;" horiz-adv-x="276" 
d="M212 486q-2 -99 -2.5 -190t-0.5 -182q0 -32 2 -49t6 -25.5t10.5 -10t14.5 -1.5v-28h-196v28q14 0 23 17t9 69v275q0 23 -11 30.5t-33 7.5v29l178 30v0z" />
    <glyph glyph-name="Kcommaaccent" unicode="&#x136;" horiz-adv-x="696" 
d="M484 0q-31 39 -59.5 79t-55 79.5t-52.5 77.5t-53 71l179 233q28 37 28 66q0 20 -14 32t-40 12v28h266v-28q-33 -2 -74 -25t-76 -63l-148 -169q39 -45 71 -87.5t65 -87.5q42 -57 71 -93.5t48.5 -57.5t31.5 -29.5t21 -9.5v-28h-209v0zM261 564q-2 -113 -3.5 -225t-1.5 -225
q0 -52 9 -69t32 -17h10v-28h-252v28h10q23 0 32 17t9 69v450q0 52 -9 69t-32 17h-10v28h257v-28h-10q-23 0 -31.5 -17t-9.5 -69zM286 -264q46 23 63.5 48t17.5 51q0 16 -7.5 20.5t-18.5 4.5q-22 0 -36 14t-14 37q0 20 14 39t44 19q19 0 32.5 -8t22 -21t12.5 -30t4 -34
q0 -54 -27.5 -95.5t-93.5 -70.5z" />
    <glyph glyph-name="kcommaaccent" unicode="&#x137;" horiz-adv-x="533" 
d="M361 0q-20 26 -40.5 61t-40 69t-37 63t-30.5 44l120 124q13 14 17.5 26.5t4.5 22.5q0 18 -12.5 25.5t-35.5 7.5v28h215v-28q-35 0 -87 -48l-110 -103q11 -12 31.5 -44.5t47.5 -72.5q14 -21 30 -46.5t32 -48t30.5 -37.5t25.5 -15v-28h-161v0zM42 0v28q15 0 23.5 17t8.5 69
v491q0 38 -28 38h-16v28q13 1 35.5 3t46 4.5t45 5.5t34.5 6q3 1 5 1.5t4 0.5q5 0 9 -2t4 -5q0 -6 -1.5 -39.5t-3 -102t-2.5 -174t-1 -255.5q0 -52 8.5 -69t23.5 -17v-28h-195zM209 -264q46 23 63.5 48t17.5 51q0 16 -7.5 20.5t-18.5 4.5q-22 0 -36 14t-14 37q0 20 14 39
t44 19q19 0 32.5 -8t22 -21t12.5 -30t4 -34q0 -54 -27.5 -95.5t-93.5 -70.5z" />
    <glyph glyph-name="Lacute" unicode="&#x139;" horiz-adv-x="596" 
d="M55 0v28h10q23 0 32 17t9 69v450q0 52 -9 69t-32 17h-10v28h257v-28h-10q-23 0 -31.5 -17t-9.5 -69q-2 -113 -3.5 -221t-1.5 -198q0 -55 24.5 -76.5t72.5 -21.5q85 0 137 49.5t75 145.5h28l-17 -242h-521zM159 702l-25 6l92 128h120q15 0 15 -11q0 -7 -9 -13z" />
    <glyph glyph-name="lacute" unicode="&#x13a;" horiz-adv-x="272" 
d="M42 0v28q15 0 23.5 17t8.5 69v491q0 38 -28 38h-16v28q13 1 35.5 3t46 4.5t45 5.5t34.5 6q3 1 5 1.5t4 0.5q5 0 9 -2t4 -5q0 -6 -1.5 -39.5t-3 -102t-2.5 -174t-1 -255.5q0 -52 8.5 -69t23.5 -17v-28h-195zM80 702l-25 6l92 128h120q15 0 15 -11q0 -7 -9 -13z" />
    <glyph glyph-name="Lcommaaccent" unicode="&#x13b;" horiz-adv-x="596" 
d="M55 0v28h10q23 0 32 17t9 69v450q0 52 -9 69t-32 17h-10v28h257v-28h-10q-23 0 -31.5 -17t-9.5 -69q-2 -113 -3.5 -221t-1.5 -198q0 -55 24.5 -76.5t72.5 -21.5q85 0 137 49.5t75 145.5h28l-17 -242h-521zM278 -264q46 23 63.5 48t17.5 51q0 16 -7.5 20.5t-18.5 4.5
q-22 0 -36 14t-14 37q0 20 14 39t44 19q19 0 32.5 -8t22 -21t12.5 -30t4 -34q0 -54 -27.5 -95.5t-93.5 -70.5z" />
    <glyph glyph-name="lcommaaccent" unicode="&#x13c;" horiz-adv-x="272" 
d="M42 0v28q15 0 23.5 17t8.5 69v491q0 38 -28 38h-16v28q13 1 35.5 3t46 4.5t45 5.5t34.5 6q3 1 5 1.5t4 0.5q5 0 9 -2t4 -5q0 -6 -1.5 -39.5t-3 -102t-2.5 -174t-1 -255.5q0 -52 8.5 -69t23.5 -17v-28h-195zM77 -264q46 23 63.5 48t17.5 51q0 16 -7.5 20.5t-18.5 4.5
q-22 0 -36 14t-14 37q0 20 14 39t44 19q19 0 32.5 -8t22 -21t12.5 -30t4 -34q0 -54 -27.5 -95.5t-93.5 -70.5z" />
    <glyph glyph-name="Lcaron" unicode="&#x13d;" horiz-adv-x="596" 
d="M55 0v28h10q23 0 32 17t9 69v450q0 52 -9 69t-32 17h-10v28h257v-28h-10q-23 0 -31.5 -17t-9.5 -69q-2 -113 -3.5 -221t-1.5 -198q0 -55 24.5 -76.5t72.5 -21.5q85 0 137 49.5t75 145.5h28l-17 -242h-521zM388 521l-25 4l13 153h84q15 0 15 -11q0 -5 -5 -14z" />
    <glyph glyph-name="lcaron" unicode="&#x13e;" horiz-adv-x="272" 
d="M42 0v28q15 0 23.5 17t8.5 69v491q0 38 -28 38h-16v28q13 1 35.5 3t46 4.5t45 5.5t34.5 6q3 1 5 1.5t4 0.5q5 0 9 -2t4 -5q0 -6 -1.5 -39.5t-3 -102t-2.5 -174t-1 -255.5q0 -52 8.5 -69t23.5 -17v-28h-195zM284 521l-25 4l13 153h84q15 0 15 -11q0 -5 -5 -14z" />
    <glyph glyph-name="Lslash" unicode="&#x141;" horiz-adv-x="596" 
d="M24 223v77l82 41v223q0 52 -9 69t-32 17h-10v28h257v-28h-10q-23 0 -31.5 -17t-9.5 -69q-1 -37 -1.5 -73.5t-1.5 -72.5l168 85v-77l-169 -85q-1 -53 -1 -102v-94q0 -55 24.5 -76.5t72.5 -21.5q85 0 137 49.5t75 145.5h28l-17 -242h-521v28h10q23 0 32 17t9 69v150z" />
    <glyph glyph-name="lslash" unicode="&#x142;" horiz-adv-x="272" 
d="M15 240v69l59 46v250q0 38 -28 38h-16v28q13 1 35.5 3t46 4.5t45 5.5t34.5 6q3 1 5 1.5t4 0.5q5 0 9 -2t4 -5q0 -8 -2 -61.5t-4 -168.5l57 46v-69l-58 -47q0 -54 -0.5 -121.5t-0.5 -149.5q0 -52 8.5 -69t23.5 -17v-28h-195v28q15 0 23.5 17t8.5 69v172z" />
    <glyph glyph-name="Nacute" unicode="&#x143;" horiz-adv-x="741" 
d="M575 264q0 9 -1 34t-1 75v158q0 34 -7 57t-19.5 36.5t-30 19.5t-39.5 6h-12v28h231v-28h-10q-11 0 -22 -4t-19 -15.5t-13 -32.5t-5 -55v-543q0 -5 -10 -6.5t-19 -1.5q-4 0 -8 0.5t-6 2.5l-327 440q-21 29 -38 55t-25 43l-4 -1q0 -8 1 -32.5t1 -74.5v-266q0 -41 6.5 -66.5
t19.5 -39.5t32 -19.5t45 -5.5h12v-28h-242v28h10q9 0 19.5 4t19 17.5t14.5 39t6 67.5v413q0 21 -7.5 36.5t-18 25t-22.5 14.5t-21 5h-10v28h216l237 -315q7 -9 16 -22.5t18 -28t16.5 -27.5t12.5 -22l4 1v0zM319 702l-25 6l92 128h120q15 0 15 -11q0 -7 -9 -13z" />
    <glyph glyph-name="nacute" unicode="&#x144;" horiz-adv-x="564" 
d="M196 486q3 -23 4 -50t1 -50q34 48 81.5 74t104.5 26q48 0 81.5 -32t33.5 -102v-238q0 -52 9 -69t23 -17v-28h-202v28q11 0 18.5 2t12 10.5t6.5 25.5t2 47v211q0 47 -15.5 67.5t-46.5 20.5q-15 0 -32.5 -7t-32 -20.5t-24.5 -32.5t-10 -44q-1 -39 -1 -90.5v-104.5
q0 -30 1.5 -47t5 -25.5t10.5 -10.5t18 -2v-28h-198v28q15 0 23.5 17t8.5 69v275q0 23 -11.5 30.5t-32.5 7.5v29l162 30v0zM236 521l-25 7l76 150h104q15 0 15 -11q0 -7 -9 -14z" />
    <glyph glyph-name="Ncommaaccent" unicode="&#x145;" horiz-adv-x="741" 
d="M575 264q0 9 -1 34t-1 75v158q0 34 -7 57t-19.5 36.5t-30 19.5t-39.5 6h-12v28h231v-28h-10q-11 0 -22 -4t-19 -15.5t-13 -32.5t-5 -55v-543q0 -5 -10 -6.5t-19 -1.5q-4 0 -8 0.5t-6 2.5l-327 440q-21 29 -38 55t-25 43l-4 -1q0 -8 1 -32.5t1 -74.5v-266q0 -41 6.5 -66.5
t19.5 -39.5t32 -19.5t45 -5.5h12v-28h-242v28h10q9 0 19.5 4t19 17.5t14.5 39t6 67.5v413q0 21 -7.5 36.5t-18 25t-22.5 14.5t-21 5h-10v28h216l237 -315q7 -9 16 -22.5t18 -28t16.5 -27.5t12.5 -22l4 1v0zM325 -264q46 23 63.5 48t17.5 51q0 16 -7.5 20.5t-18.5 4.5
q-22 0 -36 14t-14 37q0 20 14 39t44 19q19 0 32.5 -8t22 -21t12.5 -30t4 -34q0 -54 -27.5 -95.5t-93.5 -70.5z" />
    <glyph glyph-name="ncommaaccent" unicode="&#x146;" horiz-adv-x="564" 
d="M196 486q3 -23 4 -50t1 -50q34 48 81.5 74t104.5 26q48 0 81.5 -32t33.5 -102v-238q0 -52 9 -69t23 -17v-28h-202v28q11 0 18.5 2t12 10.5t6.5 25.5t2 47v211q0 47 -15.5 67.5t-46.5 20.5q-15 0 -32.5 -7t-32 -20.5t-24.5 -32.5t-10 -44q-1 -39 -1 -90.5v-104.5
q0 -30 1.5 -47t5 -25.5t10.5 -10.5t18 -2v-28h-198v28q15 0 23.5 17t8.5 69v275q0 23 -11.5 30.5t-32.5 7.5v29l162 30v0zM222 -264q46 23 63.5 48t17.5 51q0 16 -7.5 20.5t-18.5 4.5q-22 0 -36 14t-14 37q0 20 14 39t44 19q19 0 32.5 -8t22 -21t12.5 -30t4 -34
q0 -54 -27.5 -95.5t-93.5 -70.5z" />
    <glyph glyph-name="Ncaron" unicode="&#x147;" horiz-adv-x="741" 
d="M575 264q0 9 -1 34t-1 75v158q0 34 -7 57t-19.5 36.5t-30 19.5t-39.5 6h-12v28h231v-28h-10q-11 0 -22 -4t-19 -15.5t-13 -32.5t-5 -55v-543q0 -5 -10 -6.5t-19 -1.5q-4 0 -8 0.5t-6 2.5l-327 440q-21 29 -38 55t-25 43l-4 -1q0 -8 1 -32.5t1 -74.5v-266q0 -41 6.5 -66.5
t19.5 -39.5t32 -19.5t45 -5.5h12v-28h-242v28h10q9 0 19.5 4t19 17.5t14.5 39t6 67.5v413q0 21 -7.5 36.5t-18 25t-22.5 14.5t-21 5h-10v28h216l237 -315q7 -9 16 -22.5t18 -28t16.5 -27.5t12.5 -22l4 1v0zM425 729q-6 -8 -17 -12.5t-24 -4.5q-26 0 -39 16l-102 125l25 6
l121 -63l114 63l23 -6z" />
    <glyph glyph-name="ncaron" unicode="&#x148;" horiz-adv-x="564" 
d="M196 486q3 -23 4 -50t1 -50q34 48 81.5 74t104.5 26q48 0 81.5 -32t33.5 -102v-238q0 -52 9 -69t23 -17v-28h-202v28q11 0 18.5 2t12 10.5t6.5 25.5t2 47v211q0 47 -15.5 67.5t-46.5 20.5q-15 0 -32.5 -7t-32 -20.5t-24.5 -32.5t-10 -44q-1 -39 -1 -90.5v-104.5
q0 -30 1.5 -47t5 -25.5t10.5 -10.5t18 -2v-28h-198v28q15 0 23.5 17t8.5 69v275q0 23 -11.5 30.5t-32.5 7.5v29l162 30v0zM325 540q-13 -18 -39 -18q-25 0 -37 17l-96 136l24 7l114 -66l107 66l22 -7z" />
    <glyph glyph-name="Omacron" unicode="&#x14c;" horiz-adv-x="748" 
d="M372 641q-39 0 -69.5 -22t-51 -61t-31.5 -93.5t-11 -120.5q0 -72 11.5 -130.5t33.5 -100t53.5 -63.5t70.5 -22q33 0 62.5 17t51.5 54t34.5 94.5t12.5 137.5q0 71 -11 128.5t-32.5 98t-52.5 62t-71 21.5zM395 694q67 0 125.5 -25.5t101.5 -70.5t67.5 -107.5t24.5 -136.5
q0 -92 -29 -161t-77.5 -115.5t-113 -70t-135.5 -23.5q-67 0 -126 21.5t-103.5 64.5t-70 108t-25.5 153q0 72 24 137.5t70.5 115.5t113.5 80t153 30zM496 789v-74h-237v74h237z" />
    <glyph glyph-name="omacron" unicode="&#x14d;" horiz-adv-x="514" 
d="M270 486q51 0 91 -17t67.5 -47.5t41.5 -74t14 -97.5q0 -56 -17.5 -104.5t-50 -83.5t-78 -55t-100.5 -20q-45 0 -83 15.5t-66 45t-43.5 73.5t-15.5 101q0 54 17 102t48.5 84t75.5 57t99 21zM250 440q-38 0 -57.5 -37t-19.5 -118q0 -79 7.5 -128.5t20.5 -77.5t31 -38
t39 -10q38 0 54.5 33.5t16.5 102.5q0 78 -6 130t-17.5 84t-28.5 45.5t-40 13.5zM386 649v-88h-260v88h260z" />
    <glyph glyph-name="Ohungarumlaut" unicode="&#x150;" horiz-adv-x="748" 
d="M372 641q-39 0 -69.5 -22t-51 -61t-31.5 -93.5t-11 -120.5q0 -72 11.5 -130.5t33.5 -100t53.5 -63.5t70.5 -22q33 0 62.5 17t51.5 54t34.5 94.5t12.5 137.5q0 71 -11 128.5t-32.5 98t-52.5 62t-71 21.5zM395 694q67 0 125.5 -25.5t101.5 -70.5t67.5 -107.5t24.5 -136.5
q0 -92 -29 -161t-77.5 -115.5t-113 -70t-135.5 -23.5q-67 0 -126 21.5t-103.5 64.5t-70 108t-25.5 153q0 72 24 137.5t70.5 115.5t113.5 80t153 30zM238 723l-23 6l72 122h93q14 0 14 -8q0 -7 -8 -12zM398 723l-23 6l70 122h95q14 0 14 -8q0 -7 -8 -12z" />
    <glyph glyph-name="ohungarumlaut" unicode="&#x151;" horiz-adv-x="514" 
d="M270 486q51 0 91 -17t67.5 -47.5t41.5 -74t14 -97.5q0 -56 -17.5 -104.5t-50 -83.5t-78 -55t-100.5 -20q-45 0 -83 15.5t-66 45t-43.5 73.5t-15.5 101q0 54 17 102t48.5 84t75.5 57t99 21zM250 440q-38 0 -57.5 -37t-19.5 -118q0 -79 7.5 -128.5t20.5 -77.5t31 -38
t39 -10q38 0 54.5 33.5t16.5 102.5q0 78 -6 130t-17.5 84t-28.5 45.5t-40 13.5zM144 521l-22 7l68 150h89q13 0 13 -11q0 -7 -8 -14zM296 521l-22 7l68 150h89q13 0 13 -11q0 -7 -8 -14z" />
    <glyph glyph-name="OE" unicode="&#x152;" horiz-adv-x="1066" 
d="M372 641q-39 0 -69.5 -22t-51 -61t-31.5 -93.5t-11 -120.5q0 -72 11.5 -130.5t33.5 -100t53.5 -63.5t70.5 -22q33 0 62.5 17t51.5 54t34.5 94.5t12.5 137.5q0 71 -11 128.5t-32.5 98t-52.5 62t-71 21.5zM469 0q-49 -16 -110 -16q-67 0 -126 21.5t-103.5 64.5t-70 108
t-25.5 153q0 72 24 137.5t70.5 115.5t113.5 80t153 30q54 0 99 -16h498l5 -196h-28q-5 69 -54 111t-146 42h-195q54 -44 85.5 -113t33.5 -157h33q50 0 79.5 36t29.5 103h28v-320h-28q0 27 -4 52t-16 44.5t-33.5 31t-55.5 11.5h-34q-3 -48 -17 -86.5t-29.5 -67.5t-28.5 -49
t-13 -32q0 -16 9.5 -25.5t26.5 -14.5t40.5 -6.5t52.5 -1.5q54 0 103 13t86.5 35.5t62 52.5t29.5 64h28l-10 -205h-563v0z" />
    <glyph glyph-name="oe" unicode="&#x153;" horiz-adv-x="761" 
d="M403 50q-31 -30 -72.5 -46.5t-92.5 -16.5q-45 0 -83 15.5t-65 45t-42.5 73.5t-15.5 101q0 54 16.5 102t47.5 84t75 57t99 21q49 0 87 -15t65 -44q30 27 69.5 43t87.5 16q45 0 78 -16.5t54 -43t31 -58.5t10 -63q0 -24 -9 -31.5t-44 -7.5h-220q0 -57 11.5 -96t30.5 -64
t43 -36t48 -11q64 0 99 52l22 -14q-6 -15 -18.5 -34t-32 -36t-48.5 -29t-68 -12q-52 0 -93 17.5t-70 46.5zM252 442q-42 0 -60.5 -40.5t-18.5 -134.5q0 -72 6 -118t18 -73t30 -37.5t41 -10.5q41 0 57.5 38t16.5 126q0 73 -6 121t-17 76.5t-28 40.5t-39 12zM627 302
q0 66 -11.5 103.5t-53.5 37.5q-23 0 -38 -11t-24.5 -29.5t-13.5 -44.5t-5 -56h146v0z" />
    <glyph glyph-name="Racute" unicode="&#x154;" horiz-adv-x="705" 
d="M257 302q-1 -51 -1 -100.5v-87.5q0 -52 9 -69t32 -17h10v-28h-252v28h10q23 0 32 17t9 69v450q0 52 -9 69t-32 17h-10v28h338q58 0 101 -14.5t72 -39.5t43.5 -59.5t14.5 -74.5q0 -29 -11.5 -55.5t-32.5 -48t-50 -38t-63 -26.5q60 -100 104.5 -158.5t73.5 -88.5t45 -38.5
t19 -8.5v-28h-207q-21 28 -45.5 65.5t-48.5 77t-47 79.5t-41 75q-14 0 -31 1.5t-32 3.5zM257 342q15 -2 30.5 -3.5t30.5 -1.5q29 0 55 6.5t45 23.5t30 45.5t11 73.5q0 32 -8 60t-25 48.5t-43.5 32t-63.5 11.5q-28 0 -56 -5q-1 -15 -1.5 -43t-1 -66.5t-1.5 -84.5t-2 -97z
M288 702l-25 6l92 128h120q15 0 15 -11q0 -7 -9 -13z" />
    <glyph glyph-name="racute" unicode="&#x155;" horiz-adv-x="411" 
d="M201 377q22 51 59.5 80t75.5 29t59.5 -20.5t21.5 -58.5q0 -23 -6.5 -40t-16.5 -28t-22.5 -16.5t-24.5 -5.5q-18 0 -30.5 10.5t-12.5 31.5q0 37 -31 37q-25 0 -42 -26.5t-20 -81.5q-2 -40 -3 -79.5t-1 -95.5q0 -30 1.5 -47t7 -25.5t15 -10.5t25.5 -2v-28h-210v28
q15 0 23.5 17t8.5 69v275q0 23 -11.5 30.5t-32.5 7.5v29l161 30q3 -23 4.5 -54.5t1.5 -54.5zM213 521l-25 7l76 150h104q15 0 15 -11q0 -7 -9 -14z" />
    <glyph glyph-name="Rcommaaccent" unicode="&#x156;" horiz-adv-x="705" 
d="M257 302q-1 -51 -1 -100.5v-87.5q0 -52 9 -69t32 -17h10v-28h-252v28h10q23 0 32 17t9 69v450q0 52 -9 69t-32 17h-10v28h338q58 0 101 -14.5t72 -39.5t43.5 -59.5t14.5 -74.5q0 -29 -11.5 -55.5t-32.5 -48t-50 -38t-63 -26.5q60 -100 104.5 -158.5t73.5 -88.5t45 -38.5
t19 -8.5v-28h-207q-21 28 -45.5 65.5t-48.5 77t-47 79.5t-41 75q-14 0 -31 1.5t-32 3.5zM257 342q15 -2 30.5 -3.5t30.5 -1.5q29 0 55 6.5t45 23.5t30 45.5t11 73.5q0 32 -8 60t-25 48.5t-43.5 32t-63.5 11.5q-28 0 -56 -5q-1 -15 -1.5 -43t-1 -66.5t-1.5 -84.5t-2 -97z
M309 -264q46 23 63.5 48t17.5 51q0 16 -7.5 20.5t-18.5 4.5q-22 0 -36 14t-14 37q0 20 14 39t44 19q19 0 32.5 -8t22 -21t12.5 -30t4 -34q0 -54 -27.5 -95.5t-93.5 -70.5z" />
    <glyph glyph-name="rcommaaccent" unicode="&#x157;" horiz-adv-x="411" 
d="M201 377q22 51 59.5 80t75.5 29t59.5 -20.5t21.5 -58.5q0 -23 -6.5 -40t-16.5 -28t-22.5 -16.5t-24.5 -5.5q-18 0 -30.5 10.5t-12.5 31.5q0 37 -31 37q-25 0 -42 -26.5t-20 -81.5q-2 -40 -3 -79.5t-1 -95.5q0 -30 1.5 -47t7 -25.5t15 -10.5t25.5 -2v-28h-210v28
q15 0 23.5 17t8.5 69v275q0 23 -11.5 30.5t-32.5 7.5v29l161 30q3 -23 4.5 -54.5t1.5 -54.5zM80 -264q46 23 63.5 48t17.5 51q0 16 -7.5 20.5t-18.5 4.5q-22 0 -36 14t-14 37q0 20 14 39t44 19q19 0 32.5 -8t22 -21t12.5 -30t4 -34q0 -54 -27.5 -95.5t-93.5 -70.5z" />
    <glyph glyph-name="Rcaron" unicode="&#x158;" horiz-adv-x="705" 
d="M257 302q-1 -51 -1 -100.5v-87.5q0 -52 9 -69t32 -17h10v-28h-252v28h10q23 0 32 17t9 69v450q0 52 -9 69t-32 17h-10v28h338q58 0 101 -14.5t72 -39.5t43.5 -59.5t14.5 -74.5q0 -29 -11.5 -55.5t-32.5 -48t-50 -38t-63 -26.5q60 -100 104.5 -158.5t73.5 -88.5t45 -38.5
t19 -8.5v-28h-207q-21 28 -45.5 65.5t-48.5 77t-47 79.5t-41 75q-14 0 -31 1.5t-32 3.5zM257 342q15 -2 30.5 -3.5t30.5 -1.5q29 0 55 6.5t45 23.5t30 45.5t11 73.5q0 32 -8 60t-25 48.5t-43.5 32t-63.5 11.5q-28 0 -56 -5q-1 -15 -1.5 -43t-1 -66.5t-1.5 -84.5t-2 -97z
M376 729q-6 -8 -17 -12.5t-24 -4.5q-26 0 -39 16l-102 125l25 6l121 -63l114 63l23 -6z" />
    <glyph glyph-name="rcaron" unicode="&#x159;" horiz-adv-x="411" 
d="M201 377q22 51 59.5 80t75.5 29t59.5 -20.5t21.5 -58.5q0 -23 -6.5 -40t-16.5 -28t-22.5 -16.5t-24.5 -5.5q-18 0 -30.5 10.5t-12.5 31.5q0 37 -31 37q-25 0 -42 -26.5t-20 -81.5q-2 -40 -3 -79.5t-1 -95.5q0 -30 1.5 -47t7 -25.5t15 -10.5t25.5 -2v-28h-210v28
q15 0 23.5 17t8.5 69v275q0 23 -11.5 30.5t-32.5 7.5v29l161 30q3 -23 4.5 -54.5t1.5 -54.5zM283 540q-13 -18 -39 -18q-25 0 -37 17l-96 136l24 7l114 -66l107 66l22 -7z" />
    <glyph glyph-name="Sacute" unicode="&#x15a;" horiz-adv-x="587" 
d="M70 223h28q4 -45 23.5 -80.5t47 -60t60 -37.5t64.5 -13q58 0 85.5 24.5t27.5 68.5q0 25 -8.5 44.5t-26.5 36.5t-46.5 32.5t-67.5 32.5q-53 24 -89 47.5t-57.5 50t-30.5 57t-9 67.5q0 34 15.5 69.5t46 65t77 48t109.5 18.5q28 0 58 -4t56 -9t45 -9t26 -4v-211
q0 -2 -4.5 -3.5t-9.5 -1.5t-9.5 1.5t-4.5 3.5q-4 45 -19 80.5t-37.5 60t-51 37.5t-59.5 13q-48 0 -77 -24t-29 -66q0 -19 5.5 -35t21 -32.5t43.5 -33.5t72 -38q51 -24 89 -48t63 -51t37.5 -59t12.5 -71q0 -44 -19.5 -81t-54 -65t-82.5 -43.5t-104 -15.5q-42 0 -76 4.5
t-61 9.5t-47 9.5t-33 4.5v210zM241 702l-25 6l92 128h120q15 0 15 -11q0 -7 -9 -13z" />
    <glyph glyph-name="sacute" unicode="&#x15b;" horiz-adv-x="411" 
d="M43 157h27q2 -33 13.5 -57t29.5 -40.5t40 -24.5t46 -8q34 0 52.5 15t18.5 41q0 24 -16.5 40t-41.5 30t-53.5 28t-53.5 34.5t-41.5 49.5t-16.5 73q0 30 12.5 57t35.5 47t56 32t75 12q16 0 33.5 -2.5l35 -5t34.5 -5t31 -2.5v-145q0 -3 -4 -4.5t-9.5 -1.5t-10 1.5t-4.5 4.5
q-5 50 -34 84.5t-74 34.5q-35 0 -50.5 -18t-15.5 -44q0 -23 16.5 -39t42 -30t54.5 -29t54.5 -34.5t42 -47t16.5 -67.5q0 -35 -15 -63t-41 -47t-61 -29t-75 -10q-16 0 -37.5 2t-43.5 5t-40.5 5t-27.5 2v156zM181 521l-25 7l76 150h104q15 0 15 -11q0 -7 -9 -14z" />
    <glyph glyph-name="Scedilla" unicode="&#x15e;" horiz-adv-x="587" 
d="M268 -15q-38 1 -68.5 5.5t-55.5 9.5t-43.5 9t-30.5 4v210h28q4 -45 23.5 -80.5t47 -60t60 -37.5t64.5 -13q58 0 85.5 24.5t27.5 68.5q0 25 -8.5 44.5t-26.5 36.5t-46.5 32.5t-67.5 32.5q-53 24 -89 47.5t-57.5 50t-30.5 57t-9 67.5q0 34 15.5 69.5t46 65t77 48
t109.5 18.5q28 0 58 -4t56 -9t45 -9t26 -4v-211q0 -2 -4.5 -3.5t-9.5 -1.5t-9.5 1.5t-4.5 3.5q-4 45 -19 80.5t-37.5 60t-51 37.5t-59.5 13q-48 0 -77 -24t-29 -66q0 -19 5.5 -35t21 -32.5t43.5 -33.5t72 -38q51 -24 89 -48t63 -51t37.5 -59t12.5 -71q0 -41 -17.5 -77
t-49 -63t-75.5 -44t-96 -20l-26 -33q56 0 84 -25.5t28 -57.5q0 -43 -39 -73t-118 -30q-51 0 -73 11l13 27q8 -3 18 -5t33 -2q81 0 81 56q0 17 -15.5 29.5t-47.5 12.5q-22 0 -22 10q0 4 5 11z" />
    <glyph glyph-name="scedilla" unicode="&#x15f;" horiz-adv-x="411" 
d="M181 -13q-17 1 -37 3t-39.5 4.5t-36 4.5t-25.5 2v156h27q2 -33 13.5 -57t29.5 -40.5t40 -24.5t46 -8q34 0 52.5 15t18.5 41q0 24 -16.5 40t-41.5 30t-53.5 28t-53.5 34.5t-41.5 49.5t-16.5 73q0 30 12.5 57t35.5 47t56 32t75 12q16 0 33.5 -2.5l35 -5t34.5 -5t31 -2.5
v-145q0 -3 -4 -4.5t-9.5 -1.5t-10 1.5t-4.5 4.5q-5 50 -34 84.5t-74 34.5q-35 0 -50.5 -18t-15.5 -44q0 -23 16.5 -39t42 -30t54.5 -29t54.5 -34.5t42 -47t16.5 -67.5q0 -32 -12 -57.5t-34 -44t-51.5 -30t-63.5 -15.5l-28 -36q56 0 84 -25.5t28 -57.5q0 -43 -39 -73
t-118 -30q-51 0 -73 11l13 27q8 -3 18 -5t33 -2q81 0 81 56q0 17 -15.5 29.5t-47.5 12.5q-22 0 -22 10q0 4 5 11z" />
    <glyph glyph-name="Scaron" unicode="&#x160;" horiz-adv-x="587" 
d="M70 223h28q4 -45 23.5 -80.5t47 -60t60 -37.5t64.5 -13q58 0 85.5 24.5t27.5 68.5q0 25 -8.5 44.5t-26.5 36.5t-46.5 32.5t-67.5 32.5q-53 24 -89 47.5t-57.5 50t-30.5 57t-9 67.5q0 34 15.5 69.5t46 65t77 48t109.5 18.5q28 0 58 -4t56 -9t45 -9t26 -4v-211
q0 -2 -4.5 -3.5t-9.5 -1.5t-9.5 1.5t-4.5 3.5q-4 45 -19 80.5t-37.5 60t-51 37.5t-59.5 13q-48 0 -77 -24t-29 -66q0 -19 5.5 -35t21 -32.5t43.5 -33.5t72 -38q51 -24 89 -48t63 -51t37.5 -59t12.5 -71q0 -44 -19.5 -81t-54 -65t-82.5 -43.5t-104 -15.5q-42 0 -76 4.5
t-61 9.5t-47 9.5t-33 4.5v210zM350 729q-6 -8 -17 -12.5t-24 -4.5q-26 0 -39 16l-102 125l25 6l121 -63l114 63l23 -6z" />
    <glyph glyph-name="scaron" unicode="&#x161;" horiz-adv-x="411" 
d="M43 157h27q2 -33 13.5 -57t29.5 -40.5t40 -24.5t46 -8q34 0 52.5 15t18.5 41q0 24 -16.5 40t-41.5 30t-53.5 28t-53.5 34.5t-41.5 49.5t-16.5 73q0 30 12.5 57t35.5 47t56 32t75 12q16 0 33.5 -2.5l35 -5t34.5 -5t31 -2.5v-145q0 -3 -4 -4.5t-9.5 -1.5t-10 1.5t-4.5 4.5
q-5 50 -34 84.5t-74 34.5q-35 0 -50.5 -18t-15.5 -44q0 -23 16.5 -39t42 -30t54.5 -29t54.5 -34.5t42 -47t16.5 -67.5q0 -35 -15 -63t-41 -47t-61 -29t-75 -10q-16 0 -37.5 2t-43.5 5t-40.5 5t-27.5 2v156zM256 540q-13 -18 -39 -18q-25 0 -37 17l-96 136l24 7l114 -66
l107 66l22 -7z" />
    <glyph glyph-name="Tcommaaccent" unicode="&#x162;" horiz-adv-x="614" 
d="M231 630q-59 -3 -97 -18.5t-60 -38t-30.5 -49t-9.5 -51.5h-28l3 205h596l3 -205h-28q-1 25 -8.5 51.5t-28 49t-58 38t-97.5 18.5q-2 -57 -3.5 -123.5t-2 -135t-1 -135t-0.5 -122.5q0 -52 9 -69t32 -17h10v-28h-252v28h10q23 0 32 17t9 69v516v0zM228 -264q46 23 63.5 48
t17.5 51q0 16 -7.5 20.5t-18.5 4.5q-22 0 -36 14t-14 37q0 20 14 39t44 19q19 0 32.5 -8t22 -21t12.5 -30t4 -34q0 -54 -27.5 -95.5t-93.5 -70.5z" />
    <glyph glyph-name="tcommaaccent" unicode="&#x163;" horiz-adv-x="324" 
d="M203 122q0 -26 11.5 -37t30.5 -11q12 0 26.5 6.5t23.5 17.5l19 -14q-11 -44 -49.5 -68.5t-89.5 -24.5q-48 0 -74.5 29t-26.5 89v300h-56v28q20 2 44.5 17t48 37t44 49t31.5 54q2 5 11 5q5 0 11.5 -3.5t6.5 -8.5q-2 -14 -3 -32t-2.5 -35t-2 -30.5t-0.5 -18.5h100v-62h-101
q-2 -62 -2.5 -135.5t-0.5 -151.5zM108 -272q46 23 63.5 48t17.5 51q0 16 -7.5 20.5t-18.5 4.5q-22 0 -36 14t-14 37q0 20 14 39t44 19q19 0 32.5 -8t22 -21t12.5 -30t4 -34q0 -54 -27.5 -95.5t-93.5 -70.5z" />
    <glyph glyph-name="Tcaron" unicode="&#x164;" horiz-adv-x="614" 
d="M231 630q-59 -3 -97 -18.5t-60 -38t-30.5 -49t-9.5 -51.5h-28l3 205h596l3 -205h-28q-1 25 -8.5 51.5t-28 49t-58 38t-97.5 18.5q-2 -57 -3.5 -123.5t-2 -135t-1 -135t-0.5 -122.5q0 -52 9 -69t32 -17h10v-28h-252v28h10q23 0 32 17t9 69v516v0zM350 729q-6 -8 -17 -12.5
t-24 -4.5q-26 0 -39 16l-102 125l25 6l121 -63l114 63l23 -6z" />
    <glyph glyph-name="tcaron" unicode="&#x165;" horiz-adv-x="324" 
d="M203 122q0 -26 11.5 -37t30.5 -11q12 0 26.5 6.5t23.5 17.5l19 -14q-11 -44 -49.5 -68.5t-89.5 -24.5q-48 0 -74.5 29t-26.5 89v300h-56v28q20 2 44.5 17t48 37t44 49t31.5 54q2 5 11 5q5 0 11.5 -3.5t6.5 -8.5q-2 -14 -3 -32t-2.5 -35t-2 -30.5t-0.5 -18.5h100v-62h-101
q-2 -62 -2.5 -135.5t-0.5 -151.5zM302 521l-25 4l13 153h84q15 0 15 -11q0 -5 -5 -14z" />
    <glyph glyph-name="Umacron" unicode="&#x16a;" 
d="M569 522q0 39 -5 64t-13.5 39t-19.5 19.5t-23 5.5h-24v28h204v-28h-10q-9 0 -18 -5.5t-16 -20.5t-11 -42t-4 -69v-274q0 -64 -23.5 -111.5t-61.5 -79.5t-86 -48t-98 -16t-97.5 16t-85 48t-60 79.5t-22.5 111.5v325q0 52 -9 69t-32 17h-10v28h257v-28h-10q-23 0 -31.5 -17
t-9.5 -69q-2 -87 -3 -169.5t-1 -170.5q0 -41 15 -71t39 -50t53.5 -30t58.5 -10q30 0 58.5 10.5t50 31.5t35 53t13.5 76v288v0zM510 789v-74h-237v74h237z" />
    <glyph glyph-name="umacron" unicode="&#x16b;" horiz-adv-x="562" 
d="M497 471q-2 -93 -3 -179t-1 -171q0 -30 3 -48t7.5 -28t11 -13t14.5 -3v-29h-137q-6 23 -9.5 47t-3.5 47q-34 -54 -78 -81.5t-107 -27.5q-24 0 -46 7.5t-39.5 24t-27.5 42t-10 60.5v238q0 52 -9 69t-23 17v28h166q-2 -81 -2 -162v-162q0 -47 16.5 -67.5t47.5 -20.5
q15 0 32 7t31 20.5t23.5 32.5t9.5 44q1 39 1 90.5v104.5q0 30 -1.5 47t-5 25.5t-10.5 10.5t-18 2v28h168v0zM406 649v-88h-260v88h260z" />
    <glyph glyph-name="Uring" unicode="&#x16e;" 
d="M569 522q0 39 -5 64t-13.5 39t-19.5 19.5t-23 5.5h-24v28h204v-28h-10q-9 0 -18 -5.5t-16 -20.5t-11 -42t-4 -69v-274q0 -64 -23.5 -111.5t-61.5 -79.5t-86 -48t-98 -16t-97.5 16t-85 48t-60 79.5t-22.5 111.5v325q0 52 -9 69t-32 17h-10v28h257v-28h-10q-23 0 -31.5 -17
t-9.5 -69q-2 -87 -3 -169.5t-1 -170.5q0 -41 15 -71t39 -50t53.5 -30t58.5 -10q30 0 58.5 10.5t50 31.5t35 53t13.5 76v288v0zM396 860q21 0 40 -7.5t34 -20t23.5 -29.5t8.5 -36q0 -20 -8.5 -36.5t-23.5 -29t-34 -19.5t-40 -7t-40 7t-34 19.5t-23.5 29t-8.5 36.5
q0 19 8.5 36t23.5 29.5t34 20t40 7.5zM396 823q-17 0 -26.5 -16.5t-9.5 -39.5t9.5 -39t26.5 -16t26.5 16t9.5 39t-9.5 39.5t-26.5 16.5z" />
    <glyph glyph-name="uring" unicode="&#x16f;" horiz-adv-x="562" 
d="M497 471q-2 -93 -3 -179t-1 -171q0 -30 3 -48t7.5 -28t11 -13t14.5 -3v-29h-137q-6 23 -9.5 47t-3.5 47q-34 -54 -78 -81.5t-107 -27.5q-24 0 -46 7.5t-39.5 24t-27.5 42t-10 60.5v238q0 52 -9 69t-23 17v28h166q-2 -81 -2 -162v-162q0 -47 16.5 -67.5t47.5 -20.5
q15 0 32 7t31 20.5t23.5 32.5t9.5 44q1 39 1 90.5v104.5q0 30 -1.5 47t-5 25.5t-10.5 10.5t-18 2v28h168v0zM277 695q21 0 40 -7.5t34 -20t23.5 -29.5t8.5 -36q0 -20 -8.5 -36.5t-23.5 -29t-34 -19.5t-40 -7t-40 7t-34 19.5t-23.5 29t-8.5 36.5q0 19 8.5 36t23.5 29.5t34 20
t40 7.5zM277 658q-17 0 -26.5 -16.5t-9.5 -39.5t9.5 -39t26.5 -16t26.5 16t9.5 39t-9.5 39.5t-26.5 16.5z" />
    <glyph glyph-name="Uhungarumlaut" unicode="&#x170;" 
d="M569 522q0 39 -5 64t-13.5 39t-19.5 19.5t-23 5.5h-24v28h204v-28h-10q-9 0 -18 -5.5t-16 -20.5t-11 -42t-4 -69v-274q0 -64 -23.5 -111.5t-61.5 -79.5t-86 -48t-98 -16t-97.5 16t-85 48t-60 79.5t-22.5 111.5v325q0 52 -9 69t-32 17h-10v28h257v-28h-10q-23 0 -31.5 -17
t-9.5 -69q-2 -87 -3 -169.5t-1 -170.5q0 -41 15 -71t39 -50t53.5 -30t58.5 -10q30 0 58.5 10.5t50 31.5t35 53t13.5 76v288v0zM283 723l-23 6l72 122h93q14 0 14 -8q0 -7 -8 -12zM443 723l-23 6l70 122h95q14 0 14 -8q0 -7 -8 -12z" />
    <glyph glyph-name="uhungarumlaut" unicode="&#x171;" horiz-adv-x="562" 
d="M497 471q-2 -93 -3 -179t-1 -171q0 -30 3 -48t7.5 -28t11 -13t14.5 -3v-29h-137q-6 23 -9.5 47t-3.5 47q-34 -54 -78 -81.5t-107 -27.5q-24 0 -46 7.5t-39.5 24t-27.5 42t-10 60.5v238q0 52 -9 69t-23 17v28h166q-2 -81 -2 -162v-162q0 -47 16.5 -67.5t47.5 -20.5
q15 0 32 7t31 20.5t23.5 32.5t9.5 44q1 39 1 90.5v104.5q0 30 -1.5 47t-5 25.5t-10.5 10.5t-18 2v28h168v0zM162 521l-22 7l68 150h89q13 0 13 -11q0 -7 -8 -14zM314 521l-22 7l68 150h89q13 0 13 -11q0 -7 -8 -14z" />
    <glyph glyph-name="Uogonek" unicode="&#x172;" 
d="M569 522q0 39 -5 64t-13.5 39t-19.5 19.5t-23 5.5h-24v28h204v-28h-10q-9 0 -18 -5.5t-16 -20.5t-11 -42t-4 -69v-274q0 -61 -21 -107t-56 -77.5t-80 -49t-93 -20.5q-16 -15 -23 -31.5t-7 -33.5q0 -30 22 -53t60 -23q14 0 28 3t23 8l9 -19q-27 -21 -56.5 -32t-64.5 -11
q-46 0 -70 28t-24 65q0 28 14 54.5t43 44.5q-47 4 -90 22t-76 49.5t-52.5 77t-19.5 105.5v325q0 52 -9 69t-32 17h-10v28h257v-28h-10q-23 0 -31.5 -17t-9.5 -69q-2 -87 -3 -169.5t-1 -170.5q0 -41 15 -71t39 -50t53.5 -30t58.5 -10q30 0 58.5 10.5t50 31.5t35 53t13.5 76
v288v0z" />
    <glyph glyph-name="uogonek" unicode="&#x173;" horiz-adv-x="562" 
d="M392 0q-6 23 -9.5 47t-3.5 47q-34 -54 -78 -81.5t-107 -27.5q-24 0 -46 7.5t-39.5 24t-27.5 42t-10 60.5v238q0 52 -9 69t-23 17v28h166q-2 -81 -2 -162v-162q0 -47 16.5 -67.5t47.5 -20.5q15 0 32 7t31 20.5t23.5 32.5t9.5 44q1 39 1 90.5v104.5q0 30 -1.5 47t-5 25.5
t-10.5 10.5t-18 2v28h168q-2 -93 -3 -179t-1 -171q0 -30 3 -48t7.5 -28t11 -13t14.5 -3v-29h-96q-27 -16 -39.5 -37.5t-12.5 -42.5q0 -30 22 -53t60 -23q14 0 28 3t23 8l9 -19q-27 -21 -56.5 -32t-64.5 -11q-46 0 -70 28t-24 65q0 34 21.5 66t66.5 48h-4z" />
    <glyph glyph-name="Ydieresis" unicode="&#x178;" horiz-adv-x="658" 
d="M86 578q-26 43 -48.5 57.5t-47.5 14.5v28h333v-28q-60 0 -60 -39q0 -21 15 -49l109 -192l112 179q17 27 17 50q0 25 -20 38t-54 13v28h234v-28q-7 0 -17.5 -3t-25.5 -14t-34 -32t-43 -58l-147 -225q-1 -27 -1 -48.5v-47.5v-108q0 -52 9 -69t32 -17h10v-28h-252v28h10
q23 0 32 17t9 69v170zM249 837q26 0 44 -19t18 -46q0 -26 -18 -45t-44 -19t-44 19t-18 45q0 27 18 46t44 19zM479 837q26 0 44 -19t18 -46q0 -26 -18 -45t-44 -19t-44 19t-18 45q0 27 18 46t44 19z" />
    <glyph glyph-name="Zacute" unicode="&#x179;" horiz-adv-x="654" 
d="M612 678q7 0 7 -17l-386 -614h121q58 0 102 15.5t75 40.5t48 57t20 65l28 -3l-15 -222h-576q-8 0 -8 19l388 613h-105q-50 0 -90 -16t-68.5 -43t-45 -63t-17.5 -75q0 -2 -4.5 -3.5t-9.5 -1.5t-9.5 1.5t-4.5 4.5l13 242h537zM301 702l-25 6l92 128h120q15 0 15 -11
q0 -7 -9 -13z" />
    <glyph glyph-name="zacute" unicode="&#x17a;" horiz-adv-x="471" 
d="M424 0h-393l-2 21q60 100 123.5 205t123.5 211q-56 0 -91.5 -6.5t-57 -21.5t-33.5 -39.5t-20 -60.5q-2 -7 -15 -7q-5 0 -9 2t-4 5l7 162h381l2 -22q-66 -106 -125 -211t-119 -204q42 0 71.5 2t57.5 10q21 8 37 23t27 32.5t17.5 35.5t9.5 32h28zM211 521l-25 7l76 150h104
q15 0 15 -11q0 -7 -9 -14z" />
    <glyph glyph-name="Zdotaccent" unicode="&#x17b;" horiz-adv-x="654" 
d="M612 678q7 0 7 -17l-386 -614h121q58 0 102 15.5t75 40.5t48 57t20 65l28 -3l-15 -222h-576q-8 0 -8 19l388 613h-105q-50 0 -90 -16t-68.5 -43t-45 -63t-17.5 -75q0 -2 -4.5 -3.5t-9.5 -1.5t-9.5 1.5t-4.5 4.5l13 242h537zM349 837q26 0 44 -19t18 -46q0 -26 -18 -45
t-44 -19t-44 19t-18 45q0 27 18 46t44 19z" />
    <glyph glyph-name="zdotaccent" unicode="&#x17c;" horiz-adv-x="471" 
d="M424 0h-393l-2 21q60 100 123.5 205t123.5 211q-56 0 -91.5 -6.5t-57 -21.5t-33.5 -39.5t-20 -60.5q-2 -7 -15 -7q-5 0 -9 2t-4 5l7 162h381l2 -22q-66 -106 -125 -211t-119 -204q42 0 71.5 2t57.5 10q21 8 37 23t27 32.5t17.5 35.5t9.5 32h28zM237 659q26 0 44 -19
t18 -46q0 -26 -18 -45t-44 -19t-44 19t-18 45q0 27 18 46t44 19z" />
    <glyph glyph-name="florin" unicode="&#x192;" horiz-adv-x="308" 
d="M146 29q-10 -41 -29.5 -80t-46 -70t-60 -50t-70.5 -19q-49 0 -70 18.5t-21 50.5q0 29 17.5 44t36.5 15q14 0 25.5 -10t11.5 -31q0 -18 4.5 -27t19.5 -9t24 6.5t14.5 20.5t10 36t11.5 52l94 423h-69l3 28q14 0 29.5 5.5t28 14.5t21.5 19.5t10 21.5q11 97 58.5 151.5
t129.5 54.5q26 0 43 -6.5t27.5 -17.5t14.5 -24.5t4 -27.5q0 -34 -21 -52t-43 -18q-17 0 -32.5 12t-15.5 37q0 18 -6.5 28.5t-26.5 10.5q-23 0 -31.5 -20.5t-8.5 -52.5q0 -23 5.5 -49t16.5 -43h99l-11 -72h-96q-6 -27 -17 -66.5t-25 -88.5t-29.5 -103.5t-29.5 -111.5z" />
    <glyph glyph-name="Scommaaccent" unicode="&#x218;" horiz-adv-x="587" 
d="M70 223h28q4 -45 23.5 -80.5t47 -60t60 -37.5t64.5 -13q58 0 85.5 24.5t27.5 68.5q0 25 -8.5 44.5t-26.5 36.5t-46.5 32.5t-67.5 32.5q-53 24 -89 47.5t-57.5 50t-30.5 57t-9 67.5q0 34 15.5 69.5t46 65t77 48t109.5 18.5q28 0 58 -4t56 -9t45 -9t26 -4v-211
q0 -2 -4.5 -3.5t-9.5 -1.5t-9.5 1.5t-4.5 3.5q-4 45 -19 80.5t-37.5 60t-51 37.5t-59.5 13q-48 0 -77 -24t-29 -66q0 -19 5.5 -35t21 -32.5t43.5 -33.5t72 -38q51 -24 89 -48t63 -51t37.5 -59t12.5 -71q0 -44 -19.5 -81t-54 -65t-82.5 -43.5t-104 -15.5q-42 0 -76 4.5
t-61 9.5t-47 9.5t-33 4.5v210zM217 -282q46 23 63.5 48t17.5 51q0 16 -7.5 20.5t-18.5 4.5q-22 0 -36 14t-14 37q0 20 14 39t44 19q19 0 32.5 -8t22 -21t12.5 -30t4 -34q0 -54 -27.5 -95.5t-93.5 -70.5z" />
    <glyph glyph-name="scommaaccent" unicode="&#x219;" horiz-adv-x="411" 
d="M43 157h27q2 -33 13.5 -57t29.5 -40.5t40 -24.5t46 -8q34 0 52.5 15t18.5 41q0 24 -16.5 40t-41.5 30t-53.5 28t-53.5 34.5t-41.5 49.5t-16.5 73q0 30 12.5 57t35.5 47t56 32t75 12q16 0 33.5 -2.5l35 -5t34.5 -5t31 -2.5v-145q0 -3 -4 -4.5t-9.5 -1.5t-10 1.5t-4.5 4.5
q-5 50 -34 84.5t-74 34.5q-35 0 -50.5 -18t-15.5 -44q0 -23 16.5 -39t42 -30t54.5 -29t54.5 -34.5t42 -47t16.5 -67.5q0 -35 -15 -63t-41 -47t-61 -29t-75 -10q-16 0 -37.5 2t-43.5 5t-40.5 5t-27.5 2v156zM136 -276q46 23 63.5 48t17.5 51q0 16 -7.5 20.5t-18.5 4.5
q-22 0 -36 14t-14 37q0 20 14 39t44 19q19 0 32.5 -8t22 -21t12.5 -30t4 -34q0 -54 -27.5 -95.5t-93.5 -70.5z" />
    <glyph glyph-name="circumflex" unicode="&#x2c6;" horiz-adv-x="427" 
d="M175 664q13 18 39 18q25 0 37 -17l96 -136l-24 -7l-114 66l-107 -66l-22 7z" />
    <glyph glyph-name="caron" unicode="&#x2c7;" horiz-adv-x="427" 
d="M252 540q-13 -18 -39 -18q-25 0 -37 17l-96 136l24 7l114 -66l107 66l22 -7z" />
    <glyph glyph-name="breve" unicode="&#x2d8;" horiz-adv-x="400" 
d="M320 678q-1 -36 -11.5 -64.5t-27 -48t-37.5 -29.5t-44 -10t-44.5 10t-38 29.5t-26.5 48t-11 64.5h31q2 -40 28 -54t61 -14q18 0 33.5 3t28 10.5t20 21t8.5 33.5h30v0z" />
    <glyph glyph-name="dotaccent" unicode="&#x2d9;" horiz-adv-x="300" 
d="M150 675q29 0 49.5 -20.5t20.5 -49.5t-20.5 -49.5t-49.5 -20.5t-49.5 20.5t-20.5 49.5t20.5 49.5t49.5 20.5z" />
    <glyph glyph-name="ring" unicode="&#x2da;" horiz-adv-x="372" 
d="M186 695q21 0 40 -7.5t34 -20t23.5 -29.5t8.5 -36q0 -20 -8.5 -36.5t-23.5 -29t-34 -19.5t-40 -7t-40 7t-34 19.5t-23.5 29t-8.5 36.5q0 19 8.5 36t23.5 29.5t34 20t40 7.5zM186 658q-17 0 -26.5 -16.5t-9.5 -39.5t9.5 -39t26.5 -16t26.5 16t9.5 39t-9.5 39.5t-26.5 16.5
z" />
    <glyph glyph-name="ogonek" unicode="&#x2db;" horiz-adv-x="375" 
d="M205 0q-27 -16 -39.5 -37.5t-12.5 -42.5q0 -30 22 -53t60 -23q14 0 28 3t23 8l9 -19q-27 -21 -56.5 -32t-64.5 -11q-46 0 -70 28t-24 65q0 34 21.5 66t66.5 48h37z" />
    <glyph glyph-name="tilde" unicode="&#x2dc;" horiz-adv-x="467" 
d="M80 549q0 24 6.5 47.5t18.5 42.5t29.5 31t41.5 12q27 0 46 -11t34.5 -23.5t28.5 -23.5t27 -11q25 0 37.5 19t11.5 46h26q0 -60 -24 -97.5t-77 -37.5q-25 0 -43.5 11t-34 23.5t-29 23.5t-26.5 11q-21 0 -33.5 -15.5t-12.5 -47.5h-27z" />
    <glyph glyph-name="hungarumlaut" unicode="&#x2dd;" horiz-adv-x="482" 
d="M102 521l-22 7l68 150h89q13 0 13 -11q0 -7 -8 -14zM254 521l-22 7l68 150h89q13 0 13 -11q0 -7 -8 -14z" />
    <glyph glyph-name="pi" unicode="&#x3c0;" horiz-adv-x="594" 
d="M511 114q0 -52 9 -69t23 -17v-28h-202v28q11 0 18.5 2t12 10.5t6.5 25.5t2 47v302q-5 -1 -9.5 -1.5t-9.5 -0.5q-15 0 -31 10.5t-32 23.5t-31 23.5t-26 10.5q-6 0 -12 -1.5t-10 -3.5q0 -13 -0.5 -40t-0.5 -61.5v-73v-74.5v-66.5v-47.5q0 -30 1.5 -47t5 -25.5t10.5 -10.5
t18 -2v-28h-198v28q15 0 23.5 17t8.5 69v324l-60 -34l-10 36q86 56 143 77t98 21t66 -8.5t44 -19t37.5 -19t47.5 -8.5q35 0 63 5t59 18l9 -35l-73 -28v-329z" />
    <glyph glyph-name="endash" unicode="&#x2013;" horiz-adv-x="577" 
d="M33 211v88h511v-88h-511z" />
    <glyph glyph-name="emdash" unicode="&#x2014;" horiz-adv-x="1057" 
d="M33 211v88h991v-88h-991z" />
    <glyph glyph-name="quoteleft" unicode="&#x2018;" horiz-adv-x="274" 
d="M229 714q-63 -31 -87 -65.5t-24 -70.5q0 -21 10 -27.5t25 -6.5q30 0 50 -19t20 -51q0 -14 -5 -28t-15 -25.5t-25 -19t-36 -7.5q-26 0 -44 11t-30 29t-17.5 41t-5.5 47q0 73 38.5 131t128.5 97z" />
    <glyph glyph-name="quoteright" unicode="&#x2019;" horiz-adv-x="274" 
d="M45 401q63 31 87 65.5t24 70.5q0 21 -10 27.5t-25 6.5q-30 0 -50 19t-20 51q0 14 5 28t15 25.5t25 19t36 7.5q25 0 43.5 -11t30.5 -29t17.5 -41t5.5 -47q0 -74 -38.5 -131.5t-128.5 -96.5z" />
    <glyph glyph-name="quotesinglbase" unicode="&#x201a;" horiz-adv-x="274" 
d="M45 -159q63 31 87 65.5t24 70.5q0 21 -10 27.5t-25 6.5q-30 0 -50 19t-20 51q0 14 5 28t15 25.5t25 19t36 7.5q25 0 43.5 -11t30.5 -29t17.5 -41t5.5 -47q0 -74 -38.5 -131.5t-128.5 -96.5z" />
    <glyph glyph-name="quotedblleft" unicode="&#x201c;" horiz-adv-x="534" 
d="M229 714q-63 -31 -87 -65.5t-24 -70.5q0 -21 10 -27.5t25 -6.5q30 0 50 -19t20 -51q0 -14 -5 -28t-15 -25.5t-25 -19t-36 -7.5q-26 0 -44 11t-30 29t-17.5 41t-5.5 47q0 73 38.5 131t128.5 97zM489 714q-63 -31 -87 -65.5t-24 -70.5q0 -21 10 -27.5t25 -6.5q30 0 50 -19
t20 -51q0 -14 -5 -28t-15 -25.5t-25 -19t-36 -7.5q-26 0 -44 11t-30 29t-17.5 41t-5.5 47q0 73 38.5 131t128.5 97z" />
    <glyph glyph-name="quotedblright" unicode="&#x201d;" horiz-adv-x="534" 
d="M305 401q63 31 87 65.5t24 70.5q0 21 -10 27.5t-25 6.5q-30 0 -50 19t-20 51q0 14 5 28t15 25.5t25 19t36 7.5q25 0 43.5 -11t30.5 -29t17.5 -41t5.5 -47q0 -74 -38.5 -131.5t-128.5 -96.5zM45 401q63 31 87 65.5t24 70.5q0 21 -10 27.5t-25 6.5q-30 0 -50 19t-20 51
q0 14 5 28t15 25.5t25 19t36 7.5q25 0 43.5 -11t30.5 -29t17.5 -41t5.5 -47q0 -74 -38.5 -131.5t-128.5 -96.5z" />
    <glyph glyph-name="quotedblbase" unicode="&#x201e;" horiz-adv-x="534" 
d="M305 -159q63 31 87 65.5t24 70.5q0 21 -10 27.5t-25 6.5q-30 0 -50 19t-20 51q0 14 5 28t15 25.5t25 19t36 7.5q25 0 43.5 -11t30.5 -29t17.5 -41t5.5 -47q0 -74 -38.5 -131.5t-128.5 -96.5zM45 -159q63 31 87 65.5t24 70.5q0 21 -10 27.5t-25 6.5q-30 0 -50 19t-20 51
q0 14 5 28t15 25.5t25 19t36 7.5q25 0 43.5 -11t30.5 -29t17.5 -41t5.5 -47q0 -74 -38.5 -131.5t-128.5 -96.5z" />
    <glyph glyph-name="dagger" unicode="&#x2020;" horiz-adv-x="546" 
d="M249 -190q-1 91 -4 157.5t-7 113t-9.5 77t-12.5 50.5t-14.5 32t-16.5 23q29 23 46.5 64.5t18.5 106.5q-20 -2 -39 -12t-38.5 -21t-40 -20t-42.5 -9q-31 0 -46.5 23t-15.5 52t16 53t48 24q19 0 38.5 -9t39 -20t40 -20.5t40.5 -9.5q-2 21 -11.5 39.5t-20.5 37.5t-19.5 38.5
t-8.5 43.5q0 32 24.5 50t54.5 18q15 0 29 -4.5t25 -13.5t17.5 -21.5t6.5 -28.5q0 -24 -9 -44.5t-20.5 -39t-21.5 -36.5t-12 -39q21 1 41 10.5t40 20t41 19t44 8.5q32 0 49 -24t17 -53t-16 -52t-48 -23q-24 0 -45.5 9t-41.5 20t-40 21.5t-41 12.5q5 -61 22 -105t46 -66
q-8 -10 -15.5 -22t-14.5 -32t-12.5 -50t-10.5 -77t-8 -113.5t-4 -158.5h-38z" />
    <glyph glyph-name="daggerdbl" unicode="&#x2021;" horiz-adv-x="546" 
d="M353 249q-29 -23 -46.5 -70t-18.5 -112q20 2 39 12t38.5 21t39.5 20t43 9q31 0 46.5 -23t15.5 -52t-16 -53t-48 -24q-19 0 -38.5 9t-39 20t-40 20.5t-40.5 9.5q2 -21 11.5 -39.5t20.5 -37.5t19.5 -38.5t8.5 -43.5q0 -32 -24.5 -50t-54.5 -18q-15 0 -29 4.5t-25 13.5
t-17.5 21.5t-6.5 28.5q0 24 9 44.5t20.5 39t21.5 36.5t12 39q-21 -1 -41 -10.5t-40 -20t-41.5 -19t-43.5 -8.5q-32 0 -49 24t-17 53t16 52t48 23q24 0 45.5 -9t41.5 -20.5t40 -21.5t41 -12q-5 61 -22 110.5t-46 71.5q28 25 45.5 72.5t18.5 112.5q-20 -2 -39 -12t-38.5 -21
t-40 -20t-42.5 -9q-31 0 -46.5 23t-15.5 52t16 53t48 24q19 0 38.5 -9t39 -20t40 -20.5t40.5 -9.5q-2 21 -11.5 39.5t-20.5 37.5t-19.5 38.5t-8.5 43.5q0 32 24.5 50t54.5 18q15 0 29 -4.5t25 -13.5t17.5 -21.5t6.5 -28.5q0 -24 -9 -44.5t-20.5 -39t-21.5 -36.5t-12 -39
q21 1 41 10.5t40 20t41 19t44 8.5q32 0 49 -24t17 -53t-16 -52t-48 -23q-24 0 -45.5 9t-41.5 20t-40 21.5t-41 12.5q5 -61 22 -111t47 -74z" />
    <glyph glyph-name="bullet" unicode="&#x2022;" horiz-adv-x="377" 
d="M193 477q29 0 55 -11t45 -30.5t30 -45.5t11 -56t-11 -56t-30 -45.5t-45 -30.5t-55 -11t-55 11t-45 30.5t-30 45.5t-11 56t11 56t30 45.5t45 30.5t55 11z" />
    <glyph glyph-name="ellipsis" unicode="&#x2026;" horiz-adv-x="886" 
d="M162 158q34 0 58 -24t24 -58t-24 -58t-58 -24t-58 24t-24 58t24 58t58 24zM442 158q34 0 58 -24t24 -58t-24 -58t-58 -24t-58 24t-24 58t24 58t58 24zM724 158q34 0 58 -24t24 -58t-24 -58t-58 -24t-58 24t-24 58t24 58t58 24z" />
    <glyph glyph-name="perthousand" unicode="&#x2030;" horiz-adv-x="1195" 
d="M736 678l-570 -678h-93l570 678h93zM206 319q-32 0 -61.5 12t-51.5 34t-35 53.5t-13 70.5q0 36 12 72t35 64.5t56 46.5t75 18q38 0 69 -15t53 -40t34 -57t12 -66t-11 -68.5t-33.5 -62t-57.5 -45t-83 -17.5zM225 354q24 0 39 26t15 88q0 37 -4 71t-12.5 59.5t-21 41
t-29.5 15.5q-24 0 -39 -34t-15 -85q0 -38 4 -71t12.5 -58t21 -39t29.5 -14zM580 -10q-32 0 -61.5 12t-51.5 34t-35 53.5t-13 70.5q0 36 12 72t35 64.5t56 46.5t75 18q38 0 69 -15t53 -40t34 -57t12 -66t-11 -68.5t-33.5 -62t-57.5 -45t-83 -17.5zM600 25q23 0 38 26t15 88
q0 37 -4 71t-12 59.5t-20.5 41t-30.5 15.5q-24 0 -38.5 -34t-14.5 -85q0 -38 4 -71t12 -58t21 -39t30 -14zM965 -10q-32 0 -61.5 12t-51.5 34t-35 53.5t-13 70.5q0 36 12 72t35 64.5t56 46.5t75 18q38 0 69 -15t53 -40t34 -57t12 -66t-11 -68.5t-33.5 -62t-57.5 -45
t-83 -17.5zM985 25q23 0 38 26t15 88q0 37 -4 71t-12 59.5t-20.5 41t-30.5 15.5q-24 0 -38.5 -34t-14.5 -85q0 -38 4 -71t12 -58t21 -39t30 -14z" />
    <glyph glyph-name="guilsinglleft" unicode="&#x2039;" horiz-adv-x="356" 
d="M309 23l-19 -19l-224 195q-20 18 -20 42t21 42l223 193l20 -18l-121 -203z" />
    <glyph glyph-name="guilsinglright" unicode="&#x203a;" horiz-adv-x="356" 
d="M47 457l19 19l224 -195q20 -18 20 -42t-21 -42l-223 -193l-20 18l121 203z" />
    <glyph glyph-name="fraction" unicode="&#x2044;" horiz-adv-x="566" 
d="M566 678l-486 -678h-80l486 678h80z" />
    <glyph glyph-name="Euro" unicode="&#x20ac;" horiz-adv-x="621" 
d="M391 236h-153q14 -87 57.5 -134t125.5 -47q51 0 92.5 32.5t55.5 94.5l21 -7q-7 -34 -21 -68t-38.5 -61.5t-61.5 -44.5t-89 -17q-68 0 -120 20t-89 54.5t-59.5 80t-31.5 97.5h-85l22 68h57v5q0 45 9 87h-68l22 67h65q19 50 50.5 92.5t73 73t90.5 48t105 17.5q30 0 57 -3.5
t48 -8t35.5 -8.5t21.5 -4v-230q0 -7 -13 -7q-5 0 -9 2t-4 5q0 41 -11.5 76.5t-31 62t-46.5 41.5t-57 15q-64 0 -105 -47t-60 -125h218l-22 -67h-207q-3 -33 -3 -67v-25h181z" />
    <glyph glyph-name="trademark" unicode="&#x2122;" horiz-adv-x="763" 
d="M153 645q-45 -1 -59.5 -13.5t-14.5 -40.5h-23l2 87h250l2 -87h-24q0 28 -14.5 40.5t-59.5 13.5v-165q0 -20 4 -26.5t13 -6.5h4v-21h-100v21h4q9 0 12.5 6.5t3.5 26.5v165v0zM515 505q3 8 4.5 13.5t3.5 10.5t4.5 11.5t6.5 15.5l49 122h92v-22h-4q-9 0 -12.5 -6t-3.5 -26
v-146q0 -20 3.5 -25.5t12.5 -5.5h4v-21h-96v21h6q9 0 13 5.5t4 25.5v121q0 19 0.5 28t0.5 11h-3q-5 -17 -11 -32.5t-18 -44.5l-58 -135q-1 -2 -6.5 -2t-9.5 2l-64 134q-5 10 -10 22.5t-8.5 23.5t-6.5 20t-3 12h-3q0 -2 0.5 -11t0.5 -28v-115q0 -23 6.5 -30t26.5 -7h7v-21
h-94v21h4q5 0 10.5 6.5t5.5 29.5v141q0 20 -3.5 26t-12.5 6h-4v22h92l51 -119q8 -17 12.5 -27.5t10.5 -26.5z" />
    <glyph glyph-name="Omega" unicode="&#x2126;" horiz-adv-x="753" 
d="M512 114q0 -26 1.5 -41.5t5.5 -23.5t11.5 -10.5t18.5 -2.5h95v-36h-229v158q24 7 44.5 23.5t35.5 45.5t24 71t9 101q0 60 -10.5 108t-31.5 82t-51.5 52t-70.5 18q-42 0 -72 -18.5t-49.5 -51.5t-28.5 -79t-9 -100q0 -100 32.5 -162t83.5 -84v-164h-227v36h95q11 0 18 2.5
t11 10.5t5.5 23.5t1.5 41.5v40q-37 14 -68.5 36.5t-55 54t-36.5 72t-13 90.5q0 55 21 106.5t62 91.5t101 64.5t138 24.5q58 0 113 -17.5t98.5 -53t70 -87.5t26.5 -121q0 -48 -13 -88t-35.5 -72.5t-53.5 -57t-68 -40.5v-43z" />
    <glyph glyph-name="partialdiff" unicode="&#x2202;" horiz-adv-x="526" 
d="M347 238q0 72 -25.5 112t-59.5 40q-23 0 -38.5 -18.5t-25.5 -48.5t-14 -68t-4 -76q0 -82 22.5 -119t54.5 -37q22 0 39 18.5t28 49t17 69t6 78.5zM347 369q-6 60 -32.5 113t-64.5 93t-83 64.5t-88 29.5v23q80 0 154.5 -29.5t132 -84.5t92 -134t34.5 -178q0 -64 -17 -115.5
t-47 -87.5t-71.5 -55.5t-90.5 -19.5q-54 0 -96.5 20t-72.5 53.5t-45.5 76.5t-15.5 90q0 52 14.5 92.5t39 68t57 41.5t68.5 14q35 0 69.5 -16.5t57.5 -60.5z" />
    <glyph glyph-name="Delta" unicode="&#x2206;" horiz-adv-x="621" 
d="M468 63l-172 416l-188 -416h360zM613 0h-598l313 694z" />
    <glyph glyph-name="product" unicode="&#x220f;" horiz-adv-x="772" 
d="M717 650h-10q-23 0 -31.5 -17t-9.5 -69q-2 -113 -3.5 -225t-1.5 -225q0 -52 9 -69t32 -17h10v-28h-252v28h10q23 0 32 17t9 69v509h-254q0 -92 -0.5 -161t-0.5 -120v-86v-61v-45v-36q0 -52 9 -69t32 -17h10v-28h-252v28h10q23 0 32 17t9 69v450q0 52 -9 69t-32 17h-10v28
h662v-28z" />
    <glyph glyph-name="summation" unicode="&#x2211;" horiz-adv-x="654" 
d="M37 661q0 17 7 17h537l13 -242q0 -3 -4.5 -4.5t-9.5 -1.5t-9.5 1.5t-4.5 3.5q-2 39 -18 75t-44.5 63t-68.5 43t-90 16h-105l181 -286l-188 -299h121q58 0 102 15.5t75 40.5t48 57t20 65l28 -3l-15 -222h-576q-8 0 -8 19l207 328z" />
    <glyph glyph-name="minus" unicode="&#x2212;" horiz-adv-x="577" 
d="M33 296v88h511v-88h-511z" />
    <glyph glyph-name="radical" unicode="&#x221a;" horiz-adv-x="663" 
d="M546 935h80l-211 -974l-287 511l-99 -46l-17 53l220 96l165 -340z" />
    <glyph glyph-name="infinity" unicode="&#x221e;" horiz-adv-x="784" 
d="M415 341q35 -51 60 -80t44.5 -43.5t36.5 -18.5t35 -4q41 0 64.5 25.5t23.5 76.5q0 109 -122 109q-27 0 -47 -5t-36.5 -13.5t-30.5 -20.5t-28 -26zM323 279q-18 27 -35.5 50t-35.5 39t-39 25t-46 9q-45 0 -68.5 -26t-23.5 -72q0 -42 24 -68t82 -26q26 0 44 4t33.5 12
t30.5 21.5t34 31.5zM398 368q13 24 28.5 47.5t35.5 42.5t45.5 31t58.5 12q35 0 63 -15t47.5 -41t29.5 -63t10 -80q0 -52 -15 -90t-39.5 -63t-55.5 -37t-62 -12q-27 0 -52.5 6.5t-50.5 23.5t-49 46t-49 74q-19 -35 -36.5 -62t-36.5 -45.5t-41.5 -28t-50.5 -9.5
q-26 0 -51 12.5t-45 36.5t-32.5 60.5t-12.5 84.5q0 57 17 95t42 61t53.5 32.5t51.5 9.5q38 0 67 -8.5t52 -24.5t42 -40.5t36 -55.5z" />
    <glyph glyph-name="integral" unicode="&#x222b;" horiz-adv-x="314" 
d="M88 471q0 54 12.5 95t35 68.5t53 42t67.5 14.5q57 0 85.5 -20.5t28.5 -67.5q0 -30 -18.5 -45t-39.5 -15q-19 0 -33.5 11t-14.5 34q0 14 2 21t2 18q0 10 -4 16.5t-17 6.5q-14 0 -23.5 -8t-15.5 -20.5t-8.5 -27t-2.5 -27.5q0 -21 3.5 -37t8 -31.5t8 -32t3.5 -38.5v-39.5
v-63.5t-0.5 -78t-0.5 -82.5v-76.5v-60q0 -108 -46.5 -164t-120.5 -56q-57 0 -85.5 20.5t-28.5 67.5q0 30 18.5 45t39.5 15q19 0 33.5 -11t14.5 -34q0 -14 -2 -21t-2 -18q0 -10 4 -16.5t17 -6.5t22.5 8t15.5 20.5t9 27t3 27.5q0 21 -3.5 37t-8 31.5t-8 32t-3.5 38.5v400z" />
    <glyph glyph-name="notequal" unicode="&#x2260;" horiz-adv-x="589" 
d="M399 612h93l-67 -126h134v-88h-181l-62 -116h243v-88h-290l-66 -124h-93l66 124h-146v88h193l62 116h-255v88h302z" />
    <glyph glyph-name="lessequal" unicode="&#x2264;" horiz-adv-x="571" 
d="M30 0v88h511v-88h-511zM541 135l-511 223v76l511 223v-92l-394 -169l394 -169v-92z" />
    <glyph glyph-name="greaterequal" unicode="&#x2265;" horiz-adv-x="571" 
d="M30 88h511v-88h-511v88zM424 396l-394 169v92l511 -223v-76l-511 -223v92z" />
    <glyph glyph-name="Ohm" unicode="&#xe000;" horiz-adv-x="753" 
d="M512 114q0 -26 1.5 -41.5t5.5 -23.5t11.5 -10.5t18.5 -2.5h95v-36h-229v158q24 7 44.5 23.5t35.5 45.5t24 71t9 101q0 60 -10.5 108t-31.5 82t-51.5 52t-70.5 18q-42 0 -72 -18.5t-49.5 -51.5t-28.5 -79t-9 -100q0 -100 32.5 -162t83.5 -84v-164h-227v36h95q11 0 18 2.5
t11 10.5t5.5 23.5t1.5 41.5v40q-37 14 -68.5 36.5t-55 54t-36.5 72t-13 90.5q0 55 21 106.5t62 91.5t101 64.5t138 24.5q58 0 113 -17.5t98.5 -53t70 -87.5t26.5 -121q0 -48 -13 -88t-35.5 -72.5t-53.5 -57t-68 -40.5v-43z" />
    <glyph glyph-name="apple" unicode="&#xe001;" horiz-adv-x="1636" 
d="M146 309l-24 -163h-28l-10 60l-1 14h-1l-2 -14l-10 -60h-28l-25 187h34l9 -98l1 -13h1l1 13l15 98h26l-6 -40l8 -58l1 -13l1 13l11 98h58l9 -98l1 -13h1l1 13l14 98h27l-8 -40l10 -58v-13h1l1 13l11 98h58l9 -98l1 -13h1l1 13l14 98h27l-8 -40l9 -58l1 -13h1l1 13l11 98
h30l-27 -187h-28l-11 60l-1 14h-1l-1 -14l-11 -60h-28l-22 163l-23 -163h-28l-10 60l-2 14h-1l-1 -14l-10 -60h-28zM764 295q0 15 -6 22q1 -5 1.5 -9.5t0.5 -10.5l-17 -22q0 16 -6 16t-7.5 -8.5t-1.5 -22.5v-114h-32v149q0 16 -4 24l16 22q4 -3 7 -12.5t2 -23.5h1
q3 17 8.5 26.5t14.5 9.5q8 0 12 -6.5t5 -15.5l17 22q5 -3 8 -12.5t2 -23.5h1q3 17 8 26.5t16 9.5q8 0 14.5 -8t10.5 -22q3 14 8 22t16 8q14 0 22 -19.5t8 -51.5v-124h-31v115q0 28 -7 28q-9 0 -9 -28v-115h-31v115q0 28 -8 28q-7 0 -7 -28v-115h-32v149zM1469 295
q0 16 -4 24l16 22q4 -3 7.5 -12.5t2.5 -23.5h1q3 17 8.5 26.5t15.5 9.5q8 0 14.5 -8t9.5 -22q4 14 9.5 22t15.5 8q13 0 21.5 -19.5t8.5 -51.5v-124h-31v115q0 28 -8 28t-8 -28v-115h-31v115q0 28 -8 28q-7 0 -7 -28v-115h-33v149zM1064 297q0 15 -6 20l18 24q5 -3 7.5 -12.5
t1.5 -23.5h1q2 12 8 24t17 12q18 0 28.5 -27.5t10.5 -73.5q0 -44 -11 -71.5t-29 -27.5q-12 0 -15 12v-92h-31v236zM1411 141q-20 0 -31.5 27t-11.5 74t11.5 73t31.5 26t32 -26t12 -73t-12 -74t-32 -27zM638 141q-20 0 -31.5 27t-11.5 74t11.5 73t31.5 26t32 -26t12 -73
t-12 -74t-32 -27zM1054 333l-39 -240q-4 -26 -13.5 -31t-20.5 -3v42q9 -5 12 15l4 33q-1 0 -1 1q-1 1 -1 4l-29 179h33l12 -98l1 -15l2 15l12 98h28zM1199 141q-20 0 -32 28t-12 73q0 44 11.5 71.5t31.5 27.5t31 -26t7 -80h-49v-4q0 -13 2 -29t10 -16t11.5 9t3.5 21l18 -32
q-3 -23 -10 -33t-23 -10zM483 141q-17 0 -26 12t-11 33l19 28q0 -34 17 -34q6 0 9 5t3 11t-2.5 9t-11.5 4q-17 5 -24 23t-7 43q0 27 9.5 46.5t26.5 19.5q29 0 34 -46l-18 -25q0 13 -3.5 21.5t-11.5 8.5q-5 0 -8 -4.5t-3 -9.5q0 -8 2.5 -10.5t12.5 -5.5q32 -8 32 -64
q0 -33 -11 -49t-28 -16zM566 141q-17 0 -25.5 16.5t-8.5 60.5v73h-7v42h7v44l31 21v-65h23v-42h-23v-73q0 -17 2 -23.5t4 -6.5q4 0 5.5 3.5t1.5 17.5l14 -29q-3 -39 -24 -39zM942 141q-16 0 -24 16.5t-8 60.5v73h-9v42h9v44l30 21v-65h24v-42h-24v-73q0 -17 1.5 -23.5
t4.5 -6.5q4 0 6 3.5t2 17.5l14 -29q-3 -39 -26 -39zM1335 141q-21 0 -32.5 27t-11.5 72q0 46 11 73.5t31 27.5q14 0 23 -10t11 -36l-16 -28q0 12 -4.5 20t-10.5 8t-10 -11.5t-4 -43.5q0 -30 4.5 -42t9.5 -12t10 8t5 22l16 -30q-2 -25 -9.5 -35t-22.5 -10zM1106 186
q6 0 9.5 15t3.5 41q0 24 -3 38.5t-10 14.5t-9 -8t-2 -22v-49q0 -14 2 -22t9 -8zM638 188q6 0 9 14t3 40q0 24 -3 38.5t-9 14.5q-7 0 -9.5 -14.5t-2.5 -38.5q0 -26 2.5 -40t9.5 -14zM1411 188q7 0 9.5 14t2.5 40q0 24 -2.5 38.5t-9.5 14.5q-6 0 -9 -14.5t-3 -38.5
q0 -26 3 -40t9 -14zM1265 142q-8 0 -13 9t-5 23q0 15 5 24.5t13 9.5t12.5 -9.5t4.5 -24.5q0 -14 -4.5 -23t-12.5 -9zM424 142q-8 0 -13.5 9t-5.5 23q0 15 5.5 24.5t13.5 9.5q7 0 12 -9.5t5 -24.5q0 -14 -5 -23t-12 -9zM1213 275q0 11 -2.5 18.5t-10.5 7.5q-5 0 -7 -7.5
t-4 -18.5h24z" />
    <glyph glyph-name="fraction1" unicode="&#xe002;" horiz-adv-x="634" 
d="M651 678l-570 -678h-93l570 678h93z" />
    <glyph glyph-name="nonbreakingspace" unicode="&#xe003;" horiz-adv-x="188" 
 />
    <glyph glyph-name="glyph29" horiz-adv-x="592" 
d="M562 467q-1 -90 -37 -134.5t-94 -44.5q-42 0 -79.5 14.5t-71.5 32t-66 32t-64 14.5q-44 0 -65 -25.5t-28 -62.5h-27q1 48 12 81.5t28.5 55.5t41 32t49.5 10q45 0 81 -14.5t67.5 -32.5t61.5 -32.5t64 -14.5q26 0 44.5 7t30 19.5t17.5 28.5t8 34h27zM562 258
q-1 -90 -37 -134.5t-94 -44.5q-42 0 -79.5 14.5t-71.5 32t-66 32t-64 14.5q-44 0 -65 -25.5t-28 -62.5h-27q1 48 12 81.5t28.5 55.5t41 32t49.5 10q45 0 81 -14.5t67.5 -32.5t61.5 -32.5t64 -14.5q26 0 44.5 7t30 19.5t17.5 28.5t8 34h27z" />
    <glyph glyph-name="glyph30" horiz-adv-x="518" 
d="M246 582l-134 -243l134 -244l142 244zM271 678l200 -339l-200 -339h-53l-185 339l185 339h53z" />
    </font>
</defs>
</svg>
