<?xml version="1.0" standalone="no"?>
<!DOCTYPE svg PUBLIC "-//W3C//DTD SVG 1.1//EN" "http://www.w3.org/Graphics/SVG/1.1/DTD/svg11.dtd" >
<svg xmlns="http://www.w3.org/2000/svg" xmlns:xlink="http://www.w3.org/1999/xlink" version="1.1">
<metadata>
Created by FontForge 20170731 at Sun Jun 21 11:47:58 2009
 By Aleksey,,,
(c) Markus Schroeppel; Spring 2009, due to the birth of my daughter. If you ever use this font, please sent a donation to charlottes paypal account: charlotte@schroeppel.biz
</metadata>
<defs>
<font id="LLCharlotte" horiz-adv-x="1103" >
  <font-face 
    font-family="LLCharlotte"
    font-weight="400"
    font-stretch="normal"
    units-per-em="2047"
    panose-1="0 0 4 0 0 0 0 0 0 0"
    ascent="1637"
    descent="-410"
    x-height="851"
    cap-height="1354"
    bbox="-149 -484 2170 1849"
    underline-thickness="100"
    underline-position="-373"
    unicode-range="U+0020-25CA"
  />
<missing-glyph horiz-adv-x="1024" 
d="M128 0v1422h768v-1422h-768zM256 128h512v1166h-512v-1166z" />
    <glyph glyph-name=".notdef" horiz-adv-x="1024" 
d="M128 0v1422h768v-1422h-768zM256 128h512v1166h-512v-1166z" />
    <glyph glyph-name=".null" horiz-adv-x="0" 
 />
    <glyph glyph-name="nonmarkingreturn" horiz-adv-x="569" 
 />
    <glyph glyph-name="space" unicode=" " horiz-adv-x="569" 
 />
    <glyph glyph-name="exclam" unicode="!" horiz-adv-x="427" 
d="M360 851l-1 -271q0 -25 -21 -48t-46 -23h-154q-30 0 -53 17q-26 19 -25 48q4 221 4 525q0 35 -5.5 105.5t-5.5 105.5q0 61 54 60q155 -1 171 -4q48 -8 56 -52q3 -17 3 -173q0 -25 7 -71.5t9 -70.5q7 -93 7 -148zM368 175q0 -184 -81 -184q-27 0 -81.5 7t-81.5 7
q-53 0 -68 54q-6 22 -6 100q0 87 29.5 115.5t116.5 28.5q92 0 125 -19q47 -27 47 -109z" />
    <glyph glyph-name="quotedbl" unicode="&#x22;" horiz-adv-x="825" 
d="M744 1108q0 -37 -67 -37l-154 -1q-66 0 -78 27q-2 4 0 152l1 92q0 17 -5 50.5t-5 50.5q0 32 53 32q158 -1 181 -4q42 -5 47 -29l4 -87q5 -17 16 -63q7 -35 7 -183zM405 1108q0 -37 -67 -37l-154 -1q-66 0 -78 27q-2 4 0 152l1 92q0 17 -5 50.5t-5 50.5q0 32 53 32
q158 -1 181 -4q42 -5 47 -29l4 -87q5 -17 16 -63q7 -35 7 -183z" />
    <glyph glyph-name="numbersign" unicode="#" horiz-adv-x="977" 
d="M924 178q0 -66 -57 -78q-10 -2 -50 -3v-33q0 -28 -19 -52q-21 -27 -48 -27q-64 -1 -125 -1q-66 0 -78 57q-2 10 -3 59h-96v-36q0 -78 -37 -79q-69 -1 -155 -1q-66 0 -78 57q-2 10 -3 51q-25 -1 -45 -1q-24 0 -46 15t-22 38q3 134 29 175q21 32 87 39l1 114q-27 -2 -49 -2
q-6 0 -28 -4q-17 -3 -27 -1q-13 3 -13 18q3 171 12 194q14 35 98 35q-2 38 -2 66q0 69 53 68l152 -2q46 -14 47 -114l31 1q39 1 87 4q-1 23 -1 43q0 54 -2 45q3 23 25 23q171 -4 193 -12q35 -14 36 -95l53 -1q29 -1 53.5 -20t24.5 -47l2 -154q0 -25 -15 -28.5t-46 -9.5
q-15 -3 -57 -3q2 -29 7 -107h31q77 0 78 -37zM585 489l-177 1q7 -79 12 -164q79 6 164 10z" />
    <glyph glyph-name="dollar" unicode="$" horiz-adv-x="1256" 
d="M1162 378q0 -213 -195 -337q-16 -10 -147 -41q-69 -16 -67 -68l6 -155q0 -79 -149 -79q-75 0 -104 9q-57 18 -57 74q0 25 11.5 73.5t11.5 73.5q0 49 -33 81q-107 36 -288 146q-22 12 -64 36q-36 22 -36 60q0 33 45 70q55 45 64 65l25 53q13 28 50 28q30 0 85 -51l72 -68
q50 -37 143.5 -70t153.5 -33q54 0 108 29q63 34 63 82q0 101 -252 195q-62 21 -223 76q-58 20 -161 113q-116 105 -116 245q0 75 33 132q4 6 87 116q40 52 73 69l96 36q57 22 66 103q2 45 9 135q6 66 56 64l163 -6q30 -1 54 -19t22 -47l-12 -154q0 -57 42 -78q47 -17 94 -35
q22 -15 81 -51q21 -10 60.5 -33.5t39.5 -52.5q0 -21 -40 -69q-19 -22 -56 -66q-10 -16 -32 -46q-18 -24 -48 -24q7 0 -108.5 59t-210.5 59q-126 0 -126 -86q0 -80 113 -133l172 -58q15 -5 102 -45q160 -73 228 -141q96 -95 96 -236z" />
    <glyph glyph-name="percent" unicode="%" horiz-adv-x="1449" 
d="M628 1119q0 -47 -18 -92q-82 -204 -295 -204q-71 0 -144 33q-81 36 -112 93q-57 106 -57 176q0 120 97 209q94 88 215 88q125 0 219.5 -89.5t94.5 -213.5zM1383 1419q-7 -23 -227 -308l-226 -293q-117 -160 -427 -571q-52 -62 -165 -201q-26 -48 -58 -102
q-16 -26 -60 -67q-50 -46 -71 -39q-40 14 -92 14q-19 0 -57 -3.5t-57 -3.5q-39 0 -35 27q8 48 205 334q194 281 228 306q25 19 174 232l335 480q92 128 180 199q107 86 212 86q43 0 88 -14q56 -17 56 -60q0 -6 -3 -16zM1292 219q0 -49 -17 -91q-82 -205 -296 -205
q-72 0 -144 33q-80 36 -111 93q-58 106 -58 176q0 120 97 209q94 88 215 88q126 0 220 -89t94 -214zM388 1116q0 81 -78 81q-75 0 -75 -82q0 -75 76 -75q77 0 77 76zM1052 217q0 80 -78 80q-75 0 -75 -81q0 -76 76 -76q77 0 77 77z" />
    <glyph glyph-name="ampersand" unicode="&#x26;" horiz-adv-x="1240" 
d="M1208 -14q0 -14 -22 -14q-25 0 -74.5 6.5t-74.5 6.5q-9 0 -28 -1t-28 -1q-71 0 -116 64q-5 8 -64 103q-45 -55 -124 -114q-9 -6 -29 -16q-33 -44 -87 -44q-9 0 -148 4q-39 1 -47 17q-144 26 -236 129q-95 105 -95 250q0 90 30 152q15 32 56 80q30 36 30 58q0 13 -46 88
t-46 140q0 267 247 365q73 29 141 29q59 0 114 -20q270 -99 270 -365q0 -54 -36 -129.5t-36 -100.5q0 -13 46 -73q8 9 60 95q32 52 78 53l156 2q47 1 47 -29q0 -23 -27 -56q-14 -16 -42 -49q-17 -23 -61 -82q-19 -20 -57 -62q-39 -45 -39 -76q0 -34 46 -88l66 -74
q18 -25 53 -75q23 -26 68 -80q55 -68 55 -93zM566 912q0 62 -36 102t-97 40q-120 0 -120 -130q0 -133 130 -133q123 0 123 121zM263 826q-1 4 -5 7l-9 1q-33 4 -61 -21l-1 -5q0 -8 16 -8q35 0 59 21zM253 666l-2 6q-13 8 -26 7l-10 -1q-12 -7 -12 -16q0 -3 1 -6q14 -7 25 -6
l12 1q12 6 12 15zM608 369q0 37 -45 91q-22 25 -65 75q-35 15 -67 15q-135 0 -135 -157q0 -173 150 -173q52 0 101 44q7 8 26 29l6 7q20 28 28 56q1 6 1 13z" />
    <glyph glyph-name="quotesingle" unicode="'" horiz-adv-x="539" 
d="M405 1108q0 -37 -67 -37l-154 -1q-66 0 -78 27q-2 4 0 152l1 92q0 17 -5 50.5t-5 50.5q0 32 53 32q158 -1 181 -4q42 -5 47 -29l4 -87q5 -17 16 -63q7 -35 7 -183z" />
    <glyph glyph-name="parenleft" unicode="(" horiz-adv-x="645" 
d="M512 -187q-33 -18 -69 -18q-134 0 -297 245q-46 69 -65 110q-24 52 -73 239q-28 107 -28 343q0 157 53 332q59 193 152 297q80 90 228 159q51 24 85 24q59 0 59 -68q0 -82 -61 -168q-54 -59 -159 -182q-37 -45 -70 -147q-44 -136 -44 -253q0 -341 92 -476
q88 -130 181 -210q80 -69 80 -133q0 -59 -64 -94zM159 1073l-1 4q-6 6 -15 6q-27 0 -27 -24v-4q7 -5 16 -5q27 0 27 23z" />
    <glyph glyph-name="parenright" unicode=")" horiz-adv-x="645" 
d="M512 732q0 -228 -29 -343q-25 -101 -72 -239q-23 -47 -65 -110q-163 -245 -298 -245q-35 0 -68 18q-64 35 -64 94q0 64 80 133q164 142 223 304q49 138 49 382q0 117 -44 253q-43 133 -152 238q-38 37 -76 91q-61 87 -61 168q0 68 59 68q33 0 84 -24q149 -70 229 -159
q93 -104 152 -297q53 -175 53 -332z" />
    <glyph glyph-name="asterisk" unicode="*" horiz-adv-x="977" 
d="M932 261l-75 -135q-24 -43 -65 -43q-12 0 -24 4q-17 6 -108 59q5 -77 5 -112q0 -69 -53 -68q-146 3 -169 6q-46 7 -55 42q-4 16 -5 129q-49 -34 -128 -83q-19 -12 -45 -10q-29 2 -40 22q-87 156 -87 183q0 28 41 54l126 76q-68 32 -125 63q-38 20 -38 59q0 11 6 21
q73 121 82 133q29 40 55 40q21 0 127 -60v107q0 28 20 53.5t47 25.5q64 1 155 1q66 0 78 -57q4 -19 3 -121l60 34q18 10 41 10q43 0 60 -29l79 -132q14 -24 14 -46q0 -29 -24 -50q-12 -11 -60 -39l68 -40q41 -24 41 -70q0 -15 -7 -27z" />
    <glyph glyph-name="plus" unicode="+" horiz-adv-x="946" 
d="M885 482v-151q0 -72 -65 -72q-26 0 -77 3.5t-77 3.5q-69 0 -69 -60q0 -22 6 -64.5t6 -64.5q0 -29 -22.5 -48.5t-51.5 -19.5q-147 0 -176 11q-35 13 -35 76q0 18 1 54.5t1 54.5q0 65 -72 65q-24 0 -72.5 -9.5t-72.5 -9.5q-34 0 -61 20.5t-26 53.5q1 26 7 155q3 56 55 56
h159q27 0 46.5 25t19.5 53q0 30 -4 89.5t-4 89.5q0 27 21 51t48 25l153 4q29 0 54 -18q27 -21 26 -49l-5 -177q0 -79 60 -75l147 10q33 0 56.5 -24.5t23.5 -57.5z" />
    <glyph glyph-name="comma" unicode="," horiz-adv-x="513" 
d="M438 -65q0 -61 -48 -61q-29 0 -99 48l-102 71q-55 49 -54 106q1 34 0 69l-1 59q0 69 23 93q30 31 118 31q152 0 153 -76q0 -18 6 -170q4 -107 4 -170z" />
    <glyph glyph-name="ch45" unicode="-" horiz-adv-x="726" 
d="M646 368q0 -66 -42 -78q-6 -2 -237 0l-144 1q-27 0 -79 -5t-78 -5q-51 0 -50 53q2 159 6 181q7 42 45 47l135 4q28 5 100 16q54 7 285 7q23 0 40.5 -21.5t17.5 -45.5q1 -64 1 -154z" />
    <glyph glyph-name="ch45" unicode="&#x2010;" horiz-adv-x="726" 
d="M646 368q0 -66 -42 -78q-6 -2 -237 0l-144 1q-27 0 -79 -5t-78 -5q-51 0 -50 53q2 159 6 181q7 42 45 47l135 4q28 5 100 16q54 7 285 7q23 0 40.5 -21.5t17.5 -45.5q1 -64 1 -154z" />
    <glyph glyph-name="period" unicode="." horiz-adv-x="390" 
d="M350 127q0 -98 -18 -130q-26 -47 -114 -47q-180 0 -180 80q0 27 7.5 81.5t7.5 81.5q0 53 55 68q26 7 102 7q84 0 112 -28.5t28 -112.5z" />
    <glyph glyph-name="slash" unicode="/" horiz-adv-x="805" 
d="M833 1396q0 -24 -87 -243q-32 -76 -92 -228q-65 -187 -241 -671q-31 -75 -98 -241l-27 -114q-5 -23 -29 -41.5t-47 -17.5q-30 1 -83 -4q-58 -5 -83 -5q-50 0 -55 36q-6 46 80 306q84 252 110 287q17 22 98 273l94 290q25 79 77 237q36 99 100 144q71 49 210 49
q73 0 73 -57z" />
    <glyph glyph-name="zero" unicode="0" horiz-adv-x="982" 
d="M866 755q0 -401 -23 -466q-47 -135 -145 -214q-104 -85 -241 -85q-135 0 -249 90q-120 95 -132 226q-18 193 -18 396q0 322 97 402l62 51q102 84 221 84q74 0 148 -31q88 -37 129 -72t93 -118q58 -91 58 -263zM581 459q0 55 -3 331q-2 175 -126 175q-117 0 -117 -221
q0 -17 1.5 -52t1.5 -52q0 -43 -1 -129l-1 -130q0 -119 123 -119q124 0 122 197z" />
    <glyph glyph-name="one" unicode="1" horiz-adv-x="793" 
d="M395 1174q31 39 71 39q85 0 106 -4q74 -14 71 -68l-9 -162q-1 -26 2 -70q3 -52 3 -71q0 -49 -1 -149l-2 -619q0 -72 -55 -74l-158 -5q-69 0 -69 65q0 77 5.5 230.5t5.5 230.5q0 21 -2 63t-2 63q0 55 11 162q3 29 -1 39q-133 -90 -172 -90t-69 45q-53 79 -53 116
q0 30 30 54q116 91 288 205z" />
    <glyph glyph-name="two" unicode="2" horiz-adv-x="974" 
d="M908 763q0 -72 -31 -134q-58 -115 -85 -150q-40 -51 -131 -109q-61 -29 -138 -81l2 -8q25 -10 152 -10q28 0 82 14.5t82 14.5q41 0 41 -45q0 -29 -4 -88t-4 -88q0 -53 -31 -72q-22 -13 -77 -13q-37 0 -111.5 3t-111.5 3q22 0 -310 -4q-18 0 -55 -5t-56 -5q-89 0 -89 68
q0 102 290 347q68 54 199 166q128 117 128 221q0 55 -38 97t-93 42q-58 0 -111.5 -35.5t-74.5 -88.5q-9 -32 -28 -94q-15 -44 -57 -44q-72 0 -130 25q-75 32 -75 92q0 153 145 284q141 128 296 128q181 0 302.5 -125t121.5 -306z" />
    <glyph glyph-name="three" unicode="3" horiz-adv-x="1096" 
d="M1016 356q0 -49 -70 -179q-46 -86 -149 -141q-99 -52 -200 -52q-177 0 -237 28q-114 53 -143 74t-110 114q-67 77 -67 111t60 70q30 16 88 48q43 25 60 25q28 0 65 -54q53 -77 79 -100q60 -53 148 -53q78 0 129 38q57 42 57 118q0 79 -72 95l-132 16q-72 20 -72 108
q0 69 34 93q18 12 73 18.5t75 24.5q44 39 44 103q0 46 -53 75q-18 10 -95 33q-10 3 -18 3q-22 0 -89 -40q-62 -37 -75.5 -53t-38.5 -47t-47 -31q-18 0 -26 8l-90 109q-51 62 -51 82q0 44 86 87q54 39 168 104q92 38 209 38q60 0 113 -17q3 -1 113 -46q172 -70 172 -259
q0 -70 -48 -157.5t-48 -92.5q0 -24 42 -51q20 -12 61 -38q55 -36 55 -212z" />
    <glyph glyph-name="four" unicode="4" horiz-adv-x="1118" 
d="M1051 280q0 -23 -7 -38q-10 -21 -30 -20l-125 6q-20 0 -35.5 -14.5t-12.5 -34.5l21 -124q-11 -56 -98 -56h-127q-56 0 -54 44l5 132q1 26 -26 43q-23 15 -50 15q-24 0 -70 -8.5t-70 -8.5q-22 0 -67 3.5t-67 3.5q-24 0 -70.5 -8t-70.5 -8q-72 0 -72 99q0 97 78 197
q46 56 138 169q41 65 73 108q52 67 177 240q44 66 96 139q33 26 156 26q121 0 120 -77q-2 -244 -7 -482q0 -17 -4.5 -54t-4.5 -56q0 -57 58 -57q19 0 55.5 5.5t55.5 5.5q32 0 33 -39zM600 582q0 32 -8 72q-11 54 -27 59q-9 -1 -27 -31q-8 -14 -78 -94q-61 -70 -61 -81
q0 -30 39 -48q30 -14 65 -14q97 0 97 137z" />
    <glyph glyph-name="five" unicode="5" horiz-adv-x="886" 
d="M830 401q0 -90 -52 -173l-53 -85q-38 -61 -135 -105q-91 -41 -169 -41q-166 0 -296 121q-89 83 -89 145q0 36 32 57q115 74 134 74q28 0 50 -34q36 -56 45 -65q36 -35 99 -35q79 0 130.5 48t51.5 126q0 30 -9 57q-28 84 -104 108q-20 6 -160 19q-44 4 -111 -34t-86 -38
l-13 2q-35 19 -29 150l3 71q0 57 -3.5 171.5t-3.5 171.5q0 77 48 73l148 -11q59 0 186 3l186 4q12 0 36.5 3.5t37.5 3.5q41 0 37 -38l-19 -164q-22 -55 -126 -55q-31 0 -92 9t-92 9q-39 0 -77 -15q-49 -19 -49 -53q0 -47 98 -47q16 0 47 2.5t47 2.5q42 0 151 -54
q59 -30 86 -65q68 -91 90 -149q25 -66 25 -170z" />
    <glyph glyph-name="six" unicode="6" horiz-adv-x="932" 
d="M870 428q0 -172 -128 -299.5t-300 -127.5q-85 0 -175 42q-99 45 -135 113l-64 120q-39 73 -39 192q0 99 58 209q37 64 108 192q14 31 53 110q20 30 57 92q22 47 44 93q29 47 82 55q129 20 186 20q52 0 52 -36q0 -25 -90 -157.5t-90 -157.5q0 -22 65 -39q27 -7 83 -21
q19 -7 78 -65l65 -64q41 -41 67 -127q23 -76 23 -144zM615 441q0 78 -50 125t-128 47q-68 0 -113 -48.5t-45 -116.5q0 -69 48 -124t116 -55q74 0 123 49t49 123z" />
    <glyph glyph-name="seven" unicode="7" horiz-adv-x="900" 
d="M859 1136q0 -78 -45 -161l-81 -149q-27 -67 -76 -236q-34 -116 -39 -252q-2 -86 -6 -257q-2 -75 -53 -77l-158 -7q-73 0 -73 70q0 24 27 266q13 113 71 369q18 46 87 70q-9 -2 -21 12.5t-12 24.5q0 23 27 71.5t27 56.5q0 24 -34 23l-149 -3q-143 0 -123 2q-22 -2 -85 -16
q-54 -12 -85 -12q-32 0 -32 43l1 167q0 81 98 81q43 0 127.5 -2t127.5 -2q67 0 200.5 3.5t200.5 3.5q35 0 56.5 -26.5t21.5 -62.5zM470 1134q0 8 -7 20h-13q-8 -14 -8 -32q0 -8 8 -20h12q8 14 8 32zM239 1113l-1 6q-15 15 -44 15q-5 0 -17 -5q-4 -4 -4 -9l1 -6
q15 -16 44 -16q5 0 17 5q4 5 4 10zM575 607l-1 2q-8 12 -25 12h-6q-11 -7 -11 -18q10 -14 26 -13l6 1q11 6 11 16z" />
    <glyph glyph-name="eight" unicode="8" horiz-adv-x="914" 
d="M873 357q0 -175 -196 -321q-62 -46 -230 -46q-170 0 -289 107q-123 111 -123 279q0 90 30 152q15 32 56 80q30 36 30 58q0 13 -46 88t-46 140q0 267 247 365q73 29 141 29q59 0 114 -20q270 -99 270 -365q0 -54 -36 -129.5t-36 -100.5q0 -13 43.5 -68.5t52.5 -98.5
q18 -84 18 -149zM566 912q0 62 -36 102t-97 40q-120 0 -120 -130q0 -133 130 -133q123 0 123 121zM263 826q-1 4 -5 7l-9 1q-33 4 -61 -21l-1 -5q0 -8 16 -8q35 0 59 21zM253 666l-2 6q-13 8 -26 7l-10 -1q-12 -7 -12 -16q0 -3 1 -6q14 -7 25 -6l12 1q12 6 12 15zM612 391
q0 63 -60 112q-56 47 -121 47q-135 0 -135 -157q0 -173 150 -173q61 0 113.5 55t52.5 116z" />
    <glyph glyph-name="nine" unicode="9" horiz-adv-x="907" 
d="M859 805q0 -112 -70 -244q-16 -31 -137 -216l-7 -11q-47 -75 -169 -266q-45 -69 -210 -69q-117 0 -117 36q0 14 96 157.5t96 167.5q0 20 -60 45q-26 9 -76 29q-77 32 -135 147q-53 105 -53 197q0 182 127 310t309 128q164 0 285 -123.5t121 -287.5zM616 790q0 67 -42 118
q-45 54 -111 54q-74 0 -133 -54t-59 -127q0 -74 45.5 -116.5t120.5 -42.5q78 0 128.5 45.5t50.5 122.5z" />
    <glyph glyph-name="colon" unicode=":" horiz-adv-x="375" 
d="M338 730q0 -190 -77 -190q-16 1 -151 15q-61 6 -79 47q-10 23 -10 97q0 89 23 117q28 34 119 34q97 0 126 -14q49 -23 49 -106zM350 127q0 -98 -18 -130q-26 -47 -114 -47q-180 0 -180 80q0 27 7.5 81.5t7.5 81.5q0 53 55 68q26 7 102 7q84 0 112 -28.5t28 -112.5z" />
    <glyph glyph-name="semicolon" unicode=";" horiz-adv-x="375" 
d="M338 730q0 -190 -77 -190q-16 1 -151 15q-61 6 -79 47q-10 23 -10 97q0 89 23 117q28 34 119 34q97 0 126 -14q49 -23 49 -106zM356 -56q4 -27 -16 -53.5t-47 -26.5q-24 0 -73 37l-69 54q-84 63 -98 87q-20 34 -20 126q0 89 41 117q30 20 120 20q155 0 153 -69l-5 -181
q2 -19 14 -111z" />
    <glyph glyph-name="less" unicode="&#x3c;" horiz-adv-x="843" 
d="M783 282q0 -47 -3 -77q-285 100 -766 257q-60 20 -60 77q0 192 4 219q8 56 61 80q65 23 195 66q228 73 557 196q0 -37 4 -111t4 -111q0 -92 -49 -108q-54 -18 -276 -87l-33 -32q22 -39 162 -86l192 -64q8 -181 8 -219z" />
    <glyph glyph-name="equal" unicode="=" horiz-adv-x="977" 
d="M924 517q0 -66 -57 -78q-8 -2 -324 0l-197 1q-37 0 -109 -5t-107 -5q-24 0 -46 15t-22 38q3 158 8 181q10 44 62 47q1 0 185 4q38 5 136 16q74 7 391 7q28 0 53 -19.5t25 -47.5zM924 178q0 -66 -57 -78q-8 -2 -324 0l-197 1q-37 0 -109 -5t-107 -5q-24 0 -46 15t-22 38
q3 158 8 181q10 44 62 47q1 0 185 4q38 5 136 16q74 7 391 7q28 0 53 -19.5t25 -47.5z" />
    <glyph glyph-name="greater" unicode="&#x3e;" horiz-adv-x="843" 
d="M782 539q0 -59 -59 -77q-117 -36 -766 -257q-3 30 -3 77q0 38 8 219l192 64q138 47 162 86l-33 32l-276 87q-49 15 -49 108q0 37 4 111t4 111q102 -46 275 -103l282 -93l194 -66q54 -24 62 -80q3 -20 3 -219z" />
    <glyph glyph-name="question" unicode="?" horiz-adv-x="975" 
d="M924 1014q0 -76 -43.5 -178t-99.5 -153q-139 -128 -260 -170h-154q-30 0 -53 17q-26 19 -26 48q0 26 -3 73.5t-3 70.5q0 61 54 60q89 -1 168 9q53 23 94 65q47 50 47 100q0 107 -57 170.5t-163 63.5q-76 0 -118 -41q-12 -12 -50 -75q-24 -40 -58 -40q-19 0 -142 72
q-36 21 -36 57q0 54 96 138q81 71 143 95q117 46 239 46q176 0 300.5 -126t124.5 -302zM596 179q0 -184 -80 -184q-27 0 -81.5 7.5t-81.5 7.5q-54 0 -68 54q-6 23 -6 100q0 86 29.5 114.5t116.5 28.5q93 0 125 -18q46 -26 46 -110z" />
    <glyph glyph-name="at" unicode="@" horiz-adv-x="1309" 
d="M299 886v4q-8 4 -19 4q-32 0 -32 -18v-3q8 -5 18 -5q33 0 33 18zM1132 701q0 -44 -1 -133l-1 -133q0 -127 -34 -137q-17 -5 -36 -5q-22 0 -66 10t-66 10t-64.5 -7t-64.5 -7q-123 0 -211 91t-88 215q0 127 86.5 215.5t213.5 88.5q21 0 61 -11t60 -11q19 0 17 29
q-1 7 -2 24l-24 33q-20 28 -69 28q-19 0 -58 -6t-58 -6q-91 0 -135 -17q-39 -15 -117 -77q-47 -38 -69 -80q-65 -128 -65 -193q0 -98 32 -186q38 -104 109 -149l66 -42q57 -36 170 -46q34 -3 64 -3q37 0 110.5 11t109.5 11q21 0 134 -58q52 -27 52 -67q0 -39 -49 -100
q-19 -23 -10 -29q6 0 7 -1q-4 -1 -7 1q-5 0 -19 -2q-236 -33 -386 -33q-258 0 -440 172q-53 50 -78.5 84.5t-86.5 181.5q-35 84 -35 260q0 129 71 266.5t176 211.5q96 68 274 121q80 24 126 24q45 0 103 -14q70 -17 132 -35q32 -13 102 -48q96 -49 100 -69q15 -78 15 -120
q0 -37 -48 -187q-1 -4 -6 -6q3 -20 3 -70zM888 601q0 112 -69 112q-45 0 -75.5 -30.5t-30.5 -75.5q0 -39 24 -67t62 -28q89 0 89 89z" />
    <glyph glyph-name="A" unicode="A" horiz-adv-x="1337" 
d="M1242 68q0 -57 -51 -64q-178 -25 -188 -25q-65 0 -84 63l-20 118q-17 63 -77 63q-32 0 -96 -11.5t-96 -11.5q-33 0 -96.5 13.5t-96.5 13.5q-64 0 -86 -61q-13 -55 -25 -111q-20 -59 -79 -57l-171 6q-64 2 -64 53q0 34 113 309l135 328q36 117 118 346q18 32 49 98l33 108
q17 56 73 60l183 11q69 0 81 -38q56 -185 117 -337q37 -88 128 -317q11 -31 39 -111q19 -39 54 -119q33 -107 66 -205q8 -20 24.5 -60t16.5 -62zM771 535q0 17 -35 120q-13 35 -37 107q-6 21 -35 127q-7 24 -24 31q-18 0 -25 -22q-10 -36 -41 -126q-6 -18 -53 -129
q-39 -93 -39 -119q0 -7 3 -16q14 -17 229 -17q57 0 57 44z" />
    <glyph glyph-name="B" unicode="B" horiz-adv-x="1386" 
d="M1270 377q0 -79 -31 -147q-64 -140 -183 -192q-38 -16 -47 -17l-457 -28q-63 -2 -228 -8q-16 -1 -58 -5q-37 -4 -58 -4q-23 0 -42 16.5t-19 39.5q0 41 3 124t3 124q0 51 -2 152t-2 152q0 97 1 175l2 175l-2 275q0 38 19 66q23 32 59 32q28 0 83 -2.5t83 -2.5q42 0 127 2
t127 2q217 0 268 -14q320 -89 320 -384q0 -82 -13 -108q-63 -125 -63 -148q0 -10 55 -94t55 -181zM790 1176q-5 7 -10 10q-29 0 -33 -25q5 -7 9 -10q25 0 34 25zM1085 848q0 11 -11 17h-6q-31 0 -31 -26q0 -11 11 -17h6q31 0 31 26zM1038 682l-1 8q-11 5 -24 5
q-12 -6 -12 -15q0 -4 1 -8q11 -6 24 -6q12 7 12 16zM940 892q0 79 -46 110q-37 25 -120 25q-25 0 -75.5 -4.5t-75.5 -4.5q-26 0 -76.5 3.5t-76.5 3.5q-50 0 -50 -46l-1 -137q0 -60 37 -63l122 -11q-11 0 114 6l96 4l72 3q80 18 80 111zM1073 341l-1 10q-17 15 -38 15
q-6 -1 -15 -4v-10q17 -15 39 -15q6 1 15 4zM632 623l-2 12q-9 5 -21 5q-19 0 -31 -14l2 -12q9 -4 20 -4q20 0 32 13zM501 682q0 3 -1 6q-12 8 -29 8q-30 0 -30 -16q0 -3 1 -6q13 -8 29 -8q30 0 30 16zM975 394q0 109 -151 109q-25 0 -76 -3t-76 -3q-29 0 -86.5 2.5
t-86.5 2.5q-56 0 -72 -51q-8 -25 -8 -99q0 -95 58 -95q27 0 80.5 6.5t80.5 6.5q20 0 59 -5t59 -5q116 0 152 14q67 26 67 120zM484 166q0 15 -27 15q-16 0 -29 -11l-1 -5q0 -14 27 -14q15 0 29 11z" />
    <glyph glyph-name="C" unicode="C" horiz-adv-x="1400" 
d="M1419 393q0 -37 -53 -106t-130 -153q-196 -174 -458 -174q-273 0 -466 183q-61 58 -83 88q-27 37 -92 193q-37 89 -37 276q0 135 75.5 281.5t185.5 224.5q102 72 291 128q84 25 133 25q48 0 110 -15q75 -18 139 -37q17 -7 102 -53q98 -53 113 -70l73 -82q64 -72 64 -105
q0 -44 -45 -66q-78 -37 -82 -40q-47 -39 -73 -39q-31 0 -80 63q-57 74 -86 91l-64 38q-67 40 -175 40q-95 0 -143 -19q-43 -17 -123 -81q-52 -41 -74 -85q-69 -134 -69 -204q0 -104 34 -197q40 -111 115 -159l70 -45q76 -49 181 -49q129 0 196 45l85 57q28 19 83 108
q43 70 86 70q22 0 142 -61q55 -28 55 -71zM328 974l-1 4q-8 4 -19 4q-35 0 -35 -19l1 -3q8 -5 19 -5q35 0 35 19z" />
    <glyph glyph-name="D" unicode="D" horiz-adv-x="1463" 
d="M1320 681q0 -108 -33 -220q-36 -124 -98 -198q-99 -118 -216 -197q-83 -56 -153 -64l-166 -2q-150 -3 -357 -1q-11 0 -32 -2.5t-31 -2.5q-74 0 -75 29l-5 256q-3 58 -8 211q-1 33 1 90q3 66 3 91q0 21 -2.5 64t-2.5 64q0 55 6.5 164t6.5 164q0 24 -5.5 72t-5.5 72
q0 73 85 73q79 0 542 -7q102 -2 215 -74q134 -86 172 -139q159 -224 159 -443zM1014 1036l-3 9q-23 16 -58 20l-4 -2l3 -8q23 -17 57 -21zM1024 670q0 92 -28 150q-16 33 -90 132q-47 63 -93 82q-36 15 -123 20q-99 6 -151 6q-102 0 -102 -107q0 -16 1.5 -46t1.5 -44l2 -150
q0 -61 -7.5 -181.5t-7.5 -181.5q0 -84 122 -84q320 0 409 188q41 87 48 106q18 50 18 110zM980 194q0 17 -16 29q-5 1 -10 1q-13 0 -21 -12v-5q0 -17 16 -28q5 -2 10 -2q13 0 21 13v4zM430 217l-3 10q-20 11 -47 11q-8 0 -16 -5l2 -10q20 -11 47 -11q5 1 17 5z" />
    <glyph glyph-name="E" unicode="E" horiz-adv-x="1232" 
d="M1188 1200q0 -167 -66 -164q-119 6 -276 6q-49 0 -147 2t-147 2q-16 0 -46.5 5t-46.5 5q-80 0 -80 -155q0 -96 113 -96q56 0 167 2t167 2q29 0 87.5 3.5t87.5 3.5q57 0 74 -42q9 -23 9 -93q0 -128 -55 -128q-54 0 -163 4.5t-163 4.5q-16 0 -49 -2t-49 -2q-24 0 -71.5 3.5
t-71.5 3.5q-77 0 -77 -110q0 -175 62 -172q208 10 408 10q18 0 53 -4t53 -4q25 0 74 6t74 6q61 0 60 -46q0 -19 1 -53q1 -37 1 -53q0 -81 -31 -114.5t-113 -33.5q-23 0 -68 6.5t-68 6.5q-74 0 -221 -5t-221 -5q-23 0 -67.5 2.5t-67.5 2.5q-20 0 -61 -4t-61 -4q-89 0 -89 73
q0 26 4 77.5t4 77.5q0 14 -2.5 45t-2.5 47l5 233q0 29 -3 87t-3 87q0 68 4.5 204t4.5 204q0 16 -3 47t-3 47q0 97 119 97q17 0 50.5 -2.5t50.5 -2.5l195 -1q22 0 64.5 4t64.5 4l321 -1q15 0 53 -1q34 -1 52 -1q68 0 91 -28q19 -24 19 -94z" />
    <glyph glyph-name="F" unicode="F" horiz-adv-x="1214" 
d="M1219 1293q-5 -46 -15 -152q-6 -61 -21 -78q-19 -21 -77 -21q-52 0 -157 6.5t-157 6.5q-20 0 -59.5 -2.5t-59.5 -2.5q-22 0 -65 3t-65 3q-59 0 -75 -77q-7 -33 -7 -125q0 -74 56 -74l351 -1q37 0 102.5 2.5t98.5 2.5q83 0 81 -44l-7 -171q-7 -52 -48 -64q-30 -9 -163 -9
q-37 0 -110 3.5t-110 3.5q-16 0 -48.5 -2.5t-48.5 -2.5q-17 0 -49 7.5t-49 7.5q-61 0 -61 -59q0 -65 9 -193.5t9 -193.5q0 -27 -20 -49.5t-47 -22.5l-152 1q-58 0 -79 11q-31 16 -31 68q0 34 11 96q-1 58 1 134l6 178q0 26 -3 79t-3 79q2 66 14 387q2 57 5 180q3 130 79 130
q33 0 99 -6.5t99 -6.5q20 0 60.5 6.5t60.5 6.5q17 0 50.5 -4t50.5 -4q22 0 65 2t65 2q33 0 97.5 -6t97.5 -6q26 0 78 12t78 12q63 0 63 -53z" />
    <glyph glyph-name="G" unicode="G" horiz-adv-x="1469" 
d="M1413 741q0 -74 -30 -226q-24 -119 -77 -207q-8 -13 -67 -84l-60 -72q-31 -37 -85 -66q-111 -60 -175 -81q-87 -29 -191 -29q-148 0 -270 66q-99 53 -218 174q-64 64 -85 114q-88 204 -88 381q0 72 55 208q41 101 84.5 156.5t132.5 120.5q178 130 416 130q29 -3 172 -19
q34 -4 110 -43q73 -37 101 -63l83 -76q19 -15 55 -45q30 -26 30 -62t-35 -45l-155 -41q-34 -9 -61 -9q-36 0 -76 36q-57 52 -86 67q-68 36 -175 36q-161 0 -268.5 -116t-107.5 -278q0 -98 58 -196q62 -103 150 -136q138 -51 176 -51q28 0 52 7q131 38 159.5 56t116.5 119
q12 14 12 34q0 31 -76 31q-32 0 -95.5 -8.5t-95.5 -8.5q-110 0 -110 80q0 128 6 148q18 58 104 58l226 -1q33 -1 105.5 -7t105.5 -6q19 0 56.5 8t56.5 8q64 0 64 -62z" />
    <glyph glyph-name="H" unicode="H" horiz-adv-x="1350" 
d="M1342 1298q0 -28 -11 -83.5t-11 -83.5q0 -14 3 -43.5t3 -44.5l-4 -307q0 -31 2.5 -92.5t2.5 -92.5q0 -51 -1 -152q-3 -143 -2 -153l11 -173q5 -78 -63 -78q-20 0 -65 7q-41 6 -74 5l-83 -4q-57 0 -57 33q0 5 1 10q25 124 25 141t-4 50.5t-4 50.5q0 29 5.5 87t5.5 87
q0 56 -39 74q-24 11 -88 11q-32 0 -95 -3.5t-95 -3.5q-28 0 -83 5.5t-83 5.5q-80 0 -77 -53l11 -182q0 -22 -4 -65t-4 -65q0 -21 12 -61.5t12 -61.5q0 -72 -90 -72q-28 0 -122 4q-57 2 -78 11q-37 15 -37 61q0 16 3 43q4 31 4 44q14 472 14 958q0 35 -1 160q-1 83 64 88
l162 12q84 0 84 -78q0 -31 -11 -91.5t-11 -91.5q0 -21 4 -61.5t4 -61.5q0 -17 -5.5 -52t-5.5 -52q0 -70 87 -70q42 0 125 7t125 7q24 0 72 -5.5t72 -5.5q29 0 51.5 19.5t21.5 48.5l-6 174q-1 21 2 57q3 41 3 58q0 21 -10.5 63t-10.5 63q0 60 68 60q19 0 56 -4.5t56 -4.5
q17 0 52 5.5t52 5.5q25 0 42 -19.5t17 -44.5z" />
    <glyph glyph-name="I" unicode="I" horiz-adv-x="555" 
d="M421 1283q0 -26 -6 -78q-5 -47 -6 -78q-1 -27 1 -74q2 -53 2 -74q0 -150 -2 -450l-2 -450q0 -32 -23 -61.5t-54 -31.5l-179 -10q-72 0 -72 65q0 24 6.5 71.5t6.5 71.5q0 35 -1.5 104t-1.5 104q0 22 4 61q3 44 4 62q2 63 2 324q0 74 -4 221t-4 221q0 26 25.5 47t52.5 22
l174 4q77 0 77 -71z" />
    <glyph glyph-name="J" unicode="J" horiz-adv-x="1036" 
d="M1015 1249q0 -216 -6 -466l-10 -416q-5 -206 -119 -295q-101 -78 -313 -78q-25 0 -74 3t-74 3q-30 0 -90 -10t-90 -10q-29 0 -56 19.5t-25 47.5q11 157 11 178q0 91 49 91q22 0 62.5 -4.5t58.5 -4.5q19 -1 52 1q39 1 53 1q24 0 73 -2t73 -2q84 0 84 64q0 44 -3 132.5
t-3 132.5q0 41 3 123t3 123q0 45 2 134t2 134q0 19 -5.5 56t-5.5 56q0 67 70 69l198 6q50 0 65 -18t15 -68z" />
    <glyph glyph-name="K" unicode="K" horiz-adv-x="1469" 
d="M1373 1292q0 -28 -33 -61q-18 -17 -53 -50q-140 -138 -255 -266q-18 -18 -54 -55q-30 -33 -30 -69q0 -31 26 -67q15 -19 44 -59q18 -34 57 -101q33 -55 118 -202q32 -57 119 -203q59 -76 59 -120q0 -45 -50 -45q-282 0 -310 57q-11 30 -39 91q-18 26 -60 95
q-42 81 -151 291q-13 25 -34 25q-22 0 -48 -36q-11 -15 -35 -55q-16 -20 -109 -139l-4 -272q-1 -75 -91 -75h-160q-71 0 -71 48q0 25 4.5 74t4.5 74q0 102 -3 307t-3 307q0 52 2 155t2 155q0 27 -4 80.5t-4 80.5q0 67 66 89q36 12 122 12q155 0 155 -65q0 -35 -11 -86
q-14 -67 -16 -85v-127q0 -31 -3 -91.5t-3 -91.5q0 -35 18 -39l18 9q181 232 351 412q31 52 102 133q29 22 62 22q20 0 60 -9.5t60 -9.5q21 0 62.5 8t62.5 8q59 0 59 -54z" />
    <glyph glyph-name="L" unicode="L" horiz-adv-x="1289" 
d="M1092 249q0 -23 -5 -70t-5 -70q0 -9 1.5 -28t1.5 -28q0 -55 -44 -71q-24 -9 -91 -9q-72 0 -214.5 9.5t-214.5 9.5q-59 0 -177.5 -3t-177.5 -3q-78 0 -78 59q0 18 3.5 51.5t3.5 47.5q5 154 5 335q0 26 -4 68q-5 52 -6 68q-2 35 1 101q3 70 3 101q0 28 -4 85t-4 85
q0 18 2 54.5t2 54.5q0 25 -5 74t-5 74q0 72 56 75l202 10q87 0 87 -69q0 -27 -8 -78t-8 -77q-1 -110 -1 -165l1 -166q0 -54 -1.5 -162t-1.5 -162q0 -15 -4.5 -44.5t-4.5 -44.5q0 -64 70 -64q25 0 75.5 7t75.5 7q27 0 82 -5t82 -5q35 0 105.5 6t105.5 6q99 0 99 -64z" />
    <glyph glyph-name="M" unicode="M" horiz-adv-x="1677" 
d="M1687 1270q0 -27 -3 -66l-5 -65q-1 -16 -1 -259q0 -27 -4 -76q-5 -53 -5.5 -74.5t-0.5 -175.5q0 -21 4.5 -63.5t4.5 -63.5q0 -34 -4.5 -102t-4.5 -102q0 -23 5 -68.5t5 -68.5q0 -96 -64 -94l-156 4q-90 2 -90 86q0 32 5 91q5 63 5 91q1 40 0 78q-1 54 -1 77q0 106 4 284
q1 44 -12 44q-12 0 -23 -16q-193 -287 -427 -650q-18 -28 -40 -28q-29 0 -53 42q-11 22 -34 65q-22 40 -51 80t-102 147l-55 85q-18 32 -56 96q-50 82 -77 82q-23 0 -23 -56q0 -31 7 -92.5t7 -92.5q0 -26 -2 -79t-2 -79q0 -36 5 -108t5 -108q0 -45 -65 -45h-160
q-82 0 -82 64q0 19 2 57t2 57q0 224 -12 568l-8 210q0 49 2 148t2 148q0 62 43 84q31 16 100 16q100 0 129 -38q34 -66 67 -132q19 -25 66 -91q16 -27 58 -95q18 -23 62 -84q84 -125 181 -300q14 -25 35 -25q34 0 59 39q12 22 38 65q59 91 135 200q21 27 75 99q21 37 66 110
q25 29 69 91q49 92 51 94q31 40 95 44l155 10q74 0 74 -59zM1573 1120q-2 29 -25 39l-9 -9q3 -31 26 -39z" />
    <glyph glyph-name="N" unicode="N" horiz-adv-x="1439" 
d="M1305 1270q0 -32 -12 -96.5t-11 -98.5q2 -86 2 -72q0 -43 -5 -130t-5 -130q0 -62 5 -184.5t5 -184.5q0 -22 -5 -64.5t-5 -64.5q0 -29 8.5 -85t8.5 -85q0 -78 -57 -78q-26 0 -87 14q-56 12 -88 9q-21 -2 -36 -2q-48 0 -68 17q-15 27 -57 91q-49 67 -172 243
q-31 48 -115 172q-48 65 -171 234q-11 16 -26 16q-18 0 -18 -31q2 -166 2 -421q0 -44 7.5 -130.5t7.5 -130.5q0 -28 -18 -52t-45 -26l-156 -9q-30 -2 -56 17q-29 20 -29 49q5 365 5 651v274q0 20 1.5 60.5t1.5 60.5q0 18 -3 54.5t-3 54.5q0 111 88 111q35 0 117 -8
q97 -9 112 -20q20 -32 152 -227q59 -90 181 -269q34 -44 115 -159q12 -20 36 -61q29 -49 44 -50q16 7 16 34q0 38 -3 207q-2 123 -2 206l1 277q0 88 55 88l188 -1q94 0 94 -70zM323 468q-9 12 -30 12q-26 0 -38 -14q7 -12 29 -12q27 0 39 14z" />
    <glyph glyph-name="O" unicode="O" horiz-adv-x="1523" 
d="M1541 660l-23 -177q-16 -120 -162 -286q-203 -230 -520 -230q-295 0 -488 202q-191 199 -191 495q0 210 110 386q113 181 303 261q154 65 260 65q187 0 314 -61.5t246 -207.5q68 -83 96.5 -148.5t45.5 -173.5q9 -57 9 -125zM1249 658q0 101 -33 170q-23 48 -100 143
q-92 114 -271 114q-54 0 -85 -12l-111 -43q-90 -35 -155 -152q-61 -110 -61 -213q0 -168 120.5 -289t288.5 -121q163 0 285 120t122 283z" />
    <glyph glyph-name="P" unicode="P" horiz-adv-x="1207" 
d="M1293 867q0 -116 -57 -216q-14 -25 -51 -89q-27 -46 -104 -98q-80 -53 -130 -54l-391 -5q-90 -1 -90 -91q0 -23 9 -234q1 -31 -21.5 -55.5t-53.5 -24.5q-153 0 -186 15q-37 17 -37 92q0 -6 2 69q1 43 0 93q-1 51 -7 147q-6 100 -6 147t7.5 137.5t7.5 134.5q1 79 -1 188
q-2 128 -2 189q0 99 122 99q12 0 44 -1q27 -2 43 -1q201 7 289 7q20 0 59.5 -3.5t59.5 -3.5t59.5 4.5t59.5 4.5q54 0 95 -24l105 -61q41 -24 77 -81q59 -94 75 -135q23 -61 23 -150zM1149 962q0 3 -1 5q-12 7 -22 6l-10 -1q-10 -5 -10 -13q0 -2 1 -5q12 -6 22 -5h10
q10 6 10 13zM1019 863q0 197 -204 197q-23 0 -67.5 -2.5t-67.5 -2.5q-24 0 -70.5 5t-70.5 5q-32 0 -55 -21.5t-23 -53.5q0 -26 12 -77.5t12 -77.5q0 -22 -8 -64t-8 -64q0 -63 58 -63l287 2q117 1 180 119q25 47 25 98z" />
    <glyph glyph-name="Q" unicode="Q" horiz-adv-x="1607" 
d="M1475 129q0 -34 -71 -98t-106 -64q-24 0 -73 58t-82 58q-16 0 -27 -6q-71 -40 -100 -54q-115 -56 -252 -56q-45 0 -207 32q-103 20 -244 127q-257 195 -257 520q0 293 205.5 506t497.5 213q325 0 545 -287q39 -51 102 -195q36 -83 36 -155v-106q-2 -11 -21 -128
q-6 -37 -46 -120q-37 -77 -37 -97q0 -36 68.5 -75.5t68.5 -72.5zM1167 639q0 185 -115 309q-119 128 -302 128q-77 0 -115 -18l-117 -55q-78 -37 -134 -156q-51 -108 -51 -203q0 -176 131 -298q128 -120 305 -120q42 0 84 12q58 16 58 46q0 25 -73.5 78.5t-73.5 87.5
q0 40 57 101t96 61q34 0 91 -68t85 -68q39 0 59 66q15 48 15 97z" />
    <glyph glyph-name="R" unicode="R" horiz-adv-x="1283" 
d="M1218 24q0 -37 -47 -38l-180 -3q-74 -1 -102 36l-57 107q-28 35 -77 106q-43 79 -87 157q-34 41 -158 41q-59 0 -80 -8q-38 -14 -38 -61q0 -32 7.5 -95.5t7.5 -95.5q0 -187 -67 -184l-153 6q-69 3 -66 52q10 175 10 481q0 39 -6 118t-6 118q0 67 2.5 202t2.5 202
q0 120 34 141q15 9 150 11l137 2q35 1 322 -4q113 -2 198 -50q62 -35 132 -141q83 -125 83 -280q0 -70 -15 -111q-6 -16 -52 -99q-23 -42 -63 -88q-23 -11 -69 -36q-42 -25 -42 -61q0 -31 44 -81q21 -23 61 -69q15 -28 47 -81q25 -30 73 -90q54 -69 54 -104zM864 884
q0 97 -89 143q-62 32 -304 32h-8q-67 0 -67 -65q0 -28 4.5 -83t4.5 -83q0 -16 -2.5 -48.5t-2.5 -48.5q0 -61 56 -58l201 11q207 11 207 200z" />
    <glyph glyph-name="S" unicode="S" horiz-adv-x="1195" 
d="M1121 361q0 -64 -24 -129q-103 -278 -521 -278q-174 0 -462 174q-23 12 -68 38q-40 25 -40 61q0 32 45 72q55 49 63 66l24 51q15 32 48 32q19 0 88 -58q88 -74 152 -108q110 -59 219 -59q53 0 107 29q62 33 62 83q0 107 -307 214l-20 7q-55 19 -191 68q-33 12 -90 68
q-84 82 -108 125q-34 61 -34 159q0 84 72 187t151 133q154 59 234 59q192 0 391 -116q24 -14 67 -38q40 -30 40 -61q0 -24 -39 -73q-19 -23 -56 -69q-48 -61 -74 -61q-17 0 -59 30q-55 39 -97 56q-73 30 -164 30q-125 0 -125 -86q0 -87 127 -137q62 -20 185 -62
q19 -6 109 -51q140 -69 205 -136q90 -92 90 -220z" />
    <glyph glyph-name="T" unicode="T" horiz-adv-x="1118" 
d="M1108 1103q0 -67 -69 -61l-205 17q-86 0 -85 -69l5 -243q0 -40 -3 -120t-3 -120q0 -27 8 -79t8 -79q0 -22 -3 -64.5t-3 -64.5q0 -27 3 -79.5t3 -79.5q0 -26 -19.5 -47.5t-45.5 -21.5l-162 -1q-57 0 -75 25q-14 19 -14 76l2 732q0 26 3 81t3 83q0 34 -22 54.5t-55 17.5
q-205 -21 -221 -21q-94 0 -94 105q0 112 17 141q25 43 125 43q35 0 104 -2.5t104 -2.5q19 0 57 4t57 4t57 -2.5t57 -2.5q13 0 96 -3q55 -2 102 -1q57 1 92 9q77 17 102 17q56 0 61 -65z" />
    <glyph glyph-name="U" unicode="U" horiz-adv-x="1174" 
d="M1095 1242q0 -22 -5.5 -65t-5.5 -64l-1 -235q0 -33 -9 -454q-2 -79 -49 -169q-44 -84 -107 -141q-166 -149 -343 -149q-101 0 -178 34q-51 22 -156 95q-122 84 -167 241q-32 111 -32 301v32q1 29 1 44v75q0 33 -2 99.5t-2 99.5q0 23 2.5 68.5t2.5 68.5q0 21 -4.5 64
t-4.5 64q0 75 79 75h161q74 0 74 -59q0 -22 -6 -66t-6 -67l1 -410q0 -73 2 -258q1 -47 31.5 -103t69.5 -79q64 -37 127 -37q108 0 174 84q60 77 60 188q0 24 -2.5 71t-2.5 70v300q-2 163 -22 298q-8 53 59 53q9 0 183 -7q78 -3 78 -62z" />
    <glyph glyph-name="V" unicode="V" horiz-adv-x="1299" 
d="M1306 1256q0 -23 -58 -174q-21 -53 -62 -160l-14 -40q-64 -179 -227 -631q-12 -29 -42 -104q-5 -26 -26 -114q-5 -23 -29 -42t-47 -18q-210 5 -226 7q-55 8 -77 60q-20 65 -63 193q-34 92 -118 334q-9 31 -33 111q-16 37 -44 112q-7 32 -30 112q-36 117 -81 228l-28 61
q-20 44 -20 60q0 52 38 54l187 9q82 0 103 -45q10 -38 31 -112q43 -134 216 -684q10 -33 33 -33q11 0 24 17q17 23 98 273l94 290q20 68 62 202q20 62 71 78q41 13 195 13q73 0 73 -57z" />
    <glyph glyph-name="W" unicode="W" horiz-adv-x="1734" 
d="M1765 1266q0 -22 -37 -121l-43 -114q-14 -72 -54 -258q-18 -76 -104 -412q-11 -41 -38 -149q-8 -37 -33 -165q-25 -55 -134 -55q-103 0 -126 36l-42 148q-12 29 -37 104q-27 102 -80 305q-69 258 -85 267q-13 -6 -16 -16q-33 -124 -91 -330q-9 -27 -33 -98
q-9 -43 -30 -127q-13 -35 -36 -107l-16 -108q-18 -75 -68 -75q-84 0 -109 3q-85 10 -96 54q-24 87 -86 314q-15 61 -58 217q-30 93 -105 336q-17 64 -65 231q-8 22 -24.5 64.5t-16.5 65.5q0 64 141 64q74 0 106 -16q42 -21 56 -84q12 -53 29 -134q15 -38 44 -140l90 -380
q8 -35 28 -35q22 0 40 65l21 84q37 143 88 323q11 34 37 122q11 56 21 113q22 71 79 71h151q71 0 83 -48q8 -35 30 -126q31 -117 107 -421q6 -32 19 -96q18 -83 36 -83q15 0 20 24q34 145 117 524q1 5 30 167q25 69 121 69q169 0 169 -73z" />
    <glyph glyph-name="X" unicode="X" horiz-adv-x="1408" 
d="M1367 28q0 -48 -85 -48q-28 0 -80 12q-22 5 -104 5h-20q-51 0 -102 62q-23 36 -72 105q-21 24 -72 89q-25 35 -74 105q-59 83 -76 83t-29 -20q-46 -76 -113 -178q-39 -46 -109 -143q-24 -41 -47 -82q-26 -33 -87 -34l-186 -4q-61 -1 -61 43q0 27 74 125q55 68 153 215
q11 20 194 280q17 24 17 45q0 17 -7 26q-36 46 -129 166q-51 66 -231 305q-82 82 -82 115q0 21 33 35q21 9 235 9q60 0 113 -71q37 -60 75 -120q23 -27 66 -82q14 -23 42 -68q32 -48 54 -48q30 0 58 49q13 25 41 73q32 49 113 183q46 82 183 82q220 0 220 -44q0 -19 -75 -98
q-8 -12 -241 -353q-20 -26 -60.5 -79t-40.5 -82q0 -31 35 -64q18 -17 58 -53q19 -32 60 -92q26 -27 75 -82q17 -30 55 -88q27 -29 79 -90q19 -27 61 -80q28 -23 78 -71q11 -13 11 -38z" />
    <glyph glyph-name="Y" unicode="Y" horiz-adv-x="1373" 
d="M1351 1319q0 -23 -74 -107q-46 -68 -122 -176q-78 -121 -239 -359q-86 -120 -89 -128q-16 -36 -16 -148q0 -52 10 -156t10 -156q0 -108 -85 -106q-30 1 -179 5q-63 2 -63 53q0 24 3 72t3 72q0 31 -1 92t-1 92q0 107 -40 177q-32 51 -96 152q-36 58 -117 194
q-15 32 -48 94l-102 153q-74 113 -74 153q0 49 46 51l187 10q6 0 19 2t20 2q55 0 79 -46q18 -45 37 -90q18 -29 55 -86q70 -137 154 -292q16 -29 29 -29q18 0 30 16q27 48 59 99q37 56 132 203q27 44 81 133q31 50 75 69q49 21 147 21h112q58 0 58 -36z" />
    <glyph glyph-name="Z" unicode="Z" horiz-adv-x="1325" 
d="M1267 1287q0 -31 -54 -98q-18 -22 -78 -93q-55 -90 -172 -264q-22 -26 -61 -79q-17 -32 -53 -93q-24 -28 -68 -87q-18 -30 -55 -88q-7 -8 -51 -63q-37 -46 -37 -64q0 -30 67 -30q23 0 67.5 3.5t67.5 3.5q27 0 80 -4.5t80 -4.5q32 0 94.5 12.5t94.5 12.5q72 0 72 -86
l-1 -198q0 -71 -53 -71q-20 0 -58.5 4.5t-58.5 4.5q-27 0 -80 -6t-80 -6q-84 0 -251.5 2.5t-251.5 2.5q-52 0 -155 -7t-155 -7q-62 0 -62 54q0 32 45 91q23 28 67 85q66 89 110 166q15 28 54 98l66 81q29 50 113 174q53 68 188 249q8 11 8 28q0 33 -62 33q-79 0 -235.5 -21
t-235.5 -21q-111 0 -111 79q0 30 11 139q7 67 41 88q26 16 95 16q22 0 66 -2.5t66 -2.5q68 0 204.5 2t204.5 2q15 0 50 4q23 3 50 4q202 10 316 10q101 0 101 -53zM1078 113q0 30 -73 30q-15 0 -23 -5q0 -30 73 -30q14 0 23 5z" />
    <glyph glyph-name="bracketleft" unicode="[" horiz-adv-x="771" 
d="M48 479v97q0 20 1 56v40v40q-1 36 -1 56v97q0 35 5 51l11 446q4 171 82 260t246 107h8q18 0 39 2q-36 -1 -44 -2q17 1 62 4q15 1 61 9q39 6 62 6q30 0 56.5 -19t24.5 -48q-11 -157 -11 -178q0 -90 -48 -90q-22 0 -61 4q-42 4 -60 5q-10 0 -33 -1l4 1q43 1 21 1
q-12 0 -21 -1l-4 -1q-59 -8 -59 -61q0 -44 3 -133t3 -133q0 10 -5 -189q6 -14 6 -30q0 -6 -7 -67q-3 -26 -3 -136t3 -136q7 -61 7 -67q0 -16 -6 -30l5 -189q0 -44 -3 -133t-3 -133q0 -53 59 -61l4 -1q9 -1 21 -1q22 0 -21 1l-4 1q23 -1 33 -1q18 1 60 5q39 4 61 4
q48 0 48 -90q0 -21 11 -178q2 -29 -24.5 -48t-56.5 -19q-16 0 -123 15q-33 1 -62 4q8 -1 44 -2q-21 2 -39 2h-8q-168 18 -246 107t-82 260l-11 446q-5 16 -5 51z" />
    <glyph glyph-name="backslash" unicode="\" horiz-adv-x="805" 
d="M833 -133q-5 -36 -55 -36q-25 0 -83 5q-53 5 -83 4q-23 -1 -47 17.5t-29 41.5q-11 51 -26 114q-32 74 -99 241q-66 187 -241 671q-30 76 -91 228q-88 222 -88 243q0 57 73 57q140 0 211 -49q63 -44 99 -144q26 -72 78 -237q92 -291 191 -563q26 -34 110 -287
q87 -260 80 -306z" />
    <glyph glyph-name="bracketright" unicode="]" horiz-adv-x="749" 
d="M661 479v97q0 20 -1 56v40v40q1 36 1 56v97q0 35 -5 51l-11 446q-4 171 -82 260t-246 107h-8q-17 0 -38 2q35 -1 43 -2q-17 1 -62 4q-15 1 -61 9q-39 6 -62 6q-29 0 -55 -18q-28 -21 -26 -49q11 -157 11 -178q0 -90 48 -90q22 0 62.5 4t58.5 5q10 0 34 -1l-5 1
q-43 1 -21 1q16 0 21 -1l5 -1q59 -12 59 -61q0 -44 -3.5 -133t-3.5 -133q0 10 6 -189q-7 -14 -7 -30t8 -67q0 -23 1 -68t1 -68t-1 -68t-1 -68q-8 -51 -8 -67t7 -30l-6 -189q0 -44 3.5 -133t3.5 -133q0 -49 -59 -61l-5 -1q-5 -1 -21 -1q-22 0 21 1l5 1q-24 -1 -34 -1
q-18 1 -58.5 5t-62.5 4q-48 0 -48 -90q0 -21 -11 -178q-2 -28 25 -47.5t56 -19.5q16 0 123 15q33 1 62 4q-7 -1 -43 -2q21 2 38 2h8q168 18 246 107t82 260l11 446q5 16 5 51z" />
    <glyph glyph-name="asciicircum" unicode="^" 
d="M860 1225q0 -123 -27 -141q-14 -9 -156 -12q-26 31 -100 88q-66 51 -93 92q-27 -43 -91 -94q-82 -65 -102 -86q-41 18 -88 18h-21q-26 -1 -18 -1q-39 0 -49 38q-5 17 -5 71q0 51 384 291q64 -25 203 -115q163 -106 163 -149z" />
    <glyph glyph-name="underscore" unicode="_" horiz-adv-x="1309" 
d="M1331 -176q-12 -6 -92 -6q-57 0 -147 3l-86 3l-718 1q-37 0 -108.5 -5t-107.5 -5q-24 0 -46 15t-21 38l3 78q4 18 30 18q23 0 70 -3t70 -3q-13 0 73 2q212 3 657 16q181 7 391 7q3 -17 22 -65q16 -42 16 -63q0 -15 -6 -31z" />
    <glyph glyph-name="grave" unicode="`" horiz-adv-x="516" 
d="M453 1525q0 -79 -24 -108q-26 -33 -101 -33q-13 0 -58 1q-58 1 -70 1q-57 -1 -105 53q-3 3 -71 102q-49 71 -49 99q0 48 61 48q31 0 103 3q67 3 104 2q53 -1 130 -58q80 -60 80 -110z" />
    <glyph glyph-name="a" unicode="a" 
d="M1057 196l-9 -111q-15 -80 -65 -84l-156 -12q-34 0 -86.5 28t-78.5 28q-29 0 -69 -15q-110 -41 -228 -41q-64 0 -159 42q-170 75 -170 232q0 86 23 128q20 36 91 95q49 41 98 56q38 11 115 32q61 17 90 17q25 0 75 -22t76 -22q18 0 18 16q0 95 -253 95q-39 0 -114 -22
t-106 -22q-35 0 -35 35q0 3 10 132q5 66 42 70l144 15q134 14 119 14q23 0 64.5 -11t60.5 -12q-13 1 120 1q153 0 204 -155q29 -88 29 -280q-2 -23 -15 -135q-7 -59 53 -59q13 0 38.5 3t38.5 3q38 0 35 -39zM622 286q0 43 -57 72q-48 24 -96 24q-51 0 -97 -25
q-56 -30 -56 -76q0 -56 73 -83q31 -12 66 -12q45 0 102 28q65 32 65 72z" />
    <glyph glyph-name="b" unicode="b" horiz-adv-x="1072" 
d="M1025 451q0 -178 -123 -312q-126 -138 -303 -138q-39 0 -110.5 22t-87.5 22q-19 0 -71 -26t-94 -26q-139 0 -138 67q5 231 5 471q0 22 4 61q4 44 5 61q7 189 7 429q0 18 3.5 54t3.5 54q0 23 -8 69.5t-8 69.5q0 84 134 84q128 0 128 -85q0 -34 -4 -101.5t-4 -101.5
q0 -22 2 -65t2 -65q0 -23 -12.5 -68t-12.5 -68q0 -41 26 -41q31 0 110 27t124 27q180 0 301 -120.5t121 -300.5zM731 455q0 79 -48 131.5t-127 52.5q-89 0 -152.5 -59t-63.5 -148q0 -86 52 -136t138 -50q96 0 148.5 56t52.5 153z" />
    <glyph glyph-name="c" unicode="c" horiz-adv-x="975" 
d="M923 259q0 -55 -95 -138q-81 -70 -143 -95q-116 -46 -239 -46q-176 0 -300.5 126t-124.5 302q0 77 42 179q44 108 100 152l63 49q129 100 258 100q94 0 145.5 -15.5t130.5 -66.5q109 -71 109 -103q0 -31 -70.5 -78t-104.5 -47q-24 0 -88.5 34.5t-98.5 34.5
q-66 0 -135 -57q-72 -60 -72 -124q0 -107 56 -169q58 -65 164 -65q76 0 117 41q12 12 50 75q24 40 58 40q20 0 143 -72q35 -20 35 -57z" />
    <glyph glyph-name="d" unicode="d" horiz-adv-x="985" 
d="M903 561q0 -62 -1 -186l-2 -186q0 -176 -47 -190q-23 -7 -51 -7q-31 0 -92 14t-92 14q-30 0 -90 -10t-90 -10q-171 0 -294 127t-123 299q0 178 121 301.5t298 123.5q31 0 89.5 -15.5t79.5 -15.5q26 0 23 41l-12 164q0 49 2.5 148t2.5 148q0 97 136 97q141 0 141 -79
q0 -42 -4.5 -126.5t-4.5 -126.5q0 -88 5 -262.5t5 -262.5zM640 398q0 105 -21 155q-32 77 -123 77q-93 0 -156 -63t-63 -156q0 -80 48 -137q50 -60 129 -60q86 0 136 49t50 135z" />
    <glyph glyph-name="e" unicode="e" horiz-adv-x="985" 
d="M971 437q0 -88 -61 -88q-20 0 -59.5 9t-59.5 9q-27 0 -81 -10.5t-81 -10.5q-28 0 -83 7.5t-83 7.5q-110 0 -90 1q-65 -4 -65 -33q0 -52 78 -100q71 -44 127 -44q70 0 149 51t88 51q42 0 97 -24q66 -29 66 -62q0 -47 -89 -106q-20 -14 -111 -73q-64 -42 -213 -42
q-80 0 -179 45.5t-151 105.5q-21 24 -99 155q-22 37 -22 151q0 94 20 151q26 74 86 140q63 70 132 95l117 42q50 18 111 18q113 0 193 -45q121 -69 163.5 -121t86.5 -186q13 -40 13 -94zM702 575q0 52 -70 86q-59 29 -120 29q-57 0 -118 -28q-74 -34 -74 -82q0 -29 68 -29
l213 1q11 0 32 -3t31 -3q38 0 38 29z" />
    <glyph glyph-name="f" unicode="f" horiz-adv-x="798" 
d="M741 723q0 -112 -68 -112q-23 0 -68.5 11.5t-68.5 11.5q-57 0 -57 -58q0 -88 6.5 -263.5t6.5 -263.5q0 -70 -118 -70q-75 0 -99 7q-55 16 -55 72l-1 306q0 33 5.5 96t5.5 95q0 71 -64 71q-16 0 -46.5 -5t-46.5 -5q-49 0 -49 101q0 134 71 134q11 0 33.5 -3t33.5 -3
q68 0 68 120q0 187 93 298q99 119 283 119q72 0 94.5 -24t22.5 -96q0 -90 -1 -98q-10 -56 -61 -56q-17 0 -51 1.5t-51 1.5q-79 0 -79 -149q0 -133 42 -133q25 0 73 8.5t73 8.5q73 0 73 -123zM369 346l-2 5l-19 6l-12 -1l-10 -13l1 -5l19 -6l13 1z" />
    <glyph glyph-name="g" unicode="g" horiz-adv-x="1037" 
d="M993 772q0 -80 -3.5 -239.5t-3.5 -239.5q0 -43 -3 -105l-5 -105q-3 -121 -30 -273q-9 -48 -118 -181q-93 -113 -294 -113q-119 0 -190 36q-58 29 -159 129q-20 20 -42 58q-25 43 -25 65q0 38 69 64q55 21 102 21q39 0 95 -75t131 -75q88 0 152 60.5t64 147.5q0 81 -46 81
q-24 0 -88 -21.5t-101 -21.5q-183 0 -314 128.5t-131 311.5q0 65 23 123q6 15 58 118q42 83 155 142q107 56 206 56q34 0 99.5 -17t95.5 -17q31 0 90 19t90 19q123 0 123 -96zM727 423q0 97 -30 138q-37 49 -130 49q-96 0 -161 -54q-69 -58 -69 -152q0 -85 62 -132
q56 -43 143 -43q185 0 185 194z" />
    <glyph glyph-name="h" unicode="h" horiz-adv-x="1050" 
d="M981 71q0 -94 -65 -88q-113 10 -146 10q-90 0 -90 103q0 18 2.5 52.5t2.5 52.5q0 19 -4.5 55.5t-4.5 55.5v175q0 127 -114 127q-56 0 -111 -45q-59 -47 -59 -101q0 -67 5.5 -200.5t5.5 -200.5q0 -71 -53 -70l-156 2q-74 1 -72 58l6 160q0 130 -7 391t-7 391q0 23 3 67.5
t3 67.5q0 25 -6 74.5t-6 74.5q0 79 66 77l171 -4q27 -1 48.5 -19t19.5 -44l-13 -149q0 -22 3 -65t3 -65q0 -27 -9 -79.5t-9 -79.5q0 -43 25 -43q14 0 95.5 31.5t131.5 31.5q76 0 156 -32q106 -42 146 -122q31 -62 33 -185q1 -53 0 -141l-1 -140q0 -31 3.5 -92t3.5 -92z
M676 783q-3 15 -19 24h-5q-12 0 -17 -11q3 -15 18 -24h5q12 0 18 11z" />
    <glyph glyph-name="i" unicode="i" horiz-adv-x="471" 
d="M423 1192q0 -86 -29 -114.5t-115 -28.5q-95 0 -127 17q-47 25 -47 109q0 185 79 185q-1 0 153 -14q60 -5 77 -50q9 -24 9 -104zM418 49q0 -24 -14 -44q-16 -23 -39 -23q-156 2 -171 4q-47 7 -55 52q-4 22 -4 173q0 28 -6 70q-5 30 -10 71q-6 77 -6 148q0 22 1 65t1 65
q0 15 -2 45t-2 45q0 123 69 123h154q8 0 23 3t23 3q34 0 34 -91q0 -80 -2.5 -240.5t-2.5 -240.5q0 -38 4.5 -114t4.5 -114z" />
    <glyph glyph-name="j" unicode="j" horiz-adv-x="609" 
d="M569 1211q0 -90 -49 -122q-36 -24 -122 -24h-44q-61 1 -47 1q-54 0 -54 54v135q0 77 55 94q20 6 125 6h37q99 0 99 -144zM555 777q0 -53 -3.5 -158.5t-3.5 -158.5v-359q0 -522 -161 -536q-118 -10 -280 -10q-88 0 -117.5 30t-29.5 118q0 133 99 133q24 0 71.5 -5t71.5 -5
t47.5 20.5t23.5 44.5q0 149 -13 445.5t-13 445.5q0 52 60 67q24 6 101 6q147 0 147 -78zM436 565l-24 24q-7 -3 -12 -11l6 -18l18 -6q7 3 12 11z" />
    <glyph glyph-name="k" unicode="k" horiz-adv-x="1084" 
d="M1027 34q0 -33 -90 -33q-218 0 -245 53q-13 27 -49 95q-24 28 -67 85q-26 47 -43 75q-33 55 -64 55q-27 0 -89 -59q-65 -62 -63 -99l9 -158q4 -63 -60 -63l-145 -1q-71 0 -71 47q0 16 4.5 49t4.5 49q0 78 -4 234t-4 234q0 21 2 64t2 64q0 23 -5 63q-6 44 -7 63
q-1 33 1 89q3 73 3 89q0 45 -4 136t-4 136q0 71 54 71q29 -2 169 -12q63 -4 63 -58q0 -21 -3.5 -63t-3.5 -63q0 -17 1.5 -50t1.5 -49q0 -47 -4 -139.5t-4 -139.5q0 -196 30 -196q15 0 55 45l50 58q29 20 84 64q57 63 78 75q32 19 106 18q38 0 228 -2q44 0 44 -29
q0 -21 -49 -51l-68 -40q-24 -27 -73 -76q-41 -29 -73 -53q-50 -38 -50 -72q0 -26 31 -61q16 -17 48 -53q15 -24 56 -85q41 -52 122 -156q95 -123 95 -150z" />
    <glyph glyph-name="l" unicode="l" horiz-adv-x="478" 
d="M435 1309q0 -21 -4 -67.5t-5 -66.5q-1 -15 -1 -285l-1 -560q0 -22 -3 -66.5t-3 -67.5q0 -28 7.5 -83.5t7.5 -83.5q0 -39 -50 -40l-157 -2q-88 -1 -88 80q0 12 2 41q1 26 1 40l-5 286q0 119 3 358l2 358q0 25 -11 74t-11 74q0 53 53 55l190 8q73 0 73 -52z" />
    <glyph glyph-name="m" unicode="m" horiz-adv-x="1462" 
d="M1442 391q0 -12 -2 -159q-1 -74 0 -159q0 -24 -15 -48q-16 -27 -39 -27l-139 -1q-90 -1 -90 93q0 17 2.5 49.5t2.5 49.5q0 21 -1 68q-1 62 -1 68q1 31 9 183q2 45 -30.5 71t-78.5 26q-142 0 -142 -270q0 -6 4 -274q1 -70 -57 -71l-163 -2q-67 0 -66 45l4 149
q0 21 -1.5 63.5t-1.5 63.5q0 20 2 60.5t2 60.5q0 172 -114 172q-124 0 -124 -176q0 -14 1 -50q1 -31 1 -49l-2 -119v-157q0 -65 -62 -65q-4 0 -143 6q-72 3 -72 57q0 46 1.5 138t1.5 138v436q0 107 172 107q38 0 96 -28.5t65 -28.5q8 0 59.5 21.5t79.5 21.5q67 0 179.5 -51
t113.5 -51l1 1l70 68q49 48 199 48q110 0 201 -91q58 -58 61 -103q16 -248 16 -284z" />
    <glyph glyph-name="n" unicode="n" horiz-adv-x="1077" 
d="M1007 68q0 -73 -126 -73q-86 0 -116 6q-75 15 -75 67q0 36 5.5 108t5.5 108q-1 29 -7 173q-3 88 -21 123q-28 56 -103 56q-58 0 -115 -30q-66 -34 -77 -85q-2 -9 -2 -95q0 -33 -2 -100t-2 -100q0 -27 3.5 -81.5t3.5 -81.5q0 -66 -59 -68l-158 -4q-79 0 -79 58q0 95 4 285
t4 285q0 29 -6 86.5t-6 86.5q0 78 122 78q38 0 109 -19.5t104 -19.5q37 0 116 21.5t121 21.5q204 0 288 -89q64 -67 64 -182l-1 -427q0 -18 2.5 -54t2.5 -54z" />
    <glyph glyph-name="o" unicode="o" horiz-adv-x="1054" 
d="M1001 428q0 -73 -28 -142q-128 -317 -459 -317q-110 0 -223 51q-125 56 -173 144q-30 55 -53 100q-36 70 -36 173q0 186 150 325q147 137 334 137q195 0 341.5 -139t146.5 -332zM713 439q0 94 -54.5 146.5t-148.5 52.5q-88 0 -141.5 -56.5t-53.5 -144.5q0 -87 55.5 -142
t142.5 -55q94 0 147 52.5t53 146.5z" />
    <glyph glyph-name="p" unicode="p" horiz-adv-x="1037" 
d="M990 423q0 -96 -46 -195q-49 -106 -125 -154l-85 -54q-69 -44 -180 -44q-40 0 -112 26.5t-100 26.5q-18 0 -17 -40l6 -287q0 -96 -23 -120.5t-118 -24.5q-98 0 -97 67l6 948q0 32 -4.5 94.5t-4.5 94.5q0 96 94 96q28 0 81 -18.5t81 -18.5t94 21.5t103 21.5
q187 0 317 -126.5t130 -313.5zM719 436q0 86 -64 147.5t-150 61.5q-83 0 -137.5 -63.5t-54.5 -147.5q0 -201 186 -201q94 0 155 54q65 57 65 149zM180 177l-1 16l-2 4l-6 -4q-13 -28 -13 -62q0 -15 4 -19l5 3q15 32 13 62z" />
    <glyph glyph-name="q" unicode="q" horiz-adv-x="958" 
d="M898 799q0 -27 -5.5 -81.5t-5.5 -81.5q0 -25 2.5 -73.5t2.5 -73.5q0 -72 -7 -214.5t-7 -214.5q0 -20 3.5 -58.5t3.5 -58.5q0 -21 -4 -64t-4 -64q0 -30 3.5 -89.5t3.5 -89.5q0 -58 -42 -77q-27 -12 -94 -12q-37 0 -67 4q-57 8 -55 155l4 265q1 59 -42 59
q-28 0 -82.5 -19.5t-82.5 -19.5q-109 0 -218 77q-102 73 -155 177q-36 71 -36 201q0 167 125 298t291 131q41 0 121.5 -14.5t121.5 -14.5q25 0 75.5 9.5t75.5 9.5q74 0 74 -66zM741 516q0 15 -15 32.5t-30 17.5q-11 0 -11 -16q0 -17 14 -34t30 -17l6 1q6 5 6 16zM377 802
q0 9 -5 17q-7 2 -13 2h-1q-12 -8 -16 -24q1 -10 5 -17q8 -3 12 -3h2q16 13 16 25zM774 395v3q-7 3 -14 3q-29 0 -29 -20v-3q6 -3 14 -3q29 0 29 20zM787 216q-8 11 -21 11q-34 0 -43 -22q5 -7 10 -10l12 -1q31 -3 42 22zM634 374v169q0 101 -128 101q-98 0 -159.5 -56
t-61.5 -154q0 -207 208 -207q83 0 112 31.5t29 115.5z" />
    <glyph glyph-name="r" unicode="r" horiz-adv-x="869" 
d="M819 722q0 -21 -18 -43q-53 -65 -73 -104q-10 -19 -26 -41q-5 -3 -11 -3q-13 0 -61 49.5t-90 49.5q-51 0 -117 -50t-82 -99q-14 -43 -14 -141q0 -44 1.5 -132.5t1.5 -132.5q0 -61 -55 -80q-27 -9 -107 -9q-122 0 -122 67q0 49 3.5 147t3.5 147q0 72 -2.5 214.5
t-2.5 214.5q0 103 147 103q120 0 125 -49q7 -66 19 -66q14 0 73.5 55t97.5 55q159 -2 175 -7q36 -12 121 -108q13 -15 13 -37zM698 719l-3 11q-19 10 -35 10q-5 0 -18 -4l3 -11q19 -10 35 -10q8 0 18 4z" />
    <glyph glyph-name="s" unicode="s" horiz-adv-x="806" 
d="M774 244q0 -122 -107 -197q-95 -66 -220 -66q-76 0 -281 72q-84 29 -91 33q-59 29 -59 72q0 37 37 91.5t72 54.5q14 0 124.5 -52.5t165.5 -52.5q86 0 86 48q0 46 -81 71q-18 6 -111 31q-252 97 -252 243q0 160 183 242q67 30 198 30q69 0 157 -22q118 -30 118 -79
q0 -35 -36.5 -82t-70.5 -47q-29 0 -88.5 20.5t-90.5 20.5q-36 0 -72 -13q-47 -17 -47 -46q0 -43 87 -68q61 -16 182 -52q86 -29 140 -94q57 -70 57 -158z" />
    <glyph glyph-name="t" unicode="t" horiz-adv-x="774" 
d="M697 860l-5 -145q-2 -70 -45 -62q-122 22 -131 22q-53 0 -53 -42q-1 -55 -3 -143q-2 -95 -2 -141q0 -100 69 -100q21 0 63.5 18.5t63.5 18.5q7 0 16 -3q18 -14 17 -45q0 -14 1 -37q1 -27 1 -38q0 -166 -87 -165l-210 3q-62 1 -94 34q-102 104 -102 280q0 1 5 277
q1 59 -37 71q-13 4 -87 4q-58 0 -59 46l-2 134q0 59 41 59q14 0 42 -5t42 -5q58 0 57 72l-3 222q0 85 36 107q23 14 116 14q128 0 128 -60q0 -43 -5 -127.5t-5 -127.5q0 -99 39 -97l137 6q58 0 56 -45z" />
    <glyph glyph-name="u" unicode="u" horiz-adv-x="931" 
d="M911 46q0 -74 -131 -74q-32 0 -91 23t-89 23q-23 0 -90.5 -27.5t-110.5 -27.5q-72 0 -150 36q-178 82 -179 246l-2 311q0 24 2 64q3 47 3 64q1 21 -1 58q-2 41 -2 58q0 59 57 76q30 9 107 9q110 0 108 -52q-7 -152 -7 -447q0 -66 34 -113q38 -53 102 -53q52 0 101 27
q59 32 58 81q-1 89 -3 322q0 25 -4 79q-3 51 -3 79q0 77 122 77q89 0 116 -12q47 -20 47 -94q0 -20 -1.5 -59t-1.5 -59v-498q0 -20 4.5 -58.5t4.5 -58.5z" />
    <glyph glyph-name="v" unicode="v" horiz-adv-x="1104" 
d="M1077 812q0 -30 -71 -175q-26 -52 -77 -156q-26 -74 -81 -218q-19 -33 -52 -101l-35 -126q-15 -53 -82 -55l-201 -5q-77 -2 -98 57q-10 35 -43 123q-56 128 -199 462q-10 32 -34 93q-55 107 -55 123q0 31 32 42l156 -7q79 -4 104 -24q21 -18 48 -96q30 -82 108 -294
q8 -26 26 -78q23 -62 41 -67q14 2 22 23l160 399q33 81 40 91q24 32 87 32q173 0 193 -16q11 -9 11 -27z" />
    <glyph glyph-name="w" unicode="w" horiz-adv-x="1254" 
d="M1233 812q0 -18 -63 -211q-24 -70 -69 -210q-9 -31 -31 -112q-14 -35 -40 -105l-32 -126q-22 -50 -102 -50q-82 0 -108 41q-4 6 -41 123q-15 30 -37 94q-25 120 -65 120q-16 0 -31 -21q-6 -12 -41.5 -135t-37.5 -140q-8 -54 -45 -69q-21 -8 -88 -8q-118 0 -139 57
q-18 53 -64 186q-19 54 -67 194q-9 41 -31 122q-10 24 -50 130q-36 95 -36 124q0 66 130 66q54 0 97 -28l53 -138q51 -132 61 -197q11 -72 35 -72q32 0 60 135q7 35 36 101t36 101q19 91 133 91q66 0 87 -35q5 -16 31 -96q9 -24 33 -87q7 -25 21 -76q19 -64 36 -64
q33 0 59 89q8 36 26 108q27 102 43 123q28 37 114 37q127 0 127 -62z" />
    <glyph glyph-name="x" unicode="x" horiz-adv-x="1022" 
d="M991 -3q0 -15 -25 -15q-28 0 -83 7t-83 7q-10 0 -31 -1t-31 -1q-68 0 -117 55q-12 14 -66 103q-33 55 -63 55q-43 0 -71 -57q-17 -36 -51 -107q-38 -57 -102 -57q-28 1 -165 5q-57 2 -57 35q0 39 77 112q39 37 67 87q21 38 92 116q38 42 38 84q0 41 -50 102q-3 3 -73 85
q-19 30 -67 87q-91 87 -91 125l2 11q11 14 53 14l198 -2q83 -1 106 -46q12 -27 39 -80q32 -58 65 -58q29 0 62 52q14 25 44 75q35 58 86 59l175 2q53 1 53 -32q0 -25 -31 -63q-12 -14 -47 -54q-22 -31 -68 -92q-22 -23 -64.5 -71t-42.5 -83q0 -39 52 -99l74 -82
q15 -24 59 -84l75 -90q62 -77 62 -104z" />
    <glyph glyph-name="y" unicode="y" horiz-adv-x="1111" 
d="M1080 811q0 -26 -38 -100q-49 -96 -53 -106q-12 -35 -47 -124q-12 -28 -43 -100q-62 -158 -244 -560l-64 -131q-32 -67 -148 -100q-86 -25 -185 -25q-92 0 -117 16q-35 22 -35 106q0 153 68 150l137 -6q52 0 82 62q15 31 46 93q28 58 28 100q0 46 -49 111q-17 23 -76 97
q-17 30 -63 106q-69 103 -246 372q-10 15 -10 35q0 23 86 38q63 11 110 11q82 0 123 -66q9 -14 75 -134q29 -38 81 -115q9 -26 28 -79q23 -62 45 -62q7 0 17 4q44 18 62 70q9 30 28 90q20 46 70 168q16 40 37 88q28 43 79 43l152 -1q64 0 64 -51z" />
    <glyph glyph-name="z" unicode="z" horiz-adv-x="917" 
d="M888 137q0 -122 -77 -125l-237 -9q-329 -13 -474 -13q-67 0 -67 47q0 19 32 60l46 59q16 34 52 98q28 27 77 84q14 32 46 92q18 21 53.5 62.5t35.5 67.5q0 36 -58 36q-36 -2 -213 -8q-24 -1 -46.5 20.5t-22.5 45.5q0 147 16 172q23 35 146 35q49 0 145.5 1.5t145.5 1.5
q22 0 77 -3q49 -2 77 -1q29 1 172 5q62 2 62 -48q0 -11 -4 -22q-7 -19 -72 -92q-17 -26 -61 -92l-73 -110q-20 -31 -61 -92l-53 -53q-35 -36 -35 -60q0 -48 78 -40l216 22q77 0 77 -141zM427 703l-4 7q-23 9 -50 9q-5 -1 -15 -4l5 -7q22 -9 49 -9q6 1 15 4z" />
    <glyph glyph-name="braceleft" unicode="{" horiz-adv-x="996" 
d="M219 576q-55 65 -55 97q0 28 54.5 96t54.5 97q0 34 5 50l11 446q4 171 82 260t246 107h8q18 0 39 2q-36 -1 -44 -2q17 1 62 4q15 1 61 9q39 6 62 6q30 0 56.5 -19t24.5 -48q-11 -157 -11 -178q0 -50 -48 -50q-22 0 -61 4q-42 4 -60 5q-10 0 -34 -1l5 1q43 1 21 1
q-16 0 -21 -1l-5 -1q-29 -6 -59 -39t-30 -62q0 -44 3.5 -133t3.5 -133q0 10 -6 -189q7 -14 7 -30t-8 -67q0 -20 -56 -67.5t-56 -67.5t56 -68.5t56 -68.5q8 -51 8 -67t-7 -30l6 -189q0 -44 -3.5 -133t-3.5 -133q0 -29 30 -62t59 -39l5 -1q5 -1 21 -1q22 0 -21 1l-5 1
q24 -1 34 -1q18 1 60 5q39 4 61 4q48 0 48 -50q0 -21 11 -178q2 -29 -24.5 -48t-56.5 -19q-16 0 -123 15q-33 1 -62 4q7 -1 43 -2q-20 2 -38 2h-8q-168 18 -246 107t-82 260l-11 446l-12 70q-4 26 -47 78z" />
    <glyph glyph-name="bar" unicode="|" horiz-adv-x="456" 
d="M404 1486q0 -34 -6 -102q-5 -62 -6 -102q-1 -42 1 -95q2 -67 2 -96l-4 -1169q0 -38 -20 -75q-22 -43 -57 -46l-179 -14q-72 0 -72 85q0 31 6.5 93.5t6.5 93.5q0 45 -1.5 134.5t-1.5 134.5q0 29 4 80q3 57 4 80q2 82 2 420q0 96 -4 287.5t-4 287.5q0 30 24 59.5t54 30.5
q142 5 174 5q35 0 56 -28t21 -64z" />
    <glyph glyph-name="braceright" unicode="}" horiz-adv-x="749" 
d="M749 672q0 -29 -44 -96.5t-44 -96.5q0 -35 -5 -51l-11 -446q-4 -171 -82 -260t-246 -107h-8q-17 0 -38 -2q36 1 43 2q-29 -3 -62 -4q-107 -15 -123 -15q-29 0 -56 19.5t-25 47.5q11 157 11 178q0 40 48 40q22 0 62.5 -4t58.5 -5q10 0 34 1l-5 -1q-43 -1 -21 -1q16 0 21 1
l5 1q30 6 69.5 39.5t39.5 61.5q0 44 -3.5 133t-3.5 133q0 -10 6 189q-7 14 -7 30t8 67q0 23 20.5 73t20.5 73t-20.5 63t-20.5 63q-8 51 -8 67t7 30l-6 189q0 44 3.5 133t3.5 133q0 28 -41 68q-39 37 -68 43l-5 1q-5 1 -21 1q-22 0 21 -1l5 -1q-24 1 -34 1q-18 -1 -58.5 -5
t-62.5 -4q-48 0 -48 50q0 21 -11 178q-2 28 26 49q26 18 55 18q23 0 62 -6q45 -8 61.5 -9t61.5 -4q-8 1 -43 2q21 -2 38 -2h8q168 -18 246 -107t82 -260l11 -446q3 -9 11 -68q5 -31 38 -79q44 -65 44 -97z" />
    <glyph glyph-name="asciitilde" unicode="~" horiz-adv-x="1341" 
d="M1202 1663q0 -29 -48 -99q-54 -78 -74 -99q-42 -44 -112 -52l-127 -1q-17 -1 -66 -2q-57 -1 -106 54q-5 6 -71 102q-8 12 -16 25q-5 -8 -17 -25q-66 -96 -71 -102q-50 -55 -106 -54q-23 0 -65 -2q-45 -3 -65 -3q-41 0 -50 50q-1 7 -1 82q0 46 118 110q109 59 164 61
q39 1 42 2q-10 1 -12 1q-10 1 -8 1q4 1 41 1q17 0 30 -4q12 4 29 4q67 0 46 1l40 -1q58 -1 148 -97q16 13 164 102q40 24 50 24q49 -31 82 -31q61 0 61 -48z" />
    <glyph glyph-name="nonbreakingspace" unicode="&#xa0;" horiz-adv-x="1402" 
 />
    <glyph glyph-name="exclamdown" unicode="&#xa1;" horiz-adv-x="427" 
d="M371 1205q0 -87 -29.5 -115.5t-116.5 -28.5q-93 0 -126 19q-46 26 -46 109q0 185 80 185q27 0 82 -7.5t82 -7.5q52 0 67 -54q7 -26 7 -100zM368 54q0 -61 -54 -60q-156 1 -172 4q-46 7 -55 53q-4 21 -4 173q0 27 -6 70q-8 56 -9 71q-7 93 -7 148l1 272q0 24 21 47t45 23
h155q79 0 78 -64q-4 -222 -4 -526q0 -35 5.5 -105.5t5.5 -105.5z" />
    <glyph glyph-name="cent" unicode="&#xa2;" horiz-adv-x="975" 
d="M924 259q0 -54 -96 -138q-82 -71 -143 -95q-29 -11 -58 -20q-1 -39 0 -77q1 -56 -53 -105q-3 -2 -102 -71q-71 -49 -99 -49q-49 0 -49 61q0 67 7 231q-137 40 -223.5 154.5t-86.5 257.5q0 78 42 179q44 108 101 152l63 49q74 57 134 79q-7 171 -7 237q0 61 49 61
q28 0 99 -49l102 -71q54 -49 53 -105q-1 -38 0 -76q40 -16 104 -58q108 -71 108 -103q0 -31 -70.5 -78t-104.5 -47q-24 0 -88 34.5t-99 34.5q-66 0 -135 -57q-72 -60 -72 -124q0 -106 57.5 -170t162.5 -64q76 0 118 41q12 12 50 75q24 40 58 40q19 0 142 -72q36 -21 36 -57z
" />
    <glyph glyph-name="sterling" unicode="&#xa3;" horiz-adv-x="1036" 
d="M1015 52q2 -29 -24.5 -48t-56.5 -19t-90 10t-90 10q-24 0 -73.5 -3t-74.5 -3q-35 0 -113 -3.5t-116 -3.5q-128 0 -169 31q-45 34 -45 128q0 28 6 106q6 73 5 115l-2 94q-25 -1 -42 -1q-24 0 -46 15t-22 38q3 158 8 181q11 44 62 47q16 0 33 1l-1 41q-2 111 14 194
q-8 35 -10 83v-2q-1 111 52 167l97 102q101 106 192 106q124 0 136 -5q38 -16 98 -72q81 -76 81 -109q0 -10 -81 -91q-9 -9 -45 -54q-23 -28 -34 -28q-5 0 -25 20t-40 27q-29 10 -49 10q-40 0 -44 -49q-5 -64 -9 -68q2 -19 2 -134q0 -40 3 -116q90 4 342 4q29 0 53.5 -20
t24.5 -47l2 -154q0 -66 -57 -78q-7 -2 -324 0h-42q1 -39 -2 -100q-3 -21 -3 -35q0 -35 28 -35q7 0 27 3t32 3q25 0 73.5 2t72.5 2q14 0 53 -2q33 -1 52 0q19 0 61 5q39 4 60 4q49 0 49 -91q0 -22 11 -178z" />
    <glyph glyph-name="yen" unicode="&#xa5;" horiz-adv-x="1373" 
d="M1119 318q0 -66 -57 -78q-7 -1 -240 0q9 -100 9 -151q0 -108 -85 -106q-30 1 -179 5q-63 2 -63 53q0 24 3 72t3 72v55q-31 -1 -78 -4q-72 -5 -107 -5q-24 0 -46 15t-22 38q3 158 8 181q10 44 62 47q33 2 156 3q-7 18 -111 183q-36 58 -117 194q-15 32 -48 94l-102 153
q-74 113 -74 153q0 49 46 51l187 10q6 0 19 2t20 2q55 0 79 -46q18 -45 37 -90q18 -29 55 -86q70 -137 154 -292q16 -29 29 -29q18 0 30 16q27 48 59 99q37 56 132 203q27 44 81 133q31 50 75 69q49 21 147 21h112q58 0 58 -36q0 -23 -74 -107q-46 -68 -122 -176
q-78 -121 -239 -359q-86 -120 -88.5 -126.5t-4.5 -12.5q80 1 216 1q28 0 53 -19.5t25 -47.5z" />
    <glyph glyph-name="section" unicode="&#xa7;" horiz-adv-x="922" 
d="M316 573q-77 -38 -77 -78q0 -15 12 -28q48 -5 149 -11q34 4 102 11q75 23 75 66q0 51 -91 51q-21 0 -63.5 -6t-63.5 -6t-43 1zM826 219q0 -92 -71 -173q-64 -71 -157 -107q-42 -16 -126 -19q-98 4 -294 5q-100 -3 -119 1q-64 13 -64 81q0 117 54 138q7 2 25 2
q54 0 163.5 -13.5t164.5 -13.5q61 0 89 11q65 26 65 64q0 50 -91 50q-22 0 -65 -5.5t-62 -5.5q-270 0 -322 136q-14 37 -14 77q0 104 82 198q-61 50 -61 141q0 116 98 215q52 52 174 99q21 8 128 21q116 14 204 14q144 0 158 -36q5 -13 5 -31q0 -34 -15 -72q-18 -46 -44 -56
q-19 -7 -260 -10q-91 -1 -119 -12q-92 -36 -92 -85q0 -59 128 -43q122 15 173 15q207 0 270 -164q16 -41 16 -83q0 -99 -82 -184q61 -68 61 -155z" />
    <glyph glyph-name="dieresis" unicode="&#xa8;" horiz-adv-x="1162" 
d="M915 1262q0 -183 -78 -183q-17 2 -154 13q-60 5 -77 52q-8 23 -8 103q0 86 28.5 114.5t114.5 28.5q96 0 127 -17q47 -26 47 -111zM466 1269q0 -190 -77 -190q-44 3 -151 14q-62 6 -79 47q-10 24 -10 98q0 89 23 117q28 35 119 35q96 0 126 -15q49 -24 49 -106z" />
    <glyph glyph-name="copyright" unicode="&#xa9;" horiz-adv-x="849" 
d="M784 1093l-11 -89q-8 -60 -81 -143q-102 -115 -260 -115q-148 0 -244 100.5t-96 248.5q0 105 56 194t151 129q77 33 130 33q170 0 280 -135q56 -69 71 -161q4 -28 4 -62zM638 1092q0 50 -16 85q-11 24 -50 71q-46 57 -136 57q-27 0 -42 -6l-56 -21q-45 -18 -76.5 -74.5
t-31.5 -108.5q0 -83 60.5 -144t144.5 -61q81 0 142 60.5t61 141.5zM592 1038q0 -19 -32 -47q-28 -25 -51 -34q-40 -16 -83 -16q-61 0 -104.5 43.5t-43.5 105.5q0 76 50 115l22 17q44 34 89 34q52 0 96 -28q38 -25 38 -36t-24.5 -27t-36.5 -16q-8 0 -30.5 12t-34.5 12
q-23 0 -47.5 -20.5t-24.5 -42.5q0 -81 77 -81q26 0 40 14q5 4 18 26q8 14 20 14q7 0 50 -25q12 -7 12 -20z" />
    <glyph glyph-name="guillemotleft" unicode="&#xab;" horiz-adv-x="1054" 
d="M984 205q-146 130 -302 257q-31 22 -92 67q-83 62 -85 85q-8 88 81 158q59 44 175 132q68 53 220 196q161 -67 161 -156q0 -67 -90 -138l-88 -56q-15 -33 -55 -50q-35 -15 -35 -23q0 -10 23 -31q10 -41 81 -103q99 -57 115 -69q67 -49 67 -98q0 -81 -176 -171zM467 205
q-158 139 -302 257q-31 22 -92 67q-83 62 -85 85q-8 88 81 158q59 44 175 132q69 53 219 196q161 -67 161 -156q0 -67 -89 -138l-88 -56q-15 -33 -55 -50q-35 -15 -35 -23q0 -10 23 -31q10 -41 81 -103q100 -58 115 -69q66 -49 66 -98q0 -81 -175 -171z" />
    <glyph glyph-name="logicalnot" unicode="&#xac;" horiz-adv-x="977" 
d="M931 453q0 -41 -39 -61q-9 -4 -313 -84l-191 -50q-57 -19 -206 -66q-24 -7 -71 2q-50 10 -48 32q5 63 11 176q7 44 47 61q56 17 168 53q165 56 503 159q56 15 102 15q54 0 54 -42q0 -24 -12 -72.5t-12 -72.5q0 -9 3.5 -25t3.5 -25z" />
    <glyph glyph-name="hyphen" unicode="&#xad;" horiz-adv-x="946" 
d="M909 373q0 -66 -57 -78q-8 -1 -324 0l-197 1q-37 1 -109 -4.5t-107 -5.5q-24 0 -46 15t-22 38q3 158 8 181q10 45 62 47q1 0 185 4q38 6 136 16q74 7 391 7q28 0 53 -19.5t25 -47.5z" />
    <glyph glyph-name="registered" unicode="&#xae;" horiz-adv-x="849" 
d="M784 1093l-11 -89q-8 -60 -81 -143q-102 -115 -260 -115q-148 0 -244 100.5t-96 248.5q0 105 56 194t151 129q77 33 130 33q170 0 280 -135q56 -69 71 -161q4 -28 4 -62zM638 1092q0 50 -16 85q-11 24 -50 71q-46 57 -136 57q-27 0 -42 -6l-56 -21q-45 -18 -76.5 -74.5
t-31.5 -108.5q0 -83 60.5 -144t144.5 -61q81 0 142 60.5t61 141.5zM563 953q0 -8 -10 -9h-39q-16 -1 -22 8l-12 25q-6 8 -16 25.5t-19 35.5q-7 9 -34 9q-25 0 -25 -16q0 -7 1.5 -22t1.5 -22q0 -43 -15 -43l-32 2q-15 0 -14 12q2 40 2 111q0 9 -1.5 27.5t-1.5 27.5q0 15 1 47
v46q0 28 7 33q4 2 33 3h29q7 0 69 -1q44 -1 71 -44q18 -29 18 -65q0 -16 -4 -26q-5 -15 -17 -33q-3 -5 -7 -10q-24 -13 -24 -22q0 -7 22 -35q4 -7 10 -19q28 -36 28 -45zM487 1152q0 23 -19 33q-14 8 -65 8h-2q-15 0 -15 -15q0 -7 1 -19.5t1 -19.5v-11q-1 -7 -1 -11
q0 -14 12 -14l43 3q45 3 45 46z" />
    <glyph glyph-name="macron" unicode="&#xaf;" horiz-adv-x="977" 
d="M924 1049q0 -65 -57 -78q-14 -3 -324 0l-197 2q-37 0 -109 -5t-107 -5q-69 0 -68 53q3 157 8 180q10 44 62 47q1 0 185 4q184 24 527 24q28 0 53 -19.5t25 -47.5z" />
    <glyph glyph-name="macron" unicode="&#x2c9;" horiz-adv-x="977" 
d="M924 1049q0 -65 -57 -78q-14 -3 -324 0l-197 2q-37 0 -109 -5t-107 -5q-69 0 -68 53q3 157 8 180q10 44 62 47q1 0 185 4q184 24 527 24q28 0 53 -19.5t25 -47.5z" />
    <glyph glyph-name="degree" unicode="&#xb0;" 
d="M685 1161q0 -190 -190 -190q-84 0 -136 51.5t-52 135.5q0 87 49 142q51 59 136 59q91 0 142 -53.5t51 -144.5zM577 1162q0 80 -78 80q-75 0 -75 -81q0 -75 76 -75q77 0 77 76z" />
    <glyph glyph-name="plusminus" unicode="&#xb1;" horiz-adv-x="946" 
d="M885 892v-151q0 -72 -65 -72q-26 0 -77 3.5t-77 3.5q-69 0 -69 -60q0 -22 6 -64.5t6 -64.5q0 -29 -22.5 -48.5t-51.5 -19.5q-147 0 -176 11q-35 13 -35 76q0 18 1 54.5t1 54.5q0 65 -72 65q-24 0 -72.5 -9.5t-72.5 -9.5q-34 0 -61 20.5t-26 53.5q1 26 7 155q3 56 55 56
h159q27 0 46.5 25t19.5 53q0 30 -4 89.5t-4 89.5q0 27 21 51t48 25l153 4q29 0 54 -18q27 -21 26 -49l-5 -177q0 -79 60 -75l147 10q33 0 56.5 -24.5t23.5 -57.5zM894 138q0 -66 -57 -78q-8 -2 -324 0l-197 1q-37 0 -109 -5t-107 -5q-24 0 -46 15t-22 38q3 158 8 181
q10 44 62 47q1 0 185 4q38 5 136 16q74 7 391 7q28 0 53 -19.5t25 -47.5z" />
    <glyph glyph-name="acute" unicode="&#xb4;" 
d="M834 1290q0 -29 -48 -99l-71 -102q-48 -54 -106 -53q-12 0 -69 -1l-59 -1q-75 0 -101 33q-23 28 -23 108q0 50 80 110q76 57 129 58q37 1 104 -2q72 -3 103 -3q61 0 61 -48z" />
    <glyph glyph-name="mu" unicode="&#xb5;" horiz-adv-x="931" 
d="M66 429q0 10 3 20l-1 107q0 24 2 64q3 48 3 64q1 21 -1 58q-2 41 -2 58q0 59 57 76q30 9 107 9q110 0 108 -52q-6 -136 -7 -367q7 -11 10 -26q3 -19 4 -131q8 -19 20 -36q38 -53 102 -53q52 0 101 27q59 32 58 81q-1 89 -3 322q0 25 -4 79q-3 51 -3 79q0 77 122 77
q89 0 116 -12q47 -20 47 -94q0 -20 -1.5 -59t-1.5 -59v-498q0 -20 4.5 -58.5t4.5 -58.5q0 -74 -131 -74q-32 0 -91 23t-89 23q-23 0 -90.5 -27.5t-110.5 -27.5q-14 0 -28 1q0 -20 -1 -51q-1 -43 -1 -65q0 -15 2 -45t2 -45q0 -123 -69 -123h-154q-8 0 -23 -3t-23 -3
q-34 0 -34 91q0 81 2 237q3 166 3 237q-5 24 -5 51l-1 89q0 23 -1.5 54.5t-1.5 40.5z" />
    <glyph glyph-name="mu" unicode="&#x3bc;" horiz-adv-x="931" 
d="M66 429q0 10 3 20l-1 107q0 24 2 64q3 48 3 64q1 21 -1 58q-2 41 -2 58q0 59 57 76q30 9 107 9q110 0 108 -52q-6 -136 -7 -367q7 -11 10 -26q3 -19 4 -131q8 -19 20 -36q38 -53 102 -53q52 0 101 27q59 32 58 81q-1 89 -3 322q0 25 -4 79q-3 51 -3 79q0 77 122 77
q89 0 116 -12q47 -20 47 -94q0 -20 -1.5 -59t-1.5 -59v-498q0 -20 4.5 -58.5t4.5 -58.5q0 -74 -131 -74q-32 0 -91 23t-89 23q-23 0 -90.5 -27.5t-110.5 -27.5q-14 0 -28 1q0 -20 -1 -51q-1 -43 -1 -65q0 -15 2 -45t2 -45q0 -123 -69 -123h-154q-8 0 -23 -3t-23 -3
q-34 0 -34 91q0 81 2 237q3 166 3 237q-5 24 -5 51l-1 89q0 23 -1.5 54.5t-1.5 40.5z" />
    <glyph glyph-name="paragraph" unicode="&#xb6;" horiz-adv-x="1128" 
d="M232 1127h-16q-21 -1 -41 9q-53 -11 -53 -80q0 -75 76 -75q19 0 33 5zM737 1133l-221 1v-244l-1 -560q0 -22 -3 -66.5t-3 -67.5q0 -28 7.5 -83.5t7.5 -83.5q0 -39 -50 -40l-157 -2q-88 -1 -88 80q0 12 2 41q1 26 1 40l-5 286q0 112 2 331q-13 -1 -27 -1q-70 0 -144 33
q-81 36 -112 93q-57 106 -57 176q0 120 97 209q94 88 215 88q40 0 77 -9l184 7q41 7 77 1q34 -7 143 -2q163 7 248 7q18 0 34 -6q67 -2 67 -52q0 -21 -4 -67.5t-5 -66.5q-1 -15 -1 -285l-1 -560q0 -22 -3 -66.5t-3 -67.5q0 -28 7.5 -83.5t7.5 -83.5q0 -39 -50 -40l-157 -2
q-88 -1 -88 80q0 12 2 41q1 26 1 40l-5 286q0 119 2 358z" />
    <glyph glyph-name="periodcentered" unicode="&#xb7;" horiz-adv-x="451" 
d="M381 447q0 -97 -19 -130q-27 -47 -113 -47q-181 0 -181 80q0 27 7.5 81.5t7.5 81.5q0 53 55 68q26 7 103 7q83 0 111.5 -29t28.5 -112z" />
    <glyph glyph-name="periodcentered" unicode="&#x2219;" horiz-adv-x="451" 
d="M381 447q0 -97 -19 -130q-27 -47 -113 -47q-181 0 -181 80q0 27 7.5 81.5t7.5 81.5q0 53 55 68q26 7 103 7q83 0 111.5 -29t28.5 -112z" />
    <glyph glyph-name="cedilla" unicode="&#xb8;" horiz-adv-x="375" 
d="M356 -326q4 -27 -16 -53.5t-47 -26.5q-24 0 -73 37l-69 54q-84 63 -98 87q-20 34 -20 126q0 90 41 117q29 19 120 19q155 0 153 -68l-5 -181q2 -19 14 -111z" />
    <glyph glyph-name="guillemotright" unicode="&#xbb;" horiz-adv-x="1190" 
d="M1231 614q-2 -23 -85 -85q-31 -22 -92 -67q-28 -21 -302 -257q-176 90 -176 171q0 49 67 98q16 12 115 69q43 37 50 45q23 26 31 58q23 21 23 31q0 8 -35 23q-40 17 -55 50l-88 56q-89 71 -89 138q0 89 160 156q42 -47 109 -103q37 -32 111 -93q59 -43 175 -132
q89 -70 81 -158zM714 614q-2 -23 -85 -85q-31 -22 -92 -67q-34 -25 -302 -257q-176 90 -176 171q0 49 67 98q16 12 115 69q43 37 50 45q23 26 31 58q23 21 23 31q0 8 -35 23q-40 17 -56 50l-88 56q-89 71 -89 138q0 89 161 156q40 -45 109 -103q36 -32 111 -93
q59 -43 174 -132q89 -71 82 -158z" />
    <glyph glyph-name="questiondown" unicode="&#xbf;" horiz-adv-x="975" 
d="M666 1273q0 -86 -29.5 -114.5t-116.5 -28.5q-93 0 -125 18q-47 27 -47 110q0 184 81 184q27 0 81.5 -7.5t81.5 -7.5q53 0 68 -54q6 -22 6 -100zM924 275q0 -54 -96 -138q-83 -72 -143 -96q-116 -46 -239 -46q-176 0 -300.5 126t-124.5 302q0 76 43.5 178.5t98.5 152.5
q139 128 261 170h154q30 0 54 -18t24 -47q0 -25 3.5 -73t3.5 -71q0 -60 -54 -60q-95 1 -169 -9q-52 -23 -93 -65q-47 -50 -47 -99q0 -107 56 -169q58 -65 164 -65q75 0 117 40q13 13 50 75q24 40 58 40q19 0 143 -72q36 -21 36 -56z" />
    <glyph glyph-name="Agrave" unicode="&#xc0;" horiz-adv-x="1337" 
d="M1267 68q0 -57 -51 -64q-178 -25 -188 -25q-65 0 -84 63l-20 118q-17 63 -77 63q-32 0 -96 -11.5t-96 -11.5q-33 0 -96.5 13.5t-96.5 13.5q-64 0 -86 -61q-13 -55 -25 -111q-20 -59 -79 -57l-171 6q-64 2 -64 53q0 34 113 309l135 328q36 117 118 346q18 32 49 98l33 108
q17 56 73 60l183 11q69 0 81 -38q56 -185 117 -337q37 -88 128 -317q10 -31 39 -111q19 -39 54 -119q33 -107 66 -205q8 -20 24.5 -60t16.5 -62zM796 535q0 17 -35 120q-13 35 -37 107q-6 21 -35 127q-7 24 -24 31q-18 0 -25 -22q-10 -36 -41 -126q-6 -18 -53 -129
q-39 -93 -39 -119q0 -7 3 -16q14 -17 229 -17q57 0 57 44zM954 1555q0 -79 -24 -108q-26 -33 -101 -33q-14 0 -58 1q-57 1 -70 1q-58 -1 -105 53q-3 3 -71 102q-48 70 -48 99q0 48 61 48q31 0 103 3q67 3 104 2q53 -1 129 -58q80 -60 80 -110z" />
    <glyph glyph-name="Aacute" unicode="&#xc1;" 
d="M914 1590q0 -29 -48 -99l-71 -102q-48 -54 -106 -53q-12 0 -70 -1l-58 -1q-75 0 -101 33q-23 28 -23 108q0 50 80 110q76 57 129 58q37 1 104 -2q72 -3 103 -3q61 0 61 -48zM1267 68q0 -57 -51 -64q-178 -25 -188 -25q-65 0 -84 63l-20 118q-17 63 -77 63
q-32 0 -96 -11.5t-96 -11.5q-33 0 -96.5 13.5t-96.5 13.5q-64 0 -86 -61q-13 -55 -25 -111q-20 -59 -79 -57l-171 6q-64 2 -64 53q0 34 113 309l135 328q36 117 118 346q18 32 49 98l33 108q17 56 73 60l183 11q69 0 81 -38q56 -185 117 -337q37 -88 128 -317
q10 -31 39 -111q19 -39 54 -119q33 -107 66 -205q8 -20 24.5 -60t16.5 -62zM796 535q0 17 -35 120q-13 35 -37 107q-6 21 -35 127q-7 24 -24 31q-18 0 -25 -22q-10 -36 -41 -126q-6 -18 -53 -129q-39 -93 -39 -119q0 -7 3 -16q14 -17 229 -17q57 0 57 44z" />
    <glyph glyph-name="Acircumflex" unicode="&#xc2;" 
d="M1022 1525q0 -124 -28 -141q-13 -8 -155 -12q-27 32 -100 88q-67 52 -93 93q-28 -45 -92 -95q-81 -64 -101 -86q-41 19 -89 19q5 0 -21 -1h-18q-53 0 -53 108q0 51 383 291q68 -26 204 -114q163 -105 163 -150zM1267 68q0 -57 -51 -64q-178 -25 -188 -25q-65 0 -84 63
l-20 118q-17 63 -77 63q-32 0 -96 -11.5t-96 -11.5q-33 0 -96.5 13.5t-96.5 13.5q-64 0 -86 -61q-13 -55 -25 -111q-20 -59 -79 -57l-171 6q-64 2 -64 53q0 34 113 309l135 328q36 117 118 346q18 32 49 98l33 108q17 56 73 60l183 11q69 0 81 -38q56 -185 117 -337
q37 -88 128 -317q10 -31 39 -111q19 -39 54 -119q33 -107 66 -205q8 -20 24.5 -60t16.5 -62zM796 535q0 17 -35 120q-13 35 -37 107q-6 21 -35 127q-7 24 -24 31q-18 0 -25 -22q-10 -36 -41 -126q-6 -18 -53 -129q-39 -93 -39 -119q0 -7 3 -16q14 -17 229 -17q57 0 57 44z
" />
    <glyph glyph-name="Atilde" unicode="&#xc3;" 
d="M1179 1598q0 -29 -48 -99q-58 -84 -73 -100q-47 -50 -108 -50q-19 0 -59 -1q-49 -1 -72 -1q-17 -1 -67 -2q-57 -1 -105 53q-5 6 -71 102q-6 10 -17 26q-4 -7 -17 -26l-71 -102q-49 -54 -105 -53q-23 0 -67 -2.5t-64 -2.5q-41 0 -49 50q-1 7 -1 81q0 47 117 111
q109 59 165 60q37 1 42 3q-10 1 -13 1q-10 1 -8 1q5 1 42 1q17 0 29 -5q13 5 30 5h46l40 -1q59 -1 148 -96q14 12 163 101q42 25 51 25l18 -15q17 -16 63 -16q61 0 61 -48zM1267 68q0 -57 -51 -64q-178 -25 -188 -25q-65 0 -84 63l-20 118q-17 63 -77 63q-32 0 -96 -11.5
t-96 -11.5q-33 0 -96.5 13.5t-96.5 13.5q-64 0 -86 -61q-13 -55 -25 -111q-20 -59 -79 -57l-171 6q-64 2 -64 53q0 34 113 309l135 328q36 117 118 346q18 32 49 98l33 108q17 56 73 60l183 11q69 0 81 -38q56 -185 117 -337q37 -88 128 -317q10 -31 39 -111q19 -39 54 -119
q33 -107 66 -205q8 -20 24.5 -60t16.5 -62zM796 535q0 17 -35 120q-13 35 -37 107q-6 21 -35 127q-7 24 -24 31q-18 0 -25 -22q-10 -36 -41 -126q-6 -18 -53 -129q-39 -93 -39 -119q0 -7 3 -16q14 -17 229 -17q57 0 57 44z" />
    <glyph glyph-name="Adieresis" unicode="&#xc4;" horiz-adv-x="1384" 
d="M1101 1602q0 -182 -80 -182q-24 2 -153 14q-60 6 -76 52q-8 23 -8 103q0 86 29 115t115 29q94 0 127 -19q46 -27 46 -112zM619 1602q0 -182 -80 -182q-24 2 -153 14q-60 5 -76 52q-9 26 -9 103q0 86 29 115t115 29q95 0 128 -19q46 -27 46 -112zM1272 60q0 -55 -51 -62
l-194 -26q-61 0 -76 64q-4 17 -21 118q-19 63 -84 63q-32 0 -94.5 -12t-94.5 -12t-94.5 13.5t-94.5 13.5q-65 0 -85 -59q-13 -56 -25 -111q-20 -60 -85 -60q-28 1 -165 8q-66 3 -66 49q0 30 60 174q23 52 66 155q20 56 75 198q13 28 45 103q35 118 117 347q19 35 52 106
q30 101 31 104q27 56 83 56l185 1q71 0 84 -46q50 -174 111 -327q36 -85 126 -308q28 -60 89 -221q18 -58 66 -206q3 -8 24 -62q16 -41 16 -61zM801 527q-14 42 -71 230q-7 26 -21 77q-21 72 -38 78h-4q-14 0 -21 -23q-10 -32 -36 -115q-9 -22 -57 -131q-40 -91 -40 -126
q0 -6 3 -15q17 -19 227 -19q58 0 58 44z" />
    <glyph glyph-name="Aring" unicode="&#xc5;" horiz-adv-x="1337" 
d="M1267 68q0 -57 -51 -64q-178 -25 -188 -25q-65 0 -84 63l-20 118q-17 63 -77 63q-32 0 -96 -11.5t-96 -11.5q-33 0 -96.5 13.5t-96.5 13.5q-64 0 -86 -61q-13 -55 -25 -111q-20 -59 -79 -57l-171 6q-64 2 -64 53q0 34 113 309l135 328q36 117 118 346q18 32 49 98l33 108
q17 56 73 60l183 11q69 0 81 -38q56 -185 117 -337q37 -88 128 -317q10 -31 39 -111q19 -39 54 -119q33 -107 66 -205q8 -20 24.5 -60t16.5 -62zM796 535q0 17 -35 120q-13 35 -37 107q-6 21 -35 127q-7 24 -24 31q-18 0 -25 -22q-10 -36 -41 -126q-6 -18 -53 -129
q-39 -93 -39 -119q0 -7 3 -16q14 -17 229 -17q57 0 57 44zM855 1601q0 -190 -190 -190q-84 0 -136 51.5t-52 135.5q0 87 49 142q51 59 136 59q91 0 142 -53.5t51 -144.5zM747 1602q0 80 -78 80q-75 0 -75 -81q0 -75 76 -75q77 0 77 76z" />
    <glyph glyph-name="AE" unicode="&#xc6;" horiz-adv-x="1556" 
d="M694 870l-9 29q-11 17 -20 21q-18 0 -25 -22q-10 -36 -41 -126q-6 -18 -53 -129q-39 -93 -39 -119q0 -7 3 -16q14 -17 229 -17q57 0 57 44q0 17 -35 120q-13 35 -37 107q-8 30 -30 108zM1289 5q-35 5 -55 5l-6 -2zM1223 288q12 -5 22 -5q17 1 27 2h-10q-13 0 -39 3z
M1218 290l-23 1q9 -1 28 -3q-3 1 -5 2zM1142 564q33 1 17 1q-10 0 -17 -1zM965 1054q23 2 13 2q-7 0 -13 -2zM1446 1200q-2 -168 -67 -164q-16 1 -434 8q-14 -14 -14 -44q0 -41 18 -85l15 -37q38 -73 138 -73q50 0 54 2v0q4 2 54 2q29 0 87.5 3.5t87.5 3.5q57 0 73 -42
q8 -22 7 -93q-3 -128 -58 -128q-43 0 -138 4q-71 3 -138 5q-28 -10 -26 -46l1 -2q19 -38 54 -119q12 -28 27 -76q15 -20 31 -29q52 -2 57 -4l-3 -1q19 1 68 7q44 5 69 5q60 0 66 -46q22 -169 22 -157q0 -97 -127 -97q-29 0 -75 3q-62 4 -76 5l-3 -1q-144 -25 -188 -25
q-65 0 -84 63l-20 118q-17 63 -77 63q-32 0 -96 -11.5t-96 -11.5q-33 0 -96.5 13.5t-96.5 13.5q-64 0 -86 -61q-13 -55 -25 -111q-20 -59 -79 -57l-171 6q-64 2 -64 53q0 34 113 309l135 328q36 117 118 346q18 32 49 98l33 108q17 57 73 60l17 1q25 18 86 16q31 -2 92 -5
l196 -1q-9 2 -19 4q-39 4 -18 4l321 -1q15 0 53 -1q34 -1 52 -1q69 0 91 -29q18 -24 17 -93z" />
    <glyph glyph-name="Ccedilla" unicode="&#xc7;" horiz-adv-x="1498" 
d="M1370 393q0 -37 -53 -106t-130 -153q-128 -114 -303 -155q-1 -20 0 -50q1 -56 -53 -105q-3 -2 -102 -71q-71 -49 -99 -49q-49 0 -49 61q0 69 6 208q-181 35 -324 170q-60 57 -83 88q-27 37 -92 193q-37 89 -37 276q0 135 75.5 281.5t185.5 224.5q102 72 291 128
q84 25 133 25q48 0 110 -15q75 -18 139 -37q17 -7 102 -53q98 -53 113 -70l73 -82q64 -72 64 -105q0 -44 -45 -66q-78 -37 -82 -40q-47 -39 -73 -39q-31 0 -80 63q-57 74 -86 91l-64 38q-67 40 -175 40q-95 0 -143 -19q-43 -17 -123 -81q-52 -41 -74 -85q-69 -134 -69 -204
q0 -104 34 -197q40 -111 115 -159l70 -45q76 -49 181 -49q129 0 196 45l85 57q28 19 83 108q43 70 86 70q22 0 142 -61q55 -28 55 -71zM279 974l-1 4q-8 4 -19 4q-35 0 -35 -19l1 -3q8 -5 19 -5q35 0 35 19z" />
    <glyph glyph-name="Egrave" unicode="&#xc8;" horiz-adv-x="1178" 
d="M744 1538q0 -79 -24 -108q-26 -33 -101 -33q1 0 -58 2q-35 1 -70 0q-57 -2 -105 53q-3 3 -71 102q-48 70 -48 99q0 49 61 49q28 0 103 3q66 2 104 1q53 -1 129 -58q80 -60 80 -110zM1127 1200q0 -167 -66 -164q-119 6 -276 6q-49 0 -147 2t-147 2q-16 0 -46.5 5t-46.5 5
q-80 0 -80 -155q0 -96 113 -96q56 0 167 2t167 2q29 0 87.5 3.5t87.5 3.5q57 0 74 -42q9 -23 9 -93q0 -128 -55 -128q-54 0 -163 4.5t-163 4.5q-16 0 -49 -2t-49 -2q-24 0 -71.5 3.5t-71.5 3.5q-77 0 -77 -110q0 -175 62 -172q208 10 408 10q18 0 53 -4t53 -4q25 0 74 6
t74 6q61 0 60 -46q0 -19 1 -53q1 -37 1 -53q0 -81 -31 -114.5t-113 -33.5q-23 0 -68 6.5t-68 6.5q-74 0 -221 -5t-221 -5q-23 0 -67.5 2.5t-67.5 2.5q-20 0 -61 -4t-61 -4q-89 0 -89 73q0 26 4 77.5t4 77.5q0 14 -2.5 45t-2.5 47l5 233q0 29 -3 87t-3 87q0 68 4.5 204
t4.5 204q0 16 -3 47t-3 47q0 97 119 97q17 0 50.5 -2.5t50.5 -2.5l195 -1q22 0 64.5 4t64.5 4l321 -1q15 0 53 -1q34 -1 52 -1q68 0 91 -28q19 -24 19 -94z" />
    <glyph glyph-name="Eacute" unicode="&#xc9;" 
d="M834 1660q0 -29 -48 -99l-71 -102q-48 -54 -106 -53q-12 0 -70 -1l-58 -1q-75 0 -101 33q-23 28 -23 108q0 50 80 110q76 57 129 58q37 1 104 -2q72 -3 103 -3q61 0 61 -48zM1127 1200q0 -167 -66 -164q-119 6 -276 6q-49 0 -147 2t-147 2q-16 0 -46.5 5t-46.5 5
q-80 0 -80 -155q0 -96 113 -96q56 0 167 2t167 2q29 0 87.5 3.5t87.5 3.5q57 0 74 -42q9 -23 9 -93q0 -128 -55 -128q-54 0 -163 4.5t-163 4.5q-16 0 -49 -2t-49 -2q-24 0 -71.5 3.5t-71.5 3.5q-77 0 -77 -110q0 -175 62 -172q208 10 408 10q18 0 53 -4t53 -4q25 0 74 6
t74 6q61 0 60 -46q0 -19 1 -53q1 -37 1 -53q0 -81 -31 -114.5t-113 -33.5q-23 0 -68 6.5t-68 6.5q-74 0 -221 -5t-221 -5q-23 0 -67.5 2.5t-67.5 2.5q-20 0 -61 -4t-61 -4q-89 0 -89 73q0 26 4 77.5t4 77.5q0 14 -2.5 45t-2.5 47l5 233q0 29 -3 87t-3 87q0 68 4.5 204
t4.5 204q0 16 -3 47t-3 47q0 97 119 97q17 0 50.5 -2.5t50.5 -2.5l195 -1q22 0 64.5 4t64.5 4l321 -1q15 0 53 -1q34 -1 52 -1q68 0 91 -28q19 -24 19 -94z" />
    <glyph glyph-name="Ecircumflex" unicode="&#xca;" horiz-adv-x="1171" 
d="M1127 1200q0 -167 -66 -164q-119 6 -276 6q-49 0 -147 2t-147 2q-16 0 -46.5 5t-46.5 5q-80 0 -80 -155q0 -96 113 -96q56 0 167 2t167 2q29 0 87.5 3.5t87.5 3.5q57 0 74 -42q9 -23 9 -93q0 -128 -55 -128q-54 0 -163 4.5t-163 4.5q-16 0 -49 -2t-49 -2q-24 0 -71.5 3.5
t-71.5 3.5q-77 0 -77 -110q0 -175 62 -172q208 10 408 10q18 0 53 -4t53 -4q25 0 74 6t74 6q61 0 60 -46q0 -19 1 -53q1 -37 1 -53q0 -81 -31 -114.5t-113 -33.5q-23 0 -68 6.5t-68 6.5q-74 0 -221 -5t-221 -5q-23 0 -67.5 2.5t-67.5 2.5q-20 0 -61 -4t-61 -4q-89 0 -89 73
q0 26 4 77.5t4 77.5q0 14 -2.5 45t-2.5 47l5 233q0 29 -3 87t-3 87q0 68 4.5 204t4.5 204q0 16 -3 47t-3 47q0 97 119 97q17 0 50.5 -2.5t50.5 -2.5l195 -1q22 0 64.5 4t64.5 4l321 -1q15 0 53 -1q34 -1 52 -1q68 0 91 -28q19 -24 19 -94zM962 1525q0 -124 -28 -141
q-13 -8 -155 -12q-27 32 -100 88q-67 52 -93 93q-28 -45 -92 -95q-81 -64 -101 -86q-41 19 -89 19q5 0 -21 -1h-18q-53 0 -53 108q0 51 383 291q68 -26 204 -114q163 -105 163 -150z" />
    <glyph glyph-name="Edieresis" unicode="&#xcb;" horiz-adv-x="1171" 
d="M1127 1200q0 -167 -66 -164q-119 6 -276 6q-49 0 -147 2t-147 2q-16 0 -46.5 5t-46.5 5q-80 0 -80 -155q0 -96 113 -96q56 0 167 2t167 2q29 0 87.5 3.5t87.5 3.5q57 0 74 -42q9 -23 9 -93q0 -128 -55 -128q-54 0 -163 4.5t-163 4.5q-16 0 -49 -2t-49 -2q-24 0 -71.5 3.5
t-71.5 3.5q-77 0 -77 -110q0 -175 62 -172q208 10 408 10q18 0 53 -4t53 -4q25 0 74 6t74 6q61 0 60 -46q0 -19 1 -53q1 -37 1 -53q0 -81 -31 -114.5t-113 -33.5q-23 0 -68 6.5t-68 6.5q-74 0 -221 -5t-221 -5q-23 0 -67.5 2.5t-67.5 2.5q-20 0 -61 -4t-61 -4q-89 0 -89 73
q0 26 4 77.5t4 77.5q0 14 -2.5 45t-2.5 47l5 233q0 29 -3 87t-3 87q0 68 4.5 204t4.5 204q0 16 -3 47t-3 47q0 97 119 97q17 0 50.5 -2.5t50.5 -2.5l195 -1q22 0 64.5 4t64.5 4l321 -1q15 0 53 -1q34 -1 52 -1q68 0 91 -28q19 -24 19 -94zM985 1582q0 -183 -78 -183
q-17 2 -154 13q-60 5 -77 52q-8 23 -8 103q0 86 28.5 114.5t114.5 28.5q96 0 127 -17q47 -26 47 -111zM536 1589q0 -190 -77 -190q-44 3 -151 14q-62 6 -79 47q-10 24 -10 98q0 89 23 117q28 35 119 35q96 0 126 -15q49 -24 49 -106z" />
    <glyph glyph-name="Igrave" unicode="&#xcc;" horiz-adv-x="456" 
d="M404 1283q0 -26 -6 -78q-5 -47 -6 -78q-1 -27 1 -74q2 -53 2 -74q0 -150 -2 -450l-2 -450q0 -32 -23 -61.5t-54 -31.5l-179 -10q-72 0 -72 65q0 24 6.5 71.5t6.5 71.5q0 35 -1.5 104t-1.5 104q0 22 4 61q3 44 4 62q2 63 2 324q0 74 -4 221t-4 221q0 26 25.5 47t52.5 22
l174 4q77 0 77 -71zM464 1535q0 -79 -24 -108q-26 -33 -101 -33q-14 0 -58 1q-57 1 -70 1q-58 -1 -105 53q-3 3 -71 102q-48 70 -48 99q0 48 61 48q31 0 103 3q67 3 104 2q53 -1 129 -58q80 -60 80 -110z" />
    <glyph glyph-name="Iacute" unicode="&#xcd;" horiz-adv-x="752" 
d="M671 1676q0 -28 -49 -99l-71 -102q-49 -54 -105 -53q-34 1 -70 0l-58 -1q-76 0 -102 32q-23 28 -23 108q0 50 80 110q76 57 130 58q38 1 104 -1q75 -3 103 -3q61 0 61 -49zM532 1283q0 -29 -5 -78q-6 -56 -7 -78q-1 -25 1 -74.5t2 -73.5q0 -150 -2 -450l-2 -450
q0 -32 -23 -61.5t-54 -31.5q-161 -10 -179 -10q-72 0 -72 65q0 24 6.5 71.5t6.5 71.5q0 35 -1.5 104t-1.5 104q0 22 4 61q4 43 4 62q2 94 2 324q0 74 -3.5 221t-3.5 221q0 27 25 47.5t53 21.5l173 4q77 0 77 -71z" />
    <glyph glyph-name="Icircumflex" unicode="&#xce;" horiz-adv-x="822" 
d="M750 1575q0 -124 -28 -141q-13 -8 -155 -12q-27 32 -100 88q-67 52 -93 93q-28 -45 -92 -95q-81 -64 -101 -86q-41 19 -89 19q5 0 -21 -1h-18q-53 0 -53 108q0 51 383 291q68 -26 204 -114q163 -105 163 -150zM553 1283q0 -29 -5 -78q-6 -56 -7 -78q-1 -25 1 -74.5
t2 -73.5q0 -150 -2 -450l-2 -450q0 -32 -23 -61.5t-54 -31.5q-161 -10 -179 -10q-72 0 -72 65q0 24 6.5 71.5t6.5 71.5q0 35 -1.5 104t-1.5 104q0 22 4 61q4 43 4 62q2 94 2 324q0 74 -3.5 221t-3.5 221q0 27 25 47.5t53 21.5l173 4q77 0 77 -71z" />
    <glyph glyph-name="Idieresis" unicode="&#xcf;" horiz-adv-x="456" 
d="M404 1283q0 -26 -6 -78q-5 -47 -6 -78q-1 -27 1 -74q2 -53 2 -74q0 -150 -2 -450l-2 -450q0 -32 -23 -61.5t-54 -31.5l-179 -10q-72 0 -72 65q0 24 6.5 71.5t6.5 71.5q0 35 -1.5 104t-1.5 104q0 22 4 61q3 44 4 62q2 63 2 324q0 74 -4 221t-4 221q0 26 25.5 47t52.5 22
l174 4q77 0 77 -71zM655 1562q0 -183 -78 -183q-17 2 -154 13q-60 5 -77 52q-8 23 -8 103q0 86 28.5 114.5t114.5 28.5q96 0 127 -17q47 -26 47 -111zM206 1569q0 -190 -77 -190q-44 3 -151 14q-62 6 -79 47q-10 24 -10 98q0 89 23 117q28 35 119 35q96 0 126 -15
q49 -24 49 -106z" />
    <glyph glyph-name="Ntilde" unicode="&#xd1;" horiz-adv-x="1341" 
d="M1238 1270q0 -32 -12 -96.5t-11 -98.5q2 -86 2 -72q0 -43 -5 -130t-5 -130q0 -62 5 -184.5t5 -184.5q0 -22 -5 -64.5t-5 -64.5q0 -29 8.5 -85t8.5 -85q0 -78 -57 -78q-26 0 -87 14q-56 12 -88 9q-21 -2 -36 -2q-48 0 -68 17q-15 27 -57 91q-49 67 -172 243
q-31 48 -115 172q-48 65 -171 234q-11 16 -26 16q-18 0 -18 -31q2 -166 2 -421q0 -44 7.5 -130.5t7.5 -130.5q0 -28 -18 -52t-45 -26l-156 -9q-30 -2 -56 17q-29 20 -29 49q5 365 5 651v274q0 20 1.5 60.5t1.5 60.5q0 18 -3 54.5t-3 54.5q0 111 88 111q35 0 117 -8
q97 -9 112 -20q20 -32 152 -227q59 -90 181 -269q34 -44 115 -159q12 -20 36 -61q29 -49 44 -50q16 7 16 34q0 38 -3 207q-2 123 -2 206l1 277q0 88 55 88l188 -1q94 0 94 -70zM256 468q-9 12 -30 12q-26 0 -38 -14q7 -12 29 -12q27 0 39 14zM1202 1663q0 -29 -48 -99
q-54 -78 -74 -99q-42 -44 -112 -52l-127 -1q-17 -1 -66 -2q-57 -1 -106 54q-5 6 -71 102q-8 12 -16 25q-5 -8 -17 -25q-66 -96 -71 -102q-50 -55 -106 -54q-23 0 -65 -2q-45 -3 -65 -3q-41 0 -50 50q-1 7 -1 82q0 46 118 110q109 59 164 61q39 1 42 2q-10 1 -12 1
q-10 1 -8 1q4 1 41 1q17 0 30 -4q12 4 29 4q67 0 46 1l40 -1q58 -1 148 -97q16 13 164 102q40 24 50 24q49 -31 82 -31q61 0 61 -48z" />
    <glyph glyph-name="Ograve" unicode="&#xd2;" horiz-adv-x="1478" 
d="M954 1555q0 -79 -24 -108q-26 -33 -101 -33q-14 0 -58 1q-57 1 -70 1q-58 -1 -105 53q-3 3 -71 102q-48 70 -48 99q0 48 61 48q31 0 103 3q67 3 104 2q53 -1 129 -58q80 -60 80 -110zM1409 660l-23 -177q-16 -120 -162 -286q-203 -230 -520 -230q-295 0 -488 202
q-191 199 -191 495q0 210 110 386q113 181 303 261q154 65 260 65q187 0 314 -61.5t246 -207.5q68 -83 96.5 -148.5t45.5 -173.5q9 -57 9 -125zM1117 658q0 101 -33 170q-23 48 -100 143q-92 114 -271 114q-54 0 -85 -12l-111 -43q-90 -35 -155 -152q-61 -110 -61 -213
q0 -168 120.5 -289t288.5 -121q163 0 285 120t122 283z" />
    <glyph glyph-name="Oacute" unicode="&#xd3;" horiz-adv-x="1477" 
d="M984 1660q0 -29 -48 -99l-71 -102q-48 -54 -106 -53q-12 0 -70 -1l-58 -1q-75 0 -101 33q-23 28 -23 108q0 50 80 110q76 57 129 58q37 1 104 -2q72 -3 103 -3q61 0 61 -48zM1409 660l-23 -177q-16 -120 -162 -286q-203 -230 -520 -230q-295 0 -488 202
q-191 199 -191 495q0 210 110 386q113 181 303 261q154 65 260 65q187 0 314 -61.5t246 -207.5q68 -83 96.5 -148.5t45.5 -173.5q9 -57 9 -125zM1117 658q0 101 -33 170q-23 48 -100 143q-92 114 -271 114q-54 0 -85 -12l-111 -43q-90 -35 -155 -152q-61 -110 -61 -213
q0 -168 120.5 -289t288.5 -121q163 0 285 120t122 283z" />
    <glyph glyph-name="Ocircumflex" unicode="&#xd4;" horiz-adv-x="1508" 
d="M1080 1555q0 -123 -27 -141q-14 -9 -155 -12q-25 30 -101 88q-65 50 -92 92q-28 -43 -92 -94q-79 -63 -102 -86q-41 18 -88 18h-21q-26 -1 -18 -1q-54 0 -54 109q0 51 384 291q67 -26 204 -115q162 -105 162 -149zM1409 660l-23 -177q-16 -120 -162 -286
q-203 -230 -520 -230q-295 0 -488 202q-191 199 -191 495q0 210 110 386q113 181 303 261q154 65 260 65q187 0 314 -61.5t246 -207.5q68 -83 96.5 -148.5t45.5 -173.5q9 -57 9 -125zM1117 658q0 101 -33 170q-23 48 -100 143q-92 114 -271 114q-54 0 -85 -12l-111 -43
q-90 -35 -155 -152q-61 -110 -61 -213q0 -168 120.5 -289t288.5 -121q163 0 285 120t122 283z" />
    <glyph glyph-name="Otilde" unicode="&#xd5;" horiz-adv-x="1503" 
d="M1242 1663q0 -29 -48 -99q-54 -78 -74 -99q-42 -44 -112 -52l-127 -1q-17 -1 -66 -2q-57 -1 -106 54q-5 6 -71 102q-8 12 -16 25q-5 -8 -17 -25q-66 -96 -71 -102q-50 -55 -106 -54q-23 0 -65 -2q-45 -3 -65 -3q-41 0 -50 50q-1 7 -1 82q0 46 118 110q109 59 164 61
q39 1 42 2q-10 1 -12 1q-10 1 -8 1q4 1 41 1q17 0 30 -4q12 4 29 4q67 0 46 1l40 -1q58 -1 148 -97q16 13 164 102q40 24 50 24q49 -31 82 -31q61 0 61 -48zM1409 660l-23 -177q-16 -120 -162 -286q-203 -230 -520 -230q-295 0 -488 202q-191 199 -191 495q0 210 110 386
q113 181 303 261q154 65 260 65q187 0 314 -61.5t246 -207.5q68 -83 96.5 -148.5t45.5 -173.5q9 -57 9 -125zM1117 658q0 101 -33 170q-23 48 -100 143q-92 114 -271 114q-54 0 -85 -12l-111 -43q-90 -35 -155 -152q-61 -110 -61 -213q0 -168 120.5 -289t288.5 -121
q163 0 285 120t122 283z" />
    <glyph glyph-name="Odieresis" unicode="&#xd6;" horiz-adv-x="1551" 
d="M1198 1661q0 -190 -77 -190q7 0 -160 14q-60 5 -73 44q-6 18 -6 96q0 93 21 121q27 36 123 36q94 0 124 -15q48 -24 48 -106zM724 1652q0 -182 -80 -182q-24 2 -153 14q-60 6 -76 52q-8 24 -8 103q0 86 29 115t115 29q94 0 127 -19q46 -27 46 -112zM1504 669
q0 -259 -179 -466q-206 -238 -527 -238q-296 0 -493 209q-193 205 -193 502q0 58 13 107q22 84 30 109q21 68 42 105q87 158 249 265q171 113 345 113q22 0 160 -12q112 -10 251 -109q73 -52 151 -148q66 -81 95 -150q28 -64 46 -172q10 -59 10 -115zM1212 656
q0 173 -114 298q-118 130 -289 130q-57 0 -87 -12l-119 -47q-86 -34 -149 -153q-59 -111 -59 -210q0 -166 120.5 -287t286.5 -121q164 0 287 119.5t123 282.5z" />
    <glyph glyph-name="Oslash" unicode="&#xd8;" horiz-adv-x="1457" 
d="M1409 660l-23 -177q-16 -120 -162 -286q-203 -230 -520 -230q-89 0 -171 20l-1 -2q-20 -55 -83 -50q-51 4 -154 11q-61 4 -62 43q0 26 43 126q-251 205 -251 549q0 210 110 386q113 181 303 261q154 65 260 65q118 0 208 -23q46 34 132 34q35 0 101 -8q73 -9 66 -65
q-2 -13 -44 -102q45 -41 97 -105q68 -83 96.5 -148.5t45.5 -173.5q9 -57 9 -125zM1117 658q0 90 -25 152q-20 50 -75 121l-7 -13q-88 -177 -321 -636q-3 -8 -13 -25q17 -2 34 -2q163 0 285 120t122 283zM758 1082q-23 3 -45 3q-54 0 -85 -12l-111 -43q-90 -35 -155 -152
q-61 -110 -61 -213q0 -157 109 -275q71 124 205 383q46 104 143 309z" />
    <glyph glyph-name="Ugrave" unicode="&#xd9;" 
d="M744 1525q0 -79 -24 -108q-26 -33 -101 -33q-13 0 -58 1q-57 1 -70 1q-58 -1 -105 53q-3 3 -71 102q-48 70 -48 99q0 48 61 48q31 0 103 3q67 3 104 2q53 -1 129 -58q80 -60 80 -110zM1095 1242q0 -22 -5.5 -65t-5.5 -64l-1 -235q0 -33 -9 -454q-2 -79 -49 -169
q-44 -84 -107 -141q-166 -149 -343 -149q-101 0 -178 34q-51 22 -156 95q-122 84 -167 241q-32 111 -32 301v32q1 29 1 44v75q0 33 -2 99.5t-2 99.5q0 23 2.5 68.5t2.5 68.5q0 21 -4.5 64t-4.5 64q0 75 79 75h161q74 0 74 -59q0 -22 -6 -66t-6 -67l1 -410q0 -73 2 -258
q1 -47 31.5 -103t69.5 -79q64 -37 127 -37q108 0 174 84q60 77 60 188q0 24 -2.5 71t-2.5 70v300q-2 163 -22 298q-8 53 59 53q9 0 183 -7q78 -3 78 -62z" />
    <glyph glyph-name="Uacute" unicode="&#xda;" 
d="M834 1620q0 -29 -48 -99l-71 -102q-48 -54 -106 -53q-12 0 -70 -1l-58 -1q-75 0 -101 33q-23 28 -23 108q0 50 80 110q76 57 129 58q37 1 104 -2q72 -3 103 -3q61 0 61 -48zM1095 1242q0 -22 -5.5 -65t-5.5 -64l-1 -235q0 -33 -9 -454q-2 -79 -49 -169q-44 -84 -107 -141
q-166 -149 -343 -149q-101 0 -178 34q-51 22 -156 95q-122 84 -167 241q-32 111 -32 301v32q1 29 1 44v75q0 33 -2 99.5t-2 99.5q0 23 2.5 68.5t2.5 68.5q0 21 -4.5 64t-4.5 64q0 75 79 75h161q74 0 74 -59q0 -22 -6 -66t-6 -67l1 -410q0 -73 2 -258q1 -47 31.5 -103
t69.5 -79q64 -37 127 -37q108 0 174 84q60 77 60 188q0 24 -2.5 71t-2.5 70v300q-2 163 -22 298q-8 53 59 53q9 0 183 -7q78 -3 78 -62z" />
    <glyph glyph-name="Ucircumflex" unicode="&#xdb;" horiz-adv-x="1174" 
d="M1095 1242q0 -22 -5.5 -65t-5.5 -64l-1 -235q0 -33 -9 -454q-2 -79 -49 -169q-44 -84 -107 -141q-166 -149 -343 -149q-101 0 -178 34q-51 22 -156 95q-122 84 -167 241q-32 111 -32 301v32q1 29 1 44v75q0 33 -2 99.5t-2 99.5q0 23 2.5 68.5t2.5 68.5q0 21 -4.5 64
t-4.5 64q0 75 79 75h161q74 0 74 -59q0 -22 -6 -66t-6 -67l1 -410q0 -73 2 -258q1 -47 31.5 -103t69.5 -79q64 -37 127 -37q108 0 174 84q60 77 60 188q0 24 -2.5 71t-2.5 70v300q-2 163 -22 298q-8 53 59 53q9 0 183 -7q78 -3 78 -62zM960 1585q0 -123 -27 -141
q-14 -9 -155 -12q-25 30 -101 88q-65 50 -92 92q-28 -43 -92 -94q-79 -63 -102 -86q-41 18 -88 18h-21q-26 -1 -18 -1q-54 0 -54 109q0 51 384 291q67 -26 204 -115q162 -105 162 -149z" />
    <glyph glyph-name="Udieresis" unicode="&#xdc;" horiz-adv-x="1281" 
d="M1040 1677q0 -184 -79 -184q8 0 -153 14q-61 5 -77 50q-9 25 -9 103q0 87 28.5 115.5t115.5 28.5q94 0 126 -17q48 -26 48 -110zM591 1676q0 -183 -79 -183q2 0 -152 14q-61 6 -78 50q-9 24 -9 103q0 87 28.5 115.5t115.5 28.5q94 0 127 -18q47 -26 47 -110zM1199 1259
q0 -22 -5.5 -65t-5.5 -65q0 -27 3.5 -82t3.5 -82q0 -24 -3.5 -70.5t-3.5 -69.5v-243q-2 -138 -31 -236q-37 -123 -122 -206q-163 -160 -359 -160q-139 0 -241 66q-184 119 -244 263q-45 108 -45 321v34q1 30 1 49v89q0 33 -2 99t-2 99q0 23 3 69t3 69q0 24 -5.5 70.5
t-5.5 70.5q0 63 80 62q24 0 144 -2q47 0 62 -6q32 -12 29 -52l-12 -133l3 -667q0 -50 33.5 -108t76.5 -80q62 -32 122 -32q84 0 145 57q58 54 75 138q2 10 2 127q0 40 4 121t4 121q0 272 -27 449q-8 52 56 52q-8 0 186 -7q78 -3 78 -60z" />
    <glyph glyph-name="Yacute" unicode="&#xdd;" horiz-adv-x="1373" 
d="M1318 1319q0 -23 -74 -107q-46 -68 -122 -176q-78 -121 -239 -359q-86 -120 -89 -128q-16 -36 -16 -148q0 -52 10 -156t10 -156q0 -108 -85 -106q-30 1 -179 5q-63 2 -63 53q0 24 3 72t3 72q0 31 -1 92t-1 92q0 107 -40 177q-32 51 -96 152q-36 58 -117 194
q-15 32 -48 94l-102 153q-74 113 -74 153q0 49 46 51l187 10q6 0 19 2t20 2q55 0 79 -46q18 -45 37 -90q18 -29 55 -86q70 -137 154 -292q16 -29 29 -29q18 0 30 16q27 48 59 99q37 56 132 203q27 44 81 133q31 50 75 69q49 21 147 21h112q58 0 58 -36zM988 1561
q0 -28 -49 -99l-71 -102q-49 -54 -105 -53q-34 1 -70 0l-58 -1q-76 0 -102 32q-23 28 -23 108q0 50 80 110q76 57 130 58q38 1 104 -1q75 -3 103 -3q61 0 61 -49z" />
    <glyph glyph-name="Thorn" unicode="&#xde;" horiz-adv-x="986" 
d="M939 689q0 -97 -46 -195q-48 -104 -125 -154l-85 -55q-68 -44 -180 -44q-40 0 -112 26.5t-100 26.5q-18 0 -17 -40l6 -287q0 -96 -23.5 -120.5t-117.5 -24.5q-98 0 -97 67l6 949q0 32 -4.5 94.5t-4.5 94.5q0 11 2 22q-4 25 -11 89.5t-7 146.5q0 22 1 65t1 65q0 15 -2 45
t-2 45q0 123 69 123h153q8 0 23 3.5t23 3.5q34 0 34 -92q0 -68 -2 -227l-2 -228q14 2 79 23q54 17 94 17q187 0 317 -126.5t130 -312.5zM668 701q0 86 -64 148t-150 62q-108 0 -165 -104q-8 -27 -19 -47q-8 -30 -8 -61q0 -201 186 -201q94 0 155 54q65 57 65 149zM129 442
l-1 16l-2 4l-6 -4q-13 -28 -13 -62q0 -15 4 -19l5 3q15 32 13 62z" />
    <glyph glyph-name="germandbls" unicode="&#xdf;" horiz-adv-x="1141" 
d="M1088 419q0 -96 -69 -205q-72 -115 -160 -143q-33 -11 -118 -36q-58 -16 -90 -16q-97 0 -120 5q-64 15 -70 79v163q0 48 25 48q22 0 70 -14.5t72 -14.5q66 0 115 42q53 45 53 109q0 67 -57 94q-27 13 -99 17q-66 3 -84 16q-34 25 -34 105q0 71 29 89q18 11 98 16
q39 2 68 41q27 35 27 76q0 51 -58 87q-50 32 -105 32q-82 0 -87 -3l-118 -65q-34 -18 -37 -101v-119l-2 -307q0 -55 1 -164l1 -164q0 -59 -43 -77q-24 -10 -95 -10q-68 0 -97 8q-56 15 -55 67l2 590q0 28 -6 87t-6 89t33 145q24 83 121 144q25 22 94 75q91 63 312 63
q155 0 277 -72q145 -85 145 -229q0 -89 -25 -148q-13 -32 -46 -70q-24 -28 -24 -49t42 -48q55 -35 78 -68q42 -60 42 -164z" />
    <glyph glyph-name="agrave" unicode="&#xe0;" 
d="M1057 196l-9 -111q-15 -80 -65 -84l-156 -12q-34 0 -86.5 28t-78.5 28q-29 0 -69 -15q-110 -41 -228 -41q-64 0 -159 42q-170 75 -170 232q0 86 23 128q20 36 91 95q49 41 98 56q38 11 115 32q61 17 90 17q25 0 75 -22t76 -22q18 0 18 16q0 95 -253 95q-39 0 -114 -22
t-106 -22q-35 0 -35 35q0 3 10 132q5 66 42 70l144 15q134 14 119 14q23 0 64.5 -11t60.5 -12q-13 1 120 1q153 0 204 -155q29 -88 29 -280q-2 -23 -15 -135q-7 -59 53 -59q13 0 38.5 3t38.5 3q38 0 35 -39zM622 286q0 43 -57 72q-48 24 -96 24q-51 0 -97 -25
q-56 -30 -56 -76q0 -56 73 -83q31 -12 66 -12q45 0 102 28q65 32 65 72zM744 1175q0 -79 -24 -108q-26 -33 -101 -33q-13 0 -58 1q-57 1 -70 1q-58 -1 -105 53q-3 3 -71 102q-48 70 -48 99q0 48 61 48q31 0 103 3q67 3 104 2q53 -1 129 -58q80 -60 80 -110z" />
    <glyph glyph-name="aacute" unicode="&#xe1;" 
d="M1057 196l-9 -111q-15 -80 -65 -84l-156 -12q-34 0 -86.5 28t-78.5 28q-29 0 -69 -15q-110 -41 -228 -41q-64 0 -159 42q-170 75 -170 232q0 86 23 128q20 36 91 95q49 41 98 56q38 11 115 32q61 17 90 17q25 0 75 -22t76 -22q18 0 18 16q0 95 -253 95q-39 0 -114 -22
t-106 -22q-35 0 -35 35q0 3 10 132q5 66 42 70l144 15q134 14 119 14q23 0 64.5 -11t60.5 -12q-13 1 120 1q153 0 204 -155q29 -88 29 -280q-2 -23 -15 -135q-7 -59 53 -59q13 0 38.5 3t38.5 3q38 0 35 -39zM622 286q0 43 -57 72q-48 24 -96 24q-51 0 -97 -25
q-56 -30 -56 -76q0 -56 73 -83q31 -12 66 -12q45 0 102 28q65 32 65 72zM834 1290q0 -29 -48 -99l-71 -102q-48 -54 -106 -53q-12 0 -69 -1l-59 -1q-75 0 -101 33q-23 28 -23 108q0 50 80 110q76 57 129 58q37 1 104 -2q72 -3 103 -3q61 0 61 -48z" />
    <glyph glyph-name="acircumflex" unicode="&#xe2;" 
d="M1057 196l-9 -111q-15 -80 -65 -84l-156 -12q-34 0 -86.5 28t-78.5 28q-29 0 -69 -15q-110 -41 -228 -41q-64 0 -159 42q-170 75 -170 232q0 86 23 128q20 36 91 95q49 41 98 56q38 11 115 32q61 17 90 17q25 0 75 -22t76 -22q18 0 18 16q0 95 -253 95q-39 0 -114 -22
t-106 -22q-35 0 -35 35q0 3 10 132q5 66 42 70l144 15q134 14 119 14q23 0 64.5 -11t60.5 -12q-13 1 120 1q153 0 204 -155q29 -88 29 -280q-2 -23 -15 -135q-7 -59 53 -59q13 0 38.5 3t38.5 3q38 0 35 -39zM622 286q0 43 -57 72q-48 24 -96 24q-51 0 -97 -25
q-56 -30 -56 -76q0 -56 73 -83q31 -12 66 -12q45 0 102 28q65 32 65 72zM860 1225q0 -123 -27 -141q-14 -9 -155 -12q-25 30 -101 88q-65 50 -92 92q-28 -43 -92 -94q-79 -63 -102 -86q-41 18 -88 18h-21q-26 -1 -18 -1q-54 0 -54 109q0 51 384 291q67 -26 204 -115
q162 -105 162 -149z" />
    <glyph glyph-name="atilde" unicode="&#xe3;" 
d="M1057 196l-9 -111q-15 -80 -65 -84l-156 -12q-34 0 -86.5 28t-78.5 28q-29 0 -69 -15q-110 -41 -228 -41q-64 0 -159 42q-170 75 -170 232q0 86 23 128q20 36 91 95q49 41 98 56q38 11 115 32q61 17 90 17q25 0 75 -22t76 -22q18 0 18 16q0 95 -253 95q-39 0 -114 -22
t-106 -22q-35 0 -35 35q0 3 10 132q5 66 42 70l144 15q134 14 119 14q23 0 64.5 -11t60.5 -12q-13 1 120 1q153 0 204 -155q29 -88 29 -280q-2 -23 -15 -135q-7 -59 53 -59q13 0 38.5 3t38.5 3q38 0 35 -39zM622 286q0 43 -57 72q-48 24 -96 24q-51 0 -97 -25
q-56 -30 -56 -76q0 -56 73 -83q31 -12 66 -12q45 0 102 28q65 32 65 72zM1002 1283q0 -29 -48 -99q-54 -78 -74 -99q-42 -44 -112 -52l-127 -1q-17 -1 -66 -2q-57 -1 -106 54q-5 6 -71 102q-8 12 -16 25q-5 -8 -17 -25q-66 -96 -71 -102q-50 -55 -106 -54q-23 0 -65 -2
q-45 -3 -65 -3q-41 0 -50 50q-1 7 -1 82q0 46 118 110q109 59 164 61q39 1 42 2q-10 1 -12 1q-10 1 -8 1q4 1 41 1q17 0 30 -4q12 4 29 4q67 0 46 1l40 -1q58 -1 148 -97q16 13 164 102q40 24 50 24q49 -31 82 -31q61 0 61 -48z" />
    <glyph glyph-name="adieresis" unicode="&#xe4;" horiz-adv-x="1162" 
d="M915 1262q0 -183 -78 -183q-17 2 -154 13q-60 5 -77 52q-8 23 -8 103q0 86 28.5 114.5t114.5 28.5q96 0 127 -17q47 -26 47 -111zM466 1269q0 -190 -77 -190q-44 3 -151 14q-62 6 -79 47q-10 24 -10 98q0 89 23 117q28 35 119 35q96 0 126 -15q49 -24 49 -106zM1063 177
q0 -59 -18 -128q-14 -52 -85 -65q-23 -4 -119 -4q-33 0 -92.5 26t-91.5 26q-42 0 -135 -26t-143 -26q-75 0 -168 42q-170 77 -170 240q0 76 24 120q20 37 82 90q45 38 102 59q24 7 118 34q55 16 88 16q26 0 76 -21.5t76 -21.5q19 0 19 21q0 90 -256 90q-39 0 -111 -22
t-104 -22q-38 0 -38 37q2 23 12 129q7 71 49 75l246 23q1 0 299 -25q102 -9 157 -141q31 -75 31 -278q0 -24 -7 -73t-7 -73q0 -58 53 -58q12 0 35.5 2.5t35.5 2.5q42 0 42 -49zM627 277q0 43 -58 72q-48 24 -96 24q-51 0 -97 -25q-56 -30 -56 -76t49 -72q40 -22 90 -22
q45 0 102 27q66 31 66 72z" />
    <glyph glyph-name="aring" unicode="&#xe5;" 
d="M1057 196l-9 -111q-15 -80 -65 -84l-156 -12q-34 0 -86.5 28t-78.5 28q-29 0 -69 -15q-110 -41 -228 -41q-64 0 -159 42q-170 75 -170 232q0 86 23 128q20 36 91 95q49 41 98 56q38 11 115 32q61 17 90 17q25 0 75 -22t76 -22q18 0 18 16q0 95 -253 95q-39 0 -114 -22
t-106 -22q-35 0 -35 35q0 3 10 132q5 66 42 70l144 15q134 14 119 14q23 0 64.5 -11t60.5 -12q-13 1 120 1q153 0 204 -155q29 -88 29 -280q-2 -23 -15 -135q-7 -59 53 -59q13 0 38.5 3t38.5 3q38 0 35 -39zM622 286q0 43 -57 72q-48 24 -96 24q-51 0 -97 -25
q-56 -30 -56 -76q0 -56 73 -83q31 -12 66 -12q45 0 102 28q65 32 65 72zM685 1161q0 -190 -190 -190q-84 0 -136 51.5t-52 135.5q0 87 49 142q51 59 136 59q91 0 142 -53.5t51 -144.5zM577 1162q0 80 -78 80q-75 0 -75 -81q0 -75 76 -75q77 0 77 76z" />
    <glyph glyph-name="ae" unicode="&#xe6;" horiz-adv-x="1679" 
d="M622 286q0 44 -57 72q-48 24 -96 24q-52 0 -98 -25q-56 -30 -56 -76q0 -45 50 -72q41 -23 90 -23q45 0 102 28q65 32 65 72zM1603 437q0 -88 -61 -88q-20 0 -59.5 9t-59.5 9q-27 0 -81 -10.5t-81 -10.5q-28 0 -83 7.5t-83 7.5q-125 0 -125 -52q0 -40 41 -75q6 1 11 1
q32 0 34 -28q48 -22 89 -22q70 0 149 51t88 51q41 0 97 -24q66 -28 66 -62q0 -47 -89 -106q-20 -14 -111 -73q-64 -42 -214 -42q-78 0 -134 24q-53 -15 -170 -15q-35 0 -87 28t-78 28q-29 0 -69 -15q-109 -41 -228 -41q-64 0 -159 42q-170 75 -170 232q0 86 23 128
q20 36 91 95q49 40 98 56q5 2 116 33q60 16 89 16q25 0 74.5 -22t75.5 -22q19 0 19 16q0 95 -253 95q-39 0 -112 -22t-108 -22t-35 35q0 16 9 132q5 66 42 70l144 15q134 14 120 14q23 0 64.5 -11t60.5 -12q-13 1 120 1q109 0 166 -79q40 30 79 44l117 42q50 18 111 18
q113 0 193 -45q121 -68 163.5 -120.5t86.5 -186.5q13 -39 13 -94zM1075 757q0 34 -60 34q-24 0 -24 -17q0 -33 60 -33q11 0 22 8q2 4 2 8zM1334 575q0 52 -71 91q-61 34 -119 34q-54 0 -109 -28q-65 -33 -65 -82q0 -16 17 -27.5t33 -11.5l213 1q11 0 32 -3t31 -3q38 0 38 29
zM1071 433l-2 7q-11 6 -24 6q-12 -6 -12 -16l2 -8q10 -5 23 -5q13 7 13 16zM922 527l-2 9q-6 4 -12 4q-2 0 -3 -1q1 -14 1 -30q6 1 11 3q5 8 5 15z" />
    <glyph glyph-name="ccedilla" unicode="&#xe7;" horiz-adv-x="975" 
d="M324 -235q0 67 7 231q-137 40 -223.5 154.5t-86.5 257.5q0 78 42 179q44 108 101 152l63 49q129 100 258 100q94 0 146 -15.5t130 -66.5q108 -71 108 -103q0 -31 -70.5 -78t-104.5 -47q-24 0 -88 34.5t-99 34.5q-66 0 -135 -57q-72 -60 -72 -124q0 -106 57.5 -170
t162.5 -64q76 0 118 41q12 12 50 75q24 40 58 40q19 0 142 -72q36 -21 36 -57q0 -54 -96 -138q-82 -71 -143 -95q-29 -11 -58 -20q-1 -39 0 -77q1 -56 -53 -105q-3 -2 -102 -71q-71 -49 -99 -49q-49 0 -49 61z" />
    <glyph glyph-name="egrave" unicode="&#xe8;" horiz-adv-x="985" 
d="M954 437q0 -88 -61 -88q-20 0 -59.5 9t-59.5 9q-27 0 -81 -10.5t-81 -10.5q-28 0 -83 7.5t-83 7.5q-125 0 -125 -52t63 -90q56 -34 112 -34q70 0 149 51t88 51q42 0 97 -24q66 -29 66 -62q0 -47 -89 -106q-20 -14 -111 -73q-64 -42 -213 -42q-80 0 -179 45.5t-151 105.5
q-21 24 -99 155q-22 37 -22 151q0 94 20 151q26 74 86 140q63 70 132 95l117 42q50 18 111 18q113 0 193 -45q121 -69 163.5 -121t86.5 -186q13 -40 13 -94zM427 757q0 34 -61 34q-24 0 -24 -17q0 -33 61 -33q10 0 21 8q3 4 3 8zM685 575q0 52 -70 91q-61 34 -120 34
q-53 0 -108 -28q-66 -34 -66 -82q0 -15 17 -27t33 -12l213 1q11 0 32 -3t31 -3q38 0 38 29zM422 433l-2 7q-11 6 -23 6q-13 -6 -13 -16l2 -8q11 -5 23 -5q13 7 13 16zM274 527l-3 9q-6 4 -12 4t-14 -4q-5 -7 -5 -15l2 -9q6 -3 12 -3q7 0 14 3q6 8 6 15zM694 1175
q0 -79 -24 -108q-26 -33 -101 -33q-13 0 -58 1q-57 1 -70 1q-58 -1 -105 53q-3 3 -71 102q-48 70 -48 99q0 48 61 48q31 0 103 3q67 3 104 2q53 -1 129 -58q80 -60 80 -110z" />
    <glyph glyph-name="eacute" unicode="&#xe9;" 
d="M834 1290q0 -29 -48 -99l-71 -102q-48 -54 -106 -53q-12 0 -69 -1l-59 -1q-75 0 -101 33q-23 28 -23 108q0 50 80 110q76 57 129 58q37 1 104 -2q72 -3 103 -3q61 0 61 -48zM954 437q0 -88 -61 -88q-20 0 -59.5 9t-59.5 9q-27 0 -81 -10.5t-81 -10.5q-28 0 -83 7.5
t-83 7.5q-125 0 -125 -52t63 -90q56 -34 112 -34q70 0 149 51t88 51q42 0 97 -24q66 -29 66 -62q0 -47 -89 -106q-20 -14 -111 -73q-64 -42 -213 -42q-80 0 -179 45.5t-151 105.5q-21 24 -99 155q-22 37 -22 151q0 94 20 151q26 74 86 140q63 70 132 95l117 42q50 18 111 18
q113 0 193 -45q121 -69 163.5 -121t86.5 -186q13 -40 13 -94zM427 757q0 34 -61 34q-24 0 -24 -17q0 -33 61 -33q10 0 21 8q3 4 3 8zM685 575q0 52 -70 91q-61 34 -120 34q-53 0 -108 -28q-66 -34 -66 -82q0 -15 17 -27t33 -12l213 1q11 0 32 -3t31 -3q38 0 38 29zM422 433
l-2 7q-11 6 -23 6q-13 -6 -13 -16l2 -8q11 -5 23 -5q13 7 13 16zM274 527l-3 9q-6 4 -12 4t-14 -4q-5 -7 -5 -15l2 -9q6 -3 12 -3q7 0 14 3q6 8 6 15z" />
    <glyph glyph-name="ecircumflex" unicode="&#xea;" horiz-adv-x="985" 
d="M954 437q0 -88 -61 -88q-20 0 -59.5 9t-59.5 9q-27 0 -81 -10.5t-81 -10.5q-28 0 -83 7.5t-83 7.5q-125 0 -125 -52t63 -90q56 -34 112 -34q70 0 149 51t88 51q42 0 97 -24q66 -29 66 -62q0 -47 -89 -106q-20 -14 -111 -73q-64 -42 -213 -42q-80 0 -179 45.5t-151 105.5
q-21 24 -99 155q-22 37 -22 151q0 94 20 151q26 74 86 140q63 70 132 95l117 42q50 18 111 18q113 0 193 -45q121 -69 163.5 -121t86.5 -186q13 -40 13 -94zM427 757q0 34 -61 34q-24 0 -24 -17q0 -33 61 -33q10 0 21 8q3 4 3 8zM685 575q0 52 -70 91q-61 34 -120 34
q-53 0 -108 -28q-66 -34 -66 -82q0 -15 17 -27t33 -12l213 1q11 0 32 -3t31 -3q38 0 38 29zM422 433l-2 7q-11 6 -23 6q-13 -6 -13 -16l2 -8q11 -5 23 -5q13 7 13 16zM274 527l-3 9q-6 4 -12 4t-14 -4q-5 -7 -5 -15l2 -9q6 -3 12 -3q7 0 14 3q6 8 6 15zM860 1225
q0 -123 -27 -141q-14 -9 -155 -12q-25 30 -101 88q-65 50 -92 92q-28 -43 -92 -94q-79 -63 -102 -86q-41 18 -88 18h-21q-26 -1 -18 -1q-54 0 -54 109q0 51 384 291q67 -26 204 -115q162 -105 162 -149z" />
    <glyph glyph-name="edieresis" unicode="&#xeb;" horiz-adv-x="985" 
d="M954 437q0 -88 -61 -88q-20 0 -59.5 9t-59.5 9q-27 0 -81 -10.5t-81 -10.5q-28 0 -83 7.5t-83 7.5q-125 0 -125 -52t63 -90q56 -34 112 -34q70 0 149 51t88 51q42 0 97 -24q66 -29 66 -62q0 -47 -89 -106q-20 -14 -111 -73q-64 -42 -213 -42q-80 0 -179 45.5t-151 105.5
q-21 24 -99 155q-22 37 -22 151q0 94 20 151q26 74 86 140q63 70 132 95l117 42q50 18 111 18q113 0 193 -45q121 -69 163.5 -121t86.5 -186q13 -40 13 -94zM427 757q0 34 -61 34q-24 0 -24 -17q0 -33 61 -33q10 0 21 8q3 4 3 8zM685 575q0 52 -70 91q-61 34 -120 34
q-53 0 -108 -28q-66 -34 -66 -82q0 -15 17 -27t33 -12l213 1q11 0 32 -3t31 -3q38 0 38 29zM422 433l-2 7q-11 6 -23 6q-13 -6 -13 -16l2 -8q11 -5 23 -5q13 7 13 16zM274 527l-3 9q-6 4 -12 4t-14 -4q-5 -7 -5 -15l2 -9q6 -3 12 -3q7 0 14 3q6 8 6 15zM915 1262
q0 -183 -78 -183q-17 2 -154 13q-60 5 -77 52q-8 23 -8 103q0 86 28.5 114.5t114.5 28.5q96 0 127 -17q47 -26 47 -111zM466 1269q0 -190 -77 -190q-44 3 -151 14q-62 6 -79 47q-10 24 -10 98q0 89 23 117q28 35 119 35q96 0 126 -15q49 -24 49 -106z" />
    <glyph glyph-name="igrave" unicode="&#xec;" horiz-adv-x="398" 
d="M345 49q0 -24 -14 -44q-16 -23 -39 -23q-157 2 -172 4q-46 7 -54 52q-4 22 -4 173q0 24 -7.5 71.5t-8.5 69.5q-6 88 -6 148q0 22 1 65t1 65q0 15 -2 45t-2 45q0 123 69 123h153q8 0 23 3t23 3q34 0 34 -91q0 -80 -2 -241l-2 -240q0 -38 4.5 -114t4.5 -114zM394 1175
q0 -79 -24 -108q-26 -33 -101 -33q-13 0 -58 1q-57 1 -70 1q-58 -1 -105 53q-3 3 -71 102q-48 70 -48 99q0 48 61 48q31 0 103 3q67 3 104 2q53 -1 129 -58q80 -60 80 -110z" />
    <glyph glyph-name="iacute" unicode="&#xed;" horiz-adv-x="505" 
d="M481 1290q0 -28 -49 -99l-71 -102q-48 -54 -105 -53q-12 0 -70 -1l-58 -1q-75 0 -101 33q-24 29 -24 108q0 50 80 110q77 57 130 58q37 1 104 -2q72 -3 103 -3q61 0 61 -48zM345 49q0 -24 -14 -44q-16 -23 -39 -23q-157 2 -172 4q-46 7 -54 52q-4 22 -4 173
q0 24 -7.5 71.5t-8.5 69.5q-6 88 -6 148q0 22 1 65t1 65q0 15 -2 45t-2 45q0 123 69 123h153q8 0 23 3t23 3q34 0 34 -91q0 -80 -2 -241l-2 -240q0 -38 4.5 -114t4.5 -114z" />
    <glyph glyph-name="icircumflex" unicode="&#xee;" horiz-adv-x="398" 
d="M345 49q0 -24 -14 -44q-16 -23 -39 -23q-157 2 -172 4q-46 7 -54 52q-4 22 -4 173q0 24 -7.5 71.5t-8.5 69.5q-6 88 -6 148q0 22 1 65t1 65q0 15 -2 45t-2 45q0 123 69 123h153q8 0 23 3t23 3q34 0 34 -91q0 -80 -2 -241l-2 -240q0 -38 4.5 -114t4.5 -114zM604 1225
q0 -124 -28 -141q-12 -9 -155 -12q-27 32 -100 88q-67 52 -93 92q-28 -43 -92 -94q-80 -64 -101 -86q-41 18 -89 18h-21q-26 -1 -18 -1q-38 0 -48 38q-5 18 -5 71q0 51 383 291q65 -25 204 -115q163 -105 163 -149z" />
    <glyph glyph-name="idieresis" unicode="&#xef;" horiz-adv-x="398" 
d="M345 49q0 -24 -14 -44q-16 -23 -39 -23q-157 2 -172 4q-46 7 -54 52q-4 22 -4 173q0 24 -7.5 71.5t-8.5 69.5q-6 88 -6 148q0 22 1 65t1 65q0 15 -2 45t-2 45q0 123 69 123h153q8 0 23 3t23 3q34 0 34 -91q0 -80 -2 -241l-2 -240q0 -38 4.5 -114t4.5 -114zM618 1262
q0 -183 -79 -183q4 0 -154 13q-59 5 -76 52q-9 26 -9 103q0 86 29 114.5t115 28.5q96 0 127 -17q47 -26 47 -111zM168 1269q0 -190 -76 -190q-44 3 -152 14q-60 6 -78 47q-11 25 -11 98q0 89 23 117q28 35 120 35q95 0 125 -15q49 -24 49 -106z" />
    <glyph glyph-name="ntilde" unicode="&#xf1;" 
d="M1002 1283q0 -29 -48 -99q-54 -78 -74 -99q-42 -44 -112 -52l-127 -1q-17 -1 -66 -2q-57 -1 -106 54q-5 6 -71 102q-8 12 -16 25q-5 -8 -17 -25q-66 -96 -71 -102q-50 -55 -106 -54q-23 0 -65 -2q-45 -3 -65 -3q-41 0 -50 50q-1 7 -1 82q0 46 118 110q109 59 164 61
q39 1 42 2q-10 1 -12 1q-10 1 -8 1q4 1 41 1q17 0 30 -4q12 4 29 4q67 0 46 1l40 -1q58 -1 148 -97q16 13 164 102q40 24 50 24q49 -31 82 -31q61 0 61 -48zM958 68q0 -73 -126 -73q-85 0 -116 6q-76 15 -76 67q0 36 6 108t6 108q-1 29 -7 173q-3 86 -22 123q-28 56 -103 56
q-58 0 -115 -30q-65 -34 -76 -85q-2 -9 -2 -95q0 -33 -2 -100t-2 -100q0 -27 3.5 -81.5t3.5 -81.5q0 -66 -59 -68l-158 -4q-79 0 -79 58q0 95 3.5 285t3.5 285q0 29 -5.5 86.5t-5.5 86.5q0 78 122 78q38 0 108.5 -19.5t103.5 -19.5q38 0 116.5 21.5t120.5 21.5
q205 0 289 -89q25 -26 45 -86q19 -56 19 -96q0 -79 -1 -213l-1 -214q0 -18 3 -54t3 -54z" />
    <glyph glyph-name="ograve" unicode="&#xf2;" horiz-adv-x="1054" 
d="M1001 428q0 -73 -28 -142q-128 -317 -459 -317q-110 0 -223 51q-125 56 -173 144q-30 55 -53 100q-36 70 -36 173q0 186 150 325q147 137 334 137q195 0 341.5 -139t146.5 -332zM713 439q0 94 -54.5 146.5t-148.5 52.5q-88 0 -141.5 -56.5t-53.5 -144.5q0 -87 55.5 -142
t142.5 -55q94 0 147 52.5t53 146.5zM744 1175q0 -79 -24 -108q-26 -33 -101 -33q-13 0 -58 1q-57 1 -70 1q-58 -1 -105 53q-3 3 -71 102q-48 70 -48 99q0 48 61 48q31 0 103 3q67 3 104 2q53 -1 129 -58q80 -60 80 -110z" />
    <glyph glyph-name="oacute" unicode="&#xf3;" 
d="M834 1290q0 -29 -48 -99l-71 -102q-48 -54 -106 -53q-12 0 -70 -1l-58 -1q-75 0 -101 33q-23 28 -23 108q0 50 80 110q76 57 129 58q37 1 104 -2q72 -3 103 -3q61 0 61 -48zM1001 428q0 -73 -28 -142q-128 -317 -459 -317q-110 0 -223 51q-125 56 -173 144
q-30 55 -53 100q-36 70 -36 173q0 186 150 325q147 137 334 137q195 0 341.5 -139t146.5 -332zM713 439q0 94 -54.5 146.5t-148.5 52.5q-88 0 -141.5 -56.5t-53.5 -144.5q0 -87 55.5 -142t142.5 -55q94 0 147 52.5t53 146.5z" />
    <glyph glyph-name="ocircumflex" unicode="&#xf4;" horiz-adv-x="1054" 
d="M1001 428q0 -73 -28 -142q-128 -317 -459 -317q-110 0 -223 51q-125 56 -173 144q-30 55 -53 100q-36 70 -36 173q0 186 150 325q147 137 334 137q195 0 341.5 -139t146.5 -332zM713 439q0 94 -54.5 146.5t-148.5 52.5q-88 0 -141.5 -56.5t-53.5 -144.5q0 -87 55.5 -142
t142.5 -55q94 0 147 52.5t53 146.5zM890 1225q0 -123 -27 -141q-14 -9 -155 -12q-25 30 -101 88q-65 50 -92 92q-28 -43 -92 -94q-79 -63 -102 -86q-41 18 -88 18h-21q-26 -1 -18 -1q-54 0 -54 109q0 51 384 291q67 -26 204 -115q162 -105 162 -149z" />
    <glyph glyph-name="otilde" unicode="&#xf5;" horiz-adv-x="1054" 
d="M1001 428q0 -73 -28 -142q-128 -317 -459 -317q-110 0 -223 51q-125 56 -173 144q-30 55 -53 100q-36 70 -36 173q0 186 150 325q147 137 334 137q195 0 341.5 -139t146.5 -332zM713 439q0 94 -54.5 146.5t-148.5 52.5q-88 0 -141.5 -56.5t-53.5 -144.5q0 -87 55.5 -142
t142.5 -55q94 0 147 52.5t53 146.5zM1062 1363q0 -29 -48 -99q-54 -78 -74 -99q-42 -44 -112 -52l-127 -1q-17 -1 -66 -2q-57 -1 -106 54q-5 6 -71 102q-8 12 -16 25q-5 -8 -17 -25q-66 -96 -71 -102q-50 -55 -106 -54q-23 0 -65 -2q-45 -3 -65 -3q-41 0 -50 50q-1 7 -1 82
q0 46 118 110q109 59 164 61q39 1 42 2q-10 1 -12 1q-10 1 -8 1q4 1 41 1q17 0 30 -4q12 4 29 4q67 0 46 1l40 -1q58 -1 148 -97q16 13 164 102q40 24 50 24q49 -31 82 -31q61 0 61 -48z" />
    <glyph glyph-name="odieresis" unicode="&#xf6;" horiz-adv-x="1067" 
d="M931 1215q0 -183 -79 -183q1 0 -152 14q-61 6 -77 49q-9 24 -9 102q0 88 28 117.5t116 29.5q95 0 127 -18q46 -26 46 -111zM482 1216q0 -184 -79 -184q1 0 -152 14q-61 6 -77 51q-9 25 -9 103q0 87 28.5 115.5t115.5 28.5q95 0 127 -18q46 -26 46 -110zM1003 437
q0 -144 -98 -269q-19 -24 -51 -63q-43 -52 -156 -91q-102 -35 -180 -35q-206 0 -346 137t-140 342q0 182 151 318q147 132 331 132q198 0 342 -136q147 -139 147 -335zM696 440q0 92 -51 145.5t-142 53.5q-85 0 -135 -57t-50 -143q0 -85 51 -136.5t136 -51.5q191 0 191 189z
" />
    <glyph glyph-name="divide" unicode="&#xf7;" horiz-adv-x="977" 
d="M924 368q0 -66 -57 -78q-8 -2 -324 0l-197 1q-37 0 -109 -5t-107 -5q-24 0 -46 15t-22 38q3 158 8 181q10 44 62 47q1 0 185 4q38 5 136 16q74 7 391 7q28 0 53 -19.5t25 -47.5zM631 811q0 -96 -19 -130q-26 -47 -113 -47q-181 0 -181 80q0 27 7.5 81.5t7.5 81.5
q0 53 56 68q27 7 102 7q83 0 111.5 -29t28.5 -112zM631 107q0 -96 -19 -130q-26 -47 -113 -47q-181 0 -181 80q0 27 7.5 81.5t7.5 81.5q0 53 56 68q27 7 102 7q83 0 111.5 -29t28.5 -112z" />
    <glyph glyph-name="oslash" unicode="&#xf8;" horiz-adv-x="1054" 
d="M693 429q0 92 -51 145.5t-142 53.5q-85 0 -135 -57.5t-50 -143.5q0 -84 52 -135.5t136 -51.5q190 0 190 189zM1070 767q-30 -25 -81 -77l-42 -52q54 -100 54 -210q0 -73 -28 -142q-128 -317 -458 -317q-117 0 -235 57q-43 -47 -88 -55q-11 -2 -106 1q-29 0 -88 1
q-99 3 -99 65q0 35 20 55q30 25 81 77q25 31 68 88l-3 6q-36 72 -36 173q0 186 150 325q147 137 334 137q109 0 211 -50q37 36 83 41q12 1 96 -2q29 0 88 -1q99 -3 99 -65q0 -35 -20 -55z" />
    <glyph glyph-name="ugrave" unicode="&#xf9;" horiz-adv-x="932" 
d="M880 46q0 -74 -131 -74q-32 0 -91 23t-90 23q-23 0 -90.5 -27.5t-109.5 -27.5q-73 0 -151 36q-177 82 -178 246l-2 311q0 21 2.5 64t2.5 64q0 19 -1.5 58t-1.5 58q0 59 57 76q30 9 107 9q109 0 107 -52q-6 -130 -6 -447q0 -66 34 -113q38 -53 102 -53q52 0 101 27
q57 32 57 81q-1 172 -3 322q0 24 -3 79q-3 51 -3 79q0 77 122 77q90 0 116 -12q46 -20 46 -94q0 -20 -1 -59t-1 -59v-498q0 -20 4.5 -58.5t4.5 -58.5zM674 1175q0 -79 -24 -108q-26 -33 -101 -33q-13 0 -58 1q-57 1 -70 1q-58 -1 -105 53q-3 3 -71 102q-48 70 -48 99
q0 48 61 48q31 0 103 3q67 3 104 2q53 -1 129 -58q80 -60 80 -110z" />
    <glyph glyph-name="uacute" unicode="&#xfa;" 
d="M834 1290q0 -29 -48 -99l-71 -102q-48 -54 -106 -53q-12 0 -69 -1l-59 -1q-75 0 -101 33q-23 28 -23 108q0 50 80 110q76 57 129 58q37 1 104 -2q72 -3 103 -3q61 0 61 -48zM880 46q0 -74 -131 -74q-32 0 -91 23t-90 23q-23 0 -90.5 -27.5t-109.5 -27.5q-73 0 -151 36
q-177 82 -178 246l-2 311q0 21 2.5 64t2.5 64q0 19 -1.5 58t-1.5 58q0 59 57 76q30 9 107 9q109 0 107 -52q-6 -130 -6 -447q0 -66 34 -113q38 -53 102 -53q52 0 101 27q57 32 57 81q-1 172 -3 322q0 24 -3 79q-3 51 -3 79q0 77 122 77q90 0 116 -12q46 -20 46 -94
q0 -20 -1 -59t-1 -59v-498q0 -20 4.5 -58.5t4.5 -58.5z" />
    <glyph glyph-name="ucircumflex" unicode="&#xfb;" horiz-adv-x="932" 
d="M880 46q0 -74 -131 -74q-32 0 -91 23t-90 23q-23 0 -90.5 -27.5t-109.5 -27.5q-73 0 -151 36q-177 82 -178 246l-2 311q0 21 2.5 64t2.5 64q0 19 -1.5 58t-1.5 58q0 59 57 76q30 9 107 9q109 0 107 -52q-6 -130 -6 -447q0 -66 34 -113q38 -53 102 -53q52 0 101 27
q57 32 57 81q-1 172 -3 322q0 24 -3 79q-3 51 -3 79q0 77 122 77q90 0 116 -12q46 -20 46 -94q0 -20 -1 -59t-1 -59v-498q0 -20 4.5 -58.5t4.5 -58.5zM860 1225q0 -123 -27 -141q-14 -9 -155 -12q-25 30 -101 88q-65 50 -92 92q-28 -43 -92 -94q-79 -63 -102 -86
q-41 18 -88 18h-21q-26 -1 -18 -1q-54 0 -54 109q0 51 384 291q67 -26 204 -115q162 -105 162 -149z" />
    <glyph glyph-name="udieresis" unicode="&#xfc;" horiz-adv-x="1001" 
d="M874 1322q0 -191 -76 -191q-11 1 -151 15q-62 6 -79 45q-10 23 -10 97q0 89 22 118q28 36 120 36q94 0 125 -15q49 -24 49 -105zM427 1315q0 -184 -79 -184q11 0 -153 15q-61 6 -77 50q-9 25 -9 102q0 87 28.5 116t115.5 29q95 0 127 -18q47 -26 47 -110zM896 56
q0 -73 -127 -73q-30 0 -86.5 19t-86.5 19q-38 0 -109.5 -26.5t-109.5 -26.5q-79 0 -154 42q-167 94 -168 246l-2 299q0 23 2 63q3 47 3 64q1 23 -1 65q-2 46 -2 64q0 72 57 75l156 8q22 1 40.5 -14t18.5 -36q0 -74 -3.5 -220.5t-3.5 -220.5q0 -71 34 -119q38 -54 106 -54
q52 0 100 27q56 32 55 82q-1 89 -3 322q0 24 -3 79q-3 52 -3 80q0 75 128 75q88 0 114 -14q40 -21 40 -97q0 -17 -1 -50.5t-1 -50.5q0 -20 2 -58q3 -41 3 -59q1 -75 -1 -197q-2 -133 -2 -197q0 -19 4 -58t4 -58zM741 689q0 8 -6 18q-11 7 -19 7t-8 -8q0 -26 24 -26l8 2
q1 3 1 7zM765 477l-2 8q-11 5 -24 5q-12 -6 -12 -15l2 -8q10 -5 23 -5q13 6 13 15z" />
    <glyph glyph-name="yacute" unicode="&#xfd;" horiz-adv-x="1111" 
d="M1080 811q0 -26 -38 -100q-49 -96 -53 -106q-12 -35 -46 -124q-13 -28 -44 -100q-62 -158 -244 -560l-64 -131q-33 -67 -147 -100q-86 -25 -185 -25q-92 0 -117 16q-35 22 -35 106q0 153 67 150l137 -6q53 0 82 62q16 31 47 93q27 56 27 100q0 46 -49 111q-17 23 -76 97
q-17 30 -63 106q-68 103 -246 372q-10 15 -10 35q0 23 87 38q63 11 109 11q78 0 124 -66l74 -134q30 -38 81 -115q9 -26 28 -79q23 -62 46 -62q6 0 16 4q44 18 62 70q9 30 28 90q31 69 70 168q31 79 37 88q28 43 79 43l153 -1q63 0 63 -51zM834 1290q0 -29 -48 -99l-71 -102
q-48 -54 -106 -53q-12 0 -69 -1l-59 -1q-75 0 -101 33q-23 28 -23 108q0 50 80 110q76 57 129 58q37 1 104 -2q72 -3 103 -3q61 0 61 -48z" />
    <glyph glyph-name="thorn" unicode="&#xfe;" horiz-adv-x="986" 
d="M939 423q0 -96 -46 -195q-49 -106 -125 -154l-85 -54q-69 -44 -180 -44q-40 0 -112 26.5t-100 26.5q-18 0 -17 -40l6 -287q0 -96 -23 -120.5t-118 -24.5q-98 0 -97 67l6 948q0 32 -4.5 94.5t-4.5 94.5q0 20 4 36q-3 22 -10 78q-6 69 -6 148q0 22 1 65t1 65q0 15 -2 45
t-2 45q0 123 69 123h153q8 0 23 3t23 3q34 0 34 -91q0 -70 -2 -229l-2 -229q1 0 77 24q51 16 92 16q187 0 317 -126.5t130 -313.5zM668 436q0 86 -64 147.5t-150 61.5q-101 0 -158 -92q-12 -39 -28 -66q-6 -26 -6 -53q0 -201 186 -201q94 0 155 54q65 57 65 149zM129 177
l-1 16l-2 4l-6 -4q-13 -28 -13 -62q0 -15 4 -19l5 3q15 32 13 62z" />
    <glyph glyph-name="ydieresis" unicode="&#xff;" horiz-adv-x="1111" 
d="M1080 811q0 -26 -38 -100q-49 -96 -53 -106q-12 -35 -47 -124q-12 -28 -43 -100q-62 -158 -244 -560l-64 -131q-32 -67 -148 -100q-86 -25 -185 -25q-92 0 -117 16q-35 22 -35 106q0 153 68 150l137 -6q52 0 82 62q15 31 46 93q28 58 28 100q0 46 -49 111q-17 23 -76 97
q-17 30 -63 106q-69 103 -246 372q-10 15 -10 35q0 23 86 38q63 11 110 11q82 0 123 -66q9 -14 75 -134q29 -38 81 -115q9 -26 28 -79q23 -62 45 -62q7 0 17 4q44 18 62 70q9 30 28 90q20 46 70 168q16 40 37 88q28 43 79 43l152 -1q64 0 64 -51zM964 1322q0 -191 -76 -191
q-11 1 -151 15q-62 6 -79 45q-10 23 -10 97q0 89 22 118q28 36 119 36q94 0 126 -15q49 -23 49 -105zM517 1315q0 -184 -80 -184q12 0 -152 15q-61 6 -77 50q-9 25 -9 102q0 87 28.5 116t115.5 29q95 0 127 -18q47 -26 47 -110z" />
    <glyph glyph-name="dotlessi" unicode="&#x131;" horiz-adv-x="505" 
d="M345 49q0 -24 -14 -44q-16 -23 -39 -23q-157 2 -172 4q-46 7 -54 52q-4 22 -4 173q0 24 -7.5 71.5t-8.5 69.5q-6 88 -6 148q0 22 1 65t1 65q0 15 -2 45t-2 45q0 123 69 123h153q8 0 23 3t23 3q34 0 34 -91q0 -80 -2 -241l-2 -240q0 -38 4.5 -114t4.5 -114z" />
    <glyph glyph-name="Lslash" unicode="&#x141;" horiz-adv-x="1190" 
d="M1059 249q0 -23 -5 -70t-5 -70q0 -9 1.5 -28t1.5 -28q0 -55 -44 -71q-24 -9 -91 -9q-72 0 -214.5 9.5t-214.5 9.5q-59 0 -177.5 -3t-177.5 -3q-78 0 -78 59q0 18 3.5 51.5t3.5 47.5q5 149 5 319q-15 -6 -43 -17q-19 -6 -53 2q-37 9 -36 29l14 188q10 23 109 58q3 67 3 94
q0 28 -4 85t-4 85q0 18 2 54.5t2 54.5q0 25 -5 74t-5 74q0 72 56 75l202 10q87 0 87 -69q0 -27 -8 -78.5t-8 -76.5q-1 -77 0 -253q29 9 104 33q44 14 77 14q40 0 40 -38q0 -22 -9 -66t-9 -66q0 -10 2 -19q13 -57 -26 -82q-21 -13 -181 -61q-1 -69 -1 -117q0 -15 -4.5 -44.5
t-4.5 -44.5q0 -64 70 -64q25 0 75.5 7t75.5 7q27 0 82 -5t82 -5q35 0 105.5 6t105.5 6q99 0 99 -64z" />
    <glyph glyph-name="lslash" unicode="&#x142;" horiz-adv-x="551" 
d="M337 1309q0 -21 -4 -68t-5 -66q-1 -23 -1 -285v-55q20 2 63 10q43 14 77 14q40 0 40 -38q0 -22 -9 -66t-9 -66q0 -10 2 -19q13 -58 -26 -82q-51 -12 -138 -35q0 -102 -1 -223q0 -22 -3 -66.5t-3 -67.5q0 -28 7.5 -83.5t7.5 -83.5q0 -39 -50 -40l-158 -2q-88 -1 -88 80
q0 12 1.5 39t1.5 42q-5 215 -5 286v17l-13 -5q-17 -7 -53.5 2t-35.5 29l13 183q9 28 91 57l3 433q0 25 -10.5 74t-10.5 74q0 53 53 55l190 8q73 0 73 -52z" />
    <glyph glyph-name="OE" unicode="&#x152;" horiz-adv-x="2243" 
d="M279 974l-1 4q-8 4 -19 4q-35 0 -35 -19l1 -3q8 -5 19 -5q35 0 35 19zM1092 463q1 49 1 87q0 29 -2.5 87t-2.5 87q0 61 2 152q-36 51 -119 130l-64 38q-67 40 -175 40q-95 0 -143 -19q-43 -17 -123 -81q-52 -41 -74 -85q-69 -134 -69 -204q0 -104 34 -197
q40 -111 115 -159l70 -45q76 -49 181 -49q129 0 196 45l85 57q25 17 88 116zM2170 1200q0 -167 -65 -164q-119 6 -277 6q-49 0 -146.5 2t-146.5 2q-16 0 -47 5t-47 5q-79 0 -79 -155q0 -96 113 -96q56 0 167 2t167 2q29 0 87 3.5t87 3.5q57 0 74 -42q10 -25 10 -93
q0 -128 -56 -128q-54 0 -162.5 4.5t-162.5 4.5q-16 0 -49 -2t-49 -2q-24 0 -71.5 3.5t-71.5 3.5q-77 0 -77 -110v-45q2 -8 2 -17v-7q9 -105 60 -103q216 10 408 10q18 0 52.5 -4t52.5 -4q25 0 74.5 6t74.5 6q61 0 60 -46q-1 -36 0 -55q1 -36 1 -51q0 -81 -30 -113
q-32 -35 -113 -35q-23 0 -68.5 6.5t-68.5 6.5q-74 0 -220.5 -5t-220.5 -5q-23 0 -67.5 2.5t-67.5 2.5q-20 0 -61 -4t-61 -4q-83 0 -89 63q-169 -100 -357 -100q-273 0 -466 183q-61 58 -83 88q-27 37 -92 193q-37 89 -37 276q0 135 75.5 281.5t185.5 224.5q102 72 291 128
q84 25 133 25q48 0 110 -15q39 -9 139 -37q14 -4 108 -56q12 72 116 72q17 0 51 -2.5t51 -2.5l195 -1q21 0 63.5 4t64.5 4l321 -1q15 0 53 -1q35 -1 53 -1q71 0 92 -29q17 -23 17 -93z" />
    <glyph glyph-name="oe" unicode="&#x153;" horiz-adv-x="1693" 
d="M712 429q0 92 -51 145.5t-142 53.5q-85 0 -135 -57.5t-50 -143.5q0 -84 52 -135.5t136 -51.5q190 0 190 189zM1638 437q0 -88 -61 -88q-20 0 -59.5 9t-59.5 9q-27 0 -81 -10.5t-81 -10.5q-28 0 -83 7.5t-83 7.5q-125 0 -125 -52q0 -51 64 -90q56 -34 111 -34q70 0 149 51
t88 51q42 0 97 -24q66 -29 66 -62q0 -41 -88 -106q-19 -13 -112 -73q-64 -42 -213 -42q-97 0 -191 52q-74 41 -106 67q-132 -130 -336 -130q-110 0 -223 51q-127 57 -174 144q-31 57 -53 100q-36 69 -36 173q0 186 150 325q147 137 334 137t331 -131q44 38 91 55l117 42
q50 18 111 18q113 0 193 -45q122 -68 164 -120.5t86 -186.5q13 -40 13 -94zM1111 757q0 34 -61 34q-24 0 -24 -17q0 -33 61 -33q11 0 21 8q3 4 3 8zM1370 575q0 52 -71 91q-62 34 -119 34q-54 0 -109 -28q-65 -33 -65 -82q0 -15 16.5 -27t32.5 -12l214 1q10 0 31 -3t31 -3
q39 0 39 29zM1106 433l-2 7q-11 6 -23 6q-13 -6 -13 -16l2 -8q11 -5 23 -5q13 7 13 16z" />
    <glyph glyph-name="Scaron" unicode="&#x160;" horiz-adv-x="1195" 
d="M1154 361q0 -64 -24 -129q-103 -278 -521 -278q-174 0 -462 174q-23 12 -68 38q-40 25 -40 61q0 32 45 72q55 49 63 66l24 51q15 32 48 32q19 0 88 -58q88 -74 152 -108q110 -59 219 -59q53 0 107 29q62 33 62 83q0 107 -307 214l-20 7q-55 19 -191 68q-33 12 -90 68
q-84 82 -108 125q-34 61 -34 159q0 84 72 187t151 133q154 59 234 59q192 0 391 -116q24 -14 67 -38q40 -30 40 -61q0 -24 -39 -73q-19 -23 -56 -69q-48 -61 -74 -61q-17 0 -59 30q-55 39 -97 56q-73 30 -164 30q-125 0 -125 -86q0 -87 127 -137q62 -20 185 -62
q19 -6 109 -51q140 -69 205 -136q90 -92 90 -220zM239 1644q0 123 27 141q14 9 155 12q25 -30 101 -88q65 -50 92 -92q28 43 92 94q79 63 102 86q41 -18 88 -18h21q26 1 18 1q54 0 54 -109q0 -51 -384 -291q-67 26 -204 115q-162 105 -162 149z" />
    <glyph glyph-name="scaron" unicode="&#x161;" horiz-adv-x="806" 
d="M774 244q0 -123 -106 -197q-94 -66 -221 -66q-75 0 -280 72q-86 30 -92 33q-59 29 -59 72q0 37 37 91.5t72 54.5q15 0 125.5 -52.5t164.5 -52.5q86 0 86 48q0 46 -80 71q-21 7 -112 31q-252 97 -252 243q0 160 184 242q67 30 198 30q69 0 156 -22q118 -30 118 -79
q0 -35 -36.5 -82t-70.5 -47q-28 0 -88 20.5t-91 20.5q-36 0 -72 -13q-47 -17 -47 -46q0 -43 90 -68q60 -16 180 -52q86 -29 139 -95q57 -69 57 -157zM30 1257q0 123 27 141q14 9 155 12q25 -30 101 -88q65 -50 92 -92q28 43 92 94q79 63 102 86q41 -18 88 -18h21q26 1 18 1
q54 0 54 -109q0 -51 -384 -291q-67 26 -204 115q-162 105 -162 149z" />
    <glyph glyph-name="Ydieresis" unicode="&#x178;" horiz-adv-x="1373" 
d="M1318 1319q0 -23 -74 -107q-46 -68 -122 -176q-78 -121 -239 -359q-86 -120 -89 -128q-16 -36 -16 -148q0 -52 10 -156t10 -156q0 -108 -85 -106q-30 1 -179 5q-63 2 -63 53q0 24 3 72t3 72q0 31 -1 92t-1 92q0 107 -40 177q-32 51 -96 152q-36 58 -117 194
q-15 32 -48 94l-102 153q-74 113 -74 153q0 49 46 51l187 10q6 0 19 2t20 2q55 0 79 -46q18 -45 37 -90q18 -29 55 -86q70 -137 154 -292q16 -29 29 -29q18 0 30 16q27 48 59 99q37 56 132 203q27 44 81 133q31 50 75 69q49 21 147 21h112q58 0 58 -36zM1064 1592
q0 -191 -76 -191q-11 1 -151 15q-62 6 -79 45q-10 23 -10 97q0 89 22 118q28 36 119 36q94 0 126 -15q49 -23 49 -105zM617 1585q0 -184 -80 -184q11 0 -152 15q-61 6 -77 50q-9 25 -9 102q0 87 28.5 116t115.5 29q95 0 127 -18q47 -26 47 -110z" />
    <glyph glyph-name="Zcaron" unicode="&#x17d;" horiz-adv-x="1325" 
d="M1267 1287q0 -31 -54 -98q-18 -22 -78 -93q-55 -90 -172 -264q-22 -26 -61 -79q-17 -32 -53 -93q-24 -28 -68 -87q-18 -30 -55 -88q-7 -8 -51 -63q-37 -46 -37 -64q0 -30 67 -30q23 0 67.5 3.5t67.5 3.5q27 0 80 -4.5t80 -4.5q32 0 94.5 12.5t94.5 12.5q72 0 72 -86
l-1 -198q0 -71 -53 -71q-20 0 -58.5 4.5t-58.5 4.5q-27 0 -80 -6t-80 -6q-84 0 -251.5 2.5t-251.5 2.5q-52 0 -155 -7t-155 -7q-62 0 -62 54q0 32 45 91q23 28 67 85q66 89 110 166q15 28 54 98l66 81q29 50 113 174q53 68 188 249q8 11 8 28q0 33 -62 33q-79 0 -235.5 -21
t-235.5 -21q-111 0 -111 79q0 30 11 139q7 67 41 88q26 16 95 16q22 0 66 -2.5t66 -2.5q68 0 204.5 2t204.5 2q15 0 50 4q23 3 50 4q202 10 316 10q101 0 101 -53zM1078 113q0 30 -73 30q-15 0 -23 -5q0 -30 73 -30q14 0 23 5zM305 1665q0 124 27 141q13 8 156 12
q27 -32 100 -88q67 -52 93 -93q28 45 92 95q81 64 101 86q41 -19 89 -19q-5 0 21 1h18q53 0 53 -108q0 -51 -383 -291q-68 26 -204 114q-163 105 -163 150z" />
    <glyph glyph-name="zcaron" unicode="&#x17e;" horiz-adv-x="917" 
d="M888 137q0 -122 -77 -125l-237 -9q-329 -13 -474 -13q-67 0 -67 47q0 19 32 60l46 59q16 34 52 98q28 27 77 84q14 32 46 92q18 21 53.5 62.5t35.5 67.5q0 36 -58 36q-36 -2 -213 -8q-24 -1 -46.5 20.5t-22.5 45.5q0 147 16 172q23 35 146 35q49 0 145.5 1.5t145.5 1.5
q22 0 77 -3q49 -2 77 -1l172 5q62 2 62 -48q0 -11 -4 -22q-7 -19 -72 -92q-17 -26 -61 -92l-73 -110q-20 -31 -61 -92l-53 -53q-35 -36 -35 -60q0 -48 78 -40l216 22q77 0 77 -141zM427 703l-4 7q-23 9 -50 9q-5 -1 -15 -4l5 -7q22 -9 49 -9q6 1 15 4zM110 1336
q0 124 27 141q13 8 156 12q27 -32 100 -88q67 -52 93 -93q28 45 92 95q81 64 101 86q41 -19 89 -19q-5 0 21 1h18q53 0 53 -108q0 -51 -383 -291q-68 26 -204 114q-163 105 -163 150z" />
    <glyph glyph-name="circumflex" unicode="&#x2c6;" 
d="M860 1225q0 -123 -27 -141q-14 -9 -155 -12q-25 30 -101 88q-65 50 -92 92q-28 -43 -92 -94q-79 -63 -102 -86q-41 18 -88 18h-21q-26 -1 -18 -1q-54 0 -54 109q0 51 384 291q67 -26 204 -115q162 -105 162 -149z" />
    <glyph glyph-name="caron" unicode="&#x2c7;" 
d="M110 1336q0 124 27 141q13 8 156 12q27 -32 100 -88q67 -52 93 -93q28 45 92 95q81 64 101 86q41 -19 89 -19q-5 0 21 1h18q53 0 53 -108q0 -51 -383 -291q-68 26 -204 114q-163 105 -163 150z" />
    <glyph glyph-name="breve" unicode="&#x2d8;" 
d="M110 1336q0 124 27 141q13 8 156 12q27 -32 100 -88q67 -52 93 -93q28 45 92 95q81 64 101 86q41 -19 89 -19q-5 0 21 1h18q53 0 53 -108q0 -51 -383 -291q-68 26 -204 114q-163 105 -163 150z" />
    <glyph glyph-name="dotaccent" unicode="&#x2d9;" horiz-adv-x="375" 
d="M338 1340q0 -190 -77 -190q-16 1 -151 15q-61 6 -79 47q-10 23 -10 97q0 89 23 117q28 34 119 34q97 0 126 -14q49 -23 49 -106z" />
    <glyph glyph-name="ring" unicode="&#x2da;" 
d="M685 1161q0 -190 -190 -190q-84 0 -136 51.5t-52 135.5q0 87 49 142q51 59 136 59q91 0 142 -53.5t51 -144.5zM577 1162q0 80 -78 80q-75 0 -75 -81q0 -75 76 -75q77 0 77 76z" />
    <glyph glyph-name="ogonek" unicode="&#x2db;" horiz-adv-x="375" 
d="M33 -336q-3 -26 16.5 -53t45.5 -27t74 37l69 54q83 62 98 87q20 34 20 126q0 90 -41 117q-29 19 -120 19q-155 0 -153 -68l5 -181q-2 -19 -14 -111z" />
    <glyph glyph-name="tilde" unicode="&#x2dc;" 
d="M571 1290q0 -28 -49 -99l-71 -102q-48 -54 -105 -53q-12 0 -70 -1l-58 -1q-75 0 -101 33q-24 29 -24 108q0 50 80 110q77 57 130 58q37 1 104 -2q72 -3 103 -3q61 0 61 -48zM1089 1290q0 -28 -49 -99l-71 -102q-48 -54 -105 -53q-12 0 -70 -1l-58 -1q-75 0 -101 33
q-24 29 -24 108q0 50 80 110q77 57 130 58q37 1 104 -2q72 -3 103 -3q61 0 61 -48z" />
    <glyph glyph-name="hungarumlaut" unicode="&#x2dd;" 
d="M571 1290q0 -28 -49 -99l-71 -102q-48 -54 -105 -53q-12 0 -70 -1l-58 -1q-75 0 -101 33q-24 29 -24 108q0 50 80 110q77 57 130 58q37 1 104 -2q72 -3 103 -3q61 0 61 -48zM1089 1290q0 -28 -49 -99l-71 -102q-48 -54 -105 -53q-12 0 -70 -1l-58 -1q-75 0 -101 33
q-24 29 -24 108q0 50 80 110q77 57 130 58q37 1 104 -2q72 -3 103 -3q61 0 61 -48z" />
    <glyph glyph-name="endash" unicode="&#x2013;" horiz-adv-x="726" 
d="M646 368q0 -66 -42 -78q-6 -2 -237 0l-144 1q-27 0 -79 -5t-78 -5q-51 0 -50 53q2 159 6 181q7 42 45 47l135 4q28 5 100 16q54 7 285 7q23 0 40.5 -21.5t17.5 -45.5q1 -64 1 -154z" />
    <glyph glyph-name="emdash" unicode="&#x2014;" horiz-adv-x="1429" 
d="M1328 368q0 -66 -81 -78q-7 -1 -459 0l-278 1q-56 0 -153 -5q-103 -5 -153 -5q-30 0 -59 12q-38 16 -37 41q4 158 12 181q15 45 87 47q87 0 262 4q53 5 193 16q105 7 552 7q34 0 69 -16q41 -20 42 -51z" />
    <glyph glyph-name="quoteleft" unicode="&#x2018;" 
d="M834 1290q0 -29 -48 -99l-71 -102q-48 -54 -106 -53q-12 0 -69 -1l-59 -1q-75 0 -101 33q-23 28 -23 108q0 50 80 110q76 57 129 58q37 1 104 -2q72 -3 103 -3q61 0 61 -48z" />
    <glyph glyph-name="quoteright" unicode="&#x2019;" horiz-adv-x="624" 
d="M571 1204q0 -50 -80 -110q-76 -57 -130 -58q-38 -1 -103 1q-75 3 -103 3q-62 0 -62 49q0 28 49 99l71 102q49 54 105 53q34 -1 70 0l58 1q76 0 102 -32q23 -28 23 -108z" />
    <glyph glyph-name="quotesinglbase" unicode="&#x201a;" horiz-adv-x="406" 
d="M331 -65q0 -61 -49 -61q-29 0 -99 48l-102 71q-54 49 -53 106q1 34 0 69l-1 59q0 69 23 93q29 31 117 31q152 0 154 -76q1 -35 6 -170q4 -107 4 -170z" />
    <glyph glyph-name="quotedblleft" unicode="&#x201c;" 
d="M571 1290q0 -28 -49 -99l-71 -102q-48 -54 -105 -53q-12 0 -70 -1l-58 -1q-75 0 -101 33q-24 29 -24 108q0 50 80 110q77 57 130 58q37 1 104 -2q72 -3 103 -3q61 0 61 -48zM1089 1290q0 -28 -49 -99l-71 -102q-48 -54 -105 -53q-12 0 -70 -1l-58 -1q-75 0 -101 33
q-24 29 -24 108q0 50 80 110q77 57 130 58q37 1 104 -2q72 -3 103 -3q61 0 61 -48z" />
    <glyph glyph-name="quotedblright" unicode="&#x201d;" 
d="M1089 1204q0 -50 -80 -110q-76 -57 -130 -58q-38 -1 -103 1q-75 3 -103 3q-62 0 -62 49q0 28 49 99l71 102q49 54 105 53q34 -1 70 0l58 1q76 0 102 -32q23 -28 23 -108zM571 1204q0 -50 -80 -110q-76 -57 -130 -58q-38 -1 -103 1q-75 3 -103 3q-62 0 -62 49q0 28 49 99
l71 102q49 54 105 53q34 -1 70 0l58 1q76 0 102 -32q23 -28 23 -108z" />
    <glyph glyph-name="quotedblbase" unicode="&#x201e;" horiz-adv-x="793" 
d="M716 -65q0 -61 -49 -61q-28 0 -98 48q-97 67 -102 71q-55 50 -54 106q1 34 0 69l-1 59q0 69 23 93q29 31 117 31q152 0 154 -76q1 -35 6 -170q4 -107 4 -170zM331 -65q0 -61 -49 -61q-29 0 -99 48l-102 71q-54 49 -53 106q1 34 0 69l-1 59q0 69 23 93q29 31 117 31
q152 0 154 -76q1 -35 6 -170q4 -107 4 -170z" />
    <glyph glyph-name="dagger" unicode="&#x2020;" horiz-adv-x="610" 
d="M544 794q0 -66 -57 -78q-18 -4 -84 8h-9l-3 -645q0 -32 -23 -61.5t-54 -31.5l-179 -10q-72 0 -72 65q0 24 6.5 71.5t6.5 71.5q0 35 -1.5 104t-1.5 104q0 22 4 61q3 44 4 62q2 65 2 205q-58 -4 -92 -4q-25 0 -45 14q-23 16 -23 39v141q3 51 33 69t124 19l-5 283
q0 26 25.5 47t52.5 22l174 4q77 0 77 -71q0 -26 -6 -78q-5 -46 -6 -78q-1 -31 2 -109q14 -3 70 -3q28 0 53 -20t25 -47z" />
    <glyph glyph-name="bullet" unicode="&#x2022;" horiz-adv-x="1054" 
d="M693 429q0 -189 -190 -189q-84 0 -136 51.5t-52 135.5q0 86 50 143.5t135 57.5q193 0 193 -199z" />
    <glyph glyph-name="ellipsis" unicode="&#x2026;" horiz-adv-x="1353" 
d="M1347 85q0 -184 -79 -184q8 0 -153 14q-61 5 -77 51q-9 25 -9 103q0 86 29 114.5t115 28.5q96 0 127 -17q47 -26 47 -110zM466 91q0 -190 -77 -190q-11 1 -151 15q-62 6 -79 47q-10 24 -10 97q0 90 23 118q28 34 119 34q95 0 126 -15q49 -24 49 -106zM915 85
q0 -184 -78 -184q-25 3 -154 14q-61 5 -77 51q-8 22 -8 103q0 86 28.5 114.5t114.5 28.5q96 0 127 -17q47 -26 47 -110z" />
    <glyph glyph-name="perthousand" unicode="&#x2030;" horiz-adv-x="2062" 
d="M628 1119q0 -47 -18 -92q-82 -204 -295 -204q-71 0 -144 33q-81 36 -112 93q-57 106 -57 176q0 120 97 209q94 88 215 88q125 0 219.5 -89.5t94.5 -213.5zM1383 1419q-7 -23 -227 -308l-226 -293q-117 -160 -427 -571q-52 -62 -165 -201q-26 -48 -58 -102
q-16 -26 -60 -67q-50 -46 -71 -39q-40 14 -92 14q-19 0 -57 -3.5t-57 -3.5q-39 0 -35 27q8 48 205 334q194 281 228 306q25 19 174 232l335 480q92 128 180 199q107 86 212 86q43 0 88 -14q56 -17 56 -60q0 -6 -3 -16zM1997 219q0 -49 -17 -91q-82 -205 -296 -205
q-72 0 -144 33q-80 36 -111 93q-58 106 -58 176q0 120 97 209q94 88 215 88q126 0 220 -89t94 -214zM388 1116q0 81 -78 81q-75 0 -75 -82q0 -75 76 -75q77 0 77 76zM1757 217q0 80 -78 80q-75 0 -75 -81q0 -76 76 -76q77 0 77 77zM1292 219q0 -49 -17 -91
q-82 -205 -296 -205q-72 0 -144 33q-80 36 -111 93q-58 106 -58 176q0 120 97 209q94 88 215 88q126 0 220 -89t94 -214zM1052 217q0 80 -78 80q-75 0 -75 -81q0 -76 76 -76q77 0 77 77z" />
    <glyph glyph-name="guilsinglleft" unicode="&#x2039;" horiz-adv-x="673" 
d="M467 205q-158 139 -302 257q-31 22 -92 67q-83 62 -85 85q-8 88 81 158q59 44 175 132q69 53 219 196q161 -67 161 -156q0 -67 -89 -138l-88 -56q-15 -33 -55 -50q-35 -15 -35 -23q0 -10 23 -31q10 -41 81 -103q100 -58 115 -69q66 -49 66 -98q0 -81 -175 -171z" />
    <glyph glyph-name="guilsinglright" unicode="&#x203a;" horiz-adv-x="749" 
d="M714 614q-2 -23 -85 -85q-31 -22 -92 -67q-34 -25 -302 -257q-176 90 -176 171q0 49 67 98q16 12 115 69q43 37 50 45q23 26 31 58q23 21 23 31q0 8 -35 23q-40 17 -56 50l-88 56q-89 71 -89 138q0 89 161 156q40 -45 109 -103q36 -32 111 -93q59 -43 174 -132
q89 -71 82 -158z" />
    <glyph glyph-name="Euro" unicode="&#x20ac;" horiz-adv-x="1422" 
d="M842 413q0 -66 -45 -78q-11 -3 -168 1q-1 -18 17 -51q62 -50 148 -50q105 0 160 46l69 58q23 20 68 110q36 72 71 72q18 0 116 -62q45 -28 45 -73q0 -39 -42.5 -107t-107.5 -158q-160 -177 -375 -177q-224 0 -381 186q-78 92 -116 202q-65 -5 -112 -5q-55 0 -54 53
q2 153 20 180q12 18 90 19q-1 19 -1 88q-19 -1 -55 -1q-55 0 -54 53q2 150 6 168q7 34 49 34q17 0 50.5 -1.5t50.5 -1.5q3 23 9 55q57 155 157 243q84 74 238 131q70 26 109 26q40 0 90 -15q57 -17 114 -38q10 -5 83 -55q83 -57 93 -71l59 -84q53 -75 53 -107q0 -55 -57 -77
q-25 -10 -46 -31q-26 -26 -37.5 -33t-23.5 -7q-27 0 -66 64q-48 77 -69 93l-53 39q-54 40 -143 40q-72 0 -100 -23q-36 -39 -72 -79q-5 -20 -13 -45h162q62 0 63 -37q1 -69 1 -155q0 -65 -45 -78q-41 -11 -259 0l-19 1q0 -30 -1 -74q50 4 260 4q62 0 63 -37q1 -69 1 -155z
" />
    <glyph glyph-name="trademark" unicode="&#x2122;" horiz-adv-x="900" 
d="M347 1353q0 -19 -19 -17l-57 5q-24 0 -23 -19l1 -68q0 -11 -1 -33t-1 -33q0 -8 2.5 -22.5t2.5 -21.5q0 -6 -1 -18t-1 -18q0 -7 1 -21.5t1 -22.5q0 -19 -18 -19h-45q-25 0 -25 28l1 203q0 7 1 22t1 23q0 22 -22 20q-51 -5 -61 -6q-26 0 -26 29q0 31 5 39q7 12 34 12h29
q19 -1 29 -1q5 0 15.5 1t16.5 1q5 0 15 -1h16q8 0 27 -1q18 -1 28 0q9 0 27 3.5t27 3.5q15 0 17 -18zM804 1394q0 -7 -1 -18l-1 -18q-1 -5 -1 -72q0 -7 -1 -21t-1 -21v-48q0 -6 1 -17.5t1 -17.5q0 -10 -1 -28.5t-1 -28.5q0 -6 1 -18.5t1 -19.5q0 -26 -17 -26l-44 1
q-24 1 -24 24q0 9 1 26t1 25q1 11 0 21v21q0 30 1 79q0 12 -3 12q-4 0 -7 -4q-53 -80 -118 -180q-5 -8 -11 -8q-8 0 -24 30l-42 63l-16 23l-15 27q-14 22 -21 22t-7 -15q0 -9 2 -26t2 -25v-22q-1 -15 -1 -22q0 -10 1.5 -30t1.5 -30q0 -12 -18 -12h-45q-22 0 -22 17v16
q1 11 1 16q0 62 -4 157l-2 58q0 14 1 41v41q0 28 40 28q28 0 36 -10q9 -19 18 -37q6 -7 19 -25q4 -7 16 -26q5 -7 17 -24q23 -34 50 -83q4 -7 10 -7q8 0 26 29q17 25 38 55l21 28q5 10 18 30q7 8 19 26q13 25 15 26q8 11 25 12l43 3q21 0 21 -17zM476 1358q-1 8 -7 10l-2 -2
q0 -9 7 -11z" />
    <glyph glyph-name="summation" unicode="&#x2211;" horiz-adv-x="649" 
d="M662 104q0 -62 -63 -62t-63 62q0 63 63 63t63 -63z" />
    <glyph glyph-name="minus" unicode="&#x2212;" horiz-adv-x="977" 
d="M924 368q0 -66 -57 -78q-8 -2 -324 0l-197 1q-37 0 -109 -5t-107 -5q-24 0 -46 15t-22 38q3 158 8 181q10 44 62 47q1 0 185 4q38 5 136 16q74 7 391 7q28 0 53 -19.5t25 -47.5z" />
    <glyph glyph-name="fraction" unicode="&#x2215;" horiz-adv-x="805" 
d="M833 1396q0 -24 -87 -243q-32 -76 -92 -228q-65 -187 -241 -671q-31 -75 -98 -241l-27 -114q-5 -23 -29 -41.5t-47 -17.5q-30 1 -83 -4q-58 -5 -83 -5q-50 0 -55 36q-6 46 80 306q84 252 110 287q17 22 98 273l94 290q25 79 77 237q36 99 100 144q71 49 210 49
q73 0 73 -57z" />
    <glyph glyph-name="approxequal" unicode="&#x2248;" 
d="M1002 415q0 -29 -48 -99q-56 -81 -74 -100q-48 -50 -107 -50q-19 0 -60 -1q-49 -1 -72 -1q-17 -1 -66 -2q-57 -1 -106 53q-14 18 -71 102q-3 5 -16 26q-5 -8 -17 -26l-71 -102q-49 -54 -106 -53q-23 0 -65 -2q-45 -3 -65 -3q-41 0 -50 49q-1 8 -1 82q0 47 117 111
q109 59 165 60q37 1 42 3q-10 1 -12 1q-10 1 -8 1q4 1 41 1q17 0 30 -5q12 5 29 5h46l40 -1q59 -1 148 -96q11 9 164 101q42 25 50 25q49 -31 82 -31q61 0 61 -48zM1002 784q0 -29 -48 -99q-56 -81 -74 -100q-48 -50 -107 -50q-19 0 -60 -1q-49 -1 -72 -1q-17 -1 -66 -2
q-57 -1 -106 53q-14 18 -71 102q-3 5 -16 26q-5 -8 -17 -26l-71 -102q-49 -54 -106 -53q-23 0 -65 -2q-45 -3 -65 -3q-41 0 -50 49q-1 8 -1 82q0 47 117 111q109 59 165 60q37 1 42 3q-10 1 -12 1q-10 1 -8 1q4 1 41 1q17 0 30 -5q12 5 29 5h46l40 -1q59 -1 148 -96
q11 9 164 101q42 25 50 25q49 -31 82 -31q61 0 61 -48z" />
    <glyph glyph-name="approxequal" unicode="&#x22f2;" 
d="M1002 415q0 -29 -48 -99q-56 -81 -74 -100q-48 -50 -107 -50q-19 0 -60 -1q-49 -1 -72 -1q-17 -1 -66 -2q-57 -1 -106 53q-14 18 -71 102q-3 5 -16 26q-5 -8 -17 -26l-71 -102q-49 -54 -106 -53q-23 0 -65 -2q-45 -3 -65 -3q-41 0 -50 49q-1 8 -1 82q0 47 117 111
q109 59 165 60q37 1 42 3q-10 1 -12 1q-10 1 -8 1q4 1 41 1q17 0 30 -5q12 5 29 5h46l40 -1q59 -1 148 -96q11 9 164 101q42 25 50 25q49 -31 82 -31q61 0 61 -48zM1002 784q0 -29 -48 -99q-56 -81 -74 -100q-48 -50 -107 -50q-19 0 -60 -1q-49 -1 -72 -1q-17 -1 -66 -2
q-57 -1 -106 53q-14 18 -71 102q-3 5 -16 26q-5 -8 -17 -26l-71 -102q-49 -54 -106 -53q-23 0 -65 -2q-45 -3 -65 -3q-41 0 -50 49q-1 8 -1 82q0 47 117 111q109 59 165 60q37 1 42 3q-10 1 -12 1q-10 1 -8 1q4 1 41 1q17 0 30 -5q12 5 29 5h46l40 -1q59 -1 148 -96
q11 9 164 101q42 25 50 25q49 -31 82 -31q61 0 61 -48z" />
    <glyph glyph-name="lessequal" unicode="&#x2264;" horiz-adv-x="795" 
d="M704 138q0 -66 -57 -78q-3 -1 -134 0l-197 1q-37 0 -109 -5t-107 -5q-24 0 -46 15t-22 38q3 158 8 181q10 44 62 47q1 0 185 4q142 19 223 21q47 2 114 2q28 0 53 -20t25 -47zM467 405q-158 139 -302 257q-31 22 -92 67q-83 62 -85 85q-8 88 81 158q59 44 175 132
q69 53 219 196q161 -67 161 -156q0 -67 -89 -138l-88 -56q-15 -33 -55 -50q-35 -15 -35 -23q0 -10 23 -31q10 -41 81 -103q100 -58 115 -69q66 -49 66 -98q0 -81 -175 -171z" />
    <glyph glyph-name="greaterequal" unicode="&#x2265;" horiz-adv-x="795" 
d="M704 814q-2 -23 -85 -85q-31 -22 -92 -67q-28 -21 -302 -257q-176 90 -176 171q0 49 67 98q16 12 115 69q43 37 50 45q23 26 31 58q23 21 23 31q0 8 -35 23q-40 17 -55 50l-88 56q-90 71 -90 138q0 89 161 156q40 -45 109 -103q36 -32 111 -93q59 -43 175 -132
q89 -70 81 -158zM660 138q0 -66 -57 -78q-3 -1 -135 0l-196 1q-37 0 -109 -5t-107 -5q-24 0 -45 14q-24 16 -23 39q4 162 8 181q10 45 61 47q62 1 186 4q135 18 217 21q49 2 119 2q28 0 53.5 -19.5t25.5 -47.5z" />
    <glyph glyph-name="lozenge" unicode="&#x25ca;" horiz-adv-x="2047" 
 />
    </font>
</defs>
</svg>
