<?xml version="1.0" encoding="UTF-8" standalone="no"?>
<svg
   xmlns:dc="http://purl.org/dc/elements/1.1/"
   xmlns:cc="http://creativecommons.org/ns#"
   xmlns:rdf="http://www.w3.org/1999/02/22-rdf-syntax-ns#"
   xmlns:svg="http://www.w3.org/2000/svg"
   xmlns="http://www.w3.org/2000/svg"
   xmlns:sodipodi="http://sodipodi.sourceforge.net/DTD/sodipodi-0.dtd"
   xmlns:inkscape="http://www.inkscape.org/namespaces/inkscape"
   sodipodi:docname="1_left.svg"
   inkscape:version="1.0 (4035a4fb49, 2020-05-01)"
   id="svg1019"
   version="1.1"
   viewBox="0 0 77.233406 2.9498575"
   height="2.9498575mm"
   width="77.233406mm">
  <defs
     id="defs1013" />
  <sodipodi:namedview
     inkscape:window-maximized="0"
     inkscape:window-y="0"
     inkscape:window-x="160"
     inkscape:window-height="1019"
     inkscape:window-width="1635"
     showgrid="false"
     inkscape:document-rotation="0"
     inkscape:current-layer="layer1"
     inkscape:document-units="mm"
     inkscape:cy="534.14863"
     inkscape:cx="380.23858"
     inkscape:zoom="0.35"
     inkscape:pageshadow="2"
     inkscape:pageopacity="0.0"
     borderopacity="1.0"
     bordercolor="#666666"
     pagecolor="#ffffff"
     id="base" />
  <metadata
     id="metadata1016">
    <rdf:RDF>
      <cc:Work
         rdf:about="">
        <dc:format>image/svg+xml</dc:format>
        <dc:type
           rdf:resource="http://purl.org/dc/dcmitype/StillImage" />
        <dc:title></dc:title>
      </cc:Work>
    </rdf:RDF>
  </metadata>
  <g
     transform="translate(-5.2285425,-6.8398416)"
     id="layer1"
     inkscape:groupmode="layer"
     inkscape:label="Calque 1">
    <path
       d="m 11.34165,6.9753529 c -2.6726134,0.0254 -4.8505364,0.24946 -5.3500614,0.90898 -0.765459,0.38273 -0.757864,1.33038 -0.379822,1.70843 0.02413,0.0241 3.270638,0 3.796151,0 7.7395804,0 15.7241994,-0.37982 23.6290484,-0.37982 1.026128,0 3.661584,0.23531 6.35517,0.43098 0.03344,-0.004 0.06865,-0.007 0.106452,-0.007 h 1.547193 c 0.22963,0.0161 0.465183,-0.0238 0.694013,0 0.01077,10e-4 0.02133,0.004 0.03204,0.005 0.128466,-0.0197 0.25795,-0.0382 0.385506,-0.0388 0.0581,-2.6e-4 0.115668,0.005 0.172598,0.0134 0.130011,-0.0338 0.262493,-0.0529 0.398426,-0.0501 0.104775,0.002 0.211278,0.0157 0.31936,0.0413 0.03892,0.009 0.09594,0.007 0.125058,0.0284 0.171053,1.7e-4 0.342114,6.1e-4 0.513146,5.3e-4 0.0038,7.2e-4 0.0021,3.5e-4 0.0057,0.001 0.117912,6.6e-4 0.290907,-0.001 0.310574,-0.001 0.202546,0.002 0.405164,3.7e-4 0.607716,0 0.08256,-1.5e-4 0.165679,-0.0112 0.247531,-5.3e-4 7.94e-4,10e-5 0.0013,4.3e-4 0.0021,5.3e-4 h 0.959115 c 0.111906,-0.009 0.0079,8.2e-4 0.372586,-0.0677 0.03541,-0.007 0.07234,-10e-4 0.107487,-0.009 0.305639,-0.069 -0.08122,-0.0381 0.375687,-0.11214 0.02818,-0.005 0.05663,-0.004 0.08527,-0.003 0.02864,10e-4 0.05724,0.003 0.08578,0.003 h 0.589627 c 1.815763,-0.44955 5.681278,-0.72227 6.859013,-0.3297 1.369753,0.45659 3.584032,-0.3221 4.86792,0.25683 0.05367,-0.0127 0.112697,-0.0212 0.180351,-0.0212 h 0.510045 c 0.04958,-0.009 0.09899,-0.0195 0.149347,-0.0264 0.0024,-0.0388 0.0047,-0.0838 0.0062,-0.0909 0.0026,-0.0125 0.0029,0.0321 0.0026,0.0894 0.271584,-0.0359 0.55394,-0.0303 0.821656,-0.0186 0.182004,0.008 0.362717,0.0254 0.543118,0.0465 h 0.636653 0.618051 0.851628 c 0.02119,0 0.04265,-0.004 0.06408,-0.005 0.02143,-0.002 0.04283,-10e-4 0.06305,0.005 0.07331,0.023 0.141198,0.0596 0.209807,0.0946 h 0.939477 0.63872 c 0.176718,-0.002 0.346739,0.0568 0.518832,0.094 h 1.212845 1.145154 c 0.47472,0 0.94948,0 1.4242,0 0.29039,0 0.58088,-10e-6 0.87126,0 0.0658,0 0.13161,-10e-6 0.19741,0 0.25766,-0.19445 0.59817,-0.11047 0.90382,-0.0842 0.25257,-0.008 0.50471,-0.0137 0.75757,-0.0114 0.343,0.004 0.68638,0.002 1.0294,10e-4 0.006,-0.006 0.0161,-0.0168 0.0212,-0.0222 0.14834,-0.15732 0.24644,-0.1551 0.44235,-0.20826 0.26082,-0.006 0.51321,0.0818 0.77463,0.0465 0.0563,-0.008 0.10652,-0.008 0.154,-0.005 2.30828,-0.17233 6.0706,1.1320601 7.43882,-0.23616 0.11808,-0.11808 -0.0497,-0.57488 -0.0946,-0.66456 -0.67722,-1.35452 -2.53927,-0.94879 -3.98576,-0.94879 H 57.805077 c -6.30065,0 -12.569658,0.37983 -19.074286,0.37983 -1.018072,0 -2.541931,0.15257 -3.394109,-0.31213 -0.02707,0.006 -0.0509,0.008 -0.05323,-0.0129 -0.187266,0.002 -0.492717,0.007 -0.496093,-10e-4 -0.02154,-1.2e-4 -0.03962,2e-5 -0.05684,0 -0.02246,-2e-5 -0.06908,0.0224 -0.06718,0 0.0036,-0.0422 0.009,-0.0847 0.01394,-0.12712 -0.302392,-0.018 -0.717312,-0.0291 -1.210263,-0.0357 -0.08534,0.0182 -0.171108,0.035 -0.255796,0.0558 -0.202843,0.0498 -0.359915,0.0151 -0.459404,-0.0589 -3.196416,-0.0147 -8.486537,0.11214 -9.583913,0.11214 -1.751872,0 -6.554724,-0.3951 -10.654129,-0.43409 -0.398553,-0.004 -0.790219,-0.004 -1.172021,-5.3e-4 z"
       style="fill:#3d1319;fill-opacity:1;stroke:#000000;stroke-width:0.264583px;stroke-linecap:butt;stroke-linejoin:miter;stroke-opacity:1"
       id="path1033" />
  </g>
</svg>
