<?xml version="1.0" encoding="UTF-8" standalone="no"?>
<svg
   xmlns:dc="http://purl.org/dc/elements/1.1/"
   xmlns:cc="http://creativecommons.org/ns#"
   xmlns:rdf="http://www.w3.org/1999/02/22-rdf-syntax-ns#"
   xmlns:svg="http://www.w3.org/2000/svg"
   xmlns="http://www.w3.org/2000/svg"
   xmlns:sodipodi="http://sodipodi.sourceforge.net/DTD/sodipodi-0.dtd"
   xmlns:inkscape="http://www.inkscape.org/namespaces/inkscape"
   inkscape:version="1.0 (4035a4fb49, 2020-05-01)"
   sodipodi:docname="dessin.svg"
   id="svg988"
   version="1.1"
   viewBox="0 0 77.997116 3.6019549"
   height="3.6019549mm"
   width="77.997116mm">
  <defs
     id="defs982" />
  <sodipodi:namedview
     showguides="false"
     inkscape:window-maximized="0"
     inkscape:window-y="0"
     inkscape:window-x="224"
     inkscape:window-height="1030"
     inkscape:window-width="1635"
     showgrid="false"
     inkscape:document-rotation="0"
     inkscape:current-layer="layer1"
     inkscape:document-units="mm"
     inkscape:cy="641.09254"
     inkscape:cx="507.3961"
     inkscape:zoom="0.35"
     inkscape:pageshadow="2"
     inkscape:pageopacity="0.0"
     borderopacity="1.0"
     bordercolor="#666666"
     pagecolor="#ffffff"
     id="base" />
  <metadata
     id="metadata985">
    <rdf:RDF>
      <cc:Work
         rdf:about="">
        <dc:format>image/svg+xml</dc:format>
        <dc:type
           rdf:resource="http://purl.org/dc/dcmitype/StillImage" />
        <dc:title></dc:title>
      </cc:Work>
    </rdf:RDF>
  </metadata>
  <g
     transform="translate(-4.8466856,-7.270456)"
     id="layer1"
     inkscape:groupmode="layer"
     inkscape:label="Calque 1">
    <path
       style="fill:#411319;fill-opacity:1;stroke:#000000;stroke-width:0.264583px;stroke-linecap:butt;stroke-linejoin:miter;stroke-opacity:1"
       d="m 5.4364496,8.1515562 c 0.920929,-0.14021 1.325808,-0.33145 2.277522,-0.56938 0.9965113,-0.24913 8.6892404,-0.25788 9.3947834,0.0949 0.299226,0.14962 5.219322,0.32433 5.219322,0.28469 0,-0.18979 0.379587,0 0.569381,0 0.664278,0 1.328552,0 1.992832,0 2.0561,0 4.11219,0 6.16829,0 4.44094,0 8.23531,0.37959 12.62127,0.37959 1.00443,0 3.53411,0.46302 4.46015,0 0.69075,-0.34537 9.37251,-0.43817 9.86927,-0.18979 1.04687,0.52343 2.93019,0.37958 4.17546,0.37958 5.66218,0 11.32434,0 16.98653,0 2.70057,0 1.7707,-0.41193 3.32137,1.13877 0.075,0.0749 0.3057,0.24271 0.18981,0.4744798 -0.0725,0.14504 -1.83875,0 -2.08775,0 -2.12378,0 -4.99197,0.18979 -7.30705,0.18979 -4.31827,0 -8.03229,0.28469 -12.24167,0.28469 -1.10456,0 -2.53568,0.2676 -3.60608,0 -3.19908,-0.7997698 -7.13039,-0.28469 -10.43865,-0.28469 -4.78545,0 -9.49677,-0.18979 -14.32941,-0.18979 -5.80836,0 -11.574007,-0.3795898 -17.46101,-0.3795898 -1.308328,0 -8.1670694,0.18385 -8.5407114,-0.18979 -0.367279,-0.36728 -2.647947,-0.71631 -1.233659,-1.42345 z"
       id="path55" />
  </g>
</svg>
