<?xml version="1.0" standalone="no"?>
<!DOCTYPE svg PUBLIC "-//W3C//DTD SVG 20010904//EN"
 "http://www.w3.org/TR/2001/REC-SVG-20010904/DTD/svg10.dtd">
<svg version="1.0" xmlns="http://www.w3.org/2000/svg"
 width="56.000000pt" height="4.000000pt" viewBox="0 0 900.000000 90.000000"
 preserveAspectRatio="xMidYMid meet">
<metadata>
Created by potrace 1.10, written by Peter Selinger 2001-2011
</metadata>
<g transform="translate(0.000000,90.000000) scale(0.100000,-0.100000)"
fill="#000000" stroke="none">
<path d="M1175 683 c-11 -3 -26 -10 -33 -16 -29 -23 -176 -64 -332 -91 -47 -8
-116 -20 -155 -27 -79 -14 -168 -22 -435 -39 -179 -12 -209 -17 -196 -38 9
-15 57 -21 216 -28 80 -3 184 -10 233 -15 222 -23 269 -29 280 -36 7 -4 35
-10 62 -14 54 -7 131 -24 180 -41 17 -5 41 -12 55 -15 14 -3 50 -16 80 -30 62
-29 70 -30 200 -15 52 6 160 14 240 17 80 4 186 11 235 16 50 5 155 9 235 9
80 1 192 5 250 11 58 5 168 11 245 14 136 4 417 15 580 22 44 2 193 6 330 8
138 3 423 12 635 20 212 8 552 17 755 20 204 2 642 9 975 15 639 10 2211 24
2589 23 l224 -1 -26 25 -25 25 -973 4 c-536 3 -1134 9 -1329 14 -195 6 -517
10 -715 10 -198 0 -529 7 -735 15 -206 8 -499 15 -650 15 -151 0 -356 5 -455
10 -99 5 -286 12 -415 15 -258 7 -432 12 -585 19 -55 2 -163 7 -240 10 -77 3
-203 9 -280 12 -77 3 -149 6 -160 6 -11 0 -76 4 -145 9 -69 4 -180 10 -247 13
-68 3 -126 7 -131 10 -4 2 -59 7 -122 10 -63 4 -133 8 -155 10 -22 3 -49 2
-60 -1z m360 -113 c72 -5 171 -12 220 -15 50 -2 119 -7 155 -10 36 -3 117 -7
180 -10 63 -3 196 -10 295 -16 99 -5 227 -12 285 -14 217 -9 290 -14 300 -20
21 -13 -3 -25 -48 -24 -26 0 -81 -2 -122 -4 -84 -6 -270 -16 -405 -22 -219
-10 -545 -26 -595 -30 -30 -3 -77 -7 -105 -10 -27 -2 -144 -10 -258 -16 -220
-11 -257 -8 -362 32 -27 10 -68 23 -90 29 -22 5 -47 14 -55 20 -13 8 -13 11 0
24 15 15 129 58 205 78 22 6 49 14 60 19 21 9 114 6 340 -11z"/>
</g>
</svg>
