<?xml version="1.0" standalone="no"?>
<!DOCTYPE svg PUBLIC "-//W3C//DTD SVG 20010904//EN"
 "http://www.w3.org/TR/2001/REC-SVG-20010904/DTD/svg10.dtd">
<svg version="1.0" xmlns="http://www.w3.org/2000/svg"
 width="50.000000pt" height="40.000000pt" viewBox="0 0 158.000000 167.000000"
 preserveAspectRatio="xMidYMid meet">
<metadata>
Created by potrace 1.10, written by Peter Selinger 2001-2011
</metadata>
<g transform="translate(0.000000,167.000000) scale(0.100000,-0.100000)"
fill="#000000" stroke="none">
<path d="M1440 1589 c-25 -4 -106 -18 -180 -30 -233 -37 -486 -108 -805 -225
l-40 -15 3 -466 c3 -447 3 -465 -15 -458 -64 29 -191 3 -258 -52 -102 -85 -99
-209 7 -265 65 -35 175 -32 243 6 61 34 92 61 113 101 15 26 17 82 20 460 l2
430 38 13 c57 20 267 71 362 87 97 16 364 45 421 45 l39 0 0 -349 0 -350 -31
11 c-70 24 -189 -10 -257 -75 -83 -79 -81 -169 5 -234 34 -26 43 -28 132 -28
80 0 103 4 137 22 45 24 100 82 115 120 11 29 13 1264 2 1262 -5 -1 -28 -5
-53 -10z m40 -628 l0 -609 -33 -44 c-44 -58 -104 -89 -180 -95 -80 -7 -135 9
-172 47 -25 26 -30 39 -28 75 1 23 8 56 17 73 36 70 175 125 260 103 35 -9 43
-8 54 6 17 24 18 698 0 709 -18 11 -90 12 -181 3 -45 -5 -111 -11 -145 -15
-35 -3 -72 -7 -82 -9 -10 -2 -40 -7 -67 -10 -133 -19 -384 -87 -403 -110 -8
-10 -11 -131 -10 -422 0 -244 -4 -422 -10 -442 -21 -74 -115 -137 -218 -145
-104 -8 -192 51 -192 129 0 61 67 134 145 158 79 24 92 26 132 17 29 -7 42 -5
55 7 17 15 18 48 18 463 l0 446 73 32 c139 61 372 132 597 182 87 20 311 57
353 59 16 1 17 -34 17 -608z"/>
<path d="M1240 1465 c-122 -19 -272 -52 -370 -81 -170 -51 -325 -106 -342
-121 -24 -21 -26 -121 -3 -129 8 -4 82 12 163 34 194 54 352 88 545 116 87 13
161 26 164 30 4 4 9 36 11 71 7 101 -2 105 -168 80z m150 -75 l0 -70 -33 0
c-130 0 -723 -125 -807 -170 -10 -5 -20 -10 -22 -10 -11 0 2 104 14 111 29 20
382 129 499 154 137 31 266 52 317 54 l32 1 0 -70z"/>
</g>
</svg>
